G04 #@! TF.FileFunction,Paste,Bot*
%FSLAX46Y46*%
G04 Gerber Fmt 4.6, Leading zero omitted, Abs format (unit mm)*
G04 Created by KiCad (PCBNEW 4.0.7-e0-6372~58~ubuntu16.10.1) date Fri Aug 10 15:11:26 2018*
%MOMM*%
%LPD*%
G01*
G04 APERTURE LIST*
%ADD10C,0.100000*%
%ADD11R,0.500000X0.900000*%
%ADD12R,0.750000X0.800000*%
%ADD13R,0.900000X0.500000*%
%ADD14R,0.800000X0.800000*%
%ADD15O,0.750000X0.200000*%
%ADD16O,0.200000X0.750000*%
%ADD17R,0.555000X0.555000*%
%ADD18R,0.900000X0.800000*%
%ADD19R,2.200000X2.800000*%
%ADD20R,2.800000X2.800000*%
%ADD21R,0.900000X1.700000*%
%ADD22R,2.100000X0.750000*%
G04 APERTURE END LIST*
D10*
D11*
X140500000Y-89200000D03*
X139000000Y-89200000D03*
D12*
X143300000Y-99500000D03*
X143300000Y-101000000D03*
X144900000Y-99500000D03*
X144900000Y-101000000D03*
X154900000Y-102100000D03*
X154900000Y-103600000D03*
D13*
X148700000Y-88800000D03*
X148700000Y-90300000D03*
D12*
X153600000Y-103600000D03*
X153600000Y-102100000D03*
X152300000Y-103600000D03*
X152300000Y-102100000D03*
X135059793Y-101992047D03*
X135059793Y-103492047D03*
D11*
X148650000Y-101000000D03*
X147150000Y-101000000D03*
X148610000Y-99470000D03*
X147110000Y-99470000D03*
D13*
X155200000Y-88800000D03*
X155200000Y-90300000D03*
D14*
X151100000Y-85800000D03*
X152700000Y-85800000D03*
D12*
X151000000Y-103600000D03*
X151000000Y-102100000D03*
D15*
X138237500Y-101562500D03*
X138237500Y-101162500D03*
X138237500Y-100762500D03*
X138237500Y-100362500D03*
X138237500Y-99962500D03*
D16*
X138937500Y-99262500D03*
X139337500Y-99262500D03*
X139737500Y-99262500D03*
X140137500Y-99262500D03*
X140537500Y-99262500D03*
D15*
X141237500Y-99962500D03*
X141237500Y-100362500D03*
X141237500Y-100762500D03*
X141237500Y-101162500D03*
X141237500Y-101562500D03*
D16*
X140537500Y-102262500D03*
X140137500Y-102262500D03*
X139737500Y-102262500D03*
X139337500Y-102262500D03*
X138937500Y-102262500D03*
D17*
X140200000Y-100300000D03*
X140200000Y-101225000D03*
X139275000Y-100300000D03*
X139275000Y-101225000D03*
D18*
X133459793Y-101842047D03*
X133459793Y-103742047D03*
X131459793Y-102792047D03*
D19*
X133100000Y-91700000D03*
X135100000Y-99100000D03*
D20*
X142500000Y-91700000D03*
D21*
X150300000Y-88400000D03*
X153700000Y-88400000D03*
D22*
X133000000Y-84120000D03*
X136600000Y-84120000D03*
X133000000Y-85390000D03*
X136600000Y-85390000D03*
X133000000Y-86660000D03*
X136600000Y-86660000D03*
X133000000Y-87930000D03*
X136600000Y-87930000D03*
X133000000Y-89200000D03*
X136600000Y-89200000D03*
M02*
