M48
;DRILL file {KiCad 4.0.7-e0-6372~58~ubuntu16.10.1} date Fri Aug 10 15:11:46 2018
;FORMAT={2:4/ absolute / inch / suppress leading zeros}
FMAT,2
INCH,TZ
T1C0.016
T2C0.020
T3C0.022
T4C0.039
T5C0.067
%
G90
G05
M72
T1
X51693Y-35276
X51714Y-34646
X51732Y-32795
X51732Y-33425
X51732Y-34094
X52126Y-40472
X52402Y-32795
X52402Y-39252
X52530Y-37970
X52559Y-40472
X52795Y-38268
X52953Y-36929
X52992Y-39803
X53031Y-32795
X53110Y-33346
X53622Y-32795
X53706Y-35435
X53858Y-39813
X54173Y-41181
X54173Y-36102
X54257Y-40761
X54291Y-32795
X54354Y-35317
X54488Y-34646
X54528Y-33110
X54528Y-33583
X54528Y-34055
X54685Y-36299
X54685Y-38386
X54833Y-39488
X54833Y-39852
X54988Y-38386
X55197Y-36339
X55197Y-39488
X55197Y-39852
X55276Y-38386
X55307Y-36622
X55337Y-35352
X55453Y-41251
X55591Y-38386
X55630Y-36969
X55702Y-40742
X55967Y-36857
X56045Y-39640
X56102Y-39921
X56219Y-40798
X56378Y-41063
X56417Y-38896
X57283Y-35433
X57374Y-41311
X57387Y-39595
X57402Y-39882
X57756Y-40593
X57795Y-37008
X57835Y-34921
X57953Y-35551
X58701Y-37717
X58819Y-39921
X58898Y-36063
X59016Y-40236
X59134Y-37362
X59370Y-39724
X59606Y-32795
X59606Y-33071
X59606Y-33386
X59679Y-39730
X59988Y-39723
X60303Y-39724
X60630Y-39724
X60945Y-39724
T4
X51937Y-42024
X52937Y-42024
X53937Y-42024
X54937Y-42024
X55937Y-42024
X56937Y-42024
X57937Y-42024
X58937Y-42024
X59937Y-42024
X60937Y-42024
T5
X52835Y-37559
X55591Y-37559
T2
X60994Y-36181G85X60738Y-36181
G05
X60994Y-38937G85X60738Y-38937
G05
T3
X59803Y-36634G85X59803Y-36516
G05
X59803Y-38602G85X59803Y-38484
G05
T0
M30
