G04 #@! TF.FileFunction,Soldermask,Top*
%FSLAX46Y46*%
G04 Gerber Fmt 4.6, Leading zero omitted, Abs format (unit mm)*
G04 Created by KiCad (PCBNEW 4.0.7-e0-6372~58~ubuntu16.10.1) date Fri Aug 10 15:11:26 2018*
%MOMM*%
%LPD*%
G01*
G04 APERTURE LIST*
%ADD10C,0.100000*%
%ADD11R,1.000000X1.800000*%
%ADD12R,0.900000X0.850000*%
%ADD13R,1.000000X0.600000*%
%ADD14R,1.900860X1.499540*%
%ADD15R,0.850000X0.900000*%
%ADD16R,1.450000X0.500000*%
%ADD17O,1.050000X1.350000*%
%ADD18O,1.650000X1.100000*%
%ADD19R,1.800000X0.750000*%
%ADD20R,1.800000X1.800000*%
%ADD21O,1.800000X1.800000*%
%ADD22C,1.800000*%
%ADD23R,1.448740X0.389560*%
%ADD24R,0.389560X1.448740*%
%ADD25R,0.750000X1.160000*%
G04 APERTURE END LIST*
D10*
D11*
X151600000Y-102200000D03*
X155000000Y-102200000D03*
D12*
X144300000Y-104200000D03*
X145800000Y-104200000D03*
X137285120Y-84192876D03*
X135785120Y-84192876D03*
X135900000Y-102200000D03*
X134400000Y-102200000D03*
D13*
X132100000Y-99650000D03*
X132100000Y-98150000D03*
D12*
X140000000Y-104600000D03*
X138500000Y-104600000D03*
X147400000Y-102500000D03*
X148900000Y-102500000D03*
D14*
X132685120Y-88290636D03*
X137084400Y-88290636D03*
X137084400Y-85892876D03*
X132685120Y-85892876D03*
D15*
X149600000Y-92600000D03*
X149600000Y-94100000D03*
D12*
X137100000Y-90700000D03*
X135600000Y-90700000D03*
D15*
X134100000Y-99700000D03*
X134100000Y-98200000D03*
D12*
X153950000Y-83900000D03*
X152450000Y-83900000D03*
D16*
X151900000Y-96700000D03*
X151900000Y-96050000D03*
X151900000Y-95400000D03*
X151900000Y-94750000D03*
X151900000Y-94100000D03*
D17*
X151900000Y-97900000D03*
X151900000Y-92900000D03*
D18*
X154600000Y-98900000D03*
X154600000Y-91900000D03*
D19*
X141000000Y-84560000D03*
X141000000Y-85830000D03*
X141000000Y-87100000D03*
X141000000Y-88370000D03*
X148300000Y-88370000D03*
X148300000Y-87100000D03*
X148300000Y-85830000D03*
X148300000Y-84560000D03*
D15*
X150300000Y-85700000D03*
X150300000Y-84200000D03*
D12*
X134035120Y-84192876D03*
X132535120Y-84192876D03*
X153900000Y-89400000D03*
X152400000Y-89400000D03*
D20*
X131920000Y-106740000D03*
D21*
X134460000Y-106740000D03*
X137000000Y-106740000D03*
X139540000Y-106740000D03*
X142080000Y-106740000D03*
X144620000Y-106740000D03*
X147160000Y-106740000D03*
X149700000Y-106740000D03*
X152240000Y-106740000D03*
X154780000Y-106740000D03*
D22*
X134200000Y-95400000D03*
X141200000Y-95400000D03*
D23*
X136477380Y-93050960D03*
X136477380Y-93551340D03*
X136477380Y-94051720D03*
X136477380Y-94552100D03*
X136477380Y-95052480D03*
X136477380Y-95550320D03*
X136477380Y-96050700D03*
X136477380Y-96551080D03*
X136477380Y-97048920D03*
X136477380Y-97549300D03*
X136477380Y-98049680D03*
X136477380Y-98547520D03*
X136477380Y-99047900D03*
X136477380Y-99548280D03*
X136477380Y-100048660D03*
X136477380Y-100549040D03*
D24*
X138450960Y-102522620D03*
X138951340Y-102522620D03*
X139451720Y-102522620D03*
X139952100Y-102522620D03*
X140452480Y-102522620D03*
X140950320Y-102522620D03*
X141450700Y-102522620D03*
X141951080Y-102522620D03*
X142448920Y-102522620D03*
X142949300Y-102522620D03*
X143449680Y-102522620D03*
X143947520Y-102522620D03*
X144447900Y-102522620D03*
X144948280Y-102522620D03*
X145448660Y-102522620D03*
X145949040Y-102522620D03*
D23*
X147922620Y-100549040D03*
X147922620Y-100048660D03*
X147922620Y-99548280D03*
X147922620Y-99047900D03*
X147922620Y-98547520D03*
X147922620Y-98049680D03*
X147922620Y-97549300D03*
X147922620Y-97048920D03*
X147922620Y-96551080D03*
X147922620Y-96050700D03*
X147922620Y-95550320D03*
X147922620Y-95052480D03*
X147922620Y-94552100D03*
X147922620Y-94051720D03*
X147922620Y-93551340D03*
X147922620Y-93050960D03*
D24*
X145949040Y-91077380D03*
X145448660Y-91077380D03*
X144948280Y-91077380D03*
X144447900Y-91077380D03*
X143947520Y-91077380D03*
X143449680Y-91077380D03*
X142949300Y-91077380D03*
X142448920Y-91077380D03*
X141951080Y-91077380D03*
X141450700Y-91077380D03*
X140950320Y-91077380D03*
X140452480Y-91077380D03*
X139952100Y-91077380D03*
X139451720Y-91077380D03*
X138951340Y-91077380D03*
X138450960Y-91077380D03*
D25*
X152200000Y-87700000D03*
X153150000Y-87700000D03*
X154100000Y-87700000D03*
X154100000Y-85500000D03*
X152200000Y-85500000D03*
M02*
