G04 #@! TF.FileFunction,Legend,Top*
%FSLAX46Y46*%
G04 Gerber Fmt 4.6, Leading zero omitted, Abs format (unit mm)*
G04 Created by KiCad (PCBNEW 4.0.7-e0-6372~58~ubuntu16.10.1) date Fri Aug 10 15:11:26 2018*
%MOMM*%
%LPD*%
G01*
G04 APERTURE LIST*
%ADD10C,0.100000*%
%ADD11C,0.120000*%
%ADD12C,0.200000*%
%ADD13C,0.150000*%
%ADD14C,0.002540*%
G04 APERTURE END LIST*
D10*
D11*
X131547143Y-96971428D02*
X131547143Y-97171428D01*
X131861429Y-97171428D02*
X131261429Y-97171428D01*
X131261429Y-96885714D01*
X131861429Y-96399999D02*
X131547143Y-96399999D01*
X131490000Y-96428570D01*
X131461429Y-96485713D01*
X131461429Y-96599999D01*
X131490000Y-96657142D01*
X131832857Y-96399999D02*
X131861429Y-96457142D01*
X131861429Y-96599999D01*
X131832857Y-96657142D01*
X131775714Y-96685713D01*
X131718571Y-96685713D01*
X131661429Y-96657142D01*
X131632857Y-96599999D01*
X131632857Y-96457142D01*
X131604286Y-96399999D01*
X131861429Y-96114285D02*
X131261429Y-96114285D01*
X131490000Y-96114285D02*
X131461429Y-96057142D01*
X131461429Y-95942856D01*
X131490000Y-95885713D01*
X131518571Y-95857142D01*
X131575714Y-95828571D01*
X131747143Y-95828571D01*
X131804286Y-95857142D01*
X131832857Y-95885713D01*
X131861429Y-95942856D01*
X131861429Y-96057142D01*
X131832857Y-96114285D01*
X131861429Y-95571428D02*
X131461429Y-95571428D01*
X131261429Y-95571428D02*
X131290000Y-95599999D01*
X131318571Y-95571428D01*
X131290000Y-95542856D01*
X131261429Y-95571428D01*
X131318571Y-95571428D01*
X131832857Y-95057142D02*
X131861429Y-95114285D01*
X131861429Y-95228571D01*
X131832857Y-95285714D01*
X131775714Y-95314285D01*
X131547143Y-95314285D01*
X131490000Y-95285714D01*
X131461429Y-95228571D01*
X131461429Y-95114285D01*
X131490000Y-95057142D01*
X131547143Y-95028571D01*
X131604286Y-95028571D01*
X131661429Y-95314285D01*
X131461429Y-94771428D02*
X131861429Y-94771428D01*
X131518571Y-94771428D02*
X131490000Y-94742856D01*
X131461429Y-94685714D01*
X131461429Y-94599999D01*
X131490000Y-94542856D01*
X131547143Y-94514285D01*
X131861429Y-94514285D01*
X131804286Y-94228571D02*
X131832857Y-94199999D01*
X131861429Y-94228571D01*
X131832857Y-94257142D01*
X131804286Y-94228571D01*
X131861429Y-94228571D01*
X131804286Y-93600000D02*
X131832857Y-93628571D01*
X131861429Y-93714285D01*
X131861429Y-93771428D01*
X131832857Y-93857143D01*
X131775714Y-93914285D01*
X131718571Y-93942857D01*
X131604286Y-93971428D01*
X131518571Y-93971428D01*
X131404286Y-93942857D01*
X131347143Y-93914285D01*
X131290000Y-93857143D01*
X131261429Y-93771428D01*
X131261429Y-93714285D01*
X131290000Y-93628571D01*
X131318571Y-93600000D01*
X132338571Y-96428572D02*
X132310000Y-96400001D01*
X132281429Y-96342858D01*
X132281429Y-96200001D01*
X132310000Y-96142858D01*
X132338571Y-96114287D01*
X132395714Y-96085715D01*
X132452857Y-96085715D01*
X132538571Y-96114287D01*
X132881429Y-96457144D01*
X132881429Y-96085715D01*
X132281429Y-95714286D02*
X132281429Y-95657143D01*
X132310000Y-95600000D01*
X132338571Y-95571429D01*
X132395714Y-95542858D01*
X132510000Y-95514286D01*
X132652857Y-95514286D01*
X132767143Y-95542858D01*
X132824286Y-95571429D01*
X132852857Y-95600000D01*
X132881429Y-95657143D01*
X132881429Y-95714286D01*
X132852857Y-95771429D01*
X132824286Y-95800000D01*
X132767143Y-95828572D01*
X132652857Y-95857143D01*
X132510000Y-95857143D01*
X132395714Y-95828572D01*
X132338571Y-95800000D01*
X132310000Y-95771429D01*
X132281429Y-95714286D01*
X132881429Y-94942857D02*
X132881429Y-95285714D01*
X132881429Y-95114286D02*
X132281429Y-95114286D01*
X132367143Y-95171429D01*
X132424286Y-95228571D01*
X132452857Y-95285714D01*
X132538571Y-94600000D02*
X132510000Y-94657142D01*
X132481429Y-94685714D01*
X132424286Y-94714285D01*
X132395714Y-94714285D01*
X132338571Y-94685714D01*
X132310000Y-94657142D01*
X132281429Y-94600000D01*
X132281429Y-94485714D01*
X132310000Y-94428571D01*
X132338571Y-94400000D01*
X132395714Y-94371428D01*
X132424286Y-94371428D01*
X132481429Y-94400000D01*
X132510000Y-94428571D01*
X132538571Y-94485714D01*
X132538571Y-94600000D01*
X132567143Y-94657142D01*
X132595714Y-94685714D01*
X132652857Y-94714285D01*
X132767143Y-94714285D01*
X132824286Y-94685714D01*
X132852857Y-94657142D01*
X132881429Y-94600000D01*
X132881429Y-94485714D01*
X132852857Y-94428571D01*
X132824286Y-94400000D01*
X132767143Y-94371428D01*
X132652857Y-94371428D01*
X132595714Y-94400000D01*
X132567143Y-94428571D01*
X132538571Y-94485714D01*
X152550001Y-104716667D02*
X152550001Y-104016667D01*
X152716667Y-104016667D01*
X152816667Y-104050000D01*
X152883334Y-104116667D01*
X152916667Y-104183333D01*
X152950001Y-104316667D01*
X152950001Y-104416667D01*
X152916667Y-104550000D01*
X152883334Y-104616667D01*
X152816667Y-104683333D01*
X152716667Y-104716667D01*
X152550001Y-104716667D01*
X153483334Y-104350000D02*
X153250001Y-104350000D01*
X153250001Y-104716667D02*
X153250001Y-104016667D01*
X153583334Y-104016667D01*
X153850001Y-104016667D02*
X153850001Y-104583333D01*
X153883334Y-104650000D01*
X153916667Y-104683333D01*
X153983334Y-104716667D01*
X154116667Y-104716667D01*
X154183334Y-104683333D01*
X154216667Y-104650000D01*
X154250001Y-104583333D01*
X154250001Y-104016667D01*
D12*
X137854000Y-92400000D02*
G75*
G03X137854000Y-92400000I-154000J0D01*
G01*
D11*
X151650000Y-103300000D02*
X151650000Y-103600000D01*
X151650000Y-103600000D02*
X154950000Y-103600000D01*
X154950000Y-103600000D02*
X154950000Y-103300000D01*
X151650000Y-101100000D02*
X151650000Y-100800000D01*
X151650000Y-100800000D02*
X154950000Y-100800000D01*
X154950000Y-100800000D02*
X154950000Y-101100000D01*
D13*
X144700000Y-103600000D02*
X145400000Y-103600000D01*
X145400000Y-104800000D02*
X144700000Y-104800000D01*
X136885120Y-84792876D02*
X136185120Y-84792876D01*
X136185120Y-83592876D02*
X136885120Y-83592876D01*
X135500000Y-102800000D02*
X134800000Y-102800000D01*
X134800000Y-101600000D02*
X135500000Y-101600000D01*
X132775000Y-98400000D02*
X132775000Y-99400000D01*
X131425000Y-99400000D02*
X131425000Y-98400000D01*
D11*
X139600000Y-105200000D02*
X138900000Y-105200000D01*
X138900000Y-104000000D02*
X139600000Y-104000000D01*
X147800000Y-101900000D02*
X148500000Y-101900000D01*
X148500000Y-103100000D02*
X147800000Y-103100000D01*
D13*
X134526279Y-88041716D02*
G75*
G03X134526279Y-88041716I-141899J0D01*
G01*
X135585800Y-88940876D02*
X134183720Y-88940876D01*
X134183720Y-85242636D02*
X135585800Y-85242636D01*
D11*
X150200000Y-93000000D02*
X150200000Y-93700000D01*
X149000000Y-93700000D02*
X149000000Y-93000000D01*
X136700000Y-91300000D02*
X136000000Y-91300000D01*
X136000000Y-90100000D02*
X136700000Y-90100000D01*
X133500000Y-99300000D02*
X133500000Y-98600000D01*
X134700000Y-98600000D02*
X134700000Y-99300000D01*
X153550000Y-84500000D02*
X152850000Y-84500000D01*
X152850000Y-83300000D02*
X153550000Y-83300000D01*
X157280000Y-99750000D02*
X157280000Y-91050000D01*
X150870000Y-99750000D02*
X150870000Y-91050000D01*
X150870000Y-91050000D02*
X157280000Y-91050000D01*
X156050000Y-91050000D02*
X156050000Y-99750000D01*
X157280000Y-99750000D02*
X150870000Y-99750000D01*
D13*
X141900000Y-83710000D02*
X141900000Y-83915000D01*
X147400000Y-83710000D02*
X147400000Y-84010000D01*
X147400000Y-89220000D02*
X147400000Y-88920000D01*
X141900000Y-89220000D02*
X141900000Y-88920000D01*
X141900000Y-83710000D02*
X147400000Y-83710000D01*
X141900000Y-89220000D02*
X147400000Y-89220000D01*
X141900000Y-83915000D02*
X140150000Y-83915000D01*
D11*
X149700000Y-85300000D02*
X149700000Y-84600000D01*
X150900000Y-84600000D02*
X150900000Y-85300000D01*
X133635120Y-84792876D02*
X132935120Y-84792876D01*
X132935120Y-83592876D02*
X133635120Y-83592876D01*
X153500000Y-90000000D02*
X152800000Y-90000000D01*
X152800000Y-88800000D02*
X153500000Y-88800000D01*
X156110000Y-108070000D02*
X156110000Y-105410000D01*
X133190000Y-108070000D02*
X156110000Y-108070000D01*
X133190000Y-105410000D02*
X156110000Y-105410000D01*
X133190000Y-108070000D02*
X133190000Y-105410000D01*
X131920000Y-108070000D02*
X130590000Y-108070000D01*
X130590000Y-108070000D02*
X130590000Y-106740000D01*
D14*
X147198720Y-91801280D02*
X147198720Y-101798720D01*
X147198720Y-101798720D02*
X137201280Y-101798720D01*
X137201280Y-91801280D02*
X137201280Y-101798720D01*
X147198720Y-91801280D02*
X137201280Y-91801280D01*
X137201280Y-91801280D02*
X137201280Y-91801280D01*
X137201280Y-91801280D02*
X137201280Y-91801280D01*
D11*
X154760000Y-87500000D02*
X154760000Y-85700000D01*
X151540000Y-85700000D02*
X151540000Y-88150000D01*
X147183334Y-104420000D02*
X147150000Y-104453333D01*
X147050000Y-104486667D01*
X146983334Y-104486667D01*
X146883334Y-104453333D01*
X146816667Y-104386667D01*
X146783334Y-104320000D01*
X146750000Y-104186667D01*
X146750000Y-104086667D01*
X146783334Y-103953333D01*
X146816667Y-103886667D01*
X146883334Y-103820000D01*
X146983334Y-103786667D01*
X147050000Y-103786667D01*
X147150000Y-103820000D01*
X147183334Y-103853333D01*
X147850000Y-104486667D02*
X147450000Y-104486667D01*
X147650000Y-104486667D02*
X147650000Y-103786667D01*
X147583334Y-103886667D01*
X147516667Y-103953333D01*
X147450000Y-103986667D01*
X138550000Y-84316666D02*
X138583333Y-84350000D01*
X138616667Y-84450000D01*
X138616667Y-84516666D01*
X138583333Y-84616666D01*
X138516667Y-84683333D01*
X138450000Y-84716666D01*
X138316667Y-84750000D01*
X138216667Y-84750000D01*
X138083333Y-84716666D01*
X138016667Y-84683333D01*
X137950000Y-84616666D01*
X137916667Y-84516666D01*
X137916667Y-84450000D01*
X137950000Y-84350000D01*
X137983333Y-84316666D01*
X137916667Y-84083333D02*
X137916667Y-83650000D01*
X138183333Y-83883333D01*
X138183333Y-83783333D01*
X138216667Y-83716666D01*
X138250000Y-83683333D01*
X138316667Y-83650000D01*
X138483333Y-83650000D01*
X138550000Y-83683333D01*
X138583333Y-83716666D01*
X138616667Y-83783333D01*
X138616667Y-83983333D01*
X138583333Y-84050000D01*
X138550000Y-84083333D01*
X137008334Y-102400000D02*
X136975000Y-102433333D01*
X136875000Y-102466667D01*
X136808334Y-102466667D01*
X136708334Y-102433333D01*
X136641667Y-102366667D01*
X136608334Y-102300000D01*
X136575000Y-102166667D01*
X136575000Y-102066667D01*
X136608334Y-101933333D01*
X136641667Y-101866667D01*
X136708334Y-101800000D01*
X136808334Y-101766667D01*
X136875000Y-101766667D01*
X136975000Y-101800000D01*
X137008334Y-101833333D01*
X137641667Y-101766667D02*
X137308334Y-101766667D01*
X137275000Y-102100000D01*
X137308334Y-102066667D01*
X137375000Y-102033333D01*
X137541667Y-102033333D01*
X137608334Y-102066667D01*
X137641667Y-102100000D01*
X137675000Y-102166667D01*
X137675000Y-102333333D01*
X137641667Y-102400000D01*
X137608334Y-102433333D01*
X137541667Y-102466667D01*
X137375000Y-102466667D01*
X137308334Y-102433333D01*
X137275000Y-102400000D01*
X131983334Y-99216667D02*
X131750000Y-98883333D01*
X131583334Y-99216667D02*
X131583334Y-98516667D01*
X131850000Y-98516667D01*
X131916667Y-98550000D01*
X131950000Y-98583333D01*
X131983334Y-98650000D01*
X131983334Y-98750000D01*
X131950000Y-98816667D01*
X131916667Y-98850000D01*
X131850000Y-98883333D01*
X131583334Y-98883333D01*
X132250000Y-98583333D02*
X132283334Y-98550000D01*
X132350000Y-98516667D01*
X132516667Y-98516667D01*
X132583334Y-98550000D01*
X132616667Y-98583333D01*
X132650000Y-98650000D01*
X132650000Y-98716667D01*
X132616667Y-98816667D01*
X132216667Y-99216667D01*
X132650000Y-99216667D01*
X141280000Y-104790000D02*
X141246666Y-104823333D01*
X141146666Y-104856667D01*
X141080000Y-104856667D01*
X140980000Y-104823333D01*
X140913333Y-104756667D01*
X140880000Y-104690000D01*
X140846666Y-104556667D01*
X140846666Y-104456667D01*
X140880000Y-104323333D01*
X140913333Y-104256667D01*
X140980000Y-104190000D01*
X141080000Y-104156667D01*
X141146666Y-104156667D01*
X141246666Y-104190000D01*
X141280000Y-104223333D01*
X141946666Y-104856667D02*
X141546666Y-104856667D01*
X141746666Y-104856667D02*
X141746666Y-104156667D01*
X141680000Y-104256667D01*
X141613333Y-104323333D01*
X141546666Y-104356667D01*
X142180000Y-104156667D02*
X142613333Y-104156667D01*
X142380000Y-104423333D01*
X142480000Y-104423333D01*
X142546667Y-104456667D01*
X142580000Y-104490000D01*
X142613333Y-104556667D01*
X142613333Y-104723333D01*
X142580000Y-104790000D01*
X142546667Y-104823333D01*
X142480000Y-104856667D01*
X142280000Y-104856667D01*
X142213333Y-104823333D01*
X142180000Y-104790000D01*
X150350000Y-102950000D02*
X150383333Y-102983334D01*
X150416667Y-103083334D01*
X150416667Y-103150000D01*
X150383333Y-103250000D01*
X150316667Y-103316667D01*
X150250000Y-103350000D01*
X150116667Y-103383334D01*
X150016667Y-103383334D01*
X149883333Y-103350000D01*
X149816667Y-103316667D01*
X149750000Y-103250000D01*
X149716667Y-103150000D01*
X149716667Y-103083334D01*
X149750000Y-102983334D01*
X149783333Y-102950000D01*
X150416667Y-102283334D02*
X150416667Y-102683334D01*
X150416667Y-102483334D02*
X149716667Y-102483334D01*
X149816667Y-102550000D01*
X149883333Y-102616667D01*
X149916667Y-102683334D01*
X149950000Y-101683333D02*
X150416667Y-101683333D01*
X149683333Y-101850000D02*
X150183333Y-102016667D01*
X150183333Y-101583333D01*
X135567733Y-86223969D02*
X135901067Y-86223969D01*
X135201067Y-86457302D02*
X135567733Y-86223969D01*
X135201067Y-85990636D01*
X135901067Y-85390636D02*
X135901067Y-85790636D01*
X135901067Y-85590636D02*
X135201067Y-85590636D01*
X135301067Y-85657302D01*
X135367733Y-85723969D01*
X135401067Y-85790636D01*
X149250000Y-95650000D02*
X149216666Y-95683333D01*
X149116666Y-95716667D01*
X149050000Y-95716667D01*
X148950000Y-95683333D01*
X148883333Y-95616667D01*
X148850000Y-95550000D01*
X148816666Y-95416667D01*
X148816666Y-95316667D01*
X148850000Y-95183333D01*
X148883333Y-95116667D01*
X148950000Y-95050000D01*
X149050000Y-95016667D01*
X149116666Y-95016667D01*
X149216666Y-95050000D01*
X149250000Y-95083333D01*
X149916666Y-95716667D02*
X149516666Y-95716667D01*
X149716666Y-95716667D02*
X149716666Y-95016667D01*
X149650000Y-95116667D01*
X149583333Y-95183333D01*
X149516666Y-95216667D01*
X150550000Y-95016667D02*
X150216667Y-95016667D01*
X150183333Y-95350000D01*
X150216667Y-95316667D01*
X150283333Y-95283333D01*
X150450000Y-95283333D01*
X150516667Y-95316667D01*
X150550000Y-95350000D01*
X150583333Y-95416667D01*
X150583333Y-95583333D01*
X150550000Y-95650000D01*
X150516667Y-95683333D01*
X150450000Y-95716667D01*
X150283333Y-95716667D01*
X150216667Y-95683333D01*
X150183333Y-95650000D01*
X135970000Y-92030000D02*
X135936666Y-92063333D01*
X135836666Y-92096667D01*
X135770000Y-92096667D01*
X135670000Y-92063333D01*
X135603333Y-91996667D01*
X135570000Y-91930000D01*
X135536666Y-91796667D01*
X135536666Y-91696667D01*
X135570000Y-91563333D01*
X135603333Y-91496667D01*
X135670000Y-91430000D01*
X135770000Y-91396667D01*
X135836666Y-91396667D01*
X135936666Y-91430000D01*
X135970000Y-91463333D01*
X136636666Y-92096667D02*
X136236666Y-92096667D01*
X136436666Y-92096667D02*
X136436666Y-91396667D01*
X136370000Y-91496667D01*
X136303333Y-91563333D01*
X136236666Y-91596667D01*
X137236667Y-91396667D02*
X137103333Y-91396667D01*
X137036667Y-91430000D01*
X137003333Y-91463333D01*
X136936667Y-91563333D01*
X136903333Y-91696667D01*
X136903333Y-91963333D01*
X136936667Y-92030000D01*
X136970000Y-92063333D01*
X137036667Y-92096667D01*
X137170000Y-92096667D01*
X137236667Y-92063333D01*
X137270000Y-92030000D01*
X137303333Y-91963333D01*
X137303333Y-91796667D01*
X137270000Y-91730000D01*
X137236667Y-91696667D01*
X137170000Y-91663333D01*
X137036667Y-91663333D01*
X136970000Y-91696667D01*
X136936667Y-91730000D01*
X136903333Y-91796667D01*
X133669000Y-101139000D02*
X133635666Y-101172333D01*
X133535666Y-101205667D01*
X133469000Y-101205667D01*
X133369000Y-101172333D01*
X133302333Y-101105667D01*
X133269000Y-101039000D01*
X133235666Y-100905667D01*
X133235666Y-100805667D01*
X133269000Y-100672333D01*
X133302333Y-100605667D01*
X133369000Y-100539000D01*
X133469000Y-100505667D01*
X133535666Y-100505667D01*
X133635666Y-100539000D01*
X133669000Y-100572333D01*
X134335666Y-101205667D02*
X133935666Y-101205667D01*
X134135666Y-101205667D02*
X134135666Y-100505667D01*
X134069000Y-100605667D01*
X134002333Y-100672333D01*
X133935666Y-100705667D01*
X134569000Y-100505667D02*
X135035667Y-100505667D01*
X134735667Y-101205667D01*
X155450000Y-84350000D02*
X155483333Y-84383334D01*
X155516667Y-84483334D01*
X155516667Y-84550000D01*
X155483333Y-84650000D01*
X155416667Y-84716667D01*
X155350000Y-84750000D01*
X155216667Y-84783334D01*
X155116667Y-84783334D01*
X154983333Y-84750000D01*
X154916667Y-84716667D01*
X154850000Y-84650000D01*
X154816667Y-84550000D01*
X154816667Y-84483334D01*
X154850000Y-84383334D01*
X154883333Y-84350000D01*
X155516667Y-83683334D02*
X155516667Y-84083334D01*
X155516667Y-83883334D02*
X154816667Y-83883334D01*
X154916667Y-83950000D01*
X154983333Y-84016667D01*
X155016667Y-84083334D01*
X155516667Y-83350000D02*
X155516667Y-83216667D01*
X155483333Y-83150000D01*
X155450000Y-83116667D01*
X155350000Y-83050000D01*
X155216667Y-83016667D01*
X154950000Y-83016667D01*
X154883333Y-83050000D01*
X154850000Y-83083333D01*
X154816667Y-83150000D01*
X154816667Y-83283333D01*
X154850000Y-83350000D01*
X154883333Y-83383333D01*
X154950000Y-83416667D01*
X155116667Y-83416667D01*
X155183333Y-83383333D01*
X155216667Y-83350000D01*
X155250000Y-83283333D01*
X155250000Y-83150000D01*
X155216667Y-83083333D01*
X155183333Y-83050000D01*
X155116667Y-83016667D01*
X142356667Y-85488333D02*
X142923333Y-85488333D01*
X142990000Y-85455000D01*
X143023333Y-85421667D01*
X143056667Y-85355000D01*
X143056667Y-85221667D01*
X143023333Y-85155000D01*
X142990000Y-85121667D01*
X142923333Y-85088333D01*
X142356667Y-85088333D01*
X142356667Y-84821667D02*
X142356667Y-84355000D01*
X143056667Y-84655000D01*
X149830000Y-86920000D02*
X149796666Y-86953333D01*
X149696666Y-86986667D01*
X149630000Y-86986667D01*
X149530000Y-86953333D01*
X149463333Y-86886667D01*
X149430000Y-86820000D01*
X149396666Y-86686667D01*
X149396666Y-86586667D01*
X149430000Y-86453333D01*
X149463333Y-86386667D01*
X149530000Y-86320000D01*
X149630000Y-86286667D01*
X149696666Y-86286667D01*
X149796666Y-86320000D01*
X149830000Y-86353333D01*
X150096666Y-86353333D02*
X150130000Y-86320000D01*
X150196666Y-86286667D01*
X150363333Y-86286667D01*
X150430000Y-86320000D01*
X150463333Y-86353333D01*
X150496666Y-86420000D01*
X150496666Y-86486667D01*
X150463333Y-86586667D01*
X150063333Y-86986667D01*
X150496666Y-86986667D01*
X150930000Y-86286667D02*
X150996667Y-86286667D01*
X151063333Y-86320000D01*
X151096667Y-86353333D01*
X151130000Y-86420000D01*
X151163333Y-86553333D01*
X151163333Y-86720000D01*
X151130000Y-86853333D01*
X151096667Y-86920000D01*
X151063333Y-86953333D01*
X150996667Y-86986667D01*
X150930000Y-86986667D01*
X150863333Y-86953333D01*
X150830000Y-86920000D01*
X150796667Y-86853333D01*
X150763333Y-86720000D01*
X150763333Y-86553333D01*
X150796667Y-86420000D01*
X150830000Y-86353333D01*
X150863333Y-86320000D01*
X150930000Y-86286667D01*
X131850000Y-84316666D02*
X131883333Y-84350000D01*
X131916667Y-84450000D01*
X131916667Y-84516666D01*
X131883333Y-84616666D01*
X131816667Y-84683333D01*
X131750000Y-84716666D01*
X131616667Y-84750000D01*
X131516667Y-84750000D01*
X131383333Y-84716666D01*
X131316667Y-84683333D01*
X131250000Y-84616666D01*
X131216667Y-84516666D01*
X131216667Y-84450000D01*
X131250000Y-84350000D01*
X131283333Y-84316666D01*
X131450000Y-83716666D02*
X131916667Y-83716666D01*
X131183333Y-83883333D02*
X131683333Y-84050000D01*
X131683333Y-83616666D01*
X155260000Y-89820000D02*
X155293333Y-89853334D01*
X155326667Y-89953334D01*
X155326667Y-90020000D01*
X155293333Y-90120000D01*
X155226667Y-90186667D01*
X155160000Y-90220000D01*
X155026667Y-90253334D01*
X154926667Y-90253334D01*
X154793333Y-90220000D01*
X154726667Y-90186667D01*
X154660000Y-90120000D01*
X154626667Y-90020000D01*
X154626667Y-89953334D01*
X154660000Y-89853334D01*
X154693333Y-89820000D01*
X155326667Y-89153334D02*
X155326667Y-89553334D01*
X155326667Y-89353334D02*
X154626667Y-89353334D01*
X154726667Y-89420000D01*
X154793333Y-89486667D01*
X154826667Y-89553334D01*
X154926667Y-88753333D02*
X154893333Y-88820000D01*
X154860000Y-88853333D01*
X154793333Y-88886667D01*
X154760000Y-88886667D01*
X154693333Y-88853333D01*
X154660000Y-88820000D01*
X154626667Y-88753333D01*
X154626667Y-88620000D01*
X154660000Y-88553333D01*
X154693333Y-88520000D01*
X154760000Y-88486667D01*
X154793333Y-88486667D01*
X154860000Y-88520000D01*
X154893333Y-88553333D01*
X154926667Y-88620000D01*
X154926667Y-88753333D01*
X154960000Y-88820000D01*
X154993333Y-88853333D01*
X155060000Y-88886667D01*
X155193333Y-88886667D01*
X155260000Y-88853333D01*
X155293333Y-88820000D01*
X155326667Y-88753333D01*
X155326667Y-88620000D01*
X155293333Y-88553333D01*
X155260000Y-88520000D01*
X155193333Y-88486667D01*
X155060000Y-88486667D01*
X154993333Y-88520000D01*
X154960000Y-88553333D01*
X154926667Y-88620000D01*
D10*
X152666667Y-86216667D02*
X152666667Y-86783333D01*
X152700000Y-86850000D01*
X152733333Y-86883333D01*
X152800000Y-86916667D01*
X152933333Y-86916667D01*
X153000000Y-86883333D01*
X153033333Y-86850000D01*
X153066667Y-86783333D01*
X153066667Y-86216667D01*
X153733333Y-86216667D02*
X153400000Y-86216667D01*
X153366666Y-86550000D01*
X153400000Y-86516667D01*
X153466666Y-86483333D01*
X153633333Y-86483333D01*
X153700000Y-86516667D01*
X153733333Y-86550000D01*
X153766666Y-86616667D01*
X153766666Y-86783333D01*
X153733333Y-86850000D01*
X153700000Y-86883333D01*
X153633333Y-86916667D01*
X153466666Y-86916667D01*
X153400000Y-86883333D01*
X153366666Y-86850000D01*
M02*
