G04 #@! TF.FileFunction,Copper,L1,Top,Signal*
%FSLAX46Y46*%
G04 Gerber Fmt 4.6, Leading zero omitted, Abs format (unit mm)*
G04 Created by KiCad (PCBNEW 4.0.7-e0-6372~58~ubuntu16.10.1) date Fri Aug 10 15:11:26 2018*
%MOMM*%
%LPD*%
G01*
G04 APERTURE LIST*
%ADD10C,0.100000*%
%ADD11R,0.900000X1.700000*%
%ADD12R,0.800000X0.750000*%
%ADD13R,0.900000X0.500000*%
%ADD14R,1.800860X1.399540*%
%ADD15R,0.750000X0.800000*%
%ADD16R,1.350000X0.400000*%
%ADD17O,0.950000X1.250000*%
%ADD18O,1.550000X1.000000*%
%ADD19R,1.700000X0.650000*%
%ADD20R,1.700000X1.700000*%
%ADD21O,1.700000X1.700000*%
%ADD22R,1.348740X0.289560*%
%ADD23R,0.289560X1.348740*%
%ADD24R,0.650000X1.060000*%
%ADD25C,0.600000*%
%ADD26C,0.130000*%
%ADD27C,0.300000*%
%ADD28C,0.254000*%
G04 APERTURE END LIST*
D10*
D11*
X151600000Y-102200000D03*
X155000000Y-102200000D03*
D12*
X144300000Y-104200000D03*
X145800000Y-104200000D03*
X137285120Y-84192876D03*
X135785120Y-84192876D03*
X135900000Y-102200000D03*
X134400000Y-102200000D03*
D13*
X132100000Y-99650000D03*
X132100000Y-98150000D03*
D12*
X140000000Y-104600000D03*
X138500000Y-104600000D03*
X147400000Y-102500000D03*
X148900000Y-102500000D03*
D14*
X132685120Y-88290636D03*
X137084400Y-88290636D03*
X137084400Y-85892876D03*
X132685120Y-85892876D03*
D15*
X149600000Y-92600000D03*
X149600000Y-94100000D03*
D12*
X137100000Y-90700000D03*
X135600000Y-90700000D03*
D15*
X134100000Y-99700000D03*
X134100000Y-98200000D03*
D12*
X153950000Y-83900000D03*
X152450000Y-83900000D03*
D16*
X151900000Y-96700000D03*
X151900000Y-96050000D03*
X151900000Y-95400000D03*
X151900000Y-94750000D03*
X151900000Y-94100000D03*
D17*
X151900000Y-97900000D03*
X151900000Y-92900000D03*
D18*
X154600000Y-98900000D03*
X154600000Y-91900000D03*
D19*
X141000000Y-84560000D03*
X141000000Y-85830000D03*
X141000000Y-87100000D03*
X141000000Y-88370000D03*
X148300000Y-88370000D03*
X148300000Y-87100000D03*
X148300000Y-85830000D03*
X148300000Y-84560000D03*
D15*
X150300000Y-85700000D03*
X150300000Y-84200000D03*
D12*
X134035120Y-84192876D03*
X132535120Y-84192876D03*
X153900000Y-89400000D03*
X152400000Y-89400000D03*
D20*
X131920000Y-106740000D03*
D21*
X134460000Y-106740000D03*
X137000000Y-106740000D03*
X139540000Y-106740000D03*
X142080000Y-106740000D03*
X144620000Y-106740000D03*
X147160000Y-106740000D03*
X149700000Y-106740000D03*
X152240000Y-106740000D03*
X154780000Y-106740000D03*
D22*
X136477380Y-93050960D03*
X136477380Y-93551340D03*
X136477380Y-94051720D03*
X136477380Y-94552100D03*
X136477380Y-95052480D03*
X136477380Y-95550320D03*
X136477380Y-96050700D03*
X136477380Y-96551080D03*
X136477380Y-97048920D03*
X136477380Y-97549300D03*
X136477380Y-98049680D03*
X136477380Y-98547520D03*
X136477380Y-99047900D03*
X136477380Y-99548280D03*
X136477380Y-100048660D03*
X136477380Y-100549040D03*
D23*
X138450960Y-102522620D03*
X138951340Y-102522620D03*
X139451720Y-102522620D03*
X139952100Y-102522620D03*
X140452480Y-102522620D03*
X140950320Y-102522620D03*
X141450700Y-102522620D03*
X141951080Y-102522620D03*
X142448920Y-102522620D03*
X142949300Y-102522620D03*
X143449680Y-102522620D03*
X143947520Y-102522620D03*
X144447900Y-102522620D03*
X144948280Y-102522620D03*
X145448660Y-102522620D03*
X145949040Y-102522620D03*
D22*
X147922620Y-100549040D03*
X147922620Y-100048660D03*
X147922620Y-99548280D03*
X147922620Y-99047900D03*
X147922620Y-98547520D03*
X147922620Y-98049680D03*
X147922620Y-97549300D03*
X147922620Y-97048920D03*
X147922620Y-96551080D03*
X147922620Y-96050700D03*
X147922620Y-95550320D03*
X147922620Y-95052480D03*
X147922620Y-94552100D03*
X147922620Y-94051720D03*
X147922620Y-93551340D03*
X147922620Y-93050960D03*
D23*
X145949040Y-91077380D03*
X145448660Y-91077380D03*
X144948280Y-91077380D03*
X144447900Y-91077380D03*
X143947520Y-91077380D03*
X143449680Y-91077380D03*
X142949300Y-91077380D03*
X142448920Y-91077380D03*
X141951080Y-91077380D03*
X141450700Y-91077380D03*
X140950320Y-91077380D03*
X140452480Y-91077380D03*
X139952100Y-91077380D03*
X139451720Y-91077380D03*
X138951340Y-91077380D03*
X138450960Y-91077380D03*
D24*
X152200000Y-87700000D03*
X153150000Y-87700000D03*
X154100000Y-87700000D03*
X154100000Y-85500000D03*
X152200000Y-85500000D03*
D25*
X137599988Y-104600000D03*
X145729972Y-104929978D03*
X138059989Y-89704651D03*
X131300000Y-89600000D03*
X136412749Y-90005004D03*
X147200000Y-90300000D03*
X149900000Y-102199999D03*
X145764213Y-100570866D03*
X142500000Y-101400000D03*
X133500000Y-102800000D03*
X138900000Y-92200000D03*
X134499975Y-93800025D03*
X139275000Y-101225000D03*
X140200000Y-101225000D03*
X140200000Y-100300000D03*
X139275000Y-100300000D03*
X138400000Y-88000000D03*
X131354688Y-88000000D03*
X131400000Y-86600000D03*
X131400000Y-84900000D03*
X131400000Y-83300000D03*
X133100000Y-83300000D03*
X134700000Y-83300000D03*
X136200000Y-83300000D03*
X137900000Y-83300000D03*
X138500000Y-84100000D03*
X138500000Y-85300000D03*
X138500000Y-86500000D03*
X134100000Y-97200000D03*
X133424999Y-96445001D03*
X154800000Y-100900000D03*
X146700000Y-103104990D03*
X134900000Y-84700000D03*
X149400000Y-101400000D03*
X136800000Y-101123822D03*
X143300000Y-98795010D03*
X140851341Y-104777192D03*
X132400000Y-102800000D03*
X151400000Y-84800000D03*
X151400000Y-84000000D03*
X151400000Y-83300000D03*
X133100000Y-99700000D03*
X137600000Y-91700000D03*
X149600000Y-91600000D03*
X153169987Y-100900000D03*
X140400000Y-97500000D03*
X152369996Y-100896728D03*
X139669987Y-97500000D03*
X142156870Y-93616820D03*
X141300000Y-93900000D03*
X142354305Y-100684675D03*
X143199992Y-104300000D03*
X145800000Y-101300000D03*
X142796649Y-103626929D03*
X141482549Y-103484796D03*
X137813416Y-103532758D03*
X140480407Y-93020149D03*
X146800000Y-94000000D03*
X146900000Y-88700000D03*
X134600000Y-101100000D03*
X140200000Y-92300000D03*
X145500000Y-90000000D03*
X149100000Y-95800000D03*
X150200000Y-94900000D03*
X150800000Y-100900004D03*
X138900000Y-97500000D03*
X154000000Y-100900000D03*
X141200000Y-97500000D03*
X151584975Y-100915039D03*
X140554745Y-89794214D03*
D26*
X151900000Y-94100000D02*
X151095000Y-94100000D01*
X151095000Y-94100000D02*
X149600000Y-94100000D01*
X151900000Y-92900000D02*
X151900000Y-94100000D01*
X138525000Y-104600000D02*
X138951340Y-104173660D01*
X138951340Y-103326990D02*
X138951340Y-102522620D01*
X138500000Y-104600000D02*
X138525000Y-104600000D01*
X138951340Y-104173660D02*
X138951340Y-103326990D01*
X137501654Y-104501666D02*
X137599988Y-104600000D01*
X138500000Y-104600000D02*
X137599988Y-104600000D01*
X145800000Y-105000006D02*
X145729972Y-104929978D01*
X145800000Y-104200000D02*
X145800000Y-105000006D01*
X137759636Y-90005004D02*
X137759990Y-90004650D01*
X138359988Y-89404652D02*
X138059989Y-89704651D01*
X137759990Y-90004650D02*
X138059989Y-89704651D01*
X138400000Y-89364640D02*
X138359988Y-89404652D01*
X136412749Y-90005004D02*
X137759636Y-90005004D01*
X138400000Y-88000000D02*
X138400000Y-89364640D01*
X131300000Y-90600050D02*
X131300000Y-90024264D01*
X134499975Y-93800025D02*
X131300000Y-90600050D01*
X131300000Y-90024264D02*
X131300000Y-89600000D01*
X131354688Y-89545312D02*
X131300000Y-89600000D01*
X131354688Y-88000000D02*
X131354688Y-89545312D01*
X135785120Y-84192876D02*
X135760120Y-84192876D01*
X135760120Y-84192876D02*
X134867244Y-83300000D01*
X134867244Y-83300000D02*
X134700000Y-83300000D01*
X134035120Y-84192876D02*
X134035120Y-83964880D01*
X134035120Y-83964880D02*
X134700000Y-83300000D01*
X145448660Y-102522620D02*
X145448660Y-101718250D01*
X145448660Y-101718250D02*
X145000000Y-101269590D01*
X145000000Y-101269590D02*
X145000000Y-100900000D01*
X145000000Y-100900000D02*
X145329134Y-100570866D01*
X145329134Y-100570866D02*
X145764213Y-100570866D01*
X133100000Y-83300000D02*
X131400000Y-83300000D01*
X138500000Y-84100000D02*
X138500000Y-83900000D01*
X138500000Y-83900000D02*
X137900000Y-83300000D01*
X138500000Y-86500000D02*
X138500000Y-85300000D01*
X149600001Y-102499998D02*
X149900000Y-102199999D01*
X149599999Y-102500000D02*
X149600001Y-102499998D01*
X148900000Y-102500000D02*
X149599999Y-102500000D01*
X138951340Y-92148660D02*
X138900000Y-92200000D01*
X138951340Y-91077380D02*
X138951340Y-92148660D01*
X138500000Y-86500000D02*
X138500000Y-87900000D01*
X138500000Y-87900000D02*
X138400000Y-88000000D01*
X131400000Y-86600000D02*
X131977996Y-86600000D01*
X131977996Y-86600000D02*
X132685120Y-85892876D01*
X134700000Y-83300000D02*
X135124264Y-83300000D01*
X135124264Y-83300000D02*
X136200000Y-83300000D01*
X131400000Y-86600000D02*
X131400000Y-86175736D01*
X131400000Y-86175736D02*
X131400000Y-84900000D01*
X131400000Y-86600000D02*
X131400000Y-87954688D01*
X131400000Y-87954688D02*
X131354688Y-88000000D01*
X131400000Y-83300000D02*
X131400000Y-84900000D01*
X134700000Y-83300000D02*
X133100000Y-83300000D01*
X137900000Y-83300000D02*
X136200000Y-83300000D01*
X138500000Y-85300000D02*
X138500000Y-84100000D01*
X137084400Y-88290636D02*
X137285060Y-88290636D01*
X137285060Y-88290636D02*
X138500000Y-87075696D01*
X138500000Y-87075696D02*
X138500000Y-86500000D01*
D27*
X153150000Y-87700000D02*
X153150000Y-88650000D01*
X153150000Y-88650000D02*
X153900000Y-89400000D01*
D26*
X151800000Y-94200000D02*
X151900000Y-94100000D01*
X134100000Y-98200000D02*
X134100000Y-97200000D01*
X134100000Y-98200000D02*
X134605000Y-98200000D01*
X134605000Y-98200000D02*
X134952520Y-98547520D01*
X134952520Y-98547520D02*
X135673010Y-98547520D01*
X135673010Y-98547520D02*
X136477380Y-98547520D01*
X138951340Y-91077380D02*
X138951340Y-90273010D01*
X136195001Y-90129999D02*
X135625000Y-90700000D01*
X138951340Y-90273010D02*
X138808329Y-90129999D01*
X138808329Y-90129999D02*
X136195001Y-90129999D01*
X135625000Y-90700000D02*
X135600000Y-90700000D01*
X147922620Y-93551340D02*
X149076340Y-93551340D01*
X149076340Y-93551340D02*
X149600000Y-94075000D01*
X149600000Y-94075000D02*
X149600000Y-94100000D01*
X145800000Y-104200000D02*
X145800000Y-103695000D01*
X145800000Y-103695000D02*
X145448660Y-103343660D01*
X145448660Y-103343660D02*
X145448660Y-103326990D01*
X145448660Y-103326990D02*
X145448660Y-102522620D01*
X132100000Y-98150000D02*
X132100000Y-97770000D01*
X133424999Y-96445001D02*
X134701601Y-96445001D01*
X132100000Y-97770000D02*
X133424999Y-96445001D01*
X134701601Y-96445001D02*
X135095902Y-96050700D01*
X135095902Y-96050700D02*
X135673010Y-96050700D01*
X135673010Y-96050700D02*
X136477380Y-96050700D01*
X155000000Y-101100000D02*
X154800000Y-100900000D01*
X155000000Y-102200000D02*
X155000000Y-101100000D01*
X146770010Y-103104990D02*
X146700000Y-103104990D01*
X147400000Y-102500000D02*
X147375000Y-102500000D01*
X147375000Y-102500000D02*
X146770010Y-103104990D01*
X136800000Y-101123822D02*
X135900000Y-102023822D01*
X135900000Y-102023822D02*
X135900000Y-102200000D01*
X140674149Y-104600000D02*
X140851341Y-104777192D01*
X140000000Y-104600000D02*
X140674149Y-104600000D01*
X139451720Y-102522620D02*
X139451720Y-104076720D01*
X139451720Y-104076720D02*
X139975000Y-104600000D01*
X139975000Y-104600000D02*
X140000000Y-104600000D01*
D27*
X150300000Y-84200000D02*
X150800000Y-84200000D01*
X150800000Y-84200000D02*
X151400000Y-84800000D01*
X151400000Y-84000000D02*
X151400000Y-84800000D01*
X152450000Y-83900000D02*
X152000000Y-83900000D01*
X152000000Y-83900000D02*
X151400000Y-83300000D01*
X150300000Y-84200000D02*
X148660000Y-84200000D01*
X148660000Y-84200000D02*
X148300000Y-84560000D01*
X152200000Y-85500000D02*
X152200000Y-84150000D01*
X152200000Y-84150000D02*
X152450000Y-83900000D01*
D26*
X132100000Y-99650000D02*
X133050000Y-99650000D01*
X133050000Y-99650000D02*
X133100000Y-99700000D01*
X134100000Y-99700000D02*
X133100000Y-99700000D01*
X134100000Y-99700000D02*
X134605000Y-99700000D01*
X135673010Y-99047900D02*
X136477380Y-99047900D01*
X134605000Y-99700000D02*
X135257100Y-99047900D01*
X135257100Y-99047900D02*
X135673010Y-99047900D01*
X137100000Y-90700000D02*
X137100000Y-91200000D01*
X137100000Y-91200000D02*
X137600000Y-91700000D01*
X137100000Y-90700000D02*
X138073580Y-90700000D01*
X138073580Y-90700000D02*
X138450960Y-91077380D01*
X149600000Y-92600000D02*
X149600000Y-91600000D01*
X147922620Y-93050960D02*
X149149040Y-93050960D01*
X149149040Y-93050960D02*
X149600000Y-92600000D01*
X147400000Y-102500000D02*
X145971660Y-102500000D01*
X145971660Y-102500000D02*
X145949040Y-102522620D01*
X144300000Y-104200000D02*
X144325000Y-104200000D01*
X144325000Y-104200000D02*
X144948280Y-103576720D01*
X144948280Y-103576720D02*
X144948280Y-103326990D01*
X144948280Y-103326990D02*
X144948280Y-102522620D01*
X140242805Y-93515151D02*
X140718009Y-93515151D01*
X140718009Y-93515151D02*
X140916339Y-93316821D01*
X141856871Y-93316821D02*
X142156870Y-93616820D01*
X140916339Y-93316821D02*
X141856871Y-93316821D01*
X139704998Y-92977344D02*
X140242805Y-93515151D01*
X139704998Y-91962398D02*
X139704998Y-92977344D01*
X139952100Y-91715296D02*
X139704998Y-91962398D01*
X139952100Y-91077380D02*
X139952100Y-91715296D01*
X139444987Y-93085044D02*
X139444987Y-91888483D01*
X139444987Y-91888483D02*
X139451720Y-91881750D01*
X141300000Y-93900000D02*
X140259943Y-93900000D01*
X140259943Y-93900000D02*
X139444987Y-93085044D01*
X139451720Y-91881750D02*
X139451720Y-91077380D01*
X141951080Y-102522620D02*
X141951080Y-101087900D01*
X141951080Y-101087900D02*
X142054306Y-100984674D01*
X142054306Y-100984674D02*
X142354305Y-100684675D01*
X139952100Y-103194321D02*
X141057779Y-104300000D01*
X139952100Y-102522620D02*
X139952100Y-103194321D01*
X142775728Y-104300000D02*
X143199992Y-104300000D01*
X141057779Y-104300000D02*
X142775728Y-104300000D01*
X147922620Y-100549040D02*
X146550960Y-100549040D01*
X146550960Y-100549040D02*
X145800000Y-101300000D01*
X142496650Y-103926928D02*
X142796649Y-103626929D01*
X144447900Y-103326990D02*
X144147961Y-103626929D01*
X143220913Y-103626929D02*
X142796649Y-103626929D01*
X140452480Y-103326990D02*
X141125417Y-103999927D01*
X140452480Y-102522620D02*
X140452480Y-103326990D01*
X141125417Y-103999927D02*
X142423651Y-103999927D01*
X144447900Y-102522620D02*
X144447900Y-103326990D01*
X142423651Y-103999927D02*
X142496650Y-103926928D01*
X144147961Y-103626929D02*
X143220913Y-103626929D01*
X141450700Y-103452947D02*
X141482549Y-103484796D01*
X141450700Y-102522620D02*
X141450700Y-103452947D01*
X138093336Y-98861266D02*
X138093336Y-102828574D01*
X137281750Y-98049680D02*
X138093336Y-98861266D01*
X136477380Y-98049680D02*
X137281750Y-98049680D01*
X138093336Y-102828574D02*
X137813416Y-103108494D01*
X137813416Y-103108494D02*
X137813416Y-103532758D01*
X140904671Y-93020149D02*
X140480407Y-93020149D01*
X144676043Y-93020149D02*
X140904671Y-93020149D01*
X145949040Y-91747152D02*
X144676043Y-93020149D01*
X145949040Y-91077380D02*
X145949040Y-91747152D01*
X146851720Y-94051720D02*
X146800000Y-94000000D01*
X147922620Y-94051720D02*
X146851720Y-94051720D01*
X136477380Y-99548280D02*
X135673010Y-99548280D01*
X135673010Y-99548280D02*
X134600000Y-100621290D01*
X134600000Y-100621290D02*
X134600000Y-101100000D01*
X142531050Y-92300000D02*
X140624264Y-92300000D01*
X140624264Y-92300000D02*
X140200000Y-92300000D01*
X142949300Y-91881750D02*
X142531050Y-92300000D01*
X142949300Y-91077380D02*
X142949300Y-91881750D01*
X145500000Y-90000000D02*
X145500000Y-91026040D01*
X145500000Y-91026040D02*
X145448660Y-91077380D01*
D27*
X151900000Y-96700000D02*
X153778100Y-96700000D01*
X153778100Y-96700000D02*
X155730001Y-98651901D01*
X155730001Y-98651901D02*
X155730001Y-105789999D01*
X155730001Y-105789999D02*
X155629999Y-105890001D01*
X155629999Y-105890001D02*
X154780000Y-106740000D01*
X154100000Y-87700000D02*
X154100000Y-87290998D01*
X154100000Y-87290998D02*
X153699001Y-86889999D01*
X153699001Y-86889999D02*
X152600999Y-86889999D01*
X152600999Y-86889999D02*
X152200000Y-87290998D01*
X152200000Y-87290998D02*
X152200000Y-87700000D01*
X152400000Y-89400000D02*
X152400000Y-90075000D01*
X152400000Y-90075000D02*
X153200000Y-90875000D01*
X153200000Y-90875000D02*
X153200000Y-96400000D01*
X152900000Y-96700000D02*
X151900000Y-96700000D01*
X153200000Y-96400000D02*
X152900000Y-96700000D01*
X152400000Y-89400000D02*
X152400000Y-87900000D01*
X152400000Y-87900000D02*
X152200000Y-87700000D01*
D26*
X151900000Y-96700000D02*
X149167398Y-96700000D01*
X148518098Y-96050700D02*
X147922620Y-96050700D01*
X149167398Y-96700000D02*
X148518098Y-96050700D01*
X151900000Y-96050000D02*
X150082602Y-96050000D01*
X148726990Y-95052480D02*
X147922620Y-95052480D01*
X149085082Y-95052480D02*
X148726990Y-95052480D01*
X150082602Y-96050000D02*
X149085082Y-95052480D01*
X148952413Y-94552100D02*
X148726990Y-94552100D01*
X149800313Y-95400000D02*
X148952413Y-94552100D01*
X151900000Y-95400000D02*
X149800313Y-95400000D01*
X148726990Y-94552100D02*
X147922620Y-94552100D01*
X149100000Y-95800000D02*
X148800001Y-95500001D01*
X148800001Y-95500001D02*
X147972939Y-95500001D01*
X147972939Y-95500001D02*
X147922620Y-95550320D01*
X151900000Y-94750000D02*
X150350000Y-94750000D01*
X150350000Y-94750000D02*
X150200000Y-94900000D01*
X142195001Y-90037605D02*
X142024597Y-90208009D01*
X140173998Y-87800000D02*
X141956002Y-87800000D01*
X142195001Y-88038999D02*
X142195001Y-90037605D01*
X141956002Y-87800000D02*
X142195001Y-88038999D01*
X141450700Y-90407608D02*
X141450700Y-91077380D01*
X142024597Y-90208009D02*
X141650299Y-90208009D01*
X141650299Y-90208009D02*
X141450700Y-90407608D01*
X141000000Y-84560000D02*
X140475000Y-84560000D01*
X139954999Y-85080001D02*
X139954999Y-87581001D01*
X140475000Y-84560000D02*
X139954999Y-85080001D01*
X139954999Y-87581001D02*
X140173998Y-87800000D01*
X141000000Y-85830000D02*
X141525000Y-85830000D01*
X144948280Y-89253280D02*
X144948280Y-90273010D01*
X141525000Y-85830000D02*
X144948280Y-89253280D01*
X144948280Y-90273010D02*
X144948280Y-91077380D01*
X147922620Y-97048920D02*
X147118250Y-97048920D01*
X147118250Y-97048920D02*
X146300000Y-96230670D01*
X146300000Y-93503428D02*
X148300000Y-91503428D01*
X146300000Y-96230670D02*
X146300000Y-93503428D01*
X148300000Y-91503428D02*
X148300000Y-88370000D01*
X143947520Y-101718250D02*
X143947520Y-102522620D01*
X143947520Y-94249052D02*
X143947520Y-101718250D01*
X146300000Y-88575000D02*
X146300000Y-91896572D01*
X148300000Y-87100000D02*
X147775000Y-87100000D01*
X147775000Y-87100000D02*
X146300000Y-88575000D01*
X146300000Y-91896572D02*
X143947520Y-94249052D01*
X135673010Y-95052480D02*
X136477380Y-95052480D01*
X135505012Y-93537301D02*
X135505012Y-94884482D01*
X135004999Y-93037289D02*
X135505012Y-93537301D01*
X136883740Y-85892876D02*
X135004999Y-87771617D01*
X135505012Y-94884482D02*
X135673010Y-95052480D01*
X137084400Y-85892876D02*
X136883740Y-85892876D01*
X135004999Y-87771617D02*
X135004999Y-93037289D01*
X137285120Y-84192876D02*
X137285120Y-85692156D01*
X137285120Y-85692156D02*
X137084400Y-85892876D01*
X135245001Y-93645001D02*
X132685120Y-91085120D01*
X132685120Y-91085120D02*
X132685120Y-88290636D01*
X136477380Y-95550320D02*
X135673010Y-95550320D01*
X135673010Y-95550320D02*
X135245001Y-95122311D01*
X135245001Y-95122311D02*
X135245001Y-93645001D01*
X132535120Y-84192876D02*
X132936322Y-84192876D01*
X132936322Y-84192876D02*
X133780551Y-85037105D01*
X133780551Y-85037105D02*
X133780551Y-87395865D01*
X133780551Y-87395865D02*
X132885780Y-88290636D01*
X132885780Y-88290636D02*
X132685120Y-88290636D01*
X151600000Y-100930064D02*
X151584975Y-100915039D01*
X151600000Y-102200000D02*
X151600000Y-100930064D01*
X140452480Y-91077380D02*
X140452480Y-89896479D01*
X140452480Y-89896479D02*
X140554745Y-89794214D01*
X136477380Y-100549040D02*
X137281750Y-100549040D01*
X137281750Y-100549040D02*
X137600000Y-100867290D01*
X137600000Y-100867290D02*
X137600000Y-102900000D01*
X137600000Y-102900000D02*
X136400000Y-104100000D01*
X136400000Y-104100000D02*
X136400000Y-105100000D01*
X136400000Y-105100000D02*
X136800000Y-105500000D01*
X136800000Y-105500000D02*
X138300000Y-105500000D01*
X138300000Y-105500000D02*
X138690001Y-105890001D01*
X138690001Y-105890001D02*
X139540000Y-106740000D01*
X141230001Y-105890001D02*
X142080000Y-106740000D01*
X136660011Y-104992301D02*
X136867710Y-105200000D01*
X136872240Y-104027760D02*
X136660011Y-104239989D01*
X136660011Y-104239989D02*
X136660011Y-104992301D01*
X140540000Y-105200000D02*
X141230001Y-105890001D01*
X138051018Y-104027760D02*
X136872240Y-104027760D01*
X138450960Y-103627818D02*
X138051018Y-104027760D01*
X136867710Y-105200000D02*
X140540000Y-105200000D01*
X138450960Y-102522620D02*
X138450960Y-103627818D01*
D28*
G36*
X131236810Y-100061201D02*
X131332080Y-100209255D01*
X131477445Y-100308579D01*
X131650000Y-100343522D01*
X132550000Y-100343522D01*
X132679528Y-100319150D01*
X132683112Y-100322740D01*
X132953158Y-100434873D01*
X133245559Y-100435128D01*
X133386306Y-100376972D01*
X133407080Y-100409255D01*
X133552445Y-100508579D01*
X133725000Y-100543522D01*
X134115469Y-100543522D01*
X134115066Y-100545547D01*
X133977260Y-100683112D01*
X133865127Y-100953158D01*
X133864917Y-101193634D01*
X133640302Y-101286673D01*
X133461673Y-101465301D01*
X133365000Y-101698690D01*
X133365000Y-101914250D01*
X133523750Y-102073000D01*
X134273000Y-102073000D01*
X134273000Y-102053000D01*
X134527000Y-102053000D01*
X134527000Y-102073000D01*
X134547000Y-102073000D01*
X134547000Y-102327000D01*
X134527000Y-102327000D01*
X134527000Y-103051250D01*
X134685750Y-103210000D01*
X134926309Y-103210000D01*
X135159698Y-103113327D01*
X135304871Y-102968155D01*
X135327445Y-102983579D01*
X135500000Y-103018522D01*
X136300000Y-103018522D01*
X136461201Y-102988190D01*
X136609255Y-102892920D01*
X136708579Y-102747555D01*
X136743522Y-102575000D01*
X136743522Y-101887407D01*
X136772130Y-101858799D01*
X136945559Y-101858950D01*
X137100000Y-101795136D01*
X137100000Y-102692893D01*
X136046447Y-103746447D01*
X135938060Y-103908658D01*
X135900000Y-104100000D01*
X135900000Y-105100000D01*
X135927675Y-105239132D01*
X135938060Y-105291342D01*
X136046447Y-105453553D01*
X136275832Y-105682938D01*
X136091368Y-105806193D01*
X135812815Y-106223077D01*
X135730000Y-106639415D01*
X135647185Y-106223077D01*
X135368632Y-105806193D01*
X134951748Y-105527640D01*
X134460000Y-105429825D01*
X133968252Y-105527640D01*
X133551368Y-105806193D01*
X133405000Y-106025248D01*
X133405000Y-105763691D01*
X133308327Y-105530302D01*
X133129699Y-105351673D01*
X132896310Y-105255000D01*
X132205750Y-105255000D01*
X132047000Y-105413750D01*
X132047000Y-106613000D01*
X132067000Y-106613000D01*
X132067000Y-106867000D01*
X132047000Y-106867000D01*
X132047000Y-106887000D01*
X131793000Y-106887000D01*
X131793000Y-106867000D01*
X131773000Y-106867000D01*
X131773000Y-106613000D01*
X131793000Y-106613000D01*
X131793000Y-105413750D01*
X131634250Y-105255000D01*
X131210000Y-105255000D01*
X131210000Y-102945559D01*
X131664872Y-102945559D01*
X131776534Y-103215800D01*
X131983112Y-103422740D01*
X132253158Y-103534873D01*
X132545559Y-103535128D01*
X132815800Y-103423466D01*
X133022740Y-103216888D01*
X133134873Y-102946842D01*
X133135128Y-102654441D01*
X133065426Y-102485750D01*
X133365000Y-102485750D01*
X133365000Y-102701310D01*
X133461673Y-102934699D01*
X133640302Y-103113327D01*
X133873691Y-103210000D01*
X134114250Y-103210000D01*
X134273000Y-103051250D01*
X134273000Y-102327000D01*
X133523750Y-102327000D01*
X133365000Y-102485750D01*
X133065426Y-102485750D01*
X133023466Y-102384200D01*
X132816888Y-102177260D01*
X132546842Y-102065127D01*
X132254441Y-102064872D01*
X131984200Y-102176534D01*
X131777260Y-102383112D01*
X131665127Y-102653158D01*
X131664872Y-102945559D01*
X131210000Y-102945559D01*
X131210000Y-99918718D01*
X131236810Y-100061201D01*
X131236810Y-100061201D01*
G37*
X131236810Y-100061201D02*
X131332080Y-100209255D01*
X131477445Y-100308579D01*
X131650000Y-100343522D01*
X132550000Y-100343522D01*
X132679528Y-100319150D01*
X132683112Y-100322740D01*
X132953158Y-100434873D01*
X133245559Y-100435128D01*
X133386306Y-100376972D01*
X133407080Y-100409255D01*
X133552445Y-100508579D01*
X133725000Y-100543522D01*
X134115469Y-100543522D01*
X134115066Y-100545547D01*
X133977260Y-100683112D01*
X133865127Y-100953158D01*
X133864917Y-101193634D01*
X133640302Y-101286673D01*
X133461673Y-101465301D01*
X133365000Y-101698690D01*
X133365000Y-101914250D01*
X133523750Y-102073000D01*
X134273000Y-102073000D01*
X134273000Y-102053000D01*
X134527000Y-102053000D01*
X134527000Y-102073000D01*
X134547000Y-102073000D01*
X134547000Y-102327000D01*
X134527000Y-102327000D01*
X134527000Y-103051250D01*
X134685750Y-103210000D01*
X134926309Y-103210000D01*
X135159698Y-103113327D01*
X135304871Y-102968155D01*
X135327445Y-102983579D01*
X135500000Y-103018522D01*
X136300000Y-103018522D01*
X136461201Y-102988190D01*
X136609255Y-102892920D01*
X136708579Y-102747555D01*
X136743522Y-102575000D01*
X136743522Y-101887407D01*
X136772130Y-101858799D01*
X136945559Y-101858950D01*
X137100000Y-101795136D01*
X137100000Y-102692893D01*
X136046447Y-103746447D01*
X135938060Y-103908658D01*
X135900000Y-104100000D01*
X135900000Y-105100000D01*
X135927675Y-105239132D01*
X135938060Y-105291342D01*
X136046447Y-105453553D01*
X136275832Y-105682938D01*
X136091368Y-105806193D01*
X135812815Y-106223077D01*
X135730000Y-106639415D01*
X135647185Y-106223077D01*
X135368632Y-105806193D01*
X134951748Y-105527640D01*
X134460000Y-105429825D01*
X133968252Y-105527640D01*
X133551368Y-105806193D01*
X133405000Y-106025248D01*
X133405000Y-105763691D01*
X133308327Y-105530302D01*
X133129699Y-105351673D01*
X132896310Y-105255000D01*
X132205750Y-105255000D01*
X132047000Y-105413750D01*
X132047000Y-106613000D01*
X132067000Y-106613000D01*
X132067000Y-106867000D01*
X132047000Y-106867000D01*
X132047000Y-106887000D01*
X131793000Y-106887000D01*
X131793000Y-106867000D01*
X131773000Y-106867000D01*
X131773000Y-106613000D01*
X131793000Y-106613000D01*
X131793000Y-105413750D01*
X131634250Y-105255000D01*
X131210000Y-105255000D01*
X131210000Y-102945559D01*
X131664872Y-102945559D01*
X131776534Y-103215800D01*
X131983112Y-103422740D01*
X132253158Y-103534873D01*
X132545559Y-103535128D01*
X132815800Y-103423466D01*
X133022740Y-103216888D01*
X133134873Y-102946842D01*
X133135128Y-102654441D01*
X133065426Y-102485750D01*
X133365000Y-102485750D01*
X133365000Y-102701310D01*
X133461673Y-102934699D01*
X133640302Y-103113327D01*
X133873691Y-103210000D01*
X134114250Y-103210000D01*
X134273000Y-103051250D01*
X134273000Y-102327000D01*
X133523750Y-102327000D01*
X133365000Y-102485750D01*
X133065426Y-102485750D01*
X133023466Y-102384200D01*
X132816888Y-102177260D01*
X132546842Y-102065127D01*
X132254441Y-102064872D01*
X131984200Y-102176534D01*
X131777260Y-102383112D01*
X131665127Y-102653158D01*
X131664872Y-102945559D01*
X131210000Y-102945559D01*
X131210000Y-99918718D01*
X131236810Y-100061201D01*
G36*
X149167398Y-97200000D02*
X150901125Y-97200000D01*
X150907080Y-97209255D01*
X150928385Y-97223812D01*
X150798771Y-97598869D01*
X150947437Y-97773000D01*
X151773000Y-97773000D01*
X151773000Y-97753000D01*
X152027000Y-97753000D01*
X152027000Y-97773000D01*
X152852563Y-97773000D01*
X153001229Y-97598869D01*
X152892761Y-97285000D01*
X153535786Y-97285000D01*
X154059737Y-97808951D01*
X153773322Y-97899998D01*
X153432632Y-98187237D01*
X153230881Y-98598126D01*
X153357046Y-98773000D01*
X154473000Y-98773000D01*
X154473000Y-98753000D01*
X154727000Y-98753000D01*
X154727000Y-98773000D01*
X154747000Y-98773000D01*
X154747000Y-99027000D01*
X154727000Y-99027000D01*
X154727000Y-100035000D01*
X155002000Y-100035000D01*
X155145001Y-99989542D01*
X155145001Y-100247410D01*
X154946842Y-100165127D01*
X154654441Y-100164872D01*
X154399708Y-100270126D01*
X154146842Y-100165127D01*
X153854441Y-100164872D01*
X153584664Y-100276342D01*
X153316829Y-100165127D01*
X153024428Y-100164872D01*
X152773649Y-100268492D01*
X152516838Y-100161855D01*
X152224437Y-100161600D01*
X151955109Y-100272885D01*
X151731817Y-100180166D01*
X151439416Y-100179911D01*
X151210363Y-100274554D01*
X150946842Y-100165131D01*
X150654441Y-100164876D01*
X150384200Y-100276538D01*
X150177260Y-100483116D01*
X150065127Y-100753162D01*
X150064872Y-101045563D01*
X150176534Y-101315804D01*
X150383112Y-101522744D01*
X150653158Y-101634877D01*
X150706478Y-101634923D01*
X150706478Y-103050000D01*
X150736810Y-103211201D01*
X150832080Y-103359255D01*
X150977445Y-103458579D01*
X151150000Y-103493522D01*
X152050000Y-103493522D01*
X152211201Y-103463190D01*
X152359255Y-103367920D01*
X152458579Y-103222555D01*
X152493522Y-103050000D01*
X152493522Y-101631837D01*
X152515555Y-101631856D01*
X152766334Y-101528236D01*
X153023145Y-101634873D01*
X153315546Y-101635128D01*
X153585323Y-101523658D01*
X153853158Y-101634873D01*
X154106478Y-101635094D01*
X154106478Y-103050000D01*
X154136810Y-103211201D01*
X154232080Y-103359255D01*
X154377445Y-103458579D01*
X154550000Y-103493522D01*
X155145001Y-103493522D01*
X155145001Y-105502428D01*
X154780000Y-105429825D01*
X154288252Y-105527640D01*
X153871368Y-105806193D01*
X153592815Y-106223077D01*
X153510000Y-106639415D01*
X153427185Y-106223077D01*
X153148632Y-105806193D01*
X152731748Y-105527640D01*
X152240000Y-105429825D01*
X151748252Y-105527640D01*
X151331368Y-105806193D01*
X151052815Y-106223077D01*
X150970000Y-106639415D01*
X150887185Y-106223077D01*
X150608632Y-105806193D01*
X150191748Y-105527640D01*
X149700000Y-105429825D01*
X149208252Y-105527640D01*
X148791368Y-105806193D01*
X148512815Y-106223077D01*
X148430000Y-106639415D01*
X148347185Y-106223077D01*
X148068632Y-105806193D01*
X147651748Y-105527640D01*
X147160000Y-105429825D01*
X146668252Y-105527640D01*
X146251368Y-105806193D01*
X145972815Y-106223077D01*
X145890000Y-106639415D01*
X145807185Y-106223077D01*
X145528632Y-105806193D01*
X145111748Y-105527640D01*
X144620000Y-105429825D01*
X144128252Y-105527640D01*
X143711368Y-105806193D01*
X143432815Y-106223077D01*
X143350000Y-106639415D01*
X143267185Y-106223077D01*
X142988632Y-105806193D01*
X142571748Y-105527640D01*
X142080000Y-105429825D01*
X141588252Y-105527640D01*
X141580156Y-105533049D01*
X141357532Y-105310425D01*
X141474081Y-105194080D01*
X141586214Y-104924034D01*
X141586322Y-104800000D01*
X142660579Y-104800000D01*
X142783104Y-104922740D01*
X143053150Y-105034873D01*
X143345551Y-105035128D01*
X143615792Y-104923466D01*
X143625412Y-104913863D01*
X143727445Y-104983579D01*
X143900000Y-105018522D01*
X144700000Y-105018522D01*
X144861201Y-104988190D01*
X144894036Y-104967061D01*
X145040302Y-105113327D01*
X145273691Y-105210000D01*
X145514250Y-105210000D01*
X145673000Y-105051250D01*
X145673000Y-104327000D01*
X145927000Y-104327000D01*
X145927000Y-105051250D01*
X146085750Y-105210000D01*
X146326309Y-105210000D01*
X146559698Y-105113327D01*
X146738327Y-104934699D01*
X146835000Y-104701310D01*
X146835000Y-104485750D01*
X146676250Y-104327000D01*
X145927000Y-104327000D01*
X145673000Y-104327000D01*
X145653000Y-104327000D01*
X145653000Y-104073000D01*
X145673000Y-104073000D01*
X145673000Y-104053000D01*
X145927000Y-104053000D01*
X145927000Y-104073000D01*
X146676250Y-104073000D01*
X146835000Y-103914250D01*
X146835000Y-103840109D01*
X146845559Y-103840118D01*
X147115800Y-103728456D01*
X147322740Y-103521878D01*
X147407181Y-103318522D01*
X147800000Y-103318522D01*
X147961201Y-103288190D01*
X147994036Y-103267061D01*
X148140302Y-103413327D01*
X148373691Y-103510000D01*
X148614250Y-103510000D01*
X148773000Y-103351250D01*
X148773000Y-102627000D01*
X149027000Y-102627000D01*
X149027000Y-103351250D01*
X149185750Y-103510000D01*
X149426309Y-103510000D01*
X149659698Y-103413327D01*
X149838327Y-103234699D01*
X149935000Y-103001310D01*
X149935000Y-102785750D01*
X149776250Y-102627000D01*
X149027000Y-102627000D01*
X148773000Y-102627000D01*
X148753000Y-102627000D01*
X148753000Y-102373000D01*
X148773000Y-102373000D01*
X148773000Y-102353000D01*
X149027000Y-102353000D01*
X149027000Y-102373000D01*
X149776250Y-102373000D01*
X149935000Y-102214250D01*
X149935000Y-101998690D01*
X149907391Y-101932035D01*
X150022740Y-101816888D01*
X150134873Y-101546842D01*
X150135128Y-101254441D01*
X150023466Y-100984200D01*
X149816888Y-100777260D01*
X149546842Y-100665127D01*
X149254441Y-100664872D01*
X149027375Y-100758694D01*
X149040512Y-100693820D01*
X149040512Y-100404260D01*
X149019950Y-100294981D01*
X149040512Y-100193440D01*
X149040512Y-99903880D01*
X149019950Y-99794601D01*
X149040512Y-99693060D01*
X149040512Y-99403500D01*
X149019950Y-99294221D01*
X149038650Y-99201874D01*
X153230881Y-99201874D01*
X153432632Y-99612763D01*
X153773322Y-99900002D01*
X154198000Y-100035000D01*
X154473000Y-100035000D01*
X154473000Y-99027000D01*
X153357046Y-99027000D01*
X153230881Y-99201874D01*
X149038650Y-99201874D01*
X149040512Y-99192680D01*
X149040512Y-98903120D01*
X149019950Y-98793841D01*
X149040512Y-98692300D01*
X149040512Y-98402740D01*
X149020197Y-98294777D01*
X149039161Y-98201131D01*
X150798771Y-98201131D01*
X150940432Y-98611049D01*
X151228179Y-98935552D01*
X151602062Y-99119268D01*
X151773000Y-98992734D01*
X151773000Y-98027000D01*
X152027000Y-98027000D01*
X152027000Y-98992734D01*
X152197938Y-99119268D01*
X152571821Y-98935552D01*
X152859568Y-98611049D01*
X153001229Y-98201131D01*
X152852563Y-98027000D01*
X152027000Y-98027000D01*
X151773000Y-98027000D01*
X150947437Y-98027000D01*
X150798771Y-98201131D01*
X149039161Y-98201131D01*
X149040512Y-98194460D01*
X149040512Y-97904900D01*
X149019950Y-97795621D01*
X149040512Y-97694080D01*
X149040512Y-97404520D01*
X149019950Y-97295241D01*
X149040512Y-97193700D01*
X149040512Y-97174761D01*
X149167398Y-97200000D01*
X149167398Y-97200000D01*
G37*
X149167398Y-97200000D02*
X150901125Y-97200000D01*
X150907080Y-97209255D01*
X150928385Y-97223812D01*
X150798771Y-97598869D01*
X150947437Y-97773000D01*
X151773000Y-97773000D01*
X151773000Y-97753000D01*
X152027000Y-97753000D01*
X152027000Y-97773000D01*
X152852563Y-97773000D01*
X153001229Y-97598869D01*
X152892761Y-97285000D01*
X153535786Y-97285000D01*
X154059737Y-97808951D01*
X153773322Y-97899998D01*
X153432632Y-98187237D01*
X153230881Y-98598126D01*
X153357046Y-98773000D01*
X154473000Y-98773000D01*
X154473000Y-98753000D01*
X154727000Y-98753000D01*
X154727000Y-98773000D01*
X154747000Y-98773000D01*
X154747000Y-99027000D01*
X154727000Y-99027000D01*
X154727000Y-100035000D01*
X155002000Y-100035000D01*
X155145001Y-99989542D01*
X155145001Y-100247410D01*
X154946842Y-100165127D01*
X154654441Y-100164872D01*
X154399708Y-100270126D01*
X154146842Y-100165127D01*
X153854441Y-100164872D01*
X153584664Y-100276342D01*
X153316829Y-100165127D01*
X153024428Y-100164872D01*
X152773649Y-100268492D01*
X152516838Y-100161855D01*
X152224437Y-100161600D01*
X151955109Y-100272885D01*
X151731817Y-100180166D01*
X151439416Y-100179911D01*
X151210363Y-100274554D01*
X150946842Y-100165131D01*
X150654441Y-100164876D01*
X150384200Y-100276538D01*
X150177260Y-100483116D01*
X150065127Y-100753162D01*
X150064872Y-101045563D01*
X150176534Y-101315804D01*
X150383112Y-101522744D01*
X150653158Y-101634877D01*
X150706478Y-101634923D01*
X150706478Y-103050000D01*
X150736810Y-103211201D01*
X150832080Y-103359255D01*
X150977445Y-103458579D01*
X151150000Y-103493522D01*
X152050000Y-103493522D01*
X152211201Y-103463190D01*
X152359255Y-103367920D01*
X152458579Y-103222555D01*
X152493522Y-103050000D01*
X152493522Y-101631837D01*
X152515555Y-101631856D01*
X152766334Y-101528236D01*
X153023145Y-101634873D01*
X153315546Y-101635128D01*
X153585323Y-101523658D01*
X153853158Y-101634873D01*
X154106478Y-101635094D01*
X154106478Y-103050000D01*
X154136810Y-103211201D01*
X154232080Y-103359255D01*
X154377445Y-103458579D01*
X154550000Y-103493522D01*
X155145001Y-103493522D01*
X155145001Y-105502428D01*
X154780000Y-105429825D01*
X154288252Y-105527640D01*
X153871368Y-105806193D01*
X153592815Y-106223077D01*
X153510000Y-106639415D01*
X153427185Y-106223077D01*
X153148632Y-105806193D01*
X152731748Y-105527640D01*
X152240000Y-105429825D01*
X151748252Y-105527640D01*
X151331368Y-105806193D01*
X151052815Y-106223077D01*
X150970000Y-106639415D01*
X150887185Y-106223077D01*
X150608632Y-105806193D01*
X150191748Y-105527640D01*
X149700000Y-105429825D01*
X149208252Y-105527640D01*
X148791368Y-105806193D01*
X148512815Y-106223077D01*
X148430000Y-106639415D01*
X148347185Y-106223077D01*
X148068632Y-105806193D01*
X147651748Y-105527640D01*
X147160000Y-105429825D01*
X146668252Y-105527640D01*
X146251368Y-105806193D01*
X145972815Y-106223077D01*
X145890000Y-106639415D01*
X145807185Y-106223077D01*
X145528632Y-105806193D01*
X145111748Y-105527640D01*
X144620000Y-105429825D01*
X144128252Y-105527640D01*
X143711368Y-105806193D01*
X143432815Y-106223077D01*
X143350000Y-106639415D01*
X143267185Y-106223077D01*
X142988632Y-105806193D01*
X142571748Y-105527640D01*
X142080000Y-105429825D01*
X141588252Y-105527640D01*
X141580156Y-105533049D01*
X141357532Y-105310425D01*
X141474081Y-105194080D01*
X141586214Y-104924034D01*
X141586322Y-104800000D01*
X142660579Y-104800000D01*
X142783104Y-104922740D01*
X143053150Y-105034873D01*
X143345551Y-105035128D01*
X143615792Y-104923466D01*
X143625412Y-104913863D01*
X143727445Y-104983579D01*
X143900000Y-105018522D01*
X144700000Y-105018522D01*
X144861201Y-104988190D01*
X144894036Y-104967061D01*
X145040302Y-105113327D01*
X145273691Y-105210000D01*
X145514250Y-105210000D01*
X145673000Y-105051250D01*
X145673000Y-104327000D01*
X145927000Y-104327000D01*
X145927000Y-105051250D01*
X146085750Y-105210000D01*
X146326309Y-105210000D01*
X146559698Y-105113327D01*
X146738327Y-104934699D01*
X146835000Y-104701310D01*
X146835000Y-104485750D01*
X146676250Y-104327000D01*
X145927000Y-104327000D01*
X145673000Y-104327000D01*
X145653000Y-104327000D01*
X145653000Y-104073000D01*
X145673000Y-104073000D01*
X145673000Y-104053000D01*
X145927000Y-104053000D01*
X145927000Y-104073000D01*
X146676250Y-104073000D01*
X146835000Y-103914250D01*
X146835000Y-103840109D01*
X146845559Y-103840118D01*
X147115800Y-103728456D01*
X147322740Y-103521878D01*
X147407181Y-103318522D01*
X147800000Y-103318522D01*
X147961201Y-103288190D01*
X147994036Y-103267061D01*
X148140302Y-103413327D01*
X148373691Y-103510000D01*
X148614250Y-103510000D01*
X148773000Y-103351250D01*
X148773000Y-102627000D01*
X149027000Y-102627000D01*
X149027000Y-103351250D01*
X149185750Y-103510000D01*
X149426309Y-103510000D01*
X149659698Y-103413327D01*
X149838327Y-103234699D01*
X149935000Y-103001310D01*
X149935000Y-102785750D01*
X149776250Y-102627000D01*
X149027000Y-102627000D01*
X148773000Y-102627000D01*
X148753000Y-102627000D01*
X148753000Y-102373000D01*
X148773000Y-102373000D01*
X148773000Y-102353000D01*
X149027000Y-102353000D01*
X149027000Y-102373000D01*
X149776250Y-102373000D01*
X149935000Y-102214250D01*
X149935000Y-101998690D01*
X149907391Y-101932035D01*
X150022740Y-101816888D01*
X150134873Y-101546842D01*
X150135128Y-101254441D01*
X150023466Y-100984200D01*
X149816888Y-100777260D01*
X149546842Y-100665127D01*
X149254441Y-100664872D01*
X149027375Y-100758694D01*
X149040512Y-100693820D01*
X149040512Y-100404260D01*
X149019950Y-100294981D01*
X149040512Y-100193440D01*
X149040512Y-99903880D01*
X149019950Y-99794601D01*
X149040512Y-99693060D01*
X149040512Y-99403500D01*
X149019950Y-99294221D01*
X149038650Y-99201874D01*
X153230881Y-99201874D01*
X153432632Y-99612763D01*
X153773322Y-99900002D01*
X154198000Y-100035000D01*
X154473000Y-100035000D01*
X154473000Y-99027000D01*
X153357046Y-99027000D01*
X153230881Y-99201874D01*
X149038650Y-99201874D01*
X149040512Y-99192680D01*
X149040512Y-98903120D01*
X149019950Y-98793841D01*
X149040512Y-98692300D01*
X149040512Y-98402740D01*
X149020197Y-98294777D01*
X149039161Y-98201131D01*
X150798771Y-98201131D01*
X150940432Y-98611049D01*
X151228179Y-98935552D01*
X151602062Y-99119268D01*
X151773000Y-98992734D01*
X151773000Y-98027000D01*
X152027000Y-98027000D01*
X152027000Y-98992734D01*
X152197938Y-99119268D01*
X152571821Y-98935552D01*
X152859568Y-98611049D01*
X153001229Y-98201131D01*
X152852563Y-98027000D01*
X152027000Y-98027000D01*
X151773000Y-98027000D01*
X150947437Y-98027000D01*
X150798771Y-98201131D01*
X149039161Y-98201131D01*
X149040512Y-98194460D01*
X149040512Y-97904900D01*
X149019950Y-97795621D01*
X149040512Y-97694080D01*
X149040512Y-97404520D01*
X149019950Y-97295241D01*
X149040512Y-97193700D01*
X149040512Y-97174761D01*
X149167398Y-97200000D01*
G36*
X138627000Y-104473000D02*
X138647000Y-104473000D01*
X138647000Y-104700000D01*
X137160011Y-104700000D01*
X137160011Y-104527760D01*
X138051018Y-104527760D01*
X138242360Y-104489700D01*
X138267353Y-104473000D01*
X138373000Y-104473000D01*
X138373000Y-104453000D01*
X138627000Y-104453000D01*
X138627000Y-104473000D01*
X138627000Y-104473000D01*
G37*
X138627000Y-104473000D02*
X138647000Y-104473000D01*
X138647000Y-104700000D01*
X137160011Y-104700000D01*
X137160011Y-104527760D01*
X138051018Y-104527760D01*
X138242360Y-104489700D01*
X138267353Y-104473000D01*
X138373000Y-104473000D01*
X138373000Y-104453000D01*
X138627000Y-104453000D01*
X138627000Y-104473000D01*
G36*
X150664950Y-83356478D02*
X149925000Y-83356478D01*
X149763799Y-83386810D01*
X149615745Y-83482080D01*
X149524924Y-83615000D01*
X148660000Y-83615000D01*
X148436130Y-83659530D01*
X148246343Y-83786342D01*
X148241207Y-83791478D01*
X147450000Y-83791478D01*
X147288799Y-83821810D01*
X147140745Y-83917080D01*
X147041421Y-84062445D01*
X147006478Y-84235000D01*
X147006478Y-84885000D01*
X147036810Y-85046201D01*
X147132080Y-85194255D01*
X147134645Y-85196008D01*
X147041421Y-85332445D01*
X147006478Y-85505000D01*
X147006478Y-86155000D01*
X147036810Y-86316201D01*
X147132080Y-86464255D01*
X147134645Y-86466008D01*
X147041421Y-86602445D01*
X147006478Y-86775000D01*
X147006478Y-87161416D01*
X145946447Y-88221447D01*
X145838060Y-88383658D01*
X145800000Y-88575000D01*
X145800000Y-89328724D01*
X145646842Y-89265127D01*
X145448280Y-89264954D01*
X145448280Y-89253280D01*
X145410220Y-89061938D01*
X145301833Y-88899727D01*
X142293522Y-85891416D01*
X142293522Y-85505000D01*
X142263190Y-85343799D01*
X142167920Y-85195745D01*
X142165355Y-85193992D01*
X142258579Y-85057555D01*
X142293522Y-84885000D01*
X142293522Y-84235000D01*
X142263190Y-84073799D01*
X142167920Y-83925745D01*
X142022555Y-83826421D01*
X141850000Y-83791478D01*
X140150000Y-83791478D01*
X139988799Y-83821810D01*
X139840745Y-83917080D01*
X139741421Y-84062445D01*
X139706478Y-84235000D01*
X139706478Y-84621416D01*
X139601446Y-84726448D01*
X139493059Y-84888659D01*
X139454999Y-85080001D01*
X139454999Y-87581001D01*
X139488499Y-87749418D01*
X139493059Y-87772343D01*
X139544025Y-87848618D01*
X139515000Y-87918690D01*
X139515000Y-88084250D01*
X139673750Y-88243000D01*
X139954310Y-88243000D01*
X139982656Y-88261940D01*
X140173998Y-88300000D01*
X141147000Y-88300000D01*
X141147000Y-88497000D01*
X141127000Y-88497000D01*
X141127000Y-88517000D01*
X140873000Y-88517000D01*
X140873000Y-88497000D01*
X139673750Y-88497000D01*
X139515000Y-88655750D01*
X139515000Y-88821310D01*
X139611673Y-89054699D01*
X139790302Y-89233327D01*
X139992398Y-89317038D01*
X139932005Y-89377326D01*
X139819872Y-89647372D01*
X139819617Y-89939773D01*
X139827763Y-89959488D01*
X139807320Y-89959488D01*
X139698041Y-89980050D01*
X139596500Y-89959488D01*
X139550624Y-89959488D01*
X139455818Y-89864683D01*
X139222429Y-89768010D01*
X139182480Y-89768010D01*
X139023730Y-89926760D01*
X139023730Y-90068331D01*
X138997685Y-90085090D01*
X138951541Y-90152624D01*
X138913660Y-90093755D01*
X138878950Y-90070039D01*
X138878950Y-89926760D01*
X138720200Y-89768010D01*
X138680251Y-89768010D01*
X138446862Y-89864683D01*
X138352056Y-89959488D01*
X138306180Y-89959488D01*
X138144979Y-89989820D01*
X137996925Y-90085090D01*
X137919658Y-90198174D01*
X137913190Y-90163799D01*
X137817920Y-90015745D01*
X137672555Y-89916421D01*
X137500000Y-89881478D01*
X136700000Y-89881478D01*
X136538799Y-89911810D01*
X136505964Y-89932939D01*
X136359698Y-89786673D01*
X136126309Y-89690000D01*
X135885750Y-89690000D01*
X135727000Y-89848750D01*
X135727000Y-90573000D01*
X135747000Y-90573000D01*
X135747000Y-90827000D01*
X135727000Y-90827000D01*
X135727000Y-91551250D01*
X135885750Y-91710000D01*
X136126309Y-91710000D01*
X136359698Y-91613327D01*
X136504871Y-91468155D01*
X136527445Y-91483579D01*
X136700000Y-91518522D01*
X136723040Y-91518522D01*
X136746447Y-91553553D01*
X136865023Y-91672129D01*
X136864872Y-91845559D01*
X136976534Y-92115800D01*
X137183112Y-92322740D01*
X137453158Y-92434873D01*
X137745559Y-92435128D01*
X138015800Y-92323466D01*
X138171533Y-92168005D01*
X138306180Y-92195272D01*
X138352056Y-92195272D01*
X138446862Y-92290077D01*
X138680251Y-92386750D01*
X138720200Y-92386750D01*
X138824338Y-92282612D01*
X138824338Y-92386750D01*
X138944987Y-92386750D01*
X138944987Y-93085044D01*
X138983047Y-93276386D01*
X139091434Y-93438597D01*
X139906390Y-94253554D01*
X140068601Y-94361940D01*
X140259943Y-94400000D01*
X140382894Y-94400000D01*
X140111265Y-94671155D01*
X139915223Y-95143276D01*
X139914777Y-95654481D01*
X140109995Y-96126943D01*
X140471155Y-96488735D01*
X140943276Y-96684777D01*
X141454481Y-96685223D01*
X141926943Y-96490005D01*
X142288735Y-96128845D01*
X142484777Y-95656724D01*
X142485223Y-95145519D01*
X142290005Y-94673057D01*
X141940299Y-94322739D01*
X142010028Y-94351693D01*
X142302429Y-94351948D01*
X142572670Y-94240286D01*
X142779610Y-94033708D01*
X142891743Y-93763662D01*
X142891955Y-93520149D01*
X143969317Y-93520149D01*
X143593967Y-93895499D01*
X143485580Y-94057710D01*
X143447520Y-94249052D01*
X143447520Y-98060419D01*
X143446842Y-98060137D01*
X143154441Y-98059882D01*
X142884200Y-98171544D01*
X142677260Y-98378122D01*
X142565127Y-98648168D01*
X142564872Y-98940569D01*
X142676534Y-99210810D01*
X142883112Y-99417750D01*
X143153158Y-99529883D01*
X143445559Y-99530138D01*
X143447520Y-99529328D01*
X143447520Y-101404728D01*
X143304900Y-101404728D01*
X143195621Y-101425290D01*
X143094080Y-101404728D01*
X142804520Y-101404728D01*
X142695241Y-101425290D01*
X142593700Y-101404728D01*
X142536348Y-101404728D01*
X142770105Y-101308141D01*
X142977045Y-101101563D01*
X143089178Y-100831517D01*
X143089433Y-100539116D01*
X142977771Y-100268875D01*
X142771193Y-100061935D01*
X142501147Y-99949802D01*
X142208746Y-99949547D01*
X141938505Y-100061209D01*
X141731565Y-100267787D01*
X141619432Y-100537833D01*
X141619280Y-100712594D01*
X141597527Y-100734347D01*
X141489140Y-100896558D01*
X141451080Y-101087900D01*
X141451080Y-101404728D01*
X141305920Y-101404728D01*
X141196641Y-101425290D01*
X141095100Y-101404728D01*
X140805540Y-101404728D01*
X140697577Y-101425043D01*
X140597260Y-101404728D01*
X140307700Y-101404728D01*
X140198421Y-101425290D01*
X140096880Y-101404728D01*
X139807320Y-101404728D01*
X139698041Y-101425290D01*
X139596500Y-101404728D01*
X139550624Y-101404728D01*
X139455818Y-101309923D01*
X139222429Y-101213250D01*
X139182480Y-101213250D01*
X139023730Y-101372000D01*
X139023730Y-101513571D01*
X138997685Y-101530330D01*
X138951541Y-101597864D01*
X138913660Y-101538995D01*
X138878950Y-101515279D01*
X138878950Y-101372000D01*
X138720200Y-101213250D01*
X138680251Y-101213250D01*
X138593336Y-101249251D01*
X138593336Y-98861266D01*
X138555276Y-98669924D01*
X138446889Y-98507713D01*
X137635303Y-97696127D01*
X137595272Y-97669379D01*
X137595272Y-97645559D01*
X138164872Y-97645559D01*
X138276534Y-97915800D01*
X138483112Y-98122740D01*
X138753158Y-98234873D01*
X139045559Y-98235128D01*
X139285249Y-98136090D01*
X139523145Y-98234873D01*
X139815546Y-98235128D01*
X140035199Y-98144369D01*
X140253158Y-98234873D01*
X140545559Y-98235128D01*
X140800292Y-98129874D01*
X141053158Y-98234873D01*
X141345559Y-98235128D01*
X141615800Y-98123466D01*
X141822740Y-97916888D01*
X141934873Y-97646842D01*
X141935128Y-97354441D01*
X141823466Y-97084200D01*
X141616888Y-96877260D01*
X141346842Y-96765127D01*
X141054441Y-96764872D01*
X140799708Y-96870126D01*
X140546842Y-96765127D01*
X140254441Y-96764872D01*
X140034788Y-96855631D01*
X139816829Y-96765127D01*
X139524428Y-96764872D01*
X139284738Y-96863910D01*
X139046842Y-96765127D01*
X138754441Y-96764872D01*
X138484200Y-96876534D01*
X138277260Y-97083112D01*
X138165127Y-97353158D01*
X138164872Y-97645559D01*
X137595272Y-97645559D01*
X137595272Y-97404520D01*
X137574710Y-97295241D01*
X137595272Y-97193700D01*
X137595272Y-96904140D01*
X137574957Y-96796177D01*
X137595272Y-96695860D01*
X137595272Y-96406300D01*
X137574710Y-96297021D01*
X137595272Y-96195480D01*
X137595272Y-95905920D01*
X137574710Y-95796641D01*
X137595272Y-95695100D01*
X137595272Y-95405540D01*
X137574957Y-95297577D01*
X137595272Y-95197260D01*
X137595272Y-94907700D01*
X137574710Y-94798421D01*
X137595272Y-94696880D01*
X137595272Y-94407320D01*
X137574710Y-94298041D01*
X137595272Y-94196500D01*
X137595272Y-93906940D01*
X137574710Y-93797661D01*
X137595272Y-93696120D01*
X137595272Y-93406560D01*
X137574710Y-93297281D01*
X137595272Y-93195740D01*
X137595272Y-92906180D01*
X137564940Y-92744979D01*
X137469670Y-92596925D01*
X137324305Y-92497601D01*
X137151750Y-92462658D01*
X135803010Y-92462658D01*
X135641809Y-92492990D01*
X135504999Y-92581025D01*
X135504999Y-88576386D01*
X135548970Y-88576386D01*
X135548970Y-89116716D01*
X135645643Y-89350105D01*
X135824272Y-89528733D01*
X136057661Y-89625406D01*
X136798650Y-89625406D01*
X136957400Y-89466656D01*
X136957400Y-88417636D01*
X137211400Y-88417636D01*
X137211400Y-89466656D01*
X137370150Y-89625406D01*
X138111139Y-89625406D01*
X138344528Y-89528733D01*
X138523157Y-89350105D01*
X138619830Y-89116716D01*
X138619830Y-88576386D01*
X138461080Y-88417636D01*
X137211400Y-88417636D01*
X136957400Y-88417636D01*
X135707720Y-88417636D01*
X135548970Y-88576386D01*
X135504999Y-88576386D01*
X135504999Y-87978723D01*
X135548970Y-87934752D01*
X135548970Y-88004886D01*
X135707720Y-88163636D01*
X136957400Y-88163636D01*
X136957400Y-88143636D01*
X137211400Y-88143636D01*
X137211400Y-88163636D01*
X138461080Y-88163636D01*
X138619830Y-88004886D01*
X138619830Y-87464556D01*
X138523157Y-87231167D01*
X138344528Y-87052539D01*
X138179611Y-86984228D01*
X138294085Y-86910566D01*
X138393409Y-86765201D01*
X138428352Y-86592646D01*
X138428352Y-85193106D01*
X138398020Y-85031905D01*
X138302750Y-84883851D01*
X138157385Y-84784527D01*
X138074972Y-84767838D01*
X138093699Y-84740431D01*
X138128642Y-84567876D01*
X138128642Y-83817876D01*
X138098310Y-83656675D01*
X138003040Y-83508621D01*
X137857675Y-83409297D01*
X137685120Y-83374354D01*
X136885120Y-83374354D01*
X136723919Y-83404686D01*
X136691084Y-83425815D01*
X136544818Y-83279549D01*
X136376912Y-83210000D01*
X150665077Y-83210000D01*
X150664950Y-83356478D01*
X150664950Y-83356478D01*
G37*
X150664950Y-83356478D02*
X149925000Y-83356478D01*
X149763799Y-83386810D01*
X149615745Y-83482080D01*
X149524924Y-83615000D01*
X148660000Y-83615000D01*
X148436130Y-83659530D01*
X148246343Y-83786342D01*
X148241207Y-83791478D01*
X147450000Y-83791478D01*
X147288799Y-83821810D01*
X147140745Y-83917080D01*
X147041421Y-84062445D01*
X147006478Y-84235000D01*
X147006478Y-84885000D01*
X147036810Y-85046201D01*
X147132080Y-85194255D01*
X147134645Y-85196008D01*
X147041421Y-85332445D01*
X147006478Y-85505000D01*
X147006478Y-86155000D01*
X147036810Y-86316201D01*
X147132080Y-86464255D01*
X147134645Y-86466008D01*
X147041421Y-86602445D01*
X147006478Y-86775000D01*
X147006478Y-87161416D01*
X145946447Y-88221447D01*
X145838060Y-88383658D01*
X145800000Y-88575000D01*
X145800000Y-89328724D01*
X145646842Y-89265127D01*
X145448280Y-89264954D01*
X145448280Y-89253280D01*
X145410220Y-89061938D01*
X145301833Y-88899727D01*
X142293522Y-85891416D01*
X142293522Y-85505000D01*
X142263190Y-85343799D01*
X142167920Y-85195745D01*
X142165355Y-85193992D01*
X142258579Y-85057555D01*
X142293522Y-84885000D01*
X142293522Y-84235000D01*
X142263190Y-84073799D01*
X142167920Y-83925745D01*
X142022555Y-83826421D01*
X141850000Y-83791478D01*
X140150000Y-83791478D01*
X139988799Y-83821810D01*
X139840745Y-83917080D01*
X139741421Y-84062445D01*
X139706478Y-84235000D01*
X139706478Y-84621416D01*
X139601446Y-84726448D01*
X139493059Y-84888659D01*
X139454999Y-85080001D01*
X139454999Y-87581001D01*
X139488499Y-87749418D01*
X139493059Y-87772343D01*
X139544025Y-87848618D01*
X139515000Y-87918690D01*
X139515000Y-88084250D01*
X139673750Y-88243000D01*
X139954310Y-88243000D01*
X139982656Y-88261940D01*
X140173998Y-88300000D01*
X141147000Y-88300000D01*
X141147000Y-88497000D01*
X141127000Y-88497000D01*
X141127000Y-88517000D01*
X140873000Y-88517000D01*
X140873000Y-88497000D01*
X139673750Y-88497000D01*
X139515000Y-88655750D01*
X139515000Y-88821310D01*
X139611673Y-89054699D01*
X139790302Y-89233327D01*
X139992398Y-89317038D01*
X139932005Y-89377326D01*
X139819872Y-89647372D01*
X139819617Y-89939773D01*
X139827763Y-89959488D01*
X139807320Y-89959488D01*
X139698041Y-89980050D01*
X139596500Y-89959488D01*
X139550624Y-89959488D01*
X139455818Y-89864683D01*
X139222429Y-89768010D01*
X139182480Y-89768010D01*
X139023730Y-89926760D01*
X139023730Y-90068331D01*
X138997685Y-90085090D01*
X138951541Y-90152624D01*
X138913660Y-90093755D01*
X138878950Y-90070039D01*
X138878950Y-89926760D01*
X138720200Y-89768010D01*
X138680251Y-89768010D01*
X138446862Y-89864683D01*
X138352056Y-89959488D01*
X138306180Y-89959488D01*
X138144979Y-89989820D01*
X137996925Y-90085090D01*
X137919658Y-90198174D01*
X137913190Y-90163799D01*
X137817920Y-90015745D01*
X137672555Y-89916421D01*
X137500000Y-89881478D01*
X136700000Y-89881478D01*
X136538799Y-89911810D01*
X136505964Y-89932939D01*
X136359698Y-89786673D01*
X136126309Y-89690000D01*
X135885750Y-89690000D01*
X135727000Y-89848750D01*
X135727000Y-90573000D01*
X135747000Y-90573000D01*
X135747000Y-90827000D01*
X135727000Y-90827000D01*
X135727000Y-91551250D01*
X135885750Y-91710000D01*
X136126309Y-91710000D01*
X136359698Y-91613327D01*
X136504871Y-91468155D01*
X136527445Y-91483579D01*
X136700000Y-91518522D01*
X136723040Y-91518522D01*
X136746447Y-91553553D01*
X136865023Y-91672129D01*
X136864872Y-91845559D01*
X136976534Y-92115800D01*
X137183112Y-92322740D01*
X137453158Y-92434873D01*
X137745559Y-92435128D01*
X138015800Y-92323466D01*
X138171533Y-92168005D01*
X138306180Y-92195272D01*
X138352056Y-92195272D01*
X138446862Y-92290077D01*
X138680251Y-92386750D01*
X138720200Y-92386750D01*
X138824338Y-92282612D01*
X138824338Y-92386750D01*
X138944987Y-92386750D01*
X138944987Y-93085044D01*
X138983047Y-93276386D01*
X139091434Y-93438597D01*
X139906390Y-94253554D01*
X140068601Y-94361940D01*
X140259943Y-94400000D01*
X140382894Y-94400000D01*
X140111265Y-94671155D01*
X139915223Y-95143276D01*
X139914777Y-95654481D01*
X140109995Y-96126943D01*
X140471155Y-96488735D01*
X140943276Y-96684777D01*
X141454481Y-96685223D01*
X141926943Y-96490005D01*
X142288735Y-96128845D01*
X142484777Y-95656724D01*
X142485223Y-95145519D01*
X142290005Y-94673057D01*
X141940299Y-94322739D01*
X142010028Y-94351693D01*
X142302429Y-94351948D01*
X142572670Y-94240286D01*
X142779610Y-94033708D01*
X142891743Y-93763662D01*
X142891955Y-93520149D01*
X143969317Y-93520149D01*
X143593967Y-93895499D01*
X143485580Y-94057710D01*
X143447520Y-94249052D01*
X143447520Y-98060419D01*
X143446842Y-98060137D01*
X143154441Y-98059882D01*
X142884200Y-98171544D01*
X142677260Y-98378122D01*
X142565127Y-98648168D01*
X142564872Y-98940569D01*
X142676534Y-99210810D01*
X142883112Y-99417750D01*
X143153158Y-99529883D01*
X143445559Y-99530138D01*
X143447520Y-99529328D01*
X143447520Y-101404728D01*
X143304900Y-101404728D01*
X143195621Y-101425290D01*
X143094080Y-101404728D01*
X142804520Y-101404728D01*
X142695241Y-101425290D01*
X142593700Y-101404728D01*
X142536348Y-101404728D01*
X142770105Y-101308141D01*
X142977045Y-101101563D01*
X143089178Y-100831517D01*
X143089433Y-100539116D01*
X142977771Y-100268875D01*
X142771193Y-100061935D01*
X142501147Y-99949802D01*
X142208746Y-99949547D01*
X141938505Y-100061209D01*
X141731565Y-100267787D01*
X141619432Y-100537833D01*
X141619280Y-100712594D01*
X141597527Y-100734347D01*
X141489140Y-100896558D01*
X141451080Y-101087900D01*
X141451080Y-101404728D01*
X141305920Y-101404728D01*
X141196641Y-101425290D01*
X141095100Y-101404728D01*
X140805540Y-101404728D01*
X140697577Y-101425043D01*
X140597260Y-101404728D01*
X140307700Y-101404728D01*
X140198421Y-101425290D01*
X140096880Y-101404728D01*
X139807320Y-101404728D01*
X139698041Y-101425290D01*
X139596500Y-101404728D01*
X139550624Y-101404728D01*
X139455818Y-101309923D01*
X139222429Y-101213250D01*
X139182480Y-101213250D01*
X139023730Y-101372000D01*
X139023730Y-101513571D01*
X138997685Y-101530330D01*
X138951541Y-101597864D01*
X138913660Y-101538995D01*
X138878950Y-101515279D01*
X138878950Y-101372000D01*
X138720200Y-101213250D01*
X138680251Y-101213250D01*
X138593336Y-101249251D01*
X138593336Y-98861266D01*
X138555276Y-98669924D01*
X138446889Y-98507713D01*
X137635303Y-97696127D01*
X137595272Y-97669379D01*
X137595272Y-97645559D01*
X138164872Y-97645559D01*
X138276534Y-97915800D01*
X138483112Y-98122740D01*
X138753158Y-98234873D01*
X139045559Y-98235128D01*
X139285249Y-98136090D01*
X139523145Y-98234873D01*
X139815546Y-98235128D01*
X140035199Y-98144369D01*
X140253158Y-98234873D01*
X140545559Y-98235128D01*
X140800292Y-98129874D01*
X141053158Y-98234873D01*
X141345559Y-98235128D01*
X141615800Y-98123466D01*
X141822740Y-97916888D01*
X141934873Y-97646842D01*
X141935128Y-97354441D01*
X141823466Y-97084200D01*
X141616888Y-96877260D01*
X141346842Y-96765127D01*
X141054441Y-96764872D01*
X140799708Y-96870126D01*
X140546842Y-96765127D01*
X140254441Y-96764872D01*
X140034788Y-96855631D01*
X139816829Y-96765127D01*
X139524428Y-96764872D01*
X139284738Y-96863910D01*
X139046842Y-96765127D01*
X138754441Y-96764872D01*
X138484200Y-96876534D01*
X138277260Y-97083112D01*
X138165127Y-97353158D01*
X138164872Y-97645559D01*
X137595272Y-97645559D01*
X137595272Y-97404520D01*
X137574710Y-97295241D01*
X137595272Y-97193700D01*
X137595272Y-96904140D01*
X137574957Y-96796177D01*
X137595272Y-96695860D01*
X137595272Y-96406300D01*
X137574710Y-96297021D01*
X137595272Y-96195480D01*
X137595272Y-95905920D01*
X137574710Y-95796641D01*
X137595272Y-95695100D01*
X137595272Y-95405540D01*
X137574957Y-95297577D01*
X137595272Y-95197260D01*
X137595272Y-94907700D01*
X137574710Y-94798421D01*
X137595272Y-94696880D01*
X137595272Y-94407320D01*
X137574710Y-94298041D01*
X137595272Y-94196500D01*
X137595272Y-93906940D01*
X137574710Y-93797661D01*
X137595272Y-93696120D01*
X137595272Y-93406560D01*
X137574710Y-93297281D01*
X137595272Y-93195740D01*
X137595272Y-92906180D01*
X137564940Y-92744979D01*
X137469670Y-92596925D01*
X137324305Y-92497601D01*
X137151750Y-92462658D01*
X135803010Y-92462658D01*
X135641809Y-92492990D01*
X135504999Y-92581025D01*
X135504999Y-88576386D01*
X135548970Y-88576386D01*
X135548970Y-89116716D01*
X135645643Y-89350105D01*
X135824272Y-89528733D01*
X136057661Y-89625406D01*
X136798650Y-89625406D01*
X136957400Y-89466656D01*
X136957400Y-88417636D01*
X137211400Y-88417636D01*
X137211400Y-89466656D01*
X137370150Y-89625406D01*
X138111139Y-89625406D01*
X138344528Y-89528733D01*
X138523157Y-89350105D01*
X138619830Y-89116716D01*
X138619830Y-88576386D01*
X138461080Y-88417636D01*
X137211400Y-88417636D01*
X136957400Y-88417636D01*
X135707720Y-88417636D01*
X135548970Y-88576386D01*
X135504999Y-88576386D01*
X135504999Y-87978723D01*
X135548970Y-87934752D01*
X135548970Y-88004886D01*
X135707720Y-88163636D01*
X136957400Y-88163636D01*
X136957400Y-88143636D01*
X137211400Y-88143636D01*
X137211400Y-88163636D01*
X138461080Y-88163636D01*
X138619830Y-88004886D01*
X138619830Y-87464556D01*
X138523157Y-87231167D01*
X138344528Y-87052539D01*
X138179611Y-86984228D01*
X138294085Y-86910566D01*
X138393409Y-86765201D01*
X138428352Y-86592646D01*
X138428352Y-85193106D01*
X138398020Y-85031905D01*
X138302750Y-84883851D01*
X138157385Y-84784527D01*
X138074972Y-84767838D01*
X138093699Y-84740431D01*
X138128642Y-84567876D01*
X138128642Y-83817876D01*
X138098310Y-83656675D01*
X138003040Y-83508621D01*
X137857675Y-83409297D01*
X137685120Y-83374354D01*
X136885120Y-83374354D01*
X136723919Y-83404686D01*
X136691084Y-83425815D01*
X136544818Y-83279549D01*
X136376912Y-83210000D01*
X150665077Y-83210000D01*
X150664950Y-83356478D01*
G36*
X147800000Y-91296322D02*
X145946447Y-93149875D01*
X145838060Y-93312086D01*
X145800000Y-93503428D01*
X145800000Y-96230670D01*
X145833682Y-96400000D01*
X145838060Y-96422012D01*
X145946447Y-96584223D01*
X146764696Y-97402473D01*
X146804728Y-97429222D01*
X146804728Y-97694080D01*
X146825290Y-97803359D01*
X146804728Y-97904900D01*
X146804728Y-98194460D01*
X146825043Y-98302423D01*
X146804728Y-98402740D01*
X146804728Y-98692300D01*
X146825290Y-98801579D01*
X146804728Y-98903120D01*
X146804728Y-99192680D01*
X146825290Y-99301959D01*
X146804728Y-99403500D01*
X146804728Y-99693060D01*
X146825290Y-99802339D01*
X146804728Y-99903880D01*
X146804728Y-100049040D01*
X146550960Y-100049040D01*
X146359618Y-100087100D01*
X146197407Y-100195486D01*
X145827870Y-100565023D01*
X145654441Y-100564872D01*
X145384200Y-100676534D01*
X145177260Y-100883112D01*
X145065127Y-101153158D01*
X145065034Y-101259864D01*
X144944182Y-101309923D01*
X144849376Y-101404728D01*
X144803500Y-101404728D01*
X144694221Y-101425290D01*
X144592680Y-101404728D01*
X144447520Y-101404728D01*
X144447520Y-94456158D01*
X146653553Y-92250125D01*
X146761940Y-92087914D01*
X146767292Y-92061005D01*
X146800000Y-91896572D01*
X146800000Y-89434914D01*
X147045559Y-89435128D01*
X147315800Y-89323466D01*
X147501068Y-89138522D01*
X147800000Y-89138522D01*
X147800000Y-91296322D01*
X147800000Y-91296322D01*
G37*
X147800000Y-91296322D02*
X145946447Y-93149875D01*
X145838060Y-93312086D01*
X145800000Y-93503428D01*
X145800000Y-96230670D01*
X145833682Y-96400000D01*
X145838060Y-96422012D01*
X145946447Y-96584223D01*
X146764696Y-97402473D01*
X146804728Y-97429222D01*
X146804728Y-97694080D01*
X146825290Y-97803359D01*
X146804728Y-97904900D01*
X146804728Y-98194460D01*
X146825043Y-98302423D01*
X146804728Y-98402740D01*
X146804728Y-98692300D01*
X146825290Y-98801579D01*
X146804728Y-98903120D01*
X146804728Y-99192680D01*
X146825290Y-99301959D01*
X146804728Y-99403500D01*
X146804728Y-99693060D01*
X146825290Y-99802339D01*
X146804728Y-99903880D01*
X146804728Y-100049040D01*
X146550960Y-100049040D01*
X146359618Y-100087100D01*
X146197407Y-100195486D01*
X145827870Y-100565023D01*
X145654441Y-100564872D01*
X145384200Y-100676534D01*
X145177260Y-100883112D01*
X145065127Y-101153158D01*
X145065034Y-101259864D01*
X144944182Y-101309923D01*
X144849376Y-101404728D01*
X144803500Y-101404728D01*
X144694221Y-101425290D01*
X144592680Y-101404728D01*
X144447520Y-101404728D01*
X144447520Y-94456158D01*
X146653553Y-92250125D01*
X146761940Y-92087914D01*
X146767292Y-92061005D01*
X146800000Y-91896572D01*
X146800000Y-89434914D01*
X147045559Y-89435128D01*
X147315800Y-89323466D01*
X147501068Y-89138522D01*
X147800000Y-89138522D01*
X147800000Y-91296322D01*
G36*
X135359488Y-96695860D02*
X135379803Y-96803823D01*
X135359488Y-96904140D01*
X135359488Y-97193700D01*
X135380050Y-97302979D01*
X135359488Y-97404520D01*
X135359488Y-97694080D01*
X135380050Y-97803359D01*
X135359488Y-97904900D01*
X135359488Y-97948236D01*
X135264683Y-98043042D01*
X135168010Y-98276431D01*
X135168010Y-98316380D01*
X135326760Y-98475130D01*
X135466696Y-98475130D01*
X135485090Y-98503715D01*
X135549757Y-98547900D01*
X135257100Y-98547900D01*
X135110000Y-98577160D01*
X135110000Y-98485750D01*
X134951250Y-98327000D01*
X134227000Y-98327000D01*
X134227000Y-98347000D01*
X133973000Y-98347000D01*
X133973000Y-98327000D01*
X133248750Y-98327000D01*
X133090000Y-98485750D01*
X133090000Y-98726309D01*
X133186673Y-98959698D01*
X133192054Y-98965079D01*
X132954441Y-98964872D01*
X132785726Y-99034584D01*
X132722555Y-98991421D01*
X132550000Y-98956478D01*
X131650000Y-98956478D01*
X131488799Y-98986810D01*
X131340745Y-99082080D01*
X131241421Y-99227445D01*
X131210000Y-99382608D01*
X131210000Y-98418718D01*
X131236810Y-98561201D01*
X131332080Y-98709255D01*
X131477445Y-98808579D01*
X131650000Y-98843522D01*
X132550000Y-98843522D01*
X132711201Y-98813190D01*
X132859255Y-98717920D01*
X132958579Y-98572555D01*
X132993522Y-98400000D01*
X132993522Y-97900000D01*
X132963190Y-97738799D01*
X132914294Y-97662812D01*
X133397129Y-97179978D01*
X133562183Y-97180122D01*
X133365301Y-97261673D01*
X133186673Y-97440302D01*
X133090000Y-97673691D01*
X133090000Y-97914250D01*
X133248750Y-98073000D01*
X133973000Y-98073000D01*
X133973000Y-97323750D01*
X134227000Y-97323750D01*
X134227000Y-98073000D01*
X134951250Y-98073000D01*
X135110000Y-97914250D01*
X135110000Y-97673691D01*
X135013327Y-97440302D01*
X134834699Y-97261673D01*
X134601310Y-97165000D01*
X134385750Y-97165000D01*
X134227000Y-97323750D01*
X133973000Y-97323750D01*
X133814250Y-97165000D01*
X133607173Y-97165000D01*
X133840799Y-97068467D01*
X133964481Y-96945001D01*
X134701601Y-96945001D01*
X134892943Y-96906941D01*
X135055154Y-96798554D01*
X135303009Y-96550700D01*
X135359488Y-96550700D01*
X135359488Y-96695860D01*
X135359488Y-96695860D01*
G37*
X135359488Y-96695860D02*
X135379803Y-96803823D01*
X135359488Y-96904140D01*
X135359488Y-97193700D01*
X135380050Y-97302979D01*
X135359488Y-97404520D01*
X135359488Y-97694080D01*
X135380050Y-97803359D01*
X135359488Y-97904900D01*
X135359488Y-97948236D01*
X135264683Y-98043042D01*
X135168010Y-98276431D01*
X135168010Y-98316380D01*
X135326760Y-98475130D01*
X135466696Y-98475130D01*
X135485090Y-98503715D01*
X135549757Y-98547900D01*
X135257100Y-98547900D01*
X135110000Y-98577160D01*
X135110000Y-98485750D01*
X134951250Y-98327000D01*
X134227000Y-98327000D01*
X134227000Y-98347000D01*
X133973000Y-98347000D01*
X133973000Y-98327000D01*
X133248750Y-98327000D01*
X133090000Y-98485750D01*
X133090000Y-98726309D01*
X133186673Y-98959698D01*
X133192054Y-98965079D01*
X132954441Y-98964872D01*
X132785726Y-99034584D01*
X132722555Y-98991421D01*
X132550000Y-98956478D01*
X131650000Y-98956478D01*
X131488799Y-98986810D01*
X131340745Y-99082080D01*
X131241421Y-99227445D01*
X131210000Y-99382608D01*
X131210000Y-98418718D01*
X131236810Y-98561201D01*
X131332080Y-98709255D01*
X131477445Y-98808579D01*
X131650000Y-98843522D01*
X132550000Y-98843522D01*
X132711201Y-98813190D01*
X132859255Y-98717920D01*
X132958579Y-98572555D01*
X132993522Y-98400000D01*
X132993522Y-97900000D01*
X132963190Y-97738799D01*
X132914294Y-97662812D01*
X133397129Y-97179978D01*
X133562183Y-97180122D01*
X133365301Y-97261673D01*
X133186673Y-97440302D01*
X133090000Y-97673691D01*
X133090000Y-97914250D01*
X133248750Y-98073000D01*
X133973000Y-98073000D01*
X133973000Y-97323750D01*
X134227000Y-97323750D01*
X134227000Y-98073000D01*
X134951250Y-98073000D01*
X135110000Y-97914250D01*
X135110000Y-97673691D01*
X135013327Y-97440302D01*
X134834699Y-97261673D01*
X134601310Y-97165000D01*
X134385750Y-97165000D01*
X134227000Y-97323750D01*
X133973000Y-97323750D01*
X133814250Y-97165000D01*
X133607173Y-97165000D01*
X133840799Y-97068467D01*
X133964481Y-96945001D01*
X134701601Y-96945001D01*
X134892943Y-96906941D01*
X135055154Y-96798554D01*
X135303009Y-96550700D01*
X135359488Y-96550700D01*
X135359488Y-96695860D01*
G36*
X131246363Y-86952345D02*
X131424992Y-87130973D01*
X131589909Y-87199284D01*
X131475435Y-87272946D01*
X131376111Y-87418311D01*
X131341168Y-87590866D01*
X131341168Y-88990406D01*
X131371500Y-89151607D01*
X131466770Y-89299661D01*
X131612135Y-89398985D01*
X131784690Y-89433928D01*
X132185120Y-89433928D01*
X132185120Y-91085120D01*
X132215172Y-91236201D01*
X132223180Y-91276462D01*
X132331567Y-91438673D01*
X134745001Y-93852108D01*
X134745001Y-94234926D01*
X134456724Y-94115223D01*
X133945519Y-94114777D01*
X133473057Y-94309995D01*
X133111265Y-94671155D01*
X132915223Y-95143276D01*
X132914777Y-95654481D01*
X132991219Y-95839484D01*
X132802259Y-96028113D01*
X132690126Y-96298159D01*
X132689974Y-96472920D01*
X131746447Y-97416447D01*
X131719699Y-97456478D01*
X131650000Y-97456478D01*
X131488799Y-97486810D01*
X131340745Y-97582080D01*
X131241421Y-97727445D01*
X131210000Y-97882608D01*
X131210000Y-86864557D01*
X131246363Y-86952345D01*
X131246363Y-86952345D01*
G37*
X131246363Y-86952345D02*
X131424992Y-87130973D01*
X131589909Y-87199284D01*
X131475435Y-87272946D01*
X131376111Y-87418311D01*
X131341168Y-87590866D01*
X131341168Y-88990406D01*
X131371500Y-89151607D01*
X131466770Y-89299661D01*
X131612135Y-89398985D01*
X131784690Y-89433928D01*
X132185120Y-89433928D01*
X132185120Y-91085120D01*
X132215172Y-91236201D01*
X132223180Y-91276462D01*
X132331567Y-91438673D01*
X134745001Y-93852108D01*
X134745001Y-94234926D01*
X134456724Y-94115223D01*
X133945519Y-94114777D01*
X133473057Y-94309995D01*
X133111265Y-94671155D01*
X132915223Y-95143276D01*
X132914777Y-95654481D01*
X132991219Y-95839484D01*
X132802259Y-96028113D01*
X132690126Y-96298159D01*
X132689974Y-96472920D01*
X131746447Y-97416447D01*
X131719699Y-97456478D01*
X131650000Y-97456478D01*
X131488799Y-97486810D01*
X131340745Y-97582080D01*
X131241421Y-97727445D01*
X131210000Y-97882608D01*
X131210000Y-86864557D01*
X131246363Y-86952345D01*
G36*
X155590000Y-91037696D02*
X155426678Y-90899998D01*
X155002000Y-90765000D01*
X154727000Y-90765000D01*
X154727000Y-91773000D01*
X154747000Y-91773000D01*
X154747000Y-92027000D01*
X154727000Y-92027000D01*
X154727000Y-93035000D01*
X155002000Y-93035000D01*
X155426678Y-92900002D01*
X155590000Y-92762304D01*
X155590000Y-97684585D01*
X154191757Y-96286343D01*
X154001970Y-96159530D01*
X153971926Y-96153554D01*
X153785000Y-96116372D01*
X153785000Y-92903714D01*
X154198000Y-93035000D01*
X154473000Y-93035000D01*
X154473000Y-92027000D01*
X154453000Y-92027000D01*
X154453000Y-91773000D01*
X154473000Y-91773000D01*
X154473000Y-90765000D01*
X154198000Y-90765000D01*
X153785000Y-90896286D01*
X153785000Y-90875000D01*
X153740470Y-90651130D01*
X153721500Y-90622740D01*
X153613658Y-90461343D01*
X153562315Y-90410000D01*
X153614250Y-90410000D01*
X153773000Y-90251250D01*
X153773000Y-89527000D01*
X154027000Y-89527000D01*
X154027000Y-90251250D01*
X154185750Y-90410000D01*
X154426309Y-90410000D01*
X154659698Y-90313327D01*
X154838327Y-90134699D01*
X154935000Y-89901310D01*
X154935000Y-89685750D01*
X154776250Y-89527000D01*
X154027000Y-89527000D01*
X153773000Y-89527000D01*
X153753000Y-89527000D01*
X153753000Y-89273000D01*
X153773000Y-89273000D01*
X153773000Y-89253000D01*
X154027000Y-89253000D01*
X154027000Y-89273000D01*
X154776250Y-89273000D01*
X154935000Y-89114250D01*
X154935000Y-88898690D01*
X154838327Y-88665301D01*
X154726157Y-88553131D01*
X154734255Y-88547920D01*
X154833579Y-88402555D01*
X154868522Y-88230000D01*
X154868522Y-87170000D01*
X154838190Y-87008799D01*
X154742920Y-86860745D01*
X154597555Y-86761421D01*
X154425000Y-86726478D01*
X154362795Y-86726478D01*
X154112658Y-86476342D01*
X154108438Y-86473522D01*
X154425000Y-86473522D01*
X154586201Y-86443190D01*
X154734255Y-86347920D01*
X154833579Y-86202555D01*
X154868522Y-86030000D01*
X154868522Y-84970000D01*
X154838190Y-84808799D01*
X154789654Y-84733372D01*
X154888327Y-84634699D01*
X154985000Y-84401310D01*
X154985000Y-84185750D01*
X154826250Y-84027000D01*
X154077000Y-84027000D01*
X154077000Y-84047000D01*
X153823000Y-84047000D01*
X153823000Y-84027000D01*
X153803000Y-84027000D01*
X153803000Y-83773000D01*
X153823000Y-83773000D01*
X153823000Y-83753000D01*
X154077000Y-83753000D01*
X154077000Y-83773000D01*
X154826250Y-83773000D01*
X154985000Y-83614250D01*
X154985000Y-83398690D01*
X154906842Y-83210000D01*
X155590000Y-83210000D01*
X155590000Y-91037696D01*
X155590000Y-91037696D01*
G37*
X155590000Y-91037696D02*
X155426678Y-90899998D01*
X155002000Y-90765000D01*
X154727000Y-90765000D01*
X154727000Y-91773000D01*
X154747000Y-91773000D01*
X154747000Y-92027000D01*
X154727000Y-92027000D01*
X154727000Y-93035000D01*
X155002000Y-93035000D01*
X155426678Y-92900002D01*
X155590000Y-92762304D01*
X155590000Y-97684585D01*
X154191757Y-96286343D01*
X154001970Y-96159530D01*
X153971926Y-96153554D01*
X153785000Y-96116372D01*
X153785000Y-92903714D01*
X154198000Y-93035000D01*
X154473000Y-93035000D01*
X154473000Y-92027000D01*
X154453000Y-92027000D01*
X154453000Y-91773000D01*
X154473000Y-91773000D01*
X154473000Y-90765000D01*
X154198000Y-90765000D01*
X153785000Y-90896286D01*
X153785000Y-90875000D01*
X153740470Y-90651130D01*
X153721500Y-90622740D01*
X153613658Y-90461343D01*
X153562315Y-90410000D01*
X153614250Y-90410000D01*
X153773000Y-90251250D01*
X153773000Y-89527000D01*
X154027000Y-89527000D01*
X154027000Y-90251250D01*
X154185750Y-90410000D01*
X154426309Y-90410000D01*
X154659698Y-90313327D01*
X154838327Y-90134699D01*
X154935000Y-89901310D01*
X154935000Y-89685750D01*
X154776250Y-89527000D01*
X154027000Y-89527000D01*
X153773000Y-89527000D01*
X153753000Y-89527000D01*
X153753000Y-89273000D01*
X153773000Y-89273000D01*
X153773000Y-89253000D01*
X154027000Y-89253000D01*
X154027000Y-89273000D01*
X154776250Y-89273000D01*
X154935000Y-89114250D01*
X154935000Y-88898690D01*
X154838327Y-88665301D01*
X154726157Y-88553131D01*
X154734255Y-88547920D01*
X154833579Y-88402555D01*
X154868522Y-88230000D01*
X154868522Y-87170000D01*
X154838190Y-87008799D01*
X154742920Y-86860745D01*
X154597555Y-86761421D01*
X154425000Y-86726478D01*
X154362795Y-86726478D01*
X154112658Y-86476342D01*
X154108438Y-86473522D01*
X154425000Y-86473522D01*
X154586201Y-86443190D01*
X154734255Y-86347920D01*
X154833579Y-86202555D01*
X154868522Y-86030000D01*
X154868522Y-84970000D01*
X154838190Y-84808799D01*
X154789654Y-84733372D01*
X154888327Y-84634699D01*
X154985000Y-84401310D01*
X154985000Y-84185750D01*
X154826250Y-84027000D01*
X154077000Y-84027000D01*
X154077000Y-84047000D01*
X153823000Y-84047000D01*
X153823000Y-84027000D01*
X153803000Y-84027000D01*
X153803000Y-83773000D01*
X153823000Y-83773000D01*
X153823000Y-83753000D01*
X154077000Y-83753000D01*
X154077000Y-83773000D01*
X154826250Y-83773000D01*
X154985000Y-83614250D01*
X154985000Y-83398690D01*
X154906842Y-83210000D01*
X155590000Y-83210000D01*
X155590000Y-91037696D01*
G36*
X150590000Y-93841250D02*
X150748750Y-94000000D01*
X151359338Y-94000000D01*
X151576033Y-94106478D01*
X151225000Y-94106478D01*
X151063799Y-94136810D01*
X150965599Y-94200000D01*
X150748750Y-94200000D01*
X150698750Y-94250000D01*
X150551239Y-94250000D01*
X150346842Y-94165127D01*
X150054441Y-94164872D01*
X149904081Y-94227000D01*
X149727000Y-94227000D01*
X149727000Y-94247000D01*
X149473000Y-94247000D01*
X149473000Y-94227000D01*
X149453000Y-94227000D01*
X149453000Y-93973000D01*
X149473000Y-93973000D01*
X149473000Y-93953000D01*
X149727000Y-93953000D01*
X149727000Y-93973000D01*
X150451250Y-93973000D01*
X150590000Y-93834250D01*
X150590000Y-93841250D01*
X150590000Y-93841250D01*
G37*
X150590000Y-93841250D02*
X150748750Y-94000000D01*
X151359338Y-94000000D01*
X151576033Y-94106478D01*
X151225000Y-94106478D01*
X151063799Y-94136810D01*
X150965599Y-94200000D01*
X150748750Y-94200000D01*
X150698750Y-94250000D01*
X150551239Y-94250000D01*
X150346842Y-94165127D01*
X150054441Y-94164872D01*
X149904081Y-94227000D01*
X149727000Y-94227000D01*
X149727000Y-94247000D01*
X149473000Y-94247000D01*
X149473000Y-94227000D01*
X149453000Y-94227000D01*
X149453000Y-93973000D01*
X149473000Y-93973000D01*
X149473000Y-93953000D01*
X149727000Y-93953000D01*
X149727000Y-93973000D01*
X150451250Y-93973000D01*
X150590000Y-93834250D01*
X150590000Y-93841250D01*
G36*
X151253158Y-85534873D02*
X151431478Y-85535029D01*
X151431478Y-86030000D01*
X151461810Y-86191201D01*
X151557080Y-86339255D01*
X151702445Y-86438579D01*
X151875000Y-86473522D01*
X152191561Y-86473522D01*
X152187341Y-86476342D01*
X151937206Y-86726478D01*
X151875000Y-86726478D01*
X151713799Y-86756810D01*
X151565745Y-86852080D01*
X151466421Y-86997445D01*
X151431478Y-87170000D01*
X151431478Y-88230000D01*
X151461810Y-88391201D01*
X151557080Y-88539255D01*
X151702445Y-88638579D01*
X151774518Y-88653174D01*
X151690745Y-88707080D01*
X151591421Y-88852445D01*
X151556478Y-89025000D01*
X151556478Y-89775000D01*
X151586810Y-89936201D01*
X151682080Y-90084255D01*
X151827445Y-90183579D01*
X151836982Y-90185510D01*
X151848180Y-90241809D01*
X151859530Y-90298870D01*
X151986343Y-90488657D01*
X152615000Y-91117315D01*
X152615000Y-91913143D01*
X152571821Y-91864448D01*
X152197938Y-91680732D01*
X152027000Y-91807266D01*
X152027000Y-92773000D01*
X152047000Y-92773000D01*
X152047000Y-93027000D01*
X152027000Y-93027000D01*
X152027000Y-93047000D01*
X151773000Y-93047000D01*
X151773000Y-93027000D01*
X150947437Y-93027000D01*
X150798771Y-93201131D01*
X150857090Y-93369885D01*
X150686673Y-93540301D01*
X150610000Y-93725406D01*
X150610000Y-93573691D01*
X150513327Y-93340302D01*
X150368155Y-93195129D01*
X150383579Y-93172555D01*
X150418522Y-93000000D01*
X150418522Y-92598869D01*
X150798771Y-92598869D01*
X150947437Y-92773000D01*
X151773000Y-92773000D01*
X151773000Y-91807266D01*
X151602062Y-91680732D01*
X151228179Y-91864448D01*
X150940432Y-92188951D01*
X150798771Y-92598869D01*
X150418522Y-92598869D01*
X150418522Y-92200000D01*
X150388190Y-92038799D01*
X150292920Y-91890745D01*
X150279053Y-91881270D01*
X150334873Y-91746842D01*
X150335128Y-91454441D01*
X150223466Y-91184200D01*
X150016888Y-90977260D01*
X149746842Y-90865127D01*
X149454441Y-90864872D01*
X149184200Y-90976534D01*
X148977260Y-91183112D01*
X148865127Y-91453158D01*
X148864872Y-91745559D01*
X148920119Y-91879266D01*
X148915745Y-91882080D01*
X148816421Y-92027445D01*
X148781478Y-92200000D01*
X148781478Y-92505754D01*
X148769545Y-92497601D01*
X148596990Y-92462658D01*
X148047876Y-92462658D01*
X148653553Y-91856981D01*
X148761940Y-91694770D01*
X148768470Y-91661940D01*
X148800000Y-91503428D01*
X148800000Y-89138522D01*
X149150000Y-89138522D01*
X149311201Y-89108190D01*
X149459255Y-89012920D01*
X149558579Y-88867555D01*
X149593522Y-88695000D01*
X149593522Y-88045000D01*
X149563190Y-87883799D01*
X149467920Y-87735745D01*
X149465355Y-87733992D01*
X149558579Y-87597555D01*
X149593522Y-87425000D01*
X149593522Y-86775000D01*
X149568017Y-86639452D01*
X149798690Y-86735000D01*
X150014250Y-86735000D01*
X150173000Y-86576250D01*
X150173000Y-85827000D01*
X150427000Y-85827000D01*
X150427000Y-86576250D01*
X150585750Y-86735000D01*
X150801310Y-86735000D01*
X151034699Y-86638327D01*
X151213327Y-86459698D01*
X151310000Y-86226309D01*
X151310000Y-85985750D01*
X151151250Y-85827000D01*
X150427000Y-85827000D01*
X150173000Y-85827000D01*
X150153000Y-85827000D01*
X150153000Y-85573000D01*
X150173000Y-85573000D01*
X150173000Y-85553000D01*
X150427000Y-85553000D01*
X150427000Y-85573000D01*
X151151250Y-85573000D01*
X151208091Y-85516159D01*
X151253158Y-85534873D01*
X151253158Y-85534873D01*
G37*
X151253158Y-85534873D02*
X151431478Y-85535029D01*
X151431478Y-86030000D01*
X151461810Y-86191201D01*
X151557080Y-86339255D01*
X151702445Y-86438579D01*
X151875000Y-86473522D01*
X152191561Y-86473522D01*
X152187341Y-86476342D01*
X151937206Y-86726478D01*
X151875000Y-86726478D01*
X151713799Y-86756810D01*
X151565745Y-86852080D01*
X151466421Y-86997445D01*
X151431478Y-87170000D01*
X151431478Y-88230000D01*
X151461810Y-88391201D01*
X151557080Y-88539255D01*
X151702445Y-88638579D01*
X151774518Y-88653174D01*
X151690745Y-88707080D01*
X151591421Y-88852445D01*
X151556478Y-89025000D01*
X151556478Y-89775000D01*
X151586810Y-89936201D01*
X151682080Y-90084255D01*
X151827445Y-90183579D01*
X151836982Y-90185510D01*
X151848180Y-90241809D01*
X151859530Y-90298870D01*
X151986343Y-90488657D01*
X152615000Y-91117315D01*
X152615000Y-91913143D01*
X152571821Y-91864448D01*
X152197938Y-91680732D01*
X152027000Y-91807266D01*
X152027000Y-92773000D01*
X152047000Y-92773000D01*
X152047000Y-93027000D01*
X152027000Y-93027000D01*
X152027000Y-93047000D01*
X151773000Y-93047000D01*
X151773000Y-93027000D01*
X150947437Y-93027000D01*
X150798771Y-93201131D01*
X150857090Y-93369885D01*
X150686673Y-93540301D01*
X150610000Y-93725406D01*
X150610000Y-93573691D01*
X150513327Y-93340302D01*
X150368155Y-93195129D01*
X150383579Y-93172555D01*
X150418522Y-93000000D01*
X150418522Y-92598869D01*
X150798771Y-92598869D01*
X150947437Y-92773000D01*
X151773000Y-92773000D01*
X151773000Y-91807266D01*
X151602062Y-91680732D01*
X151228179Y-91864448D01*
X150940432Y-92188951D01*
X150798771Y-92598869D01*
X150418522Y-92598869D01*
X150418522Y-92200000D01*
X150388190Y-92038799D01*
X150292920Y-91890745D01*
X150279053Y-91881270D01*
X150334873Y-91746842D01*
X150335128Y-91454441D01*
X150223466Y-91184200D01*
X150016888Y-90977260D01*
X149746842Y-90865127D01*
X149454441Y-90864872D01*
X149184200Y-90976534D01*
X148977260Y-91183112D01*
X148865127Y-91453158D01*
X148864872Y-91745559D01*
X148920119Y-91879266D01*
X148915745Y-91882080D01*
X148816421Y-92027445D01*
X148781478Y-92200000D01*
X148781478Y-92505754D01*
X148769545Y-92497601D01*
X148596990Y-92462658D01*
X148047876Y-92462658D01*
X148653553Y-91856981D01*
X148761940Y-91694770D01*
X148768470Y-91661940D01*
X148800000Y-91503428D01*
X148800000Y-89138522D01*
X149150000Y-89138522D01*
X149311201Y-89108190D01*
X149459255Y-89012920D01*
X149558579Y-88867555D01*
X149593522Y-88695000D01*
X149593522Y-88045000D01*
X149563190Y-87883799D01*
X149467920Y-87735745D01*
X149465355Y-87733992D01*
X149558579Y-87597555D01*
X149593522Y-87425000D01*
X149593522Y-86775000D01*
X149568017Y-86639452D01*
X149798690Y-86735000D01*
X150014250Y-86735000D01*
X150173000Y-86576250D01*
X150173000Y-85827000D01*
X150427000Y-85827000D01*
X150427000Y-86576250D01*
X150585750Y-86735000D01*
X150801310Y-86735000D01*
X151034699Y-86638327D01*
X151213327Y-86459698D01*
X151310000Y-86226309D01*
X151310000Y-85985750D01*
X151151250Y-85827000D01*
X150427000Y-85827000D01*
X150173000Y-85827000D01*
X150153000Y-85827000D01*
X150153000Y-85573000D01*
X150173000Y-85573000D01*
X150173000Y-85553000D01*
X150427000Y-85553000D01*
X150427000Y-85573000D01*
X151151250Y-85573000D01*
X151208091Y-85516159D01*
X151253158Y-85534873D01*
G36*
X153277000Y-87573000D02*
X153297000Y-87573000D01*
X153297000Y-87827000D01*
X153277000Y-87827000D01*
X153277000Y-87847000D01*
X153023000Y-87847000D01*
X153023000Y-87827000D01*
X153003000Y-87827000D01*
X153003000Y-87573000D01*
X153023000Y-87573000D01*
X153023000Y-87553000D01*
X153277000Y-87553000D01*
X153277000Y-87573000D01*
X153277000Y-87573000D01*
G37*
X153277000Y-87573000D02*
X153297000Y-87573000D01*
X153297000Y-87827000D01*
X153277000Y-87827000D01*
X153277000Y-87847000D01*
X153023000Y-87847000D01*
X153023000Y-87827000D01*
X153003000Y-87827000D01*
X153003000Y-87573000D01*
X153023000Y-87573000D01*
X153023000Y-87553000D01*
X153277000Y-87553000D01*
X153277000Y-87573000D01*
G36*
X132812120Y-85765876D02*
X132832120Y-85765876D01*
X132832120Y-86019876D01*
X132812120Y-86019876D01*
X132812120Y-86039876D01*
X132558120Y-86039876D01*
X132558120Y-86019876D01*
X132538120Y-86019876D01*
X132538120Y-85765876D01*
X132558120Y-85765876D01*
X132558120Y-85745876D01*
X132812120Y-85745876D01*
X132812120Y-85765876D01*
X132812120Y-85765876D01*
G37*
X132812120Y-85765876D02*
X132832120Y-85765876D01*
X132832120Y-86019876D01*
X132812120Y-86019876D01*
X132812120Y-86039876D01*
X132558120Y-86039876D01*
X132558120Y-86019876D01*
X132538120Y-86019876D01*
X132538120Y-85765876D01*
X132558120Y-85765876D01*
X132558120Y-85745876D01*
X132812120Y-85745876D01*
X132812120Y-85765876D01*
G36*
X133275422Y-83279549D02*
X133130249Y-83424721D01*
X133107675Y-83409297D01*
X132935120Y-83374354D01*
X132135120Y-83374354D01*
X131973919Y-83404686D01*
X131825865Y-83499956D01*
X131726541Y-83645321D01*
X131691598Y-83817876D01*
X131691598Y-84558106D01*
X131658381Y-84558106D01*
X131424992Y-84654779D01*
X131246363Y-84833407D01*
X131210000Y-84921195D01*
X131210000Y-83210000D01*
X133443328Y-83210000D01*
X133275422Y-83279549D01*
X133275422Y-83279549D01*
G37*
X133275422Y-83279549D02*
X133130249Y-83424721D01*
X133107675Y-83409297D01*
X132935120Y-83374354D01*
X132135120Y-83374354D01*
X131973919Y-83404686D01*
X131825865Y-83499956D01*
X131726541Y-83645321D01*
X131691598Y-83817876D01*
X131691598Y-84558106D01*
X131658381Y-84558106D01*
X131424992Y-84654779D01*
X131246363Y-84833407D01*
X131210000Y-84921195D01*
X131210000Y-83210000D01*
X133443328Y-83210000D01*
X133275422Y-83279549D01*
G36*
X134162120Y-84065876D02*
X134182120Y-84065876D01*
X134182120Y-84319876D01*
X134162120Y-84319876D01*
X134162120Y-84339876D01*
X133908120Y-84339876D01*
X133908120Y-84319876D01*
X133888120Y-84319876D01*
X133888120Y-84065876D01*
X133908120Y-84065876D01*
X133908120Y-84045876D01*
X134162120Y-84045876D01*
X134162120Y-84065876D01*
X134162120Y-84065876D01*
G37*
X134162120Y-84065876D02*
X134182120Y-84065876D01*
X134182120Y-84319876D01*
X134162120Y-84319876D01*
X134162120Y-84339876D01*
X133908120Y-84339876D01*
X133908120Y-84319876D01*
X133888120Y-84319876D01*
X133888120Y-84065876D01*
X133908120Y-84065876D01*
X133908120Y-84045876D01*
X134162120Y-84045876D01*
X134162120Y-84065876D01*
G36*
X135912120Y-84065876D02*
X135932120Y-84065876D01*
X135932120Y-84319876D01*
X135912120Y-84319876D01*
X135912120Y-84339876D01*
X135658120Y-84339876D01*
X135658120Y-84319876D01*
X135638120Y-84319876D01*
X135638120Y-84065876D01*
X135658120Y-84065876D01*
X135658120Y-84045876D01*
X135912120Y-84045876D01*
X135912120Y-84065876D01*
X135912120Y-84065876D01*
G37*
X135912120Y-84065876D02*
X135932120Y-84065876D01*
X135932120Y-84319876D01*
X135912120Y-84319876D01*
X135912120Y-84339876D01*
X135658120Y-84339876D01*
X135658120Y-84319876D01*
X135638120Y-84319876D01*
X135638120Y-84065876D01*
X135658120Y-84065876D01*
X135658120Y-84045876D01*
X135912120Y-84045876D01*
X135912120Y-84065876D01*
G36*
X135025422Y-83279549D02*
X134910120Y-83394850D01*
X134794818Y-83279549D01*
X134626912Y-83210000D01*
X135193328Y-83210000D01*
X135025422Y-83279549D01*
X135025422Y-83279549D01*
G37*
X135025422Y-83279549D02*
X134910120Y-83394850D01*
X134794818Y-83279549D01*
X134626912Y-83210000D01*
X135193328Y-83210000D01*
X135025422Y-83279549D01*
M02*
