G04 #@! TF.FileFunction,Soldermask,Bot*
%FSLAX46Y46*%
G04 Gerber Fmt 4.6, Leading zero omitted, Abs format (unit mm)*
G04 Created by KiCad (PCBNEW 4.0.7-e0-6372~58~ubuntu16.10.1) date Fri Aug 10 15:11:26 2018*
%MOMM*%
%LPD*%
G01*
G04 APERTURE LIST*
%ADD10C,0.100000*%
%ADD11C,0.300000*%
%ADD12R,0.600000X1.000000*%
%ADD13R,0.850000X0.900000*%
%ADD14R,1.000000X0.600000*%
%ADD15R,0.900000X0.900000*%
%ADD16O,1.050000X1.350000*%
%ADD17O,1.650000X1.100000*%
%ADD18R,1.800000X1.800000*%
%ADD19O,1.800000X1.800000*%
%ADD20O,0.850000X0.300000*%
%ADD21O,0.300000X0.850000*%
%ADD22R,1.025000X1.025000*%
%ADD23R,1.000000X0.900000*%
%ADD24C,1.800000*%
%ADD25R,2.300000X2.900000*%
%ADD26R,2.900000X2.900000*%
%ADD27R,1.000000X1.800000*%
%ADD28R,2.200000X0.850000*%
G04 APERTURE END LIST*
D10*
D11*
X147314286Y-84769289D02*
X147314286Y-83269289D01*
X146457143Y-84769289D01*
X146457143Y-83269289D01*
X145528571Y-84769289D02*
X145671429Y-84697861D01*
X145742857Y-84626432D01*
X145814286Y-84483575D01*
X145814286Y-84055004D01*
X145742857Y-83912147D01*
X145671429Y-83840718D01*
X145528571Y-83769289D01*
X145314286Y-83769289D01*
X145171429Y-83840718D01*
X145100000Y-83912147D01*
X145028571Y-84055004D01*
X145028571Y-84483575D01*
X145100000Y-84626432D01*
X145171429Y-84697861D01*
X145314286Y-84769289D01*
X145528571Y-84769289D01*
X144385714Y-84769289D02*
X144385714Y-83769289D01*
X144385714Y-83269289D02*
X144457143Y-83340718D01*
X144385714Y-83412147D01*
X144314286Y-83340718D01*
X144385714Y-83269289D01*
X144385714Y-83412147D01*
X143742857Y-84697861D02*
X143600000Y-84769289D01*
X143314285Y-84769289D01*
X143171428Y-84697861D01*
X143100000Y-84555004D01*
X143100000Y-84483575D01*
X143171428Y-84340718D01*
X143314285Y-84269289D01*
X143528571Y-84269289D01*
X143671428Y-84197861D01*
X143742857Y-84055004D01*
X143742857Y-83983575D01*
X143671428Y-83840718D01*
X143528571Y-83769289D01*
X143314285Y-83769289D01*
X143171428Y-83840718D01*
X141885714Y-84697861D02*
X142028571Y-84769289D01*
X142314285Y-84769289D01*
X142457142Y-84697861D01*
X142528571Y-84555004D01*
X142528571Y-83983575D01*
X142457142Y-83840718D01*
X142314285Y-83769289D01*
X142028571Y-83769289D01*
X141885714Y-83840718D01*
X141814285Y-83983575D01*
X141814285Y-84126432D01*
X142528571Y-84269289D01*
X148135714Y-87319289D02*
X148135714Y-85819289D01*
X147278571Y-87319289D01*
X147278571Y-85819289D01*
X145921428Y-86319289D02*
X145921428Y-87319289D01*
X146564285Y-86319289D02*
X146564285Y-87105004D01*
X146492857Y-87247861D01*
X146349999Y-87319289D01*
X146135714Y-87319289D01*
X145992857Y-87247861D01*
X145921428Y-87176432D01*
X144564285Y-86319289D02*
X144564285Y-87533575D01*
X144635714Y-87676432D01*
X144707142Y-87747861D01*
X144849999Y-87819289D01*
X145064285Y-87819289D01*
X145207142Y-87747861D01*
X144564285Y-87247861D02*
X144707142Y-87319289D01*
X144992856Y-87319289D01*
X145135714Y-87247861D01*
X145207142Y-87176432D01*
X145278571Y-87033575D01*
X145278571Y-86605004D01*
X145207142Y-86462147D01*
X145135714Y-86390718D01*
X144992856Y-86319289D01*
X144707142Y-86319289D01*
X144564285Y-86390718D01*
X143207142Y-86319289D02*
X143207142Y-87533575D01*
X143278571Y-87676432D01*
X143349999Y-87747861D01*
X143492856Y-87819289D01*
X143707142Y-87819289D01*
X143849999Y-87747861D01*
X143207142Y-87247861D02*
X143349999Y-87319289D01*
X143635713Y-87319289D01*
X143778571Y-87247861D01*
X143849999Y-87176432D01*
X143921428Y-87033575D01*
X143921428Y-86605004D01*
X143849999Y-86462147D01*
X143778571Y-86390718D01*
X143635713Y-86319289D01*
X143349999Y-86319289D01*
X143207142Y-86390718D01*
X141921428Y-87247861D02*
X142064285Y-87319289D01*
X142349999Y-87319289D01*
X142492856Y-87247861D01*
X142564285Y-87105004D01*
X142564285Y-86533575D01*
X142492856Y-86390718D01*
X142349999Y-86319289D01*
X142064285Y-86319289D01*
X141921428Y-86390718D01*
X141849999Y-86533575D01*
X141849999Y-86676432D01*
X142564285Y-86819289D01*
X141421428Y-86319289D02*
X140849999Y-86319289D01*
X141207142Y-85819289D02*
X141207142Y-87105004D01*
X141135714Y-87247861D01*
X140992856Y-87319289D01*
X140849999Y-87319289D01*
D12*
X140500000Y-89200000D03*
X139000000Y-89200000D03*
D13*
X143300000Y-99500000D03*
X143300000Y-101000000D03*
X144900000Y-99500000D03*
X144900000Y-101000000D03*
X154900000Y-102100000D03*
X154900000Y-103600000D03*
D14*
X148700000Y-88800000D03*
X148700000Y-90300000D03*
D13*
X153600000Y-103600000D03*
X153600000Y-102100000D03*
X152300000Y-103600000D03*
X152300000Y-102100000D03*
X135059793Y-101992047D03*
X135059793Y-103492047D03*
D12*
X148650000Y-101000000D03*
X147150000Y-101000000D03*
X148610000Y-99470000D03*
X147110000Y-99470000D03*
D14*
X155200000Y-88800000D03*
X155200000Y-90300000D03*
D15*
X151100000Y-85800000D03*
X152700000Y-85800000D03*
D16*
X151900000Y-97900000D03*
X151900000Y-92900000D03*
D17*
X154600000Y-98900000D03*
X154600000Y-91900000D03*
D13*
X151000000Y-103600000D03*
X151000000Y-102100000D03*
D18*
X131920000Y-106740000D03*
D19*
X134460000Y-106740000D03*
X137000000Y-106740000D03*
X139540000Y-106740000D03*
X142080000Y-106740000D03*
X144620000Y-106740000D03*
X147160000Y-106740000D03*
X149700000Y-106740000D03*
X152240000Y-106740000D03*
X154780000Y-106740000D03*
D20*
X138237500Y-101562500D03*
X138237500Y-101162500D03*
X138237500Y-100762500D03*
X138237500Y-100362500D03*
X138237500Y-99962500D03*
D21*
X138937500Y-99262500D03*
X139337500Y-99262500D03*
X139737500Y-99262500D03*
X140137500Y-99262500D03*
X140537500Y-99262500D03*
D20*
X141237500Y-99962500D03*
X141237500Y-100362500D03*
X141237500Y-100762500D03*
X141237500Y-101162500D03*
X141237500Y-101562500D03*
D21*
X140537500Y-102262500D03*
X140137500Y-102262500D03*
X139737500Y-102262500D03*
X139337500Y-102262500D03*
X138937500Y-102262500D03*
D22*
X140200000Y-100300000D03*
X140200000Y-101225000D03*
X139275000Y-100300000D03*
X139275000Y-101225000D03*
D23*
X133459793Y-101842047D03*
X133459793Y-103742047D03*
X131459793Y-102792047D03*
D24*
X134200000Y-95400000D03*
X141200000Y-95400000D03*
D25*
X133100000Y-91700000D03*
X135100000Y-99100000D03*
D26*
X142500000Y-91700000D03*
D27*
X150300000Y-88400000D03*
X153700000Y-88400000D03*
D28*
X133000000Y-84120000D03*
X136600000Y-84120000D03*
X133000000Y-85390000D03*
X136600000Y-85390000D03*
X133000000Y-86660000D03*
X136600000Y-86660000D03*
X133000000Y-87930000D03*
X136600000Y-87930000D03*
X133000000Y-89200000D03*
X136600000Y-89200000D03*
M02*
