G04 #@! TF.FileFunction,Legend,Top*
%FSLAX46Y46*%
G04 Gerber Fmt 4.6, Leading zero omitted, Abs format (unit mm)*
G04 Created by KiCad (PCBNEW 4.0.7-e0-6372~58~ubuntu16.10.1) date Sun Jan  7 20:34:22 2018*
%MOMM*%
%LPD*%
G01*
G04 APERTURE LIST*
%ADD10C,0.100000*%
%ADD11C,0.200000*%
%ADD12C,0.150000*%
%ADD13C,0.300000*%
%ADD14C,0.120000*%
G04 APERTURE END LIST*
D10*
D11*
X141124000Y-98298000D02*
G75*
G03X141124000Y-98298000I-154000J0D01*
G01*
X177206500Y-88897500D02*
G75*
G03X177206500Y-88897500I-154000J0D01*
G01*
X156618000Y-90424000D02*
G75*
G03X156618000Y-90424000I-154000J0D01*
G01*
D12*
X141962381Y-89352381D02*
X141629047Y-88876190D01*
X141390952Y-89352381D02*
X141390952Y-88352381D01*
X141771905Y-88352381D01*
X141867143Y-88400000D01*
X141914762Y-88447619D01*
X141962381Y-88542857D01*
X141962381Y-88685714D01*
X141914762Y-88780952D01*
X141867143Y-88828571D01*
X141771905Y-88876190D01*
X141390952Y-88876190D01*
X142771905Y-89304762D02*
X142676667Y-89352381D01*
X142486190Y-89352381D01*
X142390952Y-89304762D01*
X142343333Y-89209524D01*
X142343333Y-88828571D01*
X142390952Y-88733333D01*
X142486190Y-88685714D01*
X142676667Y-88685714D01*
X142771905Y-88733333D01*
X142819524Y-88828571D01*
X142819524Y-88923810D01*
X142343333Y-89019048D01*
X143152857Y-88685714D02*
X143390952Y-89352381D01*
X143629048Y-88685714D01*
X144010000Y-88971429D02*
X144771905Y-88971429D01*
X145200476Y-89066667D02*
X145676667Y-89066667D01*
X145105238Y-89352381D02*
X145438571Y-88352381D01*
X145771905Y-89352381D01*
D13*
X166703714Y-103797571D02*
X166703714Y-102297571D01*
X167560857Y-103797571D01*
X167560857Y-102297571D01*
X168489429Y-103797571D02*
X168346571Y-103726143D01*
X168275143Y-103654714D01*
X168203714Y-103511857D01*
X168203714Y-103083286D01*
X168275143Y-102940429D01*
X168346571Y-102869000D01*
X168489429Y-102797571D01*
X168703714Y-102797571D01*
X168846571Y-102869000D01*
X168918000Y-102940429D01*
X168989429Y-103083286D01*
X168989429Y-103511857D01*
X168918000Y-103654714D01*
X168846571Y-103726143D01*
X168703714Y-103797571D01*
X168489429Y-103797571D01*
X169632286Y-103797571D02*
X169632286Y-102797571D01*
X169632286Y-102297571D02*
X169560857Y-102369000D01*
X169632286Y-102440429D01*
X169703714Y-102369000D01*
X169632286Y-102297571D01*
X169632286Y-102440429D01*
X170275143Y-103726143D02*
X170418000Y-103797571D01*
X170703715Y-103797571D01*
X170846572Y-103726143D01*
X170918000Y-103583286D01*
X170918000Y-103511857D01*
X170846572Y-103369000D01*
X170703715Y-103297571D01*
X170489429Y-103297571D01*
X170346572Y-103226143D01*
X170275143Y-103083286D01*
X170275143Y-103011857D01*
X170346572Y-102869000D01*
X170489429Y-102797571D01*
X170703715Y-102797571D01*
X170846572Y-102869000D01*
X172132286Y-103726143D02*
X171989429Y-103797571D01*
X171703715Y-103797571D01*
X171560858Y-103726143D01*
X171489429Y-103583286D01*
X171489429Y-103011857D01*
X171560858Y-102869000D01*
X171703715Y-102797571D01*
X171989429Y-102797571D01*
X172132286Y-102869000D01*
X172203715Y-103011857D01*
X172203715Y-103154714D01*
X171489429Y-103297571D01*
X165882286Y-106347571D02*
X165882286Y-104847571D01*
X166739429Y-106347571D01*
X166739429Y-104847571D01*
X168096572Y-105347571D02*
X168096572Y-106347571D01*
X167453715Y-105347571D02*
X167453715Y-106133286D01*
X167525143Y-106276143D01*
X167668001Y-106347571D01*
X167882286Y-106347571D01*
X168025143Y-106276143D01*
X168096572Y-106204714D01*
X169453715Y-105347571D02*
X169453715Y-106561857D01*
X169382286Y-106704714D01*
X169310858Y-106776143D01*
X169168001Y-106847571D01*
X168953715Y-106847571D01*
X168810858Y-106776143D01*
X169453715Y-106276143D02*
X169310858Y-106347571D01*
X169025144Y-106347571D01*
X168882286Y-106276143D01*
X168810858Y-106204714D01*
X168739429Y-106061857D01*
X168739429Y-105633286D01*
X168810858Y-105490429D01*
X168882286Y-105419000D01*
X169025144Y-105347571D01*
X169310858Y-105347571D01*
X169453715Y-105419000D01*
X170810858Y-105347571D02*
X170810858Y-106561857D01*
X170739429Y-106704714D01*
X170668001Y-106776143D01*
X170525144Y-106847571D01*
X170310858Y-106847571D01*
X170168001Y-106776143D01*
X170810858Y-106276143D02*
X170668001Y-106347571D01*
X170382287Y-106347571D01*
X170239429Y-106276143D01*
X170168001Y-106204714D01*
X170096572Y-106061857D01*
X170096572Y-105633286D01*
X170168001Y-105490429D01*
X170239429Y-105419000D01*
X170382287Y-105347571D01*
X170668001Y-105347571D01*
X170810858Y-105419000D01*
X172096572Y-106276143D02*
X171953715Y-106347571D01*
X171668001Y-106347571D01*
X171525144Y-106276143D01*
X171453715Y-106133286D01*
X171453715Y-105561857D01*
X171525144Y-105419000D01*
X171668001Y-105347571D01*
X171953715Y-105347571D01*
X172096572Y-105419000D01*
X172168001Y-105561857D01*
X172168001Y-105704714D01*
X171453715Y-105847571D01*
X172596572Y-105347571D02*
X173168001Y-105347571D01*
X172810858Y-104847571D02*
X172810858Y-106133286D01*
X172882286Y-106276143D01*
X173025144Y-106347571D01*
X173168001Y-106347571D01*
D12*
X135412381Y-104126667D02*
X134412381Y-104126667D01*
X134412381Y-103745714D01*
X134460000Y-103650476D01*
X134507619Y-103602857D01*
X134602857Y-103555238D01*
X134745714Y-103555238D01*
X134840952Y-103602857D01*
X134888571Y-103650476D01*
X134936190Y-103745714D01*
X134936190Y-104126667D01*
X135126667Y-103174286D02*
X135126667Y-102698095D01*
X135412381Y-103269524D02*
X134412381Y-102936191D01*
X135412381Y-102602857D01*
X134507619Y-102317143D02*
X134460000Y-102269524D01*
X134412381Y-102174286D01*
X134412381Y-101936190D01*
X134460000Y-101840952D01*
X134507619Y-101793333D01*
X134602857Y-101745714D01*
X134698095Y-101745714D01*
X134840952Y-101793333D01*
X135412381Y-102364762D01*
X135412381Y-101745714D01*
X137822381Y-104126667D02*
X136822381Y-104126667D01*
X136822381Y-103745714D01*
X136870000Y-103650476D01*
X136917619Y-103602857D01*
X137012857Y-103555238D01*
X137155714Y-103555238D01*
X137250952Y-103602857D01*
X137298571Y-103650476D01*
X137346190Y-103745714D01*
X137346190Y-104126667D01*
X137536667Y-103174286D02*
X137536667Y-102698095D01*
X137822381Y-103269524D02*
X136822381Y-102936191D01*
X137822381Y-102602857D01*
X136822381Y-102364762D02*
X136822381Y-101745714D01*
X137203333Y-102079048D01*
X137203333Y-101936190D01*
X137250952Y-101840952D01*
X137298571Y-101793333D01*
X137393810Y-101745714D01*
X137631905Y-101745714D01*
X137727143Y-101793333D01*
X137774762Y-101840952D01*
X137822381Y-101936190D01*
X137822381Y-102221905D01*
X137774762Y-102317143D01*
X137727143Y-102364762D01*
X140262381Y-104116667D02*
X139262381Y-104116667D01*
X139262381Y-103735714D01*
X139310000Y-103640476D01*
X139357619Y-103592857D01*
X139452857Y-103545238D01*
X139595714Y-103545238D01*
X139690952Y-103592857D01*
X139738571Y-103640476D01*
X139786190Y-103735714D01*
X139786190Y-104116667D01*
X139976667Y-103164286D02*
X139976667Y-102688095D01*
X140262381Y-103259524D02*
X139262381Y-102926191D01*
X140262381Y-102592857D01*
X139595714Y-101830952D02*
X140262381Y-101830952D01*
X139214762Y-102069048D02*
X139929048Y-102307143D01*
X139929048Y-101688095D01*
X142962381Y-104126667D02*
X141962381Y-104126667D01*
X141962381Y-103745714D01*
X142010000Y-103650476D01*
X142057619Y-103602857D01*
X142152857Y-103555238D01*
X142295714Y-103555238D01*
X142390952Y-103602857D01*
X142438571Y-103650476D01*
X142486190Y-103745714D01*
X142486190Y-104126667D01*
X142676667Y-103174286D02*
X142676667Y-102698095D01*
X142962381Y-103269524D02*
X141962381Y-102936191D01*
X142962381Y-102602857D01*
X141962381Y-101793333D02*
X141962381Y-102269524D01*
X142438571Y-102317143D01*
X142390952Y-102269524D01*
X142343333Y-102174286D01*
X142343333Y-101936190D01*
X142390952Y-101840952D01*
X142438571Y-101793333D01*
X142533810Y-101745714D01*
X142771905Y-101745714D01*
X142867143Y-101793333D01*
X142914762Y-101840952D01*
X142962381Y-101936190D01*
X142962381Y-102174286D01*
X142914762Y-102269524D01*
X142867143Y-102317143D01*
X145362381Y-104116667D02*
X144362381Y-104116667D01*
X144362381Y-103735714D01*
X144410000Y-103640476D01*
X144457619Y-103592857D01*
X144552857Y-103545238D01*
X144695714Y-103545238D01*
X144790952Y-103592857D01*
X144838571Y-103640476D01*
X144886190Y-103735714D01*
X144886190Y-104116667D01*
X145076667Y-103164286D02*
X145076667Y-102688095D01*
X145362381Y-103259524D02*
X144362381Y-102926191D01*
X145362381Y-102592857D01*
X144362381Y-101830952D02*
X144362381Y-102021429D01*
X144410000Y-102116667D01*
X144457619Y-102164286D01*
X144600476Y-102259524D01*
X144790952Y-102307143D01*
X145171905Y-102307143D01*
X145267143Y-102259524D01*
X145314762Y-102211905D01*
X145362381Y-102116667D01*
X145362381Y-101926190D01*
X145314762Y-101830952D01*
X145267143Y-101783333D01*
X145171905Y-101735714D01*
X144933810Y-101735714D01*
X144838571Y-101783333D01*
X144790952Y-101830952D01*
X144743333Y-101926190D01*
X144743333Y-102116667D01*
X144790952Y-102211905D01*
X144838571Y-102259524D01*
X144933810Y-102307143D01*
X148012381Y-104116667D02*
X147012381Y-104116667D01*
X147012381Y-103735714D01*
X147060000Y-103640476D01*
X147107619Y-103592857D01*
X147202857Y-103545238D01*
X147345714Y-103545238D01*
X147440952Y-103592857D01*
X147488571Y-103640476D01*
X147536190Y-103735714D01*
X147536190Y-104116667D01*
X147726667Y-103164286D02*
X147726667Y-102688095D01*
X148012381Y-103259524D02*
X147012381Y-102926191D01*
X148012381Y-102592857D01*
X147012381Y-102354762D02*
X147012381Y-101688095D01*
X148012381Y-102116667D01*
X150452381Y-104118095D02*
X149452381Y-104118095D01*
X149452381Y-103737142D01*
X149500000Y-103641904D01*
X149547619Y-103594285D01*
X149642857Y-103546666D01*
X149785714Y-103546666D01*
X149880952Y-103594285D01*
X149928571Y-103641904D01*
X149976190Y-103737142D01*
X149976190Y-104118095D01*
X149928571Y-102784761D02*
X149976190Y-102641904D01*
X150023810Y-102594285D01*
X150119048Y-102546666D01*
X150261905Y-102546666D01*
X150357143Y-102594285D01*
X150404762Y-102641904D01*
X150452381Y-102737142D01*
X150452381Y-103118095D01*
X149452381Y-103118095D01*
X149452381Y-102784761D01*
X149500000Y-102689523D01*
X149547619Y-102641904D01*
X149642857Y-102594285D01*
X149738095Y-102594285D01*
X149833333Y-102641904D01*
X149880952Y-102689523D01*
X149928571Y-102784761D01*
X149928571Y-103118095D01*
X150452381Y-101594285D02*
X150452381Y-102165714D01*
X150452381Y-101880000D02*
X149452381Y-101880000D01*
X149595238Y-101975238D01*
X149690476Y-102070476D01*
X149738095Y-102165714D01*
X152952381Y-104114286D02*
X151952381Y-104114286D01*
X151952381Y-103733333D01*
X152000000Y-103638095D01*
X152047619Y-103590476D01*
X152142857Y-103542857D01*
X152285714Y-103542857D01*
X152380952Y-103590476D01*
X152428571Y-103638095D01*
X152476190Y-103733333D01*
X152476190Y-104114286D01*
X152428571Y-102780952D02*
X152476190Y-102638095D01*
X152523810Y-102590476D01*
X152619048Y-102542857D01*
X152761905Y-102542857D01*
X152857143Y-102590476D01*
X152904762Y-102638095D01*
X152952381Y-102733333D01*
X152952381Y-103114286D01*
X151952381Y-103114286D01*
X151952381Y-102780952D01*
X152000000Y-102685714D01*
X152047619Y-102638095D01*
X152142857Y-102590476D01*
X152238095Y-102590476D01*
X152333333Y-102638095D01*
X152380952Y-102685714D01*
X152428571Y-102780952D01*
X152428571Y-103114286D01*
X152952381Y-101590476D02*
X152952381Y-102161905D01*
X152952381Y-101876191D02*
X151952381Y-101876191D01*
X152095238Y-101971429D01*
X152190476Y-102066667D01*
X152238095Y-102161905D01*
X151952381Y-100971429D02*
X151952381Y-100876190D01*
X152000000Y-100780952D01*
X152047619Y-100733333D01*
X152142857Y-100685714D01*
X152333333Y-100638095D01*
X152571429Y-100638095D01*
X152761905Y-100685714D01*
X152857143Y-100733333D01*
X152904762Y-100780952D01*
X152952381Y-100876190D01*
X152952381Y-100971429D01*
X152904762Y-101066667D01*
X152857143Y-101114286D01*
X152761905Y-101161905D01*
X152571429Y-101209524D01*
X152333333Y-101209524D01*
X152142857Y-101161905D01*
X152047619Y-101114286D01*
X152000000Y-101066667D01*
X151952381Y-100971429D01*
X155492381Y-104114286D02*
X154492381Y-104114286D01*
X154492381Y-103733333D01*
X154540000Y-103638095D01*
X154587619Y-103590476D01*
X154682857Y-103542857D01*
X154825714Y-103542857D01*
X154920952Y-103590476D01*
X154968571Y-103638095D01*
X155016190Y-103733333D01*
X155016190Y-104114286D01*
X154968571Y-102780952D02*
X155016190Y-102638095D01*
X155063810Y-102590476D01*
X155159048Y-102542857D01*
X155301905Y-102542857D01*
X155397143Y-102590476D01*
X155444762Y-102638095D01*
X155492381Y-102733333D01*
X155492381Y-103114286D01*
X154492381Y-103114286D01*
X154492381Y-102780952D01*
X154540000Y-102685714D01*
X154587619Y-102638095D01*
X154682857Y-102590476D01*
X154778095Y-102590476D01*
X154873333Y-102638095D01*
X154920952Y-102685714D01*
X154968571Y-102780952D01*
X154968571Y-103114286D01*
X155492381Y-101590476D02*
X155492381Y-102161905D01*
X155492381Y-101876191D02*
X154492381Y-101876191D01*
X154635238Y-101971429D01*
X154730476Y-102066667D01*
X154778095Y-102161905D01*
X155492381Y-100638095D02*
X155492381Y-101209524D01*
X155492381Y-100923810D02*
X154492381Y-100923810D01*
X154635238Y-101019048D01*
X154730476Y-101114286D01*
X154778095Y-101209524D01*
X159451905Y-105152381D02*
X160070953Y-105152381D01*
X159737619Y-105533333D01*
X159880477Y-105533333D01*
X159975715Y-105580952D01*
X160023334Y-105628571D01*
X160070953Y-105723810D01*
X160070953Y-105961905D01*
X160023334Y-106057143D01*
X159975715Y-106104762D01*
X159880477Y-106152381D01*
X159594762Y-106152381D01*
X159499524Y-106104762D01*
X159451905Y-106057143D01*
X160356667Y-105152381D02*
X160690000Y-106152381D01*
X161023334Y-105152381D01*
X161261429Y-105152381D02*
X161880477Y-105152381D01*
X161547143Y-105533333D01*
X161690001Y-105533333D01*
X161785239Y-105580952D01*
X161832858Y-105628571D01*
X161880477Y-105723810D01*
X161880477Y-105961905D01*
X161832858Y-106057143D01*
X161785239Y-106104762D01*
X161690001Y-106152381D01*
X161404286Y-106152381D01*
X161309048Y-106104762D01*
X161261429Y-106057143D01*
X131388096Y-103110000D02*
X131292858Y-103062381D01*
X131150001Y-103062381D01*
X131007143Y-103110000D01*
X130911905Y-103205238D01*
X130864286Y-103300476D01*
X130816667Y-103490952D01*
X130816667Y-103633810D01*
X130864286Y-103824286D01*
X130911905Y-103919524D01*
X131007143Y-104014762D01*
X131150001Y-104062381D01*
X131245239Y-104062381D01*
X131388096Y-104014762D01*
X131435715Y-103967143D01*
X131435715Y-103633810D01*
X131245239Y-103633810D01*
X131864286Y-104062381D02*
X131864286Y-103062381D01*
X132435715Y-104062381D01*
X132435715Y-103062381D01*
X132911905Y-104062381D02*
X132911905Y-103062381D01*
X133150000Y-103062381D01*
X133292858Y-103110000D01*
X133388096Y-103205238D01*
X133435715Y-103300476D01*
X133483334Y-103490952D01*
X133483334Y-103633810D01*
X133435715Y-103824286D01*
X133388096Y-103919524D01*
X133292858Y-104014762D01*
X133150000Y-104062381D01*
X132911905Y-104062381D01*
D13*
X148978571Y-87260857D02*
X147478571Y-87260857D01*
X147478571Y-86903714D01*
X147550000Y-86689429D01*
X147692857Y-86546571D01*
X147835714Y-86475143D01*
X148121429Y-86403714D01*
X148335714Y-86403714D01*
X148621429Y-86475143D01*
X148764286Y-86546571D01*
X148907143Y-86689429D01*
X148978571Y-86903714D01*
X148978571Y-87260857D01*
X143735714Y-86403714D02*
X143807143Y-86475143D01*
X143878571Y-86689429D01*
X143878571Y-86832286D01*
X143807143Y-87046571D01*
X143664286Y-87189429D01*
X143521429Y-87260857D01*
X143235714Y-87332286D01*
X143021429Y-87332286D01*
X142735714Y-87260857D01*
X142592857Y-87189429D01*
X142450000Y-87046571D01*
X142378571Y-86832286D01*
X142378571Y-86689429D01*
X142450000Y-86475143D01*
X142521429Y-86403714D01*
X138062857Y-86760857D02*
X138134286Y-86546571D01*
X138205714Y-86475143D01*
X138348571Y-86403714D01*
X138562857Y-86403714D01*
X138705714Y-86475143D01*
X138777143Y-86546571D01*
X138848571Y-86689429D01*
X138848571Y-87260857D01*
X137348571Y-87260857D01*
X137348571Y-86760857D01*
X137420000Y-86618000D01*
X137491429Y-86546571D01*
X137634286Y-86475143D01*
X137777143Y-86475143D01*
X137920000Y-86546571D01*
X137991429Y-86618000D01*
X138062857Y-86760857D01*
X138062857Y-87260857D01*
X133450000Y-87225143D02*
X133450000Y-86510857D01*
X133878571Y-87368000D02*
X132378571Y-86868000D01*
X133878571Y-86368000D01*
X134814571Y-93928571D02*
X136314571Y-93428571D01*
X134814571Y-92928571D01*
X135743143Y-92428571D02*
X135743143Y-91285714D01*
X136314571Y-91857143D02*
X135171714Y-91857143D01*
X134814571Y-98928571D02*
X136314571Y-98428571D01*
X134814571Y-97928571D01*
X135743143Y-97428571D02*
X135743143Y-96285714D01*
D12*
X137190000Y-99620000D02*
X137190000Y-98920000D01*
X138390000Y-98920000D02*
X138390000Y-99620000D01*
X163620000Y-103100000D02*
X162920000Y-103100000D01*
X162920000Y-101900000D02*
X163620000Y-101900000D01*
X152750000Y-88520000D02*
X152750000Y-87820000D01*
X153950000Y-87820000D02*
X153950000Y-88520000D01*
X143720000Y-96990000D02*
X143720000Y-96290000D01*
X144920000Y-96290000D02*
X144920000Y-96990000D01*
X157410000Y-101860000D02*
X158110000Y-101860000D01*
X158110000Y-103060000D02*
X157410000Y-103060000D01*
X167748000Y-101692000D02*
X167048000Y-101692000D01*
X167048000Y-100492000D02*
X167748000Y-100492000D01*
X169650000Y-91330000D02*
X168950000Y-91330000D01*
X168950000Y-90130000D02*
X169650000Y-90130000D01*
X157690000Y-87670000D02*
X156990000Y-87670000D01*
X156990000Y-86470000D02*
X157690000Y-86470000D01*
X140690000Y-97070000D02*
X141690000Y-97070000D01*
X141690000Y-95370000D02*
X140690000Y-95370000D01*
X160905000Y-87720000D02*
X159905000Y-87720000D01*
X159905000Y-86370000D02*
X160905000Y-86370000D01*
X146665000Y-100260000D02*
X146665000Y-99260000D01*
X148015000Y-99260000D02*
X148015000Y-100260000D01*
X145500000Y-100965000D02*
X144500000Y-100965000D01*
X144500000Y-99615000D02*
X145500000Y-99615000D01*
D14*
X140390000Y-100930000D02*
X142190000Y-100930000D01*
X142190000Y-97710000D02*
X139740000Y-97710000D01*
X146040000Y-92250000D02*
X146040000Y-91550000D01*
X147240000Y-91550000D02*
X147240000Y-92250000D01*
X146040000Y-95510000D02*
X146040000Y-94810000D01*
X147240000Y-94810000D02*
X147240000Y-95510000D01*
X169610000Y-92820000D02*
X168910000Y-92820000D01*
X168910000Y-91620000D02*
X169610000Y-91620000D01*
X180650000Y-84260000D02*
X179950000Y-84260000D01*
X179950000Y-83060000D02*
X180650000Y-83060000D01*
X171930000Y-84190000D02*
X171230000Y-84190000D01*
X171230000Y-82990000D02*
X171930000Y-82990000D01*
X174390000Y-82990000D02*
X175090000Y-82990000D01*
X175090000Y-84190000D02*
X174390000Y-84190000D01*
X151110000Y-85900000D02*
X151110000Y-84900000D01*
X152470000Y-84900000D02*
X152470000Y-85900000D01*
X173430000Y-93440000D02*
X172430000Y-93440000D01*
X172430000Y-92080000D02*
X173430000Y-92080000D01*
X173430000Y-91870000D02*
X172430000Y-91870000D01*
X172430000Y-90510000D02*
X173430000Y-90510000D01*
D12*
X173802500Y-88897500D02*
X173802500Y-88397500D01*
X177052500Y-85647500D02*
X177052500Y-86147500D01*
X173802500Y-85647500D02*
X173802500Y-86147500D01*
X177052500Y-88897500D02*
X176552500Y-88897500D01*
X177052500Y-85647500D02*
X176552500Y-85647500D01*
X173802500Y-85647500D02*
X174302500Y-85647500D01*
X173802500Y-88897500D02*
X174302500Y-88897500D01*
X155580000Y-89745000D02*
X155580000Y-90745000D01*
X165930000Y-89745000D02*
X165930000Y-90820000D01*
X165930000Y-100095000D02*
X165930000Y-99020000D01*
X155580000Y-100095000D02*
X155580000Y-99020000D01*
X155580000Y-89745000D02*
X156655000Y-89745000D01*
X155580000Y-100095000D02*
X156655000Y-100095000D01*
X165930000Y-100095000D02*
X164855000Y-100095000D01*
X165930000Y-89745000D02*
X164855000Y-89745000D01*
X155580000Y-90745000D02*
X154555000Y-90745000D01*
X180620000Y-109670000D02*
X180620000Y-107170000D01*
X175620000Y-109670000D02*
X180620000Y-109670000D01*
X175620000Y-107170000D02*
X175620000Y-109670000D01*
X175120000Y-92670000D02*
X175120000Y-107170000D01*
X181120000Y-92670000D02*
X175120000Y-92670000D01*
X181120000Y-107170000D02*
X181120000Y-92670000D01*
X175120000Y-107170000D02*
X181120000Y-107170000D01*
X151531859Y-93920380D02*
G75*
G03X151531859Y-93920380I-141899J0D01*
G01*
X152289120Y-92718960D02*
X152289120Y-94121040D01*
X148590880Y-94121040D02*
X148590880Y-92718960D01*
D14*
X181020000Y-90410000D02*
X180320000Y-90410000D01*
X180320000Y-89210000D02*
X181020000Y-89210000D01*
X181720000Y-88500000D02*
X181720000Y-87570000D01*
X181720000Y-85340000D02*
X181720000Y-86270000D01*
X181720000Y-85340000D02*
X179560000Y-85340000D01*
X181720000Y-88500000D02*
X180260000Y-88500000D01*
X151610000Y-99210000D02*
X151610000Y-98510000D01*
X152810000Y-98510000D02*
X152810000Y-99210000D01*
X131550000Y-85740000D02*
X131550000Y-86040000D01*
X131550000Y-86040000D02*
X134850000Y-86040000D01*
X134850000Y-86040000D02*
X134850000Y-85740000D01*
X131550000Y-83540000D02*
X131550000Y-83240000D01*
X131550000Y-83240000D02*
X134850000Y-83240000D01*
X134850000Y-83240000D02*
X134850000Y-83540000D01*
X136550000Y-85740000D02*
X136550000Y-86040000D01*
X136550000Y-86040000D02*
X139850000Y-86040000D01*
X139850000Y-86040000D02*
X139850000Y-85740000D01*
X136550000Y-83540000D02*
X136550000Y-83240000D01*
X136550000Y-83240000D02*
X139850000Y-83240000D01*
X139850000Y-83240000D02*
X139850000Y-83540000D01*
X141550000Y-85740000D02*
X141550000Y-86040000D01*
X141550000Y-86040000D02*
X144850000Y-86040000D01*
X144850000Y-86040000D02*
X144850000Y-85740000D01*
X141550000Y-83540000D02*
X141550000Y-83240000D01*
X141550000Y-83240000D02*
X144850000Y-83240000D01*
X144850000Y-83240000D02*
X144850000Y-83540000D01*
X146540000Y-85740000D02*
X146540000Y-86040000D01*
X146540000Y-86040000D02*
X149840000Y-86040000D01*
X149840000Y-86040000D02*
X149840000Y-85740000D01*
X146540000Y-83540000D02*
X146540000Y-83240000D01*
X146540000Y-83240000D02*
X149840000Y-83240000D01*
X149840000Y-83240000D02*
X149840000Y-83540000D01*
X133850000Y-94150000D02*
X134150000Y-94150000D01*
X134150000Y-94150000D02*
X134150000Y-90850000D01*
X134150000Y-90850000D02*
X133850000Y-90850000D01*
X131650000Y-94150000D02*
X131350000Y-94150000D01*
X131350000Y-94150000D02*
X131350000Y-90850000D01*
X131350000Y-90850000D02*
X131650000Y-90850000D01*
X133840000Y-99140000D02*
X134140000Y-99140000D01*
X134140000Y-99140000D02*
X134140000Y-95840000D01*
X134140000Y-95840000D02*
X133840000Y-95840000D01*
X131640000Y-99140000D02*
X131340000Y-99140000D01*
X131340000Y-99140000D02*
X131340000Y-95840000D01*
X131340000Y-95840000D02*
X131640000Y-95840000D01*
X168650000Y-85460000D02*
X168650000Y-82800000D01*
X155890000Y-85460000D02*
X168650000Y-85460000D01*
X155890000Y-82800000D02*
X168650000Y-82800000D01*
X155890000Y-85460000D02*
X155890000Y-82800000D01*
X154620000Y-85460000D02*
X153290000Y-85460000D01*
X153290000Y-85460000D02*
X153290000Y-84130000D01*
X158940000Y-107040000D02*
X158940000Y-104380000D01*
X133480000Y-107040000D02*
X158940000Y-107040000D01*
X133480000Y-104380000D02*
X158940000Y-104380000D01*
X133480000Y-107040000D02*
X133480000Y-104380000D01*
X132210000Y-107040000D02*
X130880000Y-107040000D01*
X130880000Y-107040000D02*
X130880000Y-105710000D01*
X137300000Y-90160000D02*
X136300000Y-90160000D01*
X136300000Y-88800000D02*
X137300000Y-88800000D01*
X169604000Y-100592000D02*
X169604000Y-101592000D01*
X169604000Y-101592000D02*
X171704000Y-101592000D01*
X169604000Y-100592000D02*
X171704000Y-100592000D01*
X169336000Y-97278000D02*
X169336000Y-98278000D01*
X167976000Y-98278000D02*
X167976000Y-97278000D01*
X136043334Y-100680000D02*
X136010000Y-100713333D01*
X135910000Y-100746667D01*
X135843334Y-100746667D01*
X135743334Y-100713333D01*
X135676667Y-100646667D01*
X135643334Y-100580000D01*
X135610000Y-100446667D01*
X135610000Y-100346667D01*
X135643334Y-100213333D01*
X135676667Y-100146667D01*
X135743334Y-100080000D01*
X135843334Y-100046667D01*
X135910000Y-100046667D01*
X136010000Y-100080000D01*
X136043334Y-100113333D01*
X136710000Y-100746667D02*
X136310000Y-100746667D01*
X136510000Y-100746667D02*
X136510000Y-100046667D01*
X136443334Y-100146667D01*
X136376667Y-100213333D01*
X136310000Y-100246667D01*
X163173334Y-104136000D02*
X163140000Y-104169333D01*
X163040000Y-104202667D01*
X162973334Y-104202667D01*
X162873334Y-104169333D01*
X162806667Y-104102667D01*
X162773334Y-104036000D01*
X162740000Y-103902667D01*
X162740000Y-103802667D01*
X162773334Y-103669333D01*
X162806667Y-103602667D01*
X162873334Y-103536000D01*
X162973334Y-103502667D01*
X163040000Y-103502667D01*
X163140000Y-103536000D01*
X163173334Y-103569333D01*
X163440000Y-103569333D02*
X163473334Y-103536000D01*
X163540000Y-103502667D01*
X163706667Y-103502667D01*
X163773334Y-103536000D01*
X163806667Y-103569333D01*
X163840000Y-103636000D01*
X163840000Y-103702667D01*
X163806667Y-103802667D01*
X163406667Y-104202667D01*
X163840000Y-104202667D01*
X152396000Y-88286666D02*
X152429333Y-88320000D01*
X152462667Y-88420000D01*
X152462667Y-88486666D01*
X152429333Y-88586666D01*
X152362667Y-88653333D01*
X152296000Y-88686666D01*
X152162667Y-88720000D01*
X152062667Y-88720000D01*
X151929333Y-88686666D01*
X151862667Y-88653333D01*
X151796000Y-88586666D01*
X151762667Y-88486666D01*
X151762667Y-88420000D01*
X151796000Y-88320000D01*
X151829333Y-88286666D01*
X151762667Y-88053333D02*
X151762667Y-87620000D01*
X152029333Y-87853333D01*
X152029333Y-87753333D01*
X152062667Y-87686666D01*
X152096000Y-87653333D01*
X152162667Y-87620000D01*
X152329333Y-87620000D01*
X152396000Y-87653333D01*
X152429333Y-87686666D01*
X152462667Y-87753333D01*
X152462667Y-87953333D01*
X152429333Y-88020000D01*
X152396000Y-88053333D01*
X144223334Y-94992000D02*
X144190000Y-95025333D01*
X144090000Y-95058667D01*
X144023334Y-95058667D01*
X143923334Y-95025333D01*
X143856667Y-94958667D01*
X143823334Y-94892000D01*
X143790000Y-94758667D01*
X143790000Y-94658667D01*
X143823334Y-94525333D01*
X143856667Y-94458667D01*
X143923334Y-94392000D01*
X144023334Y-94358667D01*
X144090000Y-94358667D01*
X144190000Y-94392000D01*
X144223334Y-94425333D01*
X144823334Y-94592000D02*
X144823334Y-95058667D01*
X144656667Y-94325333D02*
X144490000Y-94825333D01*
X144923334Y-94825333D01*
X159903334Y-102866000D02*
X159870000Y-102899333D01*
X159770000Y-102932667D01*
X159703334Y-102932667D01*
X159603334Y-102899333D01*
X159536667Y-102832667D01*
X159503334Y-102766000D01*
X159470000Y-102632667D01*
X159470000Y-102532667D01*
X159503334Y-102399333D01*
X159536667Y-102332667D01*
X159603334Y-102266000D01*
X159703334Y-102232667D01*
X159770000Y-102232667D01*
X159870000Y-102266000D01*
X159903334Y-102299333D01*
X160536667Y-102232667D02*
X160203334Y-102232667D01*
X160170000Y-102566000D01*
X160203334Y-102532667D01*
X160270000Y-102499333D01*
X160436667Y-102499333D01*
X160503334Y-102532667D01*
X160536667Y-102566000D01*
X160570000Y-102632667D01*
X160570000Y-102799333D01*
X160536667Y-102866000D01*
X160503334Y-102899333D01*
X160436667Y-102932667D01*
X160270000Y-102932667D01*
X160203334Y-102899333D01*
X160170000Y-102866000D01*
X167281334Y-100072000D02*
X167248000Y-100105333D01*
X167148000Y-100138667D01*
X167081334Y-100138667D01*
X166981334Y-100105333D01*
X166914667Y-100038667D01*
X166881334Y-99972000D01*
X166848000Y-99838667D01*
X166848000Y-99738667D01*
X166881334Y-99605333D01*
X166914667Y-99538667D01*
X166981334Y-99472000D01*
X167081334Y-99438667D01*
X167148000Y-99438667D01*
X167248000Y-99472000D01*
X167281334Y-99505333D01*
X167881334Y-99438667D02*
X167748000Y-99438667D01*
X167681334Y-99472000D01*
X167648000Y-99505333D01*
X167581334Y-99605333D01*
X167548000Y-99738667D01*
X167548000Y-100005333D01*
X167581334Y-100072000D01*
X167614667Y-100105333D01*
X167681334Y-100138667D01*
X167814667Y-100138667D01*
X167881334Y-100105333D01*
X167914667Y-100072000D01*
X167948000Y-100005333D01*
X167948000Y-99838667D01*
X167914667Y-99772000D01*
X167881334Y-99738667D01*
X167814667Y-99705333D01*
X167681334Y-99705333D01*
X167614667Y-99738667D01*
X167581334Y-99772000D01*
X167548000Y-99838667D01*
X169301334Y-89658000D02*
X169268000Y-89691333D01*
X169168000Y-89724667D01*
X169101334Y-89724667D01*
X169001334Y-89691333D01*
X168934667Y-89624667D01*
X168901334Y-89558000D01*
X168868000Y-89424667D01*
X168868000Y-89324667D01*
X168901334Y-89191333D01*
X168934667Y-89124667D01*
X169001334Y-89058000D01*
X169101334Y-89024667D01*
X169168000Y-89024667D01*
X169268000Y-89058000D01*
X169301334Y-89091333D01*
X169534667Y-89024667D02*
X170001334Y-89024667D01*
X169701334Y-89724667D01*
X155077334Y-87370000D02*
X155044000Y-87403333D01*
X154944000Y-87436667D01*
X154877334Y-87436667D01*
X154777334Y-87403333D01*
X154710667Y-87336667D01*
X154677334Y-87270000D01*
X154644000Y-87136667D01*
X154644000Y-87036667D01*
X154677334Y-86903333D01*
X154710667Y-86836667D01*
X154777334Y-86770000D01*
X154877334Y-86736667D01*
X154944000Y-86736667D01*
X155044000Y-86770000D01*
X155077334Y-86803333D01*
X155477334Y-87036667D02*
X155410667Y-87003333D01*
X155377334Y-86970000D01*
X155344000Y-86903333D01*
X155344000Y-86870000D01*
X155377334Y-86803333D01*
X155410667Y-86770000D01*
X155477334Y-86736667D01*
X155610667Y-86736667D01*
X155677334Y-86770000D01*
X155710667Y-86803333D01*
X155744000Y-86870000D01*
X155744000Y-86903333D01*
X155710667Y-86970000D01*
X155677334Y-87003333D01*
X155610667Y-87036667D01*
X155477334Y-87036667D01*
X155410667Y-87070000D01*
X155377334Y-87103333D01*
X155344000Y-87170000D01*
X155344000Y-87303333D01*
X155377334Y-87370000D01*
X155410667Y-87403333D01*
X155477334Y-87436667D01*
X155610667Y-87436667D01*
X155677334Y-87403333D01*
X155710667Y-87370000D01*
X155744000Y-87303333D01*
X155744000Y-87170000D01*
X155710667Y-87103333D01*
X155677334Y-87070000D01*
X155610667Y-87036667D01*
X139453333Y-94886667D02*
X139120000Y-94886667D01*
X139120000Y-94186667D01*
X140053333Y-94886667D02*
X139653333Y-94886667D01*
X139853333Y-94886667D02*
X139853333Y-94186667D01*
X139786667Y-94286667D01*
X139720000Y-94353333D01*
X139653333Y-94386667D01*
X162443334Y-87366667D02*
X162210000Y-87033333D01*
X162043334Y-87366667D02*
X162043334Y-86666667D01*
X162310000Y-86666667D01*
X162376667Y-86700000D01*
X162410000Y-86733333D01*
X162443334Y-86800000D01*
X162443334Y-86900000D01*
X162410000Y-86966667D01*
X162376667Y-87000000D01*
X162310000Y-87033333D01*
X162043334Y-87033333D01*
X163110000Y-87366667D02*
X162710000Y-87366667D01*
X162910000Y-87366667D02*
X162910000Y-86666667D01*
X162843334Y-86766667D01*
X162776667Y-86833333D01*
X162710000Y-86866667D01*
X147203334Y-98360667D02*
X146970000Y-98027333D01*
X146803334Y-98360667D02*
X146803334Y-97660667D01*
X147070000Y-97660667D01*
X147136667Y-97694000D01*
X147170000Y-97727333D01*
X147203334Y-97794000D01*
X147203334Y-97894000D01*
X147170000Y-97960667D01*
X147136667Y-97994000D01*
X147070000Y-98027333D01*
X146803334Y-98027333D01*
X147470000Y-97727333D02*
X147503334Y-97694000D01*
X147570000Y-97660667D01*
X147736667Y-97660667D01*
X147803334Y-97694000D01*
X147836667Y-97727333D01*
X147870000Y-97794000D01*
X147870000Y-97860667D01*
X147836667Y-97960667D01*
X147436667Y-98360667D01*
X147870000Y-98360667D01*
X144943334Y-99376667D02*
X144710000Y-99043333D01*
X144543334Y-99376667D02*
X144543334Y-98676667D01*
X144810000Y-98676667D01*
X144876667Y-98710000D01*
X144910000Y-98743333D01*
X144943334Y-98810000D01*
X144943334Y-98910000D01*
X144910000Y-98976667D01*
X144876667Y-99010000D01*
X144810000Y-99043333D01*
X144543334Y-99043333D01*
X145176667Y-98676667D02*
X145610000Y-98676667D01*
X145376667Y-98943333D01*
X145476667Y-98943333D01*
X145543334Y-98976667D01*
X145576667Y-99010000D01*
X145610000Y-99076667D01*
X145610000Y-99243333D01*
X145576667Y-99310000D01*
X145543334Y-99343333D01*
X145476667Y-99376667D01*
X145276667Y-99376667D01*
X145210000Y-99343333D01*
X145176667Y-99310000D01*
X137926667Y-96606667D02*
X137926667Y-97173333D01*
X137960000Y-97240000D01*
X137993333Y-97273333D01*
X138060000Y-97306667D01*
X138193333Y-97306667D01*
X138260000Y-97273333D01*
X138293333Y-97240000D01*
X138326667Y-97173333D01*
X138326667Y-96606667D01*
X139026666Y-97306667D02*
X138626666Y-97306667D01*
X138826666Y-97306667D02*
X138826666Y-96606667D01*
X138760000Y-96706667D01*
X138693333Y-96773333D01*
X138626666Y-96806667D01*
X148078000Y-92016666D02*
X148111333Y-92050000D01*
X148144667Y-92150000D01*
X148144667Y-92216666D01*
X148111333Y-92316666D01*
X148044667Y-92383333D01*
X147978000Y-92416666D01*
X147844667Y-92450000D01*
X147744667Y-92450000D01*
X147611333Y-92416666D01*
X147544667Y-92383333D01*
X147478000Y-92316666D01*
X147444667Y-92216666D01*
X147444667Y-92150000D01*
X147478000Y-92050000D01*
X147511333Y-92016666D01*
X148144667Y-91683333D02*
X148144667Y-91550000D01*
X148111333Y-91483333D01*
X148078000Y-91450000D01*
X147978000Y-91383333D01*
X147844667Y-91350000D01*
X147578000Y-91350000D01*
X147511333Y-91383333D01*
X147478000Y-91416666D01*
X147444667Y-91483333D01*
X147444667Y-91616666D01*
X147478000Y-91683333D01*
X147511333Y-91716666D01*
X147578000Y-91750000D01*
X147744667Y-91750000D01*
X147811333Y-91716666D01*
X147844667Y-91683333D01*
X147878000Y-91616666D01*
X147878000Y-91483333D01*
X147844667Y-91416666D01*
X147811333Y-91383333D01*
X147744667Y-91350000D01*
X148078000Y-95610000D02*
X148111333Y-95643334D01*
X148144667Y-95743334D01*
X148144667Y-95810000D01*
X148111333Y-95910000D01*
X148044667Y-95976667D01*
X147978000Y-96010000D01*
X147844667Y-96043334D01*
X147744667Y-96043334D01*
X147611333Y-96010000D01*
X147544667Y-95976667D01*
X147478000Y-95910000D01*
X147444667Y-95810000D01*
X147444667Y-95743334D01*
X147478000Y-95643334D01*
X147511333Y-95610000D01*
X148144667Y-94943334D02*
X148144667Y-95343334D01*
X148144667Y-95143334D02*
X147444667Y-95143334D01*
X147544667Y-95210000D01*
X147611333Y-95276667D01*
X147644667Y-95343334D01*
X147444667Y-94510000D02*
X147444667Y-94443333D01*
X147478000Y-94376667D01*
X147511333Y-94343333D01*
X147578000Y-94310000D01*
X147711333Y-94276667D01*
X147878000Y-94276667D01*
X148011333Y-94310000D01*
X148078000Y-94343333D01*
X148111333Y-94376667D01*
X148144667Y-94443333D01*
X148144667Y-94510000D01*
X148111333Y-94576667D01*
X148078000Y-94610000D01*
X148011333Y-94643333D01*
X147878000Y-94676667D01*
X147711333Y-94676667D01*
X147578000Y-94643333D01*
X147511333Y-94610000D01*
X147478000Y-94576667D01*
X147444667Y-94510000D01*
X168770000Y-93800000D02*
X168736666Y-93833333D01*
X168636666Y-93866667D01*
X168570000Y-93866667D01*
X168470000Y-93833333D01*
X168403333Y-93766667D01*
X168370000Y-93700000D01*
X168336666Y-93566667D01*
X168336666Y-93466667D01*
X168370000Y-93333333D01*
X168403333Y-93266667D01*
X168470000Y-93200000D01*
X168570000Y-93166667D01*
X168636666Y-93166667D01*
X168736666Y-93200000D01*
X168770000Y-93233333D01*
X169436666Y-93866667D02*
X169036666Y-93866667D01*
X169236666Y-93866667D02*
X169236666Y-93166667D01*
X169170000Y-93266667D01*
X169103333Y-93333333D01*
X169036666Y-93366667D01*
X170103333Y-93866667D02*
X169703333Y-93866667D01*
X169903333Y-93866667D02*
X169903333Y-93166667D01*
X169836667Y-93266667D01*
X169770000Y-93333333D01*
X169703333Y-93366667D01*
X182622000Y-84270000D02*
X182655333Y-84303334D01*
X182688667Y-84403334D01*
X182688667Y-84470000D01*
X182655333Y-84570000D01*
X182588667Y-84636667D01*
X182522000Y-84670000D01*
X182388667Y-84703334D01*
X182288667Y-84703334D01*
X182155333Y-84670000D01*
X182088667Y-84636667D01*
X182022000Y-84570000D01*
X181988667Y-84470000D01*
X181988667Y-84403334D01*
X182022000Y-84303334D01*
X182055333Y-84270000D01*
X182688667Y-83603334D02*
X182688667Y-84003334D01*
X182688667Y-83803334D02*
X181988667Y-83803334D01*
X182088667Y-83870000D01*
X182155333Y-83936667D01*
X182188667Y-84003334D01*
X182055333Y-83336667D02*
X182022000Y-83303333D01*
X181988667Y-83236667D01*
X181988667Y-83070000D01*
X182022000Y-83003333D01*
X182055333Y-82970000D01*
X182122000Y-82936667D01*
X182188667Y-82936667D01*
X182288667Y-82970000D01*
X182688667Y-83370000D01*
X182688667Y-82936667D01*
X171000000Y-85086000D02*
X170966666Y-85119333D01*
X170866666Y-85152667D01*
X170800000Y-85152667D01*
X170700000Y-85119333D01*
X170633333Y-85052667D01*
X170600000Y-84986000D01*
X170566666Y-84852667D01*
X170566666Y-84752667D01*
X170600000Y-84619333D01*
X170633333Y-84552667D01*
X170700000Y-84486000D01*
X170800000Y-84452667D01*
X170866666Y-84452667D01*
X170966666Y-84486000D01*
X171000000Y-84519333D01*
X171666666Y-85152667D02*
X171266666Y-85152667D01*
X171466666Y-85152667D02*
X171466666Y-84452667D01*
X171400000Y-84552667D01*
X171333333Y-84619333D01*
X171266666Y-84652667D01*
X171900000Y-84452667D02*
X172333333Y-84452667D01*
X172100000Y-84719333D01*
X172200000Y-84719333D01*
X172266667Y-84752667D01*
X172300000Y-84786000D01*
X172333333Y-84852667D01*
X172333333Y-85019333D01*
X172300000Y-85086000D01*
X172266667Y-85119333D01*
X172200000Y-85152667D01*
X172000000Y-85152667D01*
X171933333Y-85119333D01*
X171900000Y-85086000D01*
X176842000Y-83816000D02*
X176808666Y-83849333D01*
X176708666Y-83882667D01*
X176642000Y-83882667D01*
X176542000Y-83849333D01*
X176475333Y-83782667D01*
X176442000Y-83716000D01*
X176408666Y-83582667D01*
X176408666Y-83482667D01*
X176442000Y-83349333D01*
X176475333Y-83282667D01*
X176542000Y-83216000D01*
X176642000Y-83182667D01*
X176708666Y-83182667D01*
X176808666Y-83216000D01*
X176842000Y-83249333D01*
X177508666Y-83882667D02*
X177108666Y-83882667D01*
X177308666Y-83882667D02*
X177308666Y-83182667D01*
X177242000Y-83282667D01*
X177175333Y-83349333D01*
X177108666Y-83382667D01*
X178108667Y-83416000D02*
X178108667Y-83882667D01*
X177942000Y-83149333D02*
X177775333Y-83649333D01*
X178208667Y-83649333D01*
X151693334Y-83882667D02*
X151460000Y-83549333D01*
X151293334Y-83882667D02*
X151293334Y-83182667D01*
X151560000Y-83182667D01*
X151626667Y-83216000D01*
X151660000Y-83249333D01*
X151693334Y-83316000D01*
X151693334Y-83416000D01*
X151660000Y-83482667D01*
X151626667Y-83516000D01*
X151560000Y-83549333D01*
X151293334Y-83549333D01*
X152293334Y-83416000D02*
X152293334Y-83882667D01*
X152126667Y-83149333D02*
X151960000Y-83649333D01*
X152393334Y-83649333D01*
X172857334Y-94550667D02*
X172624000Y-94217333D01*
X172457334Y-94550667D02*
X172457334Y-93850667D01*
X172724000Y-93850667D01*
X172790667Y-93884000D01*
X172824000Y-93917333D01*
X172857334Y-93984000D01*
X172857334Y-94084000D01*
X172824000Y-94150667D01*
X172790667Y-94184000D01*
X172724000Y-94217333D01*
X172457334Y-94217333D01*
X173490667Y-93850667D02*
X173157334Y-93850667D01*
X173124000Y-94184000D01*
X173157334Y-94150667D01*
X173224000Y-94117333D01*
X173390667Y-94117333D01*
X173457334Y-94150667D01*
X173490667Y-94184000D01*
X173524000Y-94250667D01*
X173524000Y-94417333D01*
X173490667Y-94484000D01*
X173457334Y-94517333D01*
X173390667Y-94550667D01*
X173224000Y-94550667D01*
X173157334Y-94517333D01*
X173124000Y-94484000D01*
X172857334Y-90232667D02*
X172624000Y-89899333D01*
X172457334Y-90232667D02*
X172457334Y-89532667D01*
X172724000Y-89532667D01*
X172790667Y-89566000D01*
X172824000Y-89599333D01*
X172857334Y-89666000D01*
X172857334Y-89766000D01*
X172824000Y-89832667D01*
X172790667Y-89866000D01*
X172724000Y-89899333D01*
X172457334Y-89899333D01*
X173457334Y-89532667D02*
X173324000Y-89532667D01*
X173257334Y-89566000D01*
X173224000Y-89599333D01*
X173157334Y-89699333D01*
X173124000Y-89832667D01*
X173124000Y-90099333D01*
X173157334Y-90166000D01*
X173190667Y-90199333D01*
X173257334Y-90232667D01*
X173390667Y-90232667D01*
X173457334Y-90199333D01*
X173490667Y-90166000D01*
X173524000Y-90099333D01*
X173524000Y-89932667D01*
X173490667Y-89866000D01*
X173457334Y-89832667D01*
X173390667Y-89799333D01*
X173257334Y-89799333D01*
X173190667Y-89832667D01*
X173157334Y-89866000D01*
X173124000Y-89932667D01*
X171932667Y-87500667D02*
X171932667Y-88067333D01*
X171966000Y-88134000D01*
X171999333Y-88167333D01*
X172066000Y-88200667D01*
X172199333Y-88200667D01*
X172266000Y-88167333D01*
X172299333Y-88134000D01*
X172332667Y-88067333D01*
X172332667Y-87500667D01*
X172632666Y-87567333D02*
X172666000Y-87534000D01*
X172732666Y-87500667D01*
X172899333Y-87500667D01*
X172966000Y-87534000D01*
X172999333Y-87567333D01*
X173032666Y-87634000D01*
X173032666Y-87700667D01*
X172999333Y-87800667D01*
X172599333Y-88200667D01*
X173032666Y-88200667D01*
X160196667Y-94536667D02*
X160196667Y-95103333D01*
X160230000Y-95170000D01*
X160263333Y-95203333D01*
X160330000Y-95236667D01*
X160463333Y-95236667D01*
X160530000Y-95203333D01*
X160563333Y-95170000D01*
X160596667Y-95103333D01*
X160596667Y-94536667D01*
X160863333Y-94536667D02*
X161296666Y-94536667D01*
X161063333Y-94803333D01*
X161163333Y-94803333D01*
X161230000Y-94836667D01*
X161263333Y-94870000D01*
X161296666Y-94936667D01*
X161296666Y-95103333D01*
X161263333Y-95170000D01*
X161230000Y-95203333D01*
X161163333Y-95236667D01*
X160963333Y-95236667D01*
X160896666Y-95203333D01*
X160863333Y-95170000D01*
X177536667Y-99626667D02*
X177536667Y-100193333D01*
X177570000Y-100260000D01*
X177603333Y-100293333D01*
X177670000Y-100326667D01*
X177803333Y-100326667D01*
X177870000Y-100293333D01*
X177903333Y-100260000D01*
X177936667Y-100193333D01*
X177936667Y-99626667D01*
X178570000Y-99860000D02*
X178570000Y-100326667D01*
X178403333Y-99593333D02*
X178236666Y-100093333D01*
X178670000Y-100093333D01*
X153366667Y-91853333D02*
X153366667Y-92186667D01*
X153133334Y-91486667D02*
X153366667Y-91853333D01*
X153600000Y-91486667D01*
X154200000Y-92186667D02*
X153800000Y-92186667D01*
X154000000Y-92186667D02*
X154000000Y-91486667D01*
X153933334Y-91586667D01*
X153866667Y-91653333D01*
X153800000Y-91686667D01*
X180230000Y-91436000D02*
X180196666Y-91469333D01*
X180096666Y-91502667D01*
X180030000Y-91502667D01*
X179930000Y-91469333D01*
X179863333Y-91402667D01*
X179830000Y-91336000D01*
X179796666Y-91202667D01*
X179796666Y-91102667D01*
X179830000Y-90969333D01*
X179863333Y-90902667D01*
X179930000Y-90836000D01*
X180030000Y-90802667D01*
X180096666Y-90802667D01*
X180196666Y-90836000D01*
X180230000Y-90869333D01*
X180896666Y-91502667D02*
X180496666Y-91502667D01*
X180696666Y-91502667D02*
X180696666Y-90802667D01*
X180630000Y-90902667D01*
X180563333Y-90969333D01*
X180496666Y-91002667D01*
X181530000Y-90802667D02*
X181196667Y-90802667D01*
X181163333Y-91136000D01*
X181196667Y-91102667D01*
X181263333Y-91069333D01*
X181430000Y-91069333D01*
X181496667Y-91102667D01*
X181530000Y-91136000D01*
X181563333Y-91202667D01*
X181563333Y-91369333D01*
X181530000Y-91436000D01*
X181496667Y-91469333D01*
X181430000Y-91502667D01*
X181263333Y-91502667D01*
X181196667Y-91469333D01*
X181163333Y-91436000D01*
X182136667Y-87936667D02*
X182136667Y-88503333D01*
X182170000Y-88570000D01*
X182203333Y-88603333D01*
X182270000Y-88636667D01*
X182403333Y-88636667D01*
X182470000Y-88603333D01*
X182503333Y-88570000D01*
X182536667Y-88503333D01*
X182536667Y-87936667D01*
X183170000Y-87936667D02*
X183036666Y-87936667D01*
X182970000Y-87970000D01*
X182936666Y-88003333D01*
X182870000Y-88103333D01*
X182836666Y-88236667D01*
X182836666Y-88503333D01*
X182870000Y-88570000D01*
X182903333Y-88603333D01*
X182970000Y-88636667D01*
X183103333Y-88636667D01*
X183170000Y-88603333D01*
X183203333Y-88570000D01*
X183236666Y-88503333D01*
X183236666Y-88336667D01*
X183203333Y-88270000D01*
X183170000Y-88236667D01*
X183103333Y-88203333D01*
X182970000Y-88203333D01*
X182903333Y-88236667D01*
X182870000Y-88270000D01*
X182836666Y-88336667D01*
X151380000Y-99380000D02*
X151413333Y-99413334D01*
X151446667Y-99513334D01*
X151446667Y-99580000D01*
X151413333Y-99680000D01*
X151346667Y-99746667D01*
X151280000Y-99780000D01*
X151146667Y-99813334D01*
X151046667Y-99813334D01*
X150913333Y-99780000D01*
X150846667Y-99746667D01*
X150780000Y-99680000D01*
X150746667Y-99580000D01*
X150746667Y-99513334D01*
X150780000Y-99413334D01*
X150813333Y-99380000D01*
X151446667Y-98713334D02*
X151446667Y-99113334D01*
X151446667Y-98913334D02*
X150746667Y-98913334D01*
X150846667Y-98980000D01*
X150913333Y-99046667D01*
X150946667Y-99113334D01*
X150746667Y-98113333D02*
X150746667Y-98246667D01*
X150780000Y-98313333D01*
X150813333Y-98346667D01*
X150913333Y-98413333D01*
X151046667Y-98446667D01*
X151313333Y-98446667D01*
X151380000Y-98413333D01*
X151413333Y-98380000D01*
X151446667Y-98313333D01*
X151446667Y-98180000D01*
X151413333Y-98113333D01*
X151380000Y-98080000D01*
X151313333Y-98046667D01*
X151146667Y-98046667D01*
X151080000Y-98080000D01*
X151046667Y-98113333D01*
X151013333Y-98180000D01*
X151013333Y-98313333D01*
X151046667Y-98380000D01*
X151080000Y-98413333D01*
X151146667Y-98446667D01*
X167226667Y-85956667D02*
X167226667Y-86523333D01*
X167260000Y-86590000D01*
X167293333Y-86623333D01*
X167360000Y-86656667D01*
X167493333Y-86656667D01*
X167560000Y-86623333D01*
X167593333Y-86590000D01*
X167626667Y-86523333D01*
X167626667Y-85956667D01*
X168293333Y-85956667D02*
X167960000Y-85956667D01*
X167926666Y-86290000D01*
X167960000Y-86256667D01*
X168026666Y-86223333D01*
X168193333Y-86223333D01*
X168260000Y-86256667D01*
X168293333Y-86290000D01*
X168326666Y-86356667D01*
X168326666Y-86523333D01*
X168293333Y-86590000D01*
X168260000Y-86623333D01*
X168193333Y-86656667D01*
X168026666Y-86656667D01*
X167960000Y-86623333D01*
X167926666Y-86590000D01*
X129496667Y-105943333D02*
X129996667Y-105943333D01*
X130096667Y-105976667D01*
X130163333Y-106043333D01*
X130196667Y-106143333D01*
X130196667Y-106210000D01*
X130196667Y-105243334D02*
X130196667Y-105643334D01*
X130196667Y-105443334D02*
X129496667Y-105443334D01*
X129596667Y-105510000D01*
X129663333Y-105576667D01*
X129696667Y-105643334D01*
X138821334Y-89836667D02*
X138588000Y-89503333D01*
X138421334Y-89836667D02*
X138421334Y-89136667D01*
X138688000Y-89136667D01*
X138754667Y-89170000D01*
X138788000Y-89203333D01*
X138821334Y-89270000D01*
X138821334Y-89370000D01*
X138788000Y-89436667D01*
X138754667Y-89470000D01*
X138688000Y-89503333D01*
X138421334Y-89503333D01*
X139054667Y-89136667D02*
X139521334Y-89136667D01*
X139221334Y-89836667D01*
X170425334Y-100138667D02*
X170425334Y-99438667D01*
X170592000Y-99438667D01*
X170692000Y-99472000D01*
X170758667Y-99538667D01*
X170792000Y-99605333D01*
X170825334Y-99738667D01*
X170825334Y-99838667D01*
X170792000Y-99972000D01*
X170758667Y-100038667D01*
X170692000Y-100105333D01*
X170592000Y-100138667D01*
X170425334Y-100138667D01*
X171492000Y-100138667D02*
X171092000Y-100138667D01*
X171292000Y-100138667D02*
X171292000Y-99438667D01*
X171225334Y-99538667D01*
X171158667Y-99605333D01*
X171092000Y-99638667D01*
X168539334Y-96074667D02*
X168306000Y-95741333D01*
X168139334Y-96074667D02*
X168139334Y-95374667D01*
X168406000Y-95374667D01*
X168472667Y-95408000D01*
X168506000Y-95441333D01*
X168539334Y-95508000D01*
X168539334Y-95608000D01*
X168506000Y-95674667D01*
X168472667Y-95708000D01*
X168406000Y-95741333D01*
X168139334Y-95741333D01*
X168939334Y-95674667D02*
X168872667Y-95641333D01*
X168839334Y-95608000D01*
X168806000Y-95541333D01*
X168806000Y-95508000D01*
X168839334Y-95441333D01*
X168872667Y-95408000D01*
X168939334Y-95374667D01*
X169072667Y-95374667D01*
X169139334Y-95408000D01*
X169172667Y-95441333D01*
X169206000Y-95508000D01*
X169206000Y-95541333D01*
X169172667Y-95608000D01*
X169139334Y-95641333D01*
X169072667Y-95674667D01*
X168939334Y-95674667D01*
X168872667Y-95708000D01*
X168839334Y-95741333D01*
X168806000Y-95808000D01*
X168806000Y-95941333D01*
X168839334Y-96008000D01*
X168872667Y-96041333D01*
X168939334Y-96074667D01*
X169072667Y-96074667D01*
X169139334Y-96041333D01*
X169172667Y-96008000D01*
X169206000Y-95941333D01*
X169206000Y-95808000D01*
X169172667Y-95741333D01*
X169139334Y-95708000D01*
X169072667Y-95674667D01*
M02*
