M48
;DRILL file {KiCad 4.0.7-e0-6372~58~ubuntu16.10.1} date Sun Jan  7 20:21:58 2018
;FORMAT={2:4/ absolute / inch / suppress leading zeros}
FMAT,2
INCH,TZ
T1C0.016
T2C0.039
T3C0.040
T4C0.067
T5C0.138
%
G90
G05
M72
T1
X52268Y-38311
X52272Y-36469
X53248Y-35594
X54386Y-33339
X56402Y-33071
X56465Y-39102
X56638Y-38929
X56819Y-38748
X57228Y-36709
X57236Y-35724
X57240Y-35283
X57240Y-36240
X57244Y-37244
X57244Y-37744
X57260Y-38295
X57768Y-35276
X57882Y-38303
X58339Y-32937
X58339Y-35276
X58606Y-38287
X58894Y-35272
X59374Y-38295
X59437Y-35272
X59992Y-35287
X60173Y-38201
X60291Y-37618
X60362Y-36031
X60370Y-35630
X60705Y-34024
X61478Y-36777
X61594Y-38678
X61595Y-38034
X61596Y-36346
X61599Y-36031
X61764Y-34681
X61800Y-36800
X61945Y-39217
X62241Y-39109
X62390Y-38197
X62488Y-38914
X62610Y-35902
X62614Y-36209
X62614Y-36846
X62618Y-36528
X62634Y-37138
X62792Y-38997
X63152Y-39067
X63248Y-38724
X63728Y-36096
X63787Y-38854
X64037Y-36033
X64209Y-38839
X64445Y-39098
X64831Y-37598
X64831Y-38256
X64835Y-37925
X64846Y-37264
X64862Y-36957
X65043Y-34772
X65390Y-40291
X66108Y-37823
X66700Y-35300
X67000Y-35300
X67039Y-37291
X67220Y-33335
X67300Y-35300
X67370Y-36240
X67382Y-35972
X67386Y-35715
X67400Y-40200
X67512Y-33839
X67516Y-34142
X67961Y-34272
X68173Y-33705
X68357Y-35533
X68449Y-33736
X68884Y-34177
X68884Y-34541
X69248Y-34177
X69248Y-34541
X69700Y-35300
X70038Y-34359
X70300Y-33700
X70400Y-35300
X71400Y-33400
X71900Y-35500
X71900Y-35800
X71900Y-36100
X71900Y-36400
T2
X52051Y-41618
X53051Y-41618
X54051Y-41618
X55051Y-41618
X56051Y-41618
X57051Y-41618
X58051Y-41618
X59051Y-41618
X60051Y-41618
X60874Y-33122
X61051Y-41618
X61874Y-33122
X62051Y-41618
X62874Y-33122
X63874Y-33122
X64874Y-33122
X65874Y-33122
T3
X52407Y-34882
X52407Y-39882
T4
X70126Y-38059
X70126Y-40815
T5
X55807Y-36457
X67607Y-38322
T0
M30
