G04 #@! TF.FileFunction,Copper,L1,Top,Signal*
%FSLAX46Y46*%
G04 Gerber Fmt 4.6, Leading zero omitted, Abs format (unit mm)*
G04 Created by KiCad (PCBNEW 4.0.7-e0-6372~58~ubuntu16.10.1) date Sun Jan  7 20:34:22 2018*
%MOMM*%
%LPD*%
G01*
G04 APERTURE LIST*
%ADD10C,0.100000*%
%ADD11R,0.750000X0.800000*%
%ADD12R,0.800000X0.750000*%
%ADD13R,1.000000X1.250000*%
%ADD14R,0.500000X0.900000*%
%ADD15R,0.900000X0.500000*%
%ADD16R,1.060000X0.650000*%
%ADD17R,2.000000X2.000000*%
%ADD18C,2.000000*%
%ADD19O,0.750000X0.200000*%
%ADD20O,0.200000X0.750000*%
%ADD21R,0.925000X0.925000*%
%ADD22R,1.000000X0.250000*%
%ADD23R,0.250000X1.000000*%
%ADD24R,2.800000X2.200000*%
%ADD25R,2.800000X2.800000*%
%ADD26R,1.399540X1.800860*%
%ADD27R,0.900000X0.800000*%
%ADD28R,0.900000X1.700000*%
%ADD29R,1.700000X0.900000*%
%ADD30R,1.700000X1.700000*%
%ADD31O,1.700000X1.700000*%
%ADD32R,0.800000X0.800000*%
%ADD33C,0.600000*%
%ADD34C,0.300000*%
%ADD35C,0.500000*%
%ADD36C,0.200000*%
%ADD37C,0.250000*%
%ADD38C,0.254000*%
G04 APERTURE END LIST*
D10*
D11*
X137790000Y-100020000D03*
X137790000Y-98520000D03*
D12*
X164020000Y-102500000D03*
X162520000Y-102500000D03*
D11*
X153350000Y-88920000D03*
X153350000Y-87420000D03*
X144320000Y-97390000D03*
X144320000Y-95890000D03*
D12*
X157010000Y-102460000D03*
X158510000Y-102460000D03*
X168148000Y-101092000D03*
X166648000Y-101092000D03*
X170050000Y-90730000D03*
X168550000Y-90730000D03*
X158090000Y-87070000D03*
X156590000Y-87070000D03*
D13*
X142190000Y-96220000D03*
X140190000Y-96220000D03*
D14*
X159655000Y-87045000D03*
X161155000Y-87045000D03*
D15*
X147340000Y-99010000D03*
X147340000Y-100510000D03*
D14*
X144250000Y-100290000D03*
X145750000Y-100290000D03*
D16*
X140190000Y-98370000D03*
X140190000Y-99320000D03*
X140190000Y-100270000D03*
X142390000Y-100270000D03*
X142390000Y-98370000D03*
X142390000Y-99320000D03*
D17*
X133114000Y-101299500D03*
D18*
X133114000Y-88599500D03*
D11*
X146640000Y-92650000D03*
X146640000Y-91150000D03*
X146640000Y-95910000D03*
X146640000Y-94410000D03*
D12*
X170010000Y-92220000D03*
X168510000Y-92220000D03*
X181050000Y-83660000D03*
X179550000Y-83660000D03*
X172330000Y-83590000D03*
X170830000Y-83590000D03*
X173990000Y-83590000D03*
X175490000Y-83590000D03*
D15*
X151790000Y-84650000D03*
X151790000Y-86150000D03*
D14*
X172180000Y-92760000D03*
X173680000Y-92760000D03*
X172180000Y-91190000D03*
X173680000Y-91190000D03*
D19*
X176927500Y-88072500D03*
X176927500Y-87672500D03*
X176927500Y-87272500D03*
X176927500Y-86872500D03*
X176927500Y-86472500D03*
D20*
X176227500Y-85772500D03*
X175827500Y-85772500D03*
X175427500Y-85772500D03*
X175027500Y-85772500D03*
X174627500Y-85772500D03*
D19*
X173927500Y-86472500D03*
X173927500Y-86872500D03*
X173927500Y-87272500D03*
X173927500Y-87672500D03*
X173927500Y-88072500D03*
D20*
X174627500Y-88772500D03*
X175027500Y-88772500D03*
X175427500Y-88772500D03*
X175827500Y-88772500D03*
X176227500Y-88772500D03*
D21*
X174965000Y-86810000D03*
X174965000Y-87735000D03*
X175890000Y-86810000D03*
X175890000Y-87735000D03*
D22*
X155055000Y-91170000D03*
X155055000Y-91670000D03*
X155055000Y-92170000D03*
X155055000Y-92670000D03*
X155055000Y-93170000D03*
X155055000Y-93670000D03*
X155055000Y-94170000D03*
X155055000Y-94670000D03*
X155055000Y-95170000D03*
X155055000Y-95670000D03*
X155055000Y-96170000D03*
X155055000Y-96670000D03*
X155055000Y-97170000D03*
X155055000Y-97670000D03*
X155055000Y-98170000D03*
X155055000Y-98670000D03*
D23*
X157005000Y-100620000D03*
X157505000Y-100620000D03*
X158005000Y-100620000D03*
X158505000Y-100620000D03*
X159005000Y-100620000D03*
X159505000Y-100620000D03*
X160005000Y-100620000D03*
X160505000Y-100620000D03*
X161005000Y-100620000D03*
X161505000Y-100620000D03*
X162005000Y-100620000D03*
X162505000Y-100620000D03*
X163005000Y-100620000D03*
X163505000Y-100620000D03*
X164005000Y-100620000D03*
X164505000Y-100620000D03*
D22*
X166455000Y-98670000D03*
X166455000Y-98170000D03*
X166455000Y-97670000D03*
X166455000Y-97170000D03*
X166455000Y-96670000D03*
X166455000Y-96170000D03*
X166455000Y-95670000D03*
X166455000Y-95170000D03*
X166455000Y-94670000D03*
X166455000Y-94170000D03*
X166455000Y-93670000D03*
X166455000Y-93170000D03*
X166455000Y-92670000D03*
X166455000Y-92170000D03*
X166455000Y-91670000D03*
X166455000Y-91170000D03*
D23*
X164505000Y-89220000D03*
X164005000Y-89220000D03*
X163505000Y-89220000D03*
X163005000Y-89220000D03*
X162505000Y-89220000D03*
X162005000Y-89220000D03*
X161505000Y-89220000D03*
X161005000Y-89220000D03*
X160505000Y-89220000D03*
X160005000Y-89220000D03*
X159505000Y-89220000D03*
X159005000Y-89220000D03*
X158505000Y-89220000D03*
X158005000Y-89220000D03*
X157505000Y-89220000D03*
X157005000Y-89220000D03*
D24*
X181820000Y-104770000D03*
X174420000Y-102770000D03*
D25*
X181820000Y-95370000D03*
D26*
X151638880Y-95619640D03*
X151638880Y-91220360D03*
X149241120Y-91220360D03*
X149241120Y-95619640D03*
D12*
X181420000Y-89810000D03*
X179920000Y-89810000D03*
D27*
X179960000Y-85970000D03*
X179960000Y-87870000D03*
X181960000Y-86920000D03*
D11*
X152210000Y-99610000D03*
X152210000Y-98110000D03*
D28*
X131500000Y-84640000D03*
X134900000Y-84640000D03*
X136500000Y-84640000D03*
X139900000Y-84640000D03*
X141500000Y-84640000D03*
X144900000Y-84640000D03*
X146490000Y-84640000D03*
X149890000Y-84640000D03*
D29*
X132750000Y-94200000D03*
X132750000Y-90800000D03*
X132740000Y-99190000D03*
X132740000Y-95790000D03*
D30*
X154620000Y-84130000D03*
D31*
X157160000Y-84130000D03*
X159700000Y-84130000D03*
X162240000Y-84130000D03*
X164780000Y-84130000D03*
X167320000Y-84130000D03*
D30*
X132210000Y-105710000D03*
D31*
X134750000Y-105710000D03*
X137290000Y-105710000D03*
X139830000Y-105710000D03*
X142370000Y-105710000D03*
X144910000Y-105710000D03*
X147450000Y-105710000D03*
X149990000Y-105710000D03*
X152530000Y-105710000D03*
X155070000Y-105710000D03*
X157610000Y-105710000D03*
D14*
X136050000Y-89480000D03*
X137550000Y-89480000D03*
D32*
X171704000Y-101092000D03*
X170104000Y-101092000D03*
D15*
X168656000Y-98528000D03*
X168656000Y-97028000D03*
D33*
X171159304Y-90715170D03*
X182626000Y-92456000D03*
X182626000Y-91694000D03*
X182626000Y-90932000D03*
X182626000Y-90170000D03*
X171490000Y-86720000D03*
X171480000Y-85950000D03*
X159090000Y-94330000D03*
X173160000Y-85610000D03*
X173860000Y-85690000D03*
X171150000Y-91370000D03*
X171120000Y-92050000D03*
X164670000Y-97170000D03*
X164680000Y-96330000D03*
X164670000Y-95500000D03*
X164710000Y-94650000D03*
X164750000Y-93870000D03*
X159040000Y-93590000D03*
X159050000Y-92780000D03*
X159040000Y-91970000D03*
X159030000Y-91190000D03*
X153320000Y-91520000D03*
X153340000Y-90500000D03*
X152380000Y-89630000D03*
X145390000Y-92050000D03*
X145360000Y-93240000D03*
X145440000Y-97270000D03*
X145400000Y-95870000D03*
X145400000Y-94600000D03*
X153140000Y-95550000D03*
X152840000Y-97030000D03*
X150810000Y-97270000D03*
X148860000Y-97250000D03*
X147020000Y-97290000D03*
X145380000Y-90740000D03*
X145390000Y-89620000D03*
X146730000Y-89600000D03*
X148180000Y-89600000D03*
X149590000Y-89590000D03*
X150970000Y-89590000D03*
X174965000Y-87735000D03*
X175890000Y-87735000D03*
X175890000Y-86810000D03*
X174965000Y-86810000D03*
X156972000Y-93472000D03*
X154190000Y-86420000D03*
X170942006Y-89662006D03*
X169418000Y-89662000D03*
X170180000Y-89662000D03*
X181356000Y-84836000D03*
X156879990Y-88090000D03*
X171196000Y-102108000D03*
X178562000Y-85598000D03*
X177895504Y-87272500D03*
X166090000Y-102340000D03*
X170740000Y-84670000D03*
X143420000Y-99320000D03*
X143860000Y-98880000D03*
X144320000Y-98420000D03*
X173626662Y-90252692D03*
X170279998Y-94720000D03*
X167914177Y-96069990D03*
X172620000Y-87050000D03*
X165210000Y-88320000D03*
X161870021Y-91684290D03*
X177038000Y-89662000D03*
X178816000Y-89662000D03*
X156452292Y-96606685D03*
X135250000Y-90410000D03*
X156462157Y-91518240D03*
X138140000Y-84680000D03*
X156453083Y-92318201D03*
X143260000Y-84000000D03*
X156154012Y-93412605D03*
X148180000Y-83659979D03*
X158470000Y-97020000D03*
X132770000Y-92630000D03*
X132760000Y-97310000D03*
X160650000Y-98360000D03*
X162653636Y-91523147D03*
X163090000Y-98650000D03*
X163690010Y-99309846D03*
X157340177Y-99610498D03*
X156447536Y-98243004D03*
X162020000Y-98690000D03*
X158092188Y-99337555D03*
X158720055Y-98841770D03*
X159491811Y-99052512D03*
X160404990Y-99229998D03*
D34*
X142190000Y-96220000D02*
X142090000Y-96220000D01*
X142090000Y-96220000D02*
X139180000Y-93310000D01*
X139180000Y-93310000D02*
X139180000Y-90960000D01*
X139180000Y-90960000D02*
X141220000Y-88920000D01*
X141220000Y-88920000D02*
X152675000Y-88920000D01*
X152675000Y-88920000D02*
X153350000Y-88920000D01*
X153350000Y-88920000D02*
X153350000Y-89465000D01*
X153350000Y-89465000D02*
X155055000Y-91170000D01*
D35*
X133114000Y-101299500D02*
X136535500Y-101299500D01*
X136535500Y-101299500D02*
X137790000Y-100045000D01*
X137790000Y-100045000D02*
X137790000Y-100020000D01*
X140190000Y-100270000D02*
X140905002Y-100270000D01*
X140905002Y-100270000D02*
X141290000Y-99885002D01*
X141290000Y-99885002D02*
X141290000Y-98754998D01*
X141290000Y-98754998D02*
X141674998Y-98370000D01*
X141674998Y-98370000D02*
X142390000Y-98370000D01*
X140190000Y-100270000D02*
X138040000Y-100270000D01*
X138040000Y-100270000D02*
X137790000Y-100020000D01*
X142390000Y-98370000D02*
X142390000Y-96420000D01*
X142390000Y-96420000D02*
X142190000Y-96220000D01*
X137690500Y-100119500D02*
X137790000Y-100020000D01*
X171150000Y-90724474D02*
X171159304Y-90715170D01*
X171150000Y-91370000D02*
X171150000Y-90724474D01*
D36*
X157505000Y-89220000D02*
X157579999Y-89145001D01*
X157579999Y-89145001D02*
X157579999Y-88479999D01*
X157579999Y-88479999D02*
X157921998Y-88138000D01*
X157921998Y-88138000D02*
X157988000Y-88138000D01*
X157988000Y-88138000D02*
X157988000Y-87172000D01*
X157988000Y-87172000D02*
X158090000Y-87070000D01*
D35*
X182626000Y-90932000D02*
X182626000Y-91694000D01*
X181420000Y-89810000D02*
X182266000Y-89810000D01*
X182266000Y-89810000D02*
X182626000Y-90170000D01*
X159760000Y-97520000D02*
X159760000Y-95000000D01*
X159760000Y-95000000D02*
X159090000Y-94330000D01*
X159220000Y-98060000D02*
X159760000Y-97520000D01*
X157830000Y-98060000D02*
X159220000Y-98060000D01*
X155190000Y-100700000D02*
X157830000Y-98060000D01*
X155190000Y-101540000D02*
X155190000Y-100700000D01*
X157010000Y-102460000D02*
X156110000Y-102460000D01*
X156110000Y-102460000D02*
X155190000Y-101540000D01*
X171480000Y-85950000D02*
X171480000Y-86710000D01*
X171480000Y-86710000D02*
X171490000Y-86720000D01*
X173990000Y-83590000D02*
X173990000Y-85560000D01*
X173990000Y-85560000D02*
X173860000Y-85690000D01*
X170010000Y-92220000D02*
X170950000Y-92220000D01*
X170950000Y-92220000D02*
X171120000Y-92050000D01*
X164680000Y-96330000D02*
X164680000Y-97160000D01*
X164680000Y-97160000D02*
X164670000Y-97170000D01*
X164710000Y-94650000D02*
X164710000Y-95460000D01*
X164710000Y-95460000D02*
X164670000Y-95500000D01*
X159040000Y-93590000D02*
X164470000Y-93590000D01*
X164470000Y-93590000D02*
X164750000Y-93870000D01*
D36*
X159040000Y-91970000D02*
X159040000Y-92770000D01*
X159040000Y-92770000D02*
X159050000Y-92780000D01*
X158475000Y-90890000D02*
X158730000Y-90890000D01*
X158730000Y-90890000D02*
X159030000Y-91190000D01*
X157505000Y-89220000D02*
X157505000Y-89920000D01*
X157505000Y-89920000D02*
X158475000Y-90890000D01*
X155055000Y-96670000D02*
X153200000Y-96670000D01*
X153200000Y-96670000D02*
X152840000Y-97030000D01*
X152210000Y-98085000D02*
X152210000Y-98110000D01*
X153340000Y-90500000D02*
X153340000Y-91500000D01*
X153340000Y-91500000D02*
X153320000Y-91520000D01*
X150970000Y-89590000D02*
X152340000Y-89590000D01*
X152340000Y-89590000D02*
X152380000Y-89630000D01*
X145380000Y-92040000D02*
X145390000Y-92050000D01*
X145380000Y-90740000D02*
X145380000Y-92040000D01*
X145400000Y-93280000D02*
X145360000Y-93240000D01*
X145400000Y-94600000D02*
X145400000Y-93280000D01*
X145400000Y-97230000D02*
X145440000Y-97270000D01*
X145400000Y-95870000D02*
X145400000Y-97230000D01*
X147020000Y-97290000D02*
X148820000Y-97290000D01*
X148820000Y-97290000D02*
X148860000Y-97250000D01*
X146730000Y-89600000D02*
X145410000Y-89600000D01*
X145410000Y-89600000D02*
X145390000Y-89620000D01*
X149590000Y-89590000D02*
X148190000Y-89590000D01*
X148190000Y-89590000D02*
X148180000Y-89600000D01*
X151638880Y-91220360D02*
X151638880Y-90258880D01*
X151638880Y-90258880D02*
X150970000Y-89590000D01*
X157505000Y-100620000D02*
X157505000Y-101965000D01*
X157505000Y-101965000D02*
X157010000Y-102460000D01*
X156672001Y-93771999D02*
X156972000Y-93472000D01*
X156274000Y-94170000D02*
X156672001Y-93771999D01*
X155055000Y-94170000D02*
X156274000Y-94170000D01*
X151790000Y-86150000D02*
X153920000Y-86150000D01*
X153920000Y-86150000D02*
X154190000Y-86420000D01*
D35*
X170180000Y-89662000D02*
X170942000Y-89662000D01*
X172180000Y-91190000D02*
X172180000Y-90240000D01*
X171366270Y-89662006D02*
X170942006Y-89662006D01*
X172180000Y-90240000D02*
X171602006Y-89662006D01*
X171602006Y-89662006D02*
X171366270Y-89662006D01*
X170942000Y-89662000D02*
X170942006Y-89662006D01*
X168993736Y-89662000D02*
X169418000Y-89662000D01*
X168743000Y-89662000D02*
X168993736Y-89662000D01*
X168550000Y-89855000D02*
X168743000Y-89662000D01*
X168550000Y-90730000D02*
X168550000Y-89855000D01*
X170180000Y-89662000D02*
X169418000Y-89662000D01*
X180931736Y-84836000D02*
X181356000Y-84836000D01*
X179550000Y-83660000D02*
X179575000Y-83660000D01*
X180751000Y-84836000D02*
X180931736Y-84836000D01*
X181655999Y-85135999D02*
X181356000Y-84836000D01*
X181960000Y-85440000D02*
X181655999Y-85135999D01*
X181960000Y-86920000D02*
X181960000Y-85440000D01*
X179575000Y-83660000D02*
X180751000Y-84836000D01*
D36*
X156590000Y-87070000D02*
X156590000Y-87800010D01*
X157005000Y-89220000D02*
X157005000Y-88215010D01*
X157005000Y-88215010D02*
X156879990Y-88090000D01*
X156590000Y-87800010D02*
X156879990Y-88090000D01*
X154620000Y-84130000D02*
X154056000Y-83566000D01*
X154056000Y-83566000D02*
X152424000Y-83566000D01*
X152424000Y-83566000D02*
X151790000Y-84200000D01*
X166090000Y-102340000D02*
X164505000Y-100755000D01*
X164505000Y-100755000D02*
X164505000Y-100620000D01*
X166648000Y-101092000D02*
X166648000Y-101782000D01*
X166648000Y-101782000D02*
X166090000Y-102340000D01*
X171288000Y-102108000D02*
X171196000Y-102108000D01*
X171704000Y-101692000D02*
X171288000Y-102108000D01*
X171704000Y-101092000D02*
X171704000Y-101692000D01*
X178562000Y-85598000D02*
X179550000Y-84610000D01*
X179550000Y-84610000D02*
X179550000Y-83660000D01*
D35*
X152210000Y-99610000D02*
X152210000Y-100510000D01*
X152210000Y-100510000D02*
X154990000Y-103290000D01*
X154990000Y-103290000D02*
X158000000Y-103290000D01*
X158000000Y-103290000D02*
X158510000Y-102780000D01*
X158510000Y-102780000D02*
X158510000Y-102460000D01*
D36*
X151790000Y-84200000D02*
X151790000Y-84650000D01*
X150580000Y-82990000D02*
X136150000Y-82990000D01*
X136150000Y-82990000D02*
X134900000Y-84240000D01*
X134900000Y-84240000D02*
X134900000Y-84640000D01*
X151790000Y-84200000D02*
X150580000Y-82990000D01*
X176927500Y-87272500D02*
X177895504Y-87272500D01*
D35*
X146654990Y-98420000D02*
X147340000Y-99105010D01*
X144320000Y-98420000D02*
X146654990Y-98420000D01*
D36*
X173927500Y-86872500D02*
X173352500Y-86872500D01*
X173352500Y-86872500D02*
X170830000Y-84350000D01*
X170830000Y-84350000D02*
X170830000Y-84165000D01*
X170830000Y-84165000D02*
X170830000Y-83590000D01*
D35*
X181990000Y-86890000D02*
X181960000Y-86920000D01*
X170740000Y-84670000D02*
X170740000Y-83680000D01*
X170740000Y-83680000D02*
X170830000Y-83590000D01*
X172180000Y-92960000D02*
X172180000Y-92760000D01*
D36*
X154260000Y-83733000D02*
X154260000Y-83695000D01*
D35*
X172180000Y-92760000D02*
X172180000Y-91190000D01*
X147340000Y-99010000D02*
X151610000Y-99010000D01*
X151610000Y-99010000D02*
X152210000Y-99610000D01*
X143860000Y-98880000D02*
X143420000Y-99320000D01*
X144320000Y-98420000D02*
X143860000Y-98880000D01*
X144320000Y-97390000D02*
X144320000Y-98420000D01*
X142390000Y-99320000D02*
X143420000Y-99320000D01*
D36*
X168550000Y-90730000D02*
X166570000Y-90730000D01*
X166570000Y-90730000D02*
X166455000Y-90845000D01*
X166455000Y-90845000D02*
X166455000Y-91170000D01*
X158510000Y-102460000D02*
X158510000Y-101885000D01*
X158005000Y-101380000D02*
X158005000Y-101320000D01*
X158510000Y-101885000D02*
X158005000Y-101380000D01*
X158005000Y-101320000D02*
X158005000Y-100620000D01*
X155055000Y-97170000D02*
X154355000Y-97170000D01*
X154355000Y-97170000D02*
X152785000Y-98740000D01*
X152785000Y-98740000D02*
X152785000Y-99010000D01*
X152785000Y-99010000D02*
X152210000Y-99585000D01*
X152210000Y-99585000D02*
X152210000Y-99610000D01*
D35*
X140190000Y-96220000D02*
X140190000Y-98370000D01*
D36*
X159005000Y-89220000D02*
X159005000Y-87245000D01*
X159005000Y-87245000D02*
X159205000Y-87045000D01*
X159205000Y-87045000D02*
X159655000Y-87045000D01*
D37*
X147340000Y-100510000D02*
X147340000Y-100500000D01*
X146160000Y-99320000D02*
X145020000Y-99320000D01*
X145020000Y-99320000D02*
X144250000Y-100090000D01*
X144250000Y-100090000D02*
X144250000Y-100290000D01*
X147340000Y-100500000D02*
X146160000Y-99320000D01*
X142390000Y-100270000D02*
X144230000Y-100270000D01*
X144230000Y-100270000D02*
X144250000Y-100290000D01*
D36*
X178215998Y-90165998D02*
X181820000Y-93770000D01*
X178215998Y-89373998D02*
X178215998Y-90165998D01*
X178527998Y-86842998D02*
X178527998Y-89061998D01*
X178357499Y-86672499D02*
X178527998Y-86842998D01*
X181820000Y-93770000D02*
X181820000Y-95370000D01*
X177607503Y-86672499D02*
X178357499Y-86672499D01*
X178527998Y-89061998D02*
X178215998Y-89373998D01*
X177407502Y-86872500D02*
X177607503Y-86672499D01*
X176927500Y-86872500D02*
X177407502Y-86872500D01*
X164005000Y-100620000D02*
X164005000Y-102485000D01*
X164005000Y-102485000D02*
X164020000Y-102500000D01*
X149241120Y-91220360D02*
X146710360Y-91220360D01*
X146710360Y-91220360D02*
X146640000Y-91150000D01*
X155055000Y-93170000D02*
X150990100Y-93170000D01*
X150990100Y-93170000D02*
X149241120Y-91421020D01*
X149241120Y-91421020D02*
X149241120Y-91220360D01*
X151638880Y-95418980D02*
X150239900Y-94020000D01*
X150239900Y-94020000D02*
X147605000Y-94020000D01*
X147605000Y-94020000D02*
X147215000Y-94410000D01*
X147215000Y-94410000D02*
X146640000Y-94410000D01*
X151638880Y-95619640D02*
X151638880Y-95418980D01*
X155055000Y-93670000D02*
X153387860Y-93670000D01*
X153387860Y-93670000D02*
X151638880Y-95418980D01*
X168510000Y-92220000D02*
X167910000Y-92220000D01*
X167910000Y-92220000D02*
X167360000Y-91670000D01*
X167360000Y-91670000D02*
X167155000Y-91670000D01*
X167155000Y-91670000D02*
X166455000Y-91670000D01*
X175490000Y-83590000D02*
X176090000Y-83590000D01*
X176090000Y-83590000D02*
X176927500Y-84427500D01*
X176927500Y-84427500D02*
X176927500Y-86172500D01*
X176927500Y-86172500D02*
X176927500Y-86472500D01*
X177202500Y-86472500D02*
X176927500Y-86472500D01*
X172796753Y-93843247D02*
X173680000Y-92960000D01*
X170208751Y-93843247D02*
X172796753Y-93843247D01*
X173680000Y-92960000D02*
X173680000Y-92760000D01*
X169381998Y-94670000D02*
X170208751Y-93843247D01*
X166455000Y-94670000D02*
X169381998Y-94670000D01*
X173680000Y-92760000D02*
X174130000Y-92760000D01*
X174130000Y-92760000D02*
X175827500Y-91062500D01*
X175827500Y-89347500D02*
X175827500Y-88772500D01*
X175827500Y-91062500D02*
X175827500Y-89347500D01*
X173680000Y-90306030D02*
X173626662Y-90252692D01*
X173680000Y-91190000D02*
X173680000Y-90306030D01*
X169979999Y-95019999D02*
X170279998Y-94720000D01*
X169829998Y-95170000D02*
X169979999Y-95019999D01*
X166455000Y-95170000D02*
X169829998Y-95170000D01*
X173680000Y-91190000D02*
X174130000Y-91190000D01*
X174130000Y-91190000D02*
X175427500Y-89892500D01*
X175427500Y-89892500D02*
X175427500Y-89347500D01*
X175427500Y-89347500D02*
X175427500Y-88772500D01*
X177800000Y-93726000D02*
X174420000Y-97106000D01*
X174420000Y-97106000D02*
X174420000Y-102770000D01*
X177800000Y-88370000D02*
X177800000Y-93726000D01*
X176927500Y-88072500D02*
X177502500Y-88072500D01*
X177502500Y-88072500D02*
X177800000Y-88370000D01*
X167814167Y-96170000D02*
X167914177Y-96069990D01*
X166455000Y-96170000D02*
X167814167Y-96170000D01*
X173927500Y-87272500D02*
X172842500Y-87272500D01*
X172842500Y-87272500D02*
X172620000Y-87050000D01*
X164005000Y-89220000D02*
X164005000Y-88520000D01*
X164005000Y-88520000D02*
X164852500Y-87672500D01*
X164852500Y-87672500D02*
X173352500Y-87672500D01*
X173352500Y-87672500D02*
X173927500Y-87672500D01*
X163505000Y-89885002D02*
X163505000Y-89220000D01*
X164958600Y-90110000D02*
X163729998Y-90110000D01*
X166996100Y-88072500D02*
X164958600Y-90110000D01*
X173927500Y-88072500D02*
X166996100Y-88072500D01*
X163729998Y-90110000D02*
X163505000Y-89885002D01*
X174144989Y-88589989D02*
X167044311Y-88589989D01*
X174327500Y-88772500D02*
X174144989Y-88589989D01*
X174627500Y-88772500D02*
X174327500Y-88772500D01*
X163005000Y-89920000D02*
X163005000Y-89220000D01*
X163005000Y-89950702D02*
X163005000Y-89920000D01*
X163564309Y-90510011D02*
X163005000Y-89950702D01*
X167044311Y-88589989D02*
X165124289Y-90510011D01*
X165124289Y-90510011D02*
X163564309Y-90510011D01*
X167210000Y-88990000D02*
X165280000Y-90920000D01*
X173060000Y-88990000D02*
X167210000Y-88990000D01*
X165280000Y-90920000D02*
X163408599Y-90920000D01*
X175027500Y-88772500D02*
X175027500Y-89347500D01*
X175027500Y-89347500D02*
X174713000Y-89662000D01*
X174713000Y-89662000D02*
X173732000Y-89662000D01*
X173732000Y-89662000D02*
X173060000Y-88990000D01*
X163408599Y-90920000D02*
X162505000Y-90016401D01*
X162505000Y-89920000D02*
X162505000Y-89220000D01*
X162505000Y-90016401D02*
X162505000Y-89920000D01*
X164505000Y-89220000D02*
X164505000Y-89025000D01*
X164505000Y-89025000D02*
X165210000Y-88320000D01*
X162170020Y-91984289D02*
X161870021Y-91684290D01*
X162355731Y-92170000D02*
X162170020Y-91984289D01*
X166455000Y-92170000D02*
X162355731Y-92170000D01*
X177038000Y-89662000D02*
X177038000Y-89583000D01*
X177038000Y-89583000D02*
X176227500Y-88772500D01*
X179920000Y-89810000D02*
X178964000Y-89810000D01*
X178964000Y-89810000D02*
X178816000Y-89662000D01*
X179960000Y-87870000D02*
X179960000Y-89770000D01*
X179960000Y-89770000D02*
X179920000Y-89810000D01*
X155055000Y-97670000D02*
X155606296Y-97670000D01*
X156152293Y-97124003D02*
X156152293Y-96906684D01*
X155606296Y-97670000D02*
X156152293Y-97124003D01*
X156152293Y-96906684D02*
X156452292Y-96606685D01*
X136050000Y-89480000D02*
X136050000Y-89280000D01*
X136050000Y-89280000D02*
X131500000Y-84730000D01*
X131500000Y-84730000D02*
X131500000Y-84640000D01*
X135250000Y-90410000D02*
X135250000Y-90280000D01*
X135250000Y-90280000D02*
X136050000Y-89480000D01*
X155055000Y-91670000D02*
X156310397Y-91670000D01*
X156310397Y-91670000D02*
X156462157Y-91518240D01*
X136500000Y-84640000D02*
X138100000Y-84640000D01*
X138100000Y-84640000D02*
X138140000Y-84680000D01*
X156304882Y-92170000D02*
X156453083Y-92318201D01*
X155055000Y-92170000D02*
X156304882Y-92170000D01*
X143260000Y-84000000D02*
X142140000Y-84000000D01*
X142140000Y-84000000D02*
X141500000Y-84640000D01*
X156154012Y-93069012D02*
X156154012Y-93412605D01*
X155755000Y-92670000D02*
X156154012Y-93069012D01*
X155055000Y-92670000D02*
X155755000Y-92670000D01*
X147199979Y-84640000D02*
X147880001Y-83959978D01*
X147880001Y-83959978D02*
X148180000Y-83659979D01*
X146490000Y-84640000D02*
X147199979Y-84640000D01*
X155671994Y-98170000D02*
X156521995Y-97319999D01*
X156521995Y-97319999D02*
X158170001Y-97319999D01*
X155055000Y-98170000D02*
X155671994Y-98170000D01*
X158170001Y-97319999D02*
X158470000Y-97020000D01*
X132770000Y-92630000D02*
X132770000Y-94180000D01*
X132770000Y-94180000D02*
X132750000Y-94200000D01*
X132760000Y-97310000D02*
X132760000Y-99170000D01*
X132760000Y-99170000D02*
X132740000Y-99190000D01*
X161005000Y-98715000D02*
X160650000Y-98360000D01*
X161005000Y-100620000D02*
X161005000Y-98715000D01*
X161505000Y-90374511D02*
X162353637Y-91223148D01*
X162353637Y-91223148D02*
X162653636Y-91523147D01*
X161505000Y-89220000D02*
X161505000Y-90374511D01*
X163005000Y-100620000D02*
X163005000Y-98735000D01*
X163005000Y-98735000D02*
X163090000Y-98650000D01*
X163505000Y-99494856D02*
X163690010Y-99309846D01*
X163505000Y-100620000D02*
X163505000Y-99494856D01*
X157005000Y-100620000D02*
X157005000Y-99920000D01*
X157314502Y-99610498D02*
X157340177Y-99610498D01*
X157005000Y-99920000D02*
X157314502Y-99610498D01*
X155055000Y-98670000D02*
X155972168Y-98670000D01*
X156399164Y-98243004D02*
X156447536Y-98243004D01*
X155972168Y-98670000D02*
X156399164Y-98243004D01*
X162005000Y-100620000D02*
X162005000Y-98705000D01*
X162005000Y-98705000D02*
X162020000Y-98690000D01*
X158505000Y-99750367D02*
X158392187Y-99637554D01*
X158392187Y-99637554D02*
X158092188Y-99337555D01*
X158505000Y-100620000D02*
X158505000Y-99750367D01*
X159005000Y-99505172D02*
X158720055Y-99220227D01*
X158720055Y-99220227D02*
X158720055Y-98841770D01*
X159005000Y-100620000D02*
X159005000Y-99505172D01*
X159505000Y-100620000D02*
X159505000Y-99065701D01*
X159505000Y-99065701D02*
X159491811Y-99052512D01*
X160005000Y-99629988D02*
X160104991Y-99529997D01*
X160005000Y-100620000D02*
X160005000Y-99629988D01*
X160104991Y-99529997D02*
X160404990Y-99229998D01*
X168656000Y-98528000D02*
X168656000Y-100244000D01*
X168656000Y-100244000D02*
X169504000Y-101092000D01*
X169504000Y-101092000D02*
X170104000Y-101092000D01*
X166455000Y-96670000D02*
X168298000Y-96670000D01*
X168298000Y-96670000D02*
X168656000Y-97028000D01*
D38*
G36*
X135036918Y-83346478D02*
X134450000Y-83346478D01*
X134288799Y-83376810D01*
X134140745Y-83472080D01*
X134041421Y-83617445D01*
X134006478Y-83790000D01*
X134006478Y-85490000D01*
X134036810Y-85651201D01*
X134132080Y-85799255D01*
X134277445Y-85898579D01*
X134450000Y-85933522D01*
X135350000Y-85933522D01*
X135511201Y-85903190D01*
X135659255Y-85807920D01*
X135699631Y-85748828D01*
X135732080Y-85799255D01*
X135877445Y-85898579D01*
X136050000Y-85933522D01*
X136950000Y-85933522D01*
X137111201Y-85903190D01*
X137259255Y-85807920D01*
X137358579Y-85662555D01*
X137393522Y-85490000D01*
X137393522Y-85175000D01*
X137595595Y-85175000D01*
X137723112Y-85302740D01*
X137993158Y-85414873D01*
X138285559Y-85415128D01*
X138555800Y-85303466D01*
X138762740Y-85096888D01*
X138815000Y-84971032D01*
X138815000Y-85616310D01*
X138911673Y-85849699D01*
X139090302Y-86028327D01*
X139323691Y-86125000D01*
X139614250Y-86125000D01*
X139773000Y-85966250D01*
X139773000Y-84767000D01*
X139753000Y-84767000D01*
X139753000Y-84513000D01*
X139773000Y-84513000D01*
X139773000Y-84493000D01*
X140027000Y-84493000D01*
X140027000Y-84513000D01*
X140047000Y-84513000D01*
X140047000Y-84767000D01*
X140027000Y-84767000D01*
X140027000Y-85966250D01*
X140185750Y-86125000D01*
X140476309Y-86125000D01*
X140709698Y-86028327D01*
X140854871Y-85883155D01*
X140877445Y-85898579D01*
X141050000Y-85933522D01*
X141950000Y-85933522D01*
X142111201Y-85903190D01*
X142259255Y-85807920D01*
X142358579Y-85662555D01*
X142393522Y-85490000D01*
X142393522Y-84925750D01*
X143815000Y-84925750D01*
X143815000Y-85616310D01*
X143911673Y-85849699D01*
X144090302Y-86028327D01*
X144323691Y-86125000D01*
X144614250Y-86125000D01*
X144773000Y-85966250D01*
X144773000Y-84767000D01*
X143973750Y-84767000D01*
X143815000Y-84925750D01*
X142393522Y-84925750D01*
X142393522Y-84535000D01*
X142755525Y-84535000D01*
X142843112Y-84622740D01*
X143113158Y-84734873D01*
X143405559Y-84735128D01*
X143675800Y-84623466D01*
X143880187Y-84419437D01*
X143973750Y-84513000D01*
X144773000Y-84513000D01*
X144773000Y-84493000D01*
X145027000Y-84493000D01*
X145027000Y-84513000D01*
X145047000Y-84513000D01*
X145047000Y-84767000D01*
X145027000Y-84767000D01*
X145027000Y-85966250D01*
X145185750Y-86125000D01*
X145476309Y-86125000D01*
X145709698Y-86028327D01*
X145850812Y-85887214D01*
X145867445Y-85898579D01*
X146040000Y-85933522D01*
X146940000Y-85933522D01*
X147101201Y-85903190D01*
X147249255Y-85807920D01*
X147348579Y-85662555D01*
X147383522Y-85490000D01*
X147383522Y-85138491D01*
X147404715Y-85134276D01*
X147578281Y-85018302D01*
X147670833Y-84925750D01*
X148805000Y-84925750D01*
X148805000Y-85616310D01*
X148901673Y-85849699D01*
X149080302Y-86028327D01*
X149313691Y-86125000D01*
X149604250Y-86125000D01*
X149763000Y-85966250D01*
X149763000Y-84767000D01*
X148963750Y-84767000D01*
X148805000Y-84925750D01*
X147670833Y-84925750D01*
X148201584Y-84394999D01*
X148325559Y-84395107D01*
X148595800Y-84283445D01*
X148802740Y-84076867D01*
X148805000Y-84071424D01*
X148805000Y-84354250D01*
X148963750Y-84513000D01*
X149763000Y-84513000D01*
X149763000Y-84493000D01*
X150017000Y-84493000D01*
X150017000Y-84513000D01*
X150037000Y-84513000D01*
X150037000Y-84767000D01*
X150017000Y-84767000D01*
X150017000Y-85966250D01*
X150175750Y-86125000D01*
X150466309Y-86125000D01*
X150699698Y-86028327D01*
X150828025Y-85900000D01*
X150896478Y-85900000D01*
X150896478Y-86400000D01*
X150926810Y-86561201D01*
X151022080Y-86709255D01*
X151167445Y-86808579D01*
X151340000Y-86843522D01*
X152240000Y-86843522D01*
X152370990Y-86818875D01*
X152340000Y-86893691D01*
X152340000Y-87134250D01*
X152498750Y-87293000D01*
X153223000Y-87293000D01*
X153223000Y-87273000D01*
X153477000Y-87273000D01*
X153477000Y-87293000D01*
X154201250Y-87293000D01*
X154341631Y-87152619D01*
X154605800Y-87043466D01*
X154812740Y-86836888D01*
X154924873Y-86566842D01*
X154925128Y-86274441D01*
X154813466Y-86004200D01*
X154606888Y-85797260D01*
X154336842Y-85685127D01*
X154168521Y-85684980D01*
X154124736Y-85655724D01*
X153920000Y-85615000D01*
X152573528Y-85615000D01*
X152557920Y-85590745D01*
X152412555Y-85491421D01*
X152240000Y-85456478D01*
X151340000Y-85456478D01*
X151178799Y-85486810D01*
X151030745Y-85582080D01*
X150931421Y-85727445D01*
X150896478Y-85900000D01*
X150828025Y-85900000D01*
X150878327Y-85849699D01*
X150975000Y-85616310D01*
X150975000Y-85136090D01*
X151022080Y-85209255D01*
X151167445Y-85308579D01*
X151340000Y-85343522D01*
X152240000Y-85343522D01*
X152401201Y-85313190D01*
X152549255Y-85217920D01*
X152648579Y-85072555D01*
X152683522Y-84900000D01*
X152683522Y-84400000D01*
X152653190Y-84238799D01*
X152596267Y-84150337D01*
X152645604Y-84101000D01*
X153326478Y-84101000D01*
X153326478Y-84980000D01*
X153356810Y-85141201D01*
X153452080Y-85289255D01*
X153597445Y-85388579D01*
X153770000Y-85423522D01*
X155470000Y-85423522D01*
X155631201Y-85393190D01*
X155779255Y-85297920D01*
X155878579Y-85152555D01*
X155913522Y-84980000D01*
X155913522Y-84348838D01*
X155972815Y-84646923D01*
X156251368Y-85063807D01*
X156668252Y-85342360D01*
X157160000Y-85440175D01*
X157651748Y-85342360D01*
X158068632Y-85063807D01*
X158339248Y-84658802D01*
X158504817Y-85011358D01*
X158933076Y-85401645D01*
X159343110Y-85571476D01*
X159573000Y-85450155D01*
X159573000Y-84257000D01*
X159553000Y-84257000D01*
X159553000Y-84003000D01*
X159573000Y-84003000D01*
X159573000Y-83983000D01*
X159827000Y-83983000D01*
X159827000Y-84003000D01*
X159847000Y-84003000D01*
X159847000Y-84257000D01*
X159827000Y-84257000D01*
X159827000Y-85450155D01*
X160056890Y-85571476D01*
X160466924Y-85401645D01*
X160895183Y-85011358D01*
X161060752Y-84658802D01*
X161331368Y-85063807D01*
X161748252Y-85342360D01*
X162240000Y-85440175D01*
X162731748Y-85342360D01*
X163148632Y-85063807D01*
X163427185Y-84646923D01*
X163510000Y-84230585D01*
X163592815Y-84646923D01*
X163871368Y-85063807D01*
X164288252Y-85342360D01*
X164780000Y-85440175D01*
X165271748Y-85342360D01*
X165688632Y-85063807D01*
X165967185Y-84646923D01*
X166050000Y-84230585D01*
X166132815Y-84646923D01*
X166411368Y-85063807D01*
X166828252Y-85342360D01*
X167320000Y-85440175D01*
X167811748Y-85342360D01*
X168228632Y-85063807D01*
X168507185Y-84646923D01*
X168605000Y-84155175D01*
X168605000Y-84104825D01*
X168507185Y-83613077D01*
X168237858Y-83210000D01*
X169987491Y-83210000D01*
X169986478Y-83215000D01*
X169986478Y-83965000D01*
X170016810Y-84126201D01*
X170055000Y-84185550D01*
X170055000Y-84403051D01*
X170005127Y-84523158D01*
X170004872Y-84815559D01*
X170116534Y-85085800D01*
X170323112Y-85292740D01*
X170593158Y-85404873D01*
X170885559Y-85405128D01*
X171057485Y-85334089D01*
X172177041Y-86453645D01*
X171997260Y-86633112D01*
X171885127Y-86903158D01*
X171884923Y-87137500D01*
X164852500Y-87137500D01*
X164647764Y-87178224D01*
X164474198Y-87294198D01*
X163626698Y-88141698D01*
X163536640Y-88276478D01*
X163380000Y-88276478D01*
X163250411Y-88300862D01*
X163130000Y-88276478D01*
X162880000Y-88276478D01*
X162750411Y-88300862D01*
X162630000Y-88276478D01*
X162380000Y-88276478D01*
X162250411Y-88300862D01*
X162130000Y-88276478D01*
X161880000Y-88276478D01*
X161750411Y-88300862D01*
X161630000Y-88276478D01*
X161380000Y-88276478D01*
X161250411Y-88300862D01*
X161130000Y-88276478D01*
X160880000Y-88276478D01*
X160750411Y-88300862D01*
X160630000Y-88276478D01*
X160380000Y-88276478D01*
X160250411Y-88300862D01*
X160130000Y-88276478D01*
X159880000Y-88276478D01*
X159750411Y-88300862D01*
X159630000Y-88276478D01*
X159540000Y-88276478D01*
X159540000Y-87938522D01*
X159905000Y-87938522D01*
X160066201Y-87908190D01*
X160214255Y-87812920D01*
X160298373Y-87689809D01*
X160366673Y-87854699D01*
X160545302Y-88033327D01*
X160778691Y-88130000D01*
X160871250Y-88130000D01*
X161030000Y-87971250D01*
X161030000Y-87172000D01*
X161280000Y-87172000D01*
X161280000Y-87971250D01*
X161438750Y-88130000D01*
X161531309Y-88130000D01*
X161764698Y-88033327D01*
X161943327Y-87854699D01*
X162040000Y-87621310D01*
X162040000Y-87330750D01*
X161881250Y-87172000D01*
X161280000Y-87172000D01*
X161030000Y-87172000D01*
X161008000Y-87172000D01*
X161008000Y-86918000D01*
X161030000Y-86918000D01*
X161030000Y-86118750D01*
X161280000Y-86118750D01*
X161280000Y-86918000D01*
X161881250Y-86918000D01*
X162040000Y-86759250D01*
X162040000Y-86468690D01*
X161943327Y-86235301D01*
X161764698Y-86056673D01*
X161531309Y-85960000D01*
X161438750Y-85960000D01*
X161280000Y-86118750D01*
X161030000Y-86118750D01*
X160871250Y-85960000D01*
X160778691Y-85960000D01*
X160545302Y-86056673D01*
X160366673Y-86235301D01*
X160297665Y-86401902D01*
X160222920Y-86285745D01*
X160077555Y-86186421D01*
X159905000Y-86151478D01*
X159405000Y-86151478D01*
X159243799Y-86181810D01*
X159095745Y-86277080D01*
X159038758Y-86360483D01*
X159028327Y-86335301D01*
X158849698Y-86156673D01*
X158616309Y-86060000D01*
X158375750Y-86060000D01*
X158217000Y-86218750D01*
X158217000Y-86943000D01*
X158237000Y-86943000D01*
X158237000Y-87197000D01*
X158217000Y-87197000D01*
X158217000Y-87921250D01*
X158375750Y-88080000D01*
X158470000Y-88080000D01*
X158470000Y-88276478D01*
X158380000Y-88276478D01*
X158250411Y-88300862D01*
X158130000Y-88276478D01*
X158084503Y-88276478D01*
X157989699Y-88181673D01*
X157756310Y-88085000D01*
X157726250Y-88085000D01*
X157632002Y-88179248D01*
X157632002Y-88085000D01*
X157614996Y-88085000D01*
X157615000Y-88080000D01*
X157804250Y-88080000D01*
X157963000Y-87921250D01*
X157963000Y-87197000D01*
X157943000Y-87197000D01*
X157943000Y-86943000D01*
X157963000Y-86943000D01*
X157963000Y-86218750D01*
X157804250Y-86060000D01*
X157563691Y-86060000D01*
X157330302Y-86156673D01*
X157185129Y-86301845D01*
X157162555Y-86286421D01*
X156990000Y-86251478D01*
X156190000Y-86251478D01*
X156028799Y-86281810D01*
X155880745Y-86377080D01*
X155781421Y-86522445D01*
X155746478Y-86695000D01*
X155746478Y-87445000D01*
X155776810Y-87606201D01*
X155872080Y-87754255D01*
X156017445Y-87853579D01*
X156067679Y-87863752D01*
X156095724Y-88004746D01*
X156144999Y-88078491D01*
X156144862Y-88235559D01*
X156256524Y-88505800D01*
X156442190Y-88691792D01*
X156436478Y-88720000D01*
X156436478Y-89720000D01*
X156466810Y-89881201D01*
X156562080Y-90029255D01*
X156707445Y-90128579D01*
X156880000Y-90163522D01*
X156925497Y-90163522D01*
X157020301Y-90258327D01*
X157253690Y-90355000D01*
X157283750Y-90355000D01*
X157442500Y-90196250D01*
X157442500Y-90033171D01*
X157505381Y-89941142D01*
X157562080Y-90029255D01*
X157567500Y-90032958D01*
X157567500Y-90196250D01*
X157726250Y-90355000D01*
X157756310Y-90355000D01*
X157989699Y-90258327D01*
X158084503Y-90163522D01*
X158130000Y-90163522D01*
X158259589Y-90139138D01*
X158380000Y-90163522D01*
X158630000Y-90163522D01*
X158759589Y-90139138D01*
X158880000Y-90163522D01*
X159130000Y-90163522D01*
X159259589Y-90139138D01*
X159380000Y-90163522D01*
X159630000Y-90163522D01*
X159759589Y-90139138D01*
X159880000Y-90163522D01*
X160130000Y-90163522D01*
X160259589Y-90139138D01*
X160380000Y-90163522D01*
X160630000Y-90163522D01*
X160759589Y-90139138D01*
X160880000Y-90163522D01*
X160970000Y-90163522D01*
X160970000Y-90374511D01*
X161010724Y-90579247D01*
X161126698Y-90752813D01*
X161444456Y-91070571D01*
X161247281Y-91267402D01*
X161135148Y-91537448D01*
X161134893Y-91829849D01*
X161246555Y-92100090D01*
X161453133Y-92307030D01*
X161723179Y-92419163D01*
X161848399Y-92419272D01*
X161977429Y-92548302D01*
X162150995Y-92664276D01*
X162355731Y-92705000D01*
X165511478Y-92705000D01*
X165511478Y-92795000D01*
X165535862Y-92924589D01*
X165511478Y-93045000D01*
X165511478Y-93295000D01*
X165535862Y-93424589D01*
X165511478Y-93545000D01*
X165511478Y-93795000D01*
X165535862Y-93924589D01*
X165511478Y-94045000D01*
X165511478Y-94295000D01*
X165535862Y-94424589D01*
X165511478Y-94545000D01*
X165511478Y-94795000D01*
X165535862Y-94924589D01*
X165511478Y-95045000D01*
X165511478Y-95295000D01*
X165535862Y-95424589D01*
X165511478Y-95545000D01*
X165511478Y-95795000D01*
X165535862Y-95924589D01*
X165511478Y-96045000D01*
X165511478Y-96295000D01*
X165535862Y-96424589D01*
X165511478Y-96545000D01*
X165511478Y-96795000D01*
X165535862Y-96924589D01*
X165511478Y-97045000D01*
X165511478Y-97295000D01*
X165535862Y-97424589D01*
X165511478Y-97545000D01*
X165511478Y-97795000D01*
X165535862Y-97924589D01*
X165511478Y-98045000D01*
X165511478Y-98295000D01*
X165535862Y-98424589D01*
X165511478Y-98545000D01*
X165511478Y-98795000D01*
X165541810Y-98956201D01*
X165637080Y-99104255D01*
X165782445Y-99203579D01*
X165955000Y-99238522D01*
X166955000Y-99238522D01*
X167116201Y-99208190D01*
X167264255Y-99112920D01*
X167363579Y-98967555D01*
X167398522Y-98795000D01*
X167398522Y-98545000D01*
X167374138Y-98415411D01*
X167398522Y-98295000D01*
X167398522Y-98045000D01*
X167374138Y-97915411D01*
X167398522Y-97795000D01*
X167398522Y-97545000D01*
X167374138Y-97415411D01*
X167398522Y-97295000D01*
X167398522Y-97205000D01*
X167762478Y-97205000D01*
X167762478Y-97278000D01*
X167792810Y-97439201D01*
X167888080Y-97587255D01*
X168033445Y-97686579D01*
X168206000Y-97721522D01*
X169106000Y-97721522D01*
X169267201Y-97691190D01*
X169415255Y-97595920D01*
X169514579Y-97450555D01*
X169536996Y-97339854D01*
X169536621Y-97769817D01*
X169868567Y-98573186D01*
X170482681Y-99188373D01*
X171285470Y-99521720D01*
X172154717Y-99522479D01*
X172958086Y-99190533D01*
X173573273Y-98576419D01*
X173885000Y-97825697D01*
X173885000Y-101226478D01*
X173020000Y-101226478D01*
X172858799Y-101256810D01*
X172710745Y-101352080D01*
X172611421Y-101497445D01*
X172576478Y-101670000D01*
X172576478Y-103870000D01*
X172606810Y-104031201D01*
X172702080Y-104179255D01*
X172847445Y-104278579D01*
X173020000Y-104313522D01*
X175820000Y-104313522D01*
X175981201Y-104283190D01*
X176129255Y-104187920D01*
X176228579Y-104042555D01*
X176252489Y-103924481D01*
X176834777Y-103924481D01*
X177029995Y-104396943D01*
X177391155Y-104758735D01*
X177863276Y-104954777D01*
X178374481Y-104955223D01*
X178846943Y-104760005D01*
X179208735Y-104398845D01*
X179404777Y-103926724D01*
X179405111Y-103543691D01*
X179785000Y-103543691D01*
X179785000Y-104484250D01*
X179943750Y-104643000D01*
X181693000Y-104643000D01*
X181693000Y-103193750D01*
X181534250Y-103035000D01*
X180293690Y-103035000D01*
X180060301Y-103131673D01*
X179881673Y-103310302D01*
X179785000Y-103543691D01*
X179405111Y-103543691D01*
X179405223Y-103415519D01*
X179210005Y-102943057D01*
X178848845Y-102581265D01*
X178376724Y-102385223D01*
X177865519Y-102384777D01*
X177393057Y-102579995D01*
X177031265Y-102941155D01*
X176835223Y-103413276D01*
X176834777Y-103924481D01*
X176252489Y-103924481D01*
X176263522Y-103870000D01*
X176263522Y-101670000D01*
X176233190Y-101508799D01*
X176137920Y-101360745D01*
X175992555Y-101261421D01*
X175820000Y-101226478D01*
X174955000Y-101226478D01*
X174955000Y-97327604D01*
X175358123Y-96924481D01*
X176834777Y-96924481D01*
X177029995Y-97396943D01*
X177391155Y-97758735D01*
X177863276Y-97954777D01*
X178374481Y-97955223D01*
X178846943Y-97760005D01*
X179208735Y-97398845D01*
X179404777Y-96926724D01*
X179405223Y-96415519D01*
X179210005Y-95943057D01*
X178848845Y-95581265D01*
X178376724Y-95385223D01*
X177865519Y-95384777D01*
X177393057Y-95579995D01*
X177031265Y-95941155D01*
X176835223Y-96413276D01*
X176834777Y-96924481D01*
X175358123Y-96924481D01*
X178178302Y-94104302D01*
X178294276Y-93930736D01*
X178335000Y-93726000D01*
X178335000Y-91041604D01*
X180819874Y-93526478D01*
X180420000Y-93526478D01*
X180258799Y-93556810D01*
X180110745Y-93652080D01*
X180011421Y-93797445D01*
X179976478Y-93970000D01*
X179976478Y-96770000D01*
X180006810Y-96931201D01*
X180102080Y-97079255D01*
X180247445Y-97178579D01*
X180420000Y-97213522D01*
X183040000Y-97213522D01*
X183040000Y-103035000D01*
X182105750Y-103035000D01*
X181947000Y-103193750D01*
X181947000Y-104643000D01*
X181967000Y-104643000D01*
X181967000Y-104897000D01*
X181947000Y-104897000D01*
X181947000Y-106346250D01*
X182105750Y-106505000D01*
X183040000Y-106505000D01*
X183040000Y-106790000D01*
X158299839Y-106790000D01*
X158518632Y-106643807D01*
X158797185Y-106226923D01*
X158895000Y-105735175D01*
X158895000Y-105684825D01*
X158797185Y-105193077D01*
X158705427Y-105055750D01*
X179785000Y-105055750D01*
X179785000Y-105996309D01*
X179881673Y-106229698D01*
X180060301Y-106408327D01*
X180293690Y-106505000D01*
X181534250Y-106505000D01*
X181693000Y-106346250D01*
X181693000Y-104897000D01*
X179943750Y-104897000D01*
X179785000Y-105055750D01*
X158705427Y-105055750D01*
X158518632Y-104776193D01*
X158101748Y-104497640D01*
X157610000Y-104399825D01*
X157118252Y-104497640D01*
X156701368Y-104776193D01*
X156422815Y-105193077D01*
X156340000Y-105609415D01*
X156257185Y-105193077D01*
X155978632Y-104776193D01*
X155561748Y-104497640D01*
X155070000Y-104399825D01*
X154578252Y-104497640D01*
X154161368Y-104776193D01*
X153882815Y-105193077D01*
X153800000Y-105609415D01*
X153717185Y-105193077D01*
X153438632Y-104776193D01*
X153021748Y-104497640D01*
X152530000Y-104399825D01*
X152038252Y-104497640D01*
X151621368Y-104776193D01*
X151342815Y-105193077D01*
X151260000Y-105609415D01*
X151177185Y-105193077D01*
X150898632Y-104776193D01*
X150481748Y-104497640D01*
X149990000Y-104399825D01*
X149498252Y-104497640D01*
X149081368Y-104776193D01*
X148802815Y-105193077D01*
X148720000Y-105609415D01*
X148637185Y-105193077D01*
X148358632Y-104776193D01*
X147941748Y-104497640D01*
X147450000Y-104399825D01*
X146958252Y-104497640D01*
X146541368Y-104776193D01*
X146262815Y-105193077D01*
X146180000Y-105609415D01*
X146097185Y-105193077D01*
X145818632Y-104776193D01*
X145401748Y-104497640D01*
X144910000Y-104399825D01*
X144418252Y-104497640D01*
X144001368Y-104776193D01*
X143722815Y-105193077D01*
X143640000Y-105609415D01*
X143557185Y-105193077D01*
X143278632Y-104776193D01*
X142861748Y-104497640D01*
X142370000Y-104399825D01*
X141878252Y-104497640D01*
X141461368Y-104776193D01*
X141182815Y-105193077D01*
X141100000Y-105609415D01*
X141017185Y-105193077D01*
X140738632Y-104776193D01*
X140321748Y-104497640D01*
X139830000Y-104399825D01*
X139338252Y-104497640D01*
X138921368Y-104776193D01*
X138642815Y-105193077D01*
X138560000Y-105609415D01*
X138477185Y-105193077D01*
X138198632Y-104776193D01*
X137781748Y-104497640D01*
X137290000Y-104399825D01*
X136798252Y-104497640D01*
X136381368Y-104776193D01*
X136102815Y-105193077D01*
X136020000Y-105609415D01*
X135937185Y-105193077D01*
X135658632Y-104776193D01*
X135241748Y-104497640D01*
X134750000Y-104399825D01*
X134258252Y-104497640D01*
X133841368Y-104776193D01*
X133695000Y-104995248D01*
X133695000Y-104733691D01*
X133598327Y-104500302D01*
X133419699Y-104321673D01*
X133186310Y-104225000D01*
X132495750Y-104225000D01*
X132337000Y-104383750D01*
X132337000Y-105583000D01*
X132357000Y-105583000D01*
X132357000Y-105837000D01*
X132337000Y-105837000D01*
X132337000Y-105857000D01*
X132083000Y-105857000D01*
X132083000Y-105837000D01*
X132063000Y-105837000D01*
X132063000Y-105583000D01*
X132083000Y-105583000D01*
X132083000Y-104383750D01*
X131924250Y-104225000D01*
X131233690Y-104225000D01*
X131060000Y-104296945D01*
X131060000Y-96075750D01*
X131255000Y-96075750D01*
X131255000Y-96366309D01*
X131351673Y-96599698D01*
X131530301Y-96778327D01*
X131763690Y-96875000D01*
X132155404Y-96875000D01*
X132137260Y-96893112D01*
X132025127Y-97163158D01*
X132024872Y-97455559D01*
X132136534Y-97725800D01*
X132225000Y-97814421D01*
X132225000Y-98296478D01*
X131890000Y-98296478D01*
X131728799Y-98326810D01*
X131580745Y-98422080D01*
X131481421Y-98567445D01*
X131446478Y-98740000D01*
X131446478Y-99640000D01*
X131476810Y-99801201D01*
X131572080Y-99949255D01*
X131717445Y-100048579D01*
X131753920Y-100055965D01*
X131705421Y-100126945D01*
X131670478Y-100299500D01*
X131670478Y-102299500D01*
X131700810Y-102460701D01*
X131796080Y-102608755D01*
X131941445Y-102708079D01*
X132114000Y-102743022D01*
X134114000Y-102743022D01*
X134275201Y-102712690D01*
X134423255Y-102617420D01*
X134522579Y-102472055D01*
X134557522Y-102299500D01*
X134557522Y-101984500D01*
X136535500Y-101984500D01*
X136797638Y-101932357D01*
X137019868Y-101783868D01*
X137880469Y-100923267D01*
X138040000Y-100955000D01*
X139416348Y-100955000D01*
X139487445Y-101003579D01*
X139660000Y-101038522D01*
X140720000Y-101038522D01*
X140881201Y-101008190D01*
X140990196Y-100938054D01*
X141167140Y-100902857D01*
X141389370Y-100754368D01*
X141437423Y-100706315D01*
X141446810Y-100756201D01*
X141542080Y-100904255D01*
X141687445Y-101003579D01*
X141860000Y-101038522D01*
X142920000Y-101038522D01*
X143081201Y-101008190D01*
X143229255Y-100912920D01*
X143285912Y-100830000D01*
X143573413Y-100830000D01*
X143586810Y-100901201D01*
X143682080Y-101049255D01*
X143827445Y-101148579D01*
X144000000Y-101183522D01*
X144500000Y-101183522D01*
X144661201Y-101153190D01*
X144809255Y-101057920D01*
X144893373Y-100934809D01*
X144961673Y-101099699D01*
X145140302Y-101278327D01*
X145373691Y-101375000D01*
X145466250Y-101375000D01*
X145625000Y-101216250D01*
X145625000Y-100417000D01*
X145603000Y-100417000D01*
X145603000Y-100163000D01*
X145625000Y-100163000D01*
X145625000Y-100143000D01*
X145875000Y-100143000D01*
X145875000Y-100163000D01*
X145897000Y-100163000D01*
X145897000Y-100417000D01*
X145875000Y-100417000D01*
X145875000Y-101216250D01*
X146033750Y-101375000D01*
X146126309Y-101375000D01*
X146359698Y-101278327D01*
X146538327Y-101099699D01*
X146559217Y-101049266D01*
X146572080Y-101069255D01*
X146717445Y-101168579D01*
X146890000Y-101203522D01*
X147790000Y-101203522D01*
X147951201Y-101173190D01*
X148099255Y-101077920D01*
X148198579Y-100932555D01*
X148233522Y-100760000D01*
X148233522Y-100260000D01*
X148203190Y-100098799D01*
X148107920Y-99950745D01*
X147962555Y-99851421D01*
X147790000Y-99816478D01*
X147448438Y-99816478D01*
X147408370Y-99776410D01*
X147602138Y-99737867D01*
X147653539Y-99703522D01*
X147790000Y-99703522D01*
X147835291Y-99695000D01*
X151326264Y-99695000D01*
X151391478Y-99760214D01*
X151391478Y-100010000D01*
X151421810Y-100171201D01*
X151517080Y-100319255D01*
X151525000Y-100324667D01*
X151525000Y-100510000D01*
X151577143Y-100772138D01*
X151725632Y-100994368D01*
X154505632Y-103774368D01*
X154727862Y-103922857D01*
X154990000Y-103975000D01*
X158000000Y-103975000D01*
X158262138Y-103922857D01*
X158484368Y-103774368D01*
X158994368Y-103264368D01*
X158995683Y-103262400D01*
X159071201Y-103248190D01*
X159219255Y-103152920D01*
X159318579Y-103007555D01*
X159353522Y-102835000D01*
X159353522Y-102785750D01*
X161485000Y-102785750D01*
X161485000Y-103001310D01*
X161581673Y-103234699D01*
X161760302Y-103413327D01*
X161993691Y-103510000D01*
X162234250Y-103510000D01*
X162393000Y-103351250D01*
X162393000Y-102627000D01*
X161643750Y-102627000D01*
X161485000Y-102785750D01*
X159353522Y-102785750D01*
X159353522Y-102085000D01*
X159323190Y-101923799D01*
X159227920Y-101775745D01*
X159082555Y-101676421D01*
X158989057Y-101657487D01*
X158926271Y-101563522D01*
X159130000Y-101563522D01*
X159259589Y-101539138D01*
X159380000Y-101563522D01*
X159630000Y-101563522D01*
X159759589Y-101539138D01*
X159880000Y-101563522D01*
X160130000Y-101563522D01*
X160259589Y-101539138D01*
X160380000Y-101563522D01*
X160630000Y-101563522D01*
X160759589Y-101539138D01*
X160880000Y-101563522D01*
X161130000Y-101563522D01*
X161259589Y-101539138D01*
X161380000Y-101563522D01*
X161630000Y-101563522D01*
X161759589Y-101539138D01*
X161837145Y-101554844D01*
X161760302Y-101586673D01*
X161581673Y-101765301D01*
X161485000Y-101998690D01*
X161485000Y-102214250D01*
X161643750Y-102373000D01*
X162393000Y-102373000D01*
X162393000Y-102353000D01*
X162647000Y-102353000D01*
X162647000Y-102373000D01*
X162667000Y-102373000D01*
X162667000Y-102627000D01*
X162647000Y-102627000D01*
X162647000Y-103351250D01*
X162805750Y-103510000D01*
X163046309Y-103510000D01*
X163279698Y-103413327D01*
X163424871Y-103268155D01*
X163447445Y-103283579D01*
X163620000Y-103318522D01*
X164420000Y-103318522D01*
X164581201Y-103288190D01*
X164729255Y-103192920D01*
X164828579Y-103047555D01*
X164863522Y-102875000D01*
X164863522Y-102125000D01*
X164833190Y-101963799D01*
X164737920Y-101815745D01*
X164592555Y-101716421D01*
X164540000Y-101705778D01*
X164540000Y-101563522D01*
X164556918Y-101563522D01*
X165354980Y-102361584D01*
X165354872Y-102485559D01*
X165466534Y-102755800D01*
X165673112Y-102962740D01*
X165943158Y-103074873D01*
X166235559Y-103075128D01*
X166505800Y-102963466D01*
X166712740Y-102756888D01*
X166824873Y-102486842D01*
X166824982Y-102361622D01*
X167026302Y-102160302D01*
X167142276Y-101986736D01*
X167161691Y-101889130D01*
X167209201Y-101880190D01*
X167242036Y-101859061D01*
X167388302Y-102005327D01*
X167621691Y-102102000D01*
X167862250Y-102102000D01*
X168021000Y-101943250D01*
X168021000Y-101219000D01*
X168001000Y-101219000D01*
X168001000Y-100965000D01*
X168021000Y-100965000D01*
X168021000Y-100945000D01*
X168275000Y-100945000D01*
X168275000Y-100965000D01*
X168295000Y-100965000D01*
X168295000Y-101219000D01*
X168275000Y-101219000D01*
X168275000Y-101943250D01*
X168433750Y-102102000D01*
X168674309Y-102102000D01*
X168907698Y-102005327D01*
X169086327Y-101826699D01*
X169183000Y-101593310D01*
X169183000Y-101508590D01*
X169275191Y-101570190D01*
X169290810Y-101653201D01*
X169386080Y-101801255D01*
X169531445Y-101900579D01*
X169704000Y-101935522D01*
X170471772Y-101935522D01*
X170461127Y-101961158D01*
X170460872Y-102253559D01*
X170572534Y-102523800D01*
X170779112Y-102730740D01*
X171049158Y-102842873D01*
X171341559Y-102843128D01*
X171611800Y-102731466D01*
X171818740Y-102524888D01*
X171930873Y-102254842D01*
X171930902Y-102221702D01*
X172082302Y-102070302D01*
X172182190Y-101920809D01*
X172265201Y-101905190D01*
X172413255Y-101809920D01*
X172512579Y-101664555D01*
X172547522Y-101492000D01*
X172547522Y-100692000D01*
X172517190Y-100530799D01*
X172421920Y-100382745D01*
X172276555Y-100283421D01*
X172104000Y-100248478D01*
X171304000Y-100248478D01*
X171142799Y-100278810D01*
X170994745Y-100374080D01*
X170902869Y-100508544D01*
X170821920Y-100382745D01*
X170676555Y-100283421D01*
X170504000Y-100248478D01*
X169704000Y-100248478D01*
X169542799Y-100278810D01*
X169484761Y-100316157D01*
X169191000Y-100022396D01*
X169191000Y-99205528D01*
X169267201Y-99191190D01*
X169415255Y-99095920D01*
X169514579Y-98950555D01*
X169549522Y-98778000D01*
X169549522Y-98278000D01*
X169519190Y-98116799D01*
X169423920Y-97968745D01*
X169278555Y-97869421D01*
X169106000Y-97834478D01*
X168206000Y-97834478D01*
X168044799Y-97864810D01*
X167896745Y-97960080D01*
X167797421Y-98105445D01*
X167762478Y-98278000D01*
X167762478Y-98778000D01*
X167792810Y-98939201D01*
X167888080Y-99087255D01*
X168033445Y-99186579D01*
X168121000Y-99204309D01*
X168121000Y-100082000D01*
X168020998Y-100082000D01*
X168020998Y-100240748D01*
X167862250Y-100082000D01*
X167621691Y-100082000D01*
X167388302Y-100178673D01*
X167243129Y-100323845D01*
X167220555Y-100308421D01*
X167048000Y-100273478D01*
X166248000Y-100273478D01*
X166086799Y-100303810D01*
X165938745Y-100399080D01*
X165839421Y-100544445D01*
X165804478Y-100717000D01*
X165804478Y-101297874D01*
X165073522Y-100566918D01*
X165073522Y-100120000D01*
X165043190Y-99958799D01*
X164947920Y-99810745D01*
X164802555Y-99711421D01*
X164630000Y-99676478D01*
X164380000Y-99676478D01*
X164329687Y-99685945D01*
X164424883Y-99456688D01*
X164425138Y-99164287D01*
X164313476Y-98894046D01*
X164106898Y-98687106D01*
X163836852Y-98574973D01*
X163825066Y-98574963D01*
X163825128Y-98504441D01*
X163713466Y-98234200D01*
X163506888Y-98027260D01*
X163236842Y-97915127D01*
X162944441Y-97914872D01*
X162674200Y-98026534D01*
X162534973Y-98165517D01*
X162436888Y-98067260D01*
X162166842Y-97955127D01*
X161874441Y-97954872D01*
X161604200Y-98066534D01*
X161397260Y-98273112D01*
X161385051Y-98302514D01*
X161385128Y-98214441D01*
X161273466Y-97944200D01*
X161066888Y-97737260D01*
X160796842Y-97625127D01*
X160504441Y-97624872D01*
X160234200Y-97736534D01*
X160027260Y-97943112D01*
X159915127Y-98213158D01*
X159914933Y-98436017D01*
X159908699Y-98429772D01*
X159638653Y-98317639D01*
X159346252Y-98317384D01*
X159267576Y-98349892D01*
X159136943Y-98219030D01*
X158866897Y-98106897D01*
X158574496Y-98106642D01*
X158304255Y-98218304D01*
X158097315Y-98424882D01*
X158023564Y-98602494D01*
X157946629Y-98602427D01*
X157676388Y-98714089D01*
X157506476Y-98883704D01*
X157487019Y-98875625D01*
X157194618Y-98875370D01*
X156924377Y-98987032D01*
X156717437Y-99193610D01*
X156605304Y-99463656D01*
X156605208Y-99573860D01*
X156510724Y-99715264D01*
X156470000Y-99920000D01*
X156470000Y-99954462D01*
X156436478Y-100120000D01*
X156436478Y-101120000D01*
X156466810Y-101281201D01*
X156562080Y-101429255D01*
X156592441Y-101450000D01*
X156483691Y-101450000D01*
X156250302Y-101546673D01*
X156071673Y-101725301D01*
X155975000Y-101958690D01*
X155975000Y-102174250D01*
X156133750Y-102333000D01*
X156883000Y-102333000D01*
X156883000Y-102313000D01*
X157137000Y-102313000D01*
X157137000Y-102333000D01*
X157157000Y-102333000D01*
X157157000Y-102587000D01*
X157137000Y-102587000D01*
X157137000Y-102605000D01*
X156883000Y-102605000D01*
X156883000Y-102587000D01*
X156133750Y-102587000D01*
X156115750Y-102605000D01*
X155273736Y-102605000D01*
X152935822Y-100267086D01*
X152993579Y-100182555D01*
X153028522Y-100010000D01*
X153028522Y-99523082D01*
X153163302Y-99388302D01*
X153279276Y-99214736D01*
X153320000Y-99010000D01*
X153320000Y-98961604D01*
X154111478Y-98170126D01*
X154111478Y-98295000D01*
X154135862Y-98424589D01*
X154111478Y-98545000D01*
X154111478Y-98795000D01*
X154141810Y-98956201D01*
X154237080Y-99104255D01*
X154382445Y-99203579D01*
X154555000Y-99238522D01*
X155555000Y-99238522D01*
X155716201Y-99208190D01*
X155721158Y-99205000D01*
X155972168Y-99205000D01*
X156176904Y-99164276D01*
X156350470Y-99048302D01*
X156420790Y-98977982D01*
X156593095Y-98978132D01*
X156863336Y-98866470D01*
X157070276Y-98659892D01*
X157182409Y-98389846D01*
X157182664Y-98097445D01*
X157082487Y-97854999D01*
X158170001Y-97854999D01*
X158374737Y-97814275D01*
X158463455Y-97754995D01*
X158615559Y-97755128D01*
X158885800Y-97643466D01*
X159092740Y-97436888D01*
X159204873Y-97166842D01*
X159205128Y-96874441D01*
X159093466Y-96604200D01*
X158886888Y-96397260D01*
X158616842Y-96285127D01*
X158324441Y-96284872D01*
X158054200Y-96396534D01*
X157847260Y-96603112D01*
X157771734Y-96784999D01*
X157174097Y-96784999D01*
X157187165Y-96753527D01*
X157187420Y-96461126D01*
X157075758Y-96190885D01*
X156869180Y-95983945D01*
X156599134Y-95871812D01*
X156306733Y-95871557D01*
X156036492Y-95983219D01*
X155994740Y-96024898D01*
X155974138Y-95915411D01*
X155998522Y-95795000D01*
X155998522Y-95545000D01*
X155974138Y-95415411D01*
X155998522Y-95295000D01*
X155998522Y-95045000D01*
X155974138Y-94915411D01*
X155998522Y-94795000D01*
X155998522Y-94705000D01*
X156274000Y-94705000D01*
X156478736Y-94664276D01*
X156652302Y-94548302D01*
X156993584Y-94207020D01*
X157117559Y-94207128D01*
X157387800Y-94095466D01*
X157594740Y-93888888D01*
X157706873Y-93618842D01*
X157707128Y-93326441D01*
X157595466Y-93056200D01*
X157388888Y-92849260D01*
X157118842Y-92737127D01*
X157073821Y-92737088D01*
X157075823Y-92735089D01*
X157187956Y-92465043D01*
X157188211Y-92172642D01*
X157087491Y-91928882D01*
X157197030Y-91665082D01*
X157197285Y-91372681D01*
X157085623Y-91102440D01*
X156879045Y-90895500D01*
X156608999Y-90783367D01*
X156316598Y-90783112D01*
X156046357Y-90894774D01*
X155982289Y-90958730D01*
X155968190Y-90883799D01*
X155872920Y-90735745D01*
X155727555Y-90636421D01*
X155555000Y-90601478D01*
X155313793Y-90601478D01*
X154145584Y-89433270D01*
X154168522Y-89320000D01*
X154168522Y-88520000D01*
X154138190Y-88358799D01*
X154117061Y-88325964D01*
X154263327Y-88179698D01*
X154360000Y-87946309D01*
X154360000Y-87705750D01*
X154201250Y-87547000D01*
X153477000Y-87547000D01*
X153477000Y-87567000D01*
X153223000Y-87567000D01*
X153223000Y-87547000D01*
X152498750Y-87547000D01*
X152340000Y-87705750D01*
X152340000Y-87946309D01*
X152436673Y-88179698D01*
X152581845Y-88324871D01*
X152574924Y-88335000D01*
X141220000Y-88335000D01*
X140996130Y-88379530D01*
X140806343Y-88506342D01*
X138766343Y-90546343D01*
X138639530Y-90736130D01*
X138595000Y-90960000D01*
X138595000Y-93310000D01*
X138639530Y-93533870D01*
X138766343Y-93723657D01*
X140194164Y-95151478D01*
X139690000Y-95151478D01*
X139528799Y-95181810D01*
X139380745Y-95277080D01*
X139281421Y-95422445D01*
X139246478Y-95595000D01*
X139246478Y-96845000D01*
X139276810Y-97006201D01*
X139372080Y-97154255D01*
X139505000Y-97245076D01*
X139505000Y-97630643D01*
X139498799Y-97631810D01*
X139350745Y-97727080D01*
X139251421Y-97872445D01*
X139216478Y-98045000D01*
X139216478Y-98540497D01*
X139121673Y-98635301D01*
X139025000Y-98868690D01*
X139025000Y-99034250D01*
X139183750Y-99193000D01*
X140063000Y-99193000D01*
X140063000Y-99173000D01*
X140317000Y-99173000D01*
X140317000Y-99193000D01*
X140337000Y-99193000D01*
X140337000Y-99447000D01*
X140317000Y-99447000D01*
X140317000Y-99467000D01*
X140063000Y-99467000D01*
X140063000Y-99447000D01*
X139183750Y-99447000D01*
X139045750Y-99585000D01*
X138601936Y-99585000D01*
X138578190Y-99458799D01*
X138557061Y-99425964D01*
X138703327Y-99279698D01*
X138800000Y-99046309D01*
X138800000Y-98805750D01*
X138641250Y-98647000D01*
X137917000Y-98647000D01*
X137917000Y-98667000D01*
X137663000Y-98667000D01*
X137663000Y-98647000D01*
X136938750Y-98647000D01*
X136780000Y-98805750D01*
X136780000Y-99046309D01*
X136876673Y-99279698D01*
X137021845Y-99424871D01*
X137006421Y-99447445D01*
X136971478Y-99620000D01*
X136971478Y-99894786D01*
X136251764Y-100614500D01*
X134557522Y-100614500D01*
X134557522Y-100299500D01*
X134527190Y-100138299D01*
X134431920Y-99990245D01*
X134286555Y-99890921D01*
X134114000Y-99855978D01*
X133968909Y-99855978D01*
X133998579Y-99812555D01*
X134033522Y-99640000D01*
X134033522Y-98740000D01*
X134003190Y-98578799D01*
X133907920Y-98430745D01*
X133762555Y-98331421D01*
X133590000Y-98296478D01*
X133295000Y-98296478D01*
X133295000Y-97993691D01*
X136780000Y-97993691D01*
X136780000Y-98234250D01*
X136938750Y-98393000D01*
X137663000Y-98393000D01*
X137663000Y-97643750D01*
X137917000Y-97643750D01*
X137917000Y-98393000D01*
X138641250Y-98393000D01*
X138800000Y-98234250D01*
X138800000Y-97993691D01*
X138703327Y-97760302D01*
X138524699Y-97581673D01*
X138291310Y-97485000D01*
X138075750Y-97485000D01*
X137917000Y-97643750D01*
X137663000Y-97643750D01*
X137504250Y-97485000D01*
X137288690Y-97485000D01*
X137055301Y-97581673D01*
X136876673Y-97760302D01*
X136780000Y-97993691D01*
X133295000Y-97993691D01*
X133295000Y-97814475D01*
X133382740Y-97726888D01*
X133494873Y-97456842D01*
X133495128Y-97164441D01*
X133383466Y-96894200D01*
X133364300Y-96875000D01*
X133716310Y-96875000D01*
X133949699Y-96778327D01*
X134128327Y-96599698D01*
X134225000Y-96366309D01*
X134225000Y-96075750D01*
X134066250Y-95917000D01*
X132867000Y-95917000D01*
X132867000Y-95937000D01*
X132613000Y-95937000D01*
X132613000Y-95917000D01*
X131413750Y-95917000D01*
X131255000Y-96075750D01*
X131060000Y-96075750D01*
X131060000Y-95213691D01*
X131255000Y-95213691D01*
X131255000Y-95504250D01*
X131413750Y-95663000D01*
X132613000Y-95663000D01*
X132613000Y-95643000D01*
X132867000Y-95643000D01*
X132867000Y-95663000D01*
X134066250Y-95663000D01*
X134225000Y-95504250D01*
X134225000Y-95213691D01*
X134128327Y-94980302D01*
X133993155Y-94845129D01*
X134008579Y-94822555D01*
X134043522Y-94650000D01*
X134043522Y-93750000D01*
X134013190Y-93588799D01*
X133917920Y-93440745D01*
X133772555Y-93341421D01*
X133600000Y-93306478D01*
X133305000Y-93306478D01*
X133305000Y-93134475D01*
X133392740Y-93046888D01*
X133504873Y-92776842D01*
X133505128Y-92484441D01*
X133393466Y-92214200D01*
X133186888Y-92007260D01*
X132916842Y-91895127D01*
X132624441Y-91894872D01*
X132354200Y-92006534D01*
X132147260Y-92213112D01*
X132035127Y-92483158D01*
X132034872Y-92775559D01*
X132146534Y-93045800D01*
X132235000Y-93134421D01*
X132235000Y-93306478D01*
X131900000Y-93306478D01*
X131738799Y-93336810D01*
X131590745Y-93432080D01*
X131491421Y-93577445D01*
X131456478Y-93750000D01*
X131456478Y-94650000D01*
X131486810Y-94811201D01*
X131500108Y-94831866D01*
X131351673Y-94980302D01*
X131255000Y-95213691D01*
X131060000Y-95213691D01*
X131060000Y-91085750D01*
X131265000Y-91085750D01*
X131265000Y-91376309D01*
X131361673Y-91609698D01*
X131540301Y-91788327D01*
X131773690Y-91885000D01*
X132464250Y-91885000D01*
X132623000Y-91726250D01*
X132623000Y-90927000D01*
X132877000Y-90927000D01*
X132877000Y-91726250D01*
X133035750Y-91885000D01*
X133726310Y-91885000D01*
X133959699Y-91788327D01*
X134138327Y-91609698D01*
X134235000Y-91376309D01*
X134235000Y-91085750D01*
X134076250Y-90927000D01*
X132877000Y-90927000D01*
X132623000Y-90927000D01*
X131423750Y-90927000D01*
X131265000Y-91085750D01*
X131060000Y-91085750D01*
X131060000Y-90223691D01*
X131265000Y-90223691D01*
X131265000Y-90514250D01*
X131423750Y-90673000D01*
X132623000Y-90673000D01*
X132623000Y-90653000D01*
X132877000Y-90653000D01*
X132877000Y-90673000D01*
X134076250Y-90673000D01*
X134235000Y-90514250D01*
X134235000Y-90223691D01*
X134138327Y-89990302D01*
X134036486Y-89888460D01*
X134086927Y-89752032D01*
X133114000Y-88779105D01*
X133099858Y-88793248D01*
X132920253Y-88613643D01*
X132934395Y-88599500D01*
X131961468Y-87626573D01*
X131694613Y-87725236D01*
X131468092Y-88334961D01*
X131492144Y-88984960D01*
X131694613Y-89473764D01*
X131961466Y-89572426D01*
X131847186Y-89686706D01*
X131875480Y-89715000D01*
X131773690Y-89715000D01*
X131540301Y-89811673D01*
X131361673Y-89990302D01*
X131265000Y-90223691D01*
X131060000Y-90223691D01*
X131060000Y-85933522D01*
X131946918Y-85933522D01*
X132981673Y-86968277D01*
X132728540Y-86977644D01*
X132239736Y-87180113D01*
X132141073Y-87446968D01*
X133114000Y-88419895D01*
X133128143Y-88405753D01*
X133307748Y-88585358D01*
X133293605Y-88599500D01*
X134266532Y-89572427D01*
X134533387Y-89473764D01*
X134759908Y-88864039D01*
X134755392Y-88741996D01*
X135356478Y-89343082D01*
X135356478Y-89416918D01*
X135094358Y-89679038D01*
X134834200Y-89786534D01*
X134627260Y-89993112D01*
X134515127Y-90263158D01*
X134514872Y-90555559D01*
X134626534Y-90825800D01*
X134833112Y-91032740D01*
X135103158Y-91144873D01*
X135395559Y-91145128D01*
X135665800Y-91033466D01*
X135872740Y-90826888D01*
X135984873Y-90556842D01*
X135985033Y-90373522D01*
X136300000Y-90373522D01*
X136461201Y-90343190D01*
X136609255Y-90247920D01*
X136693373Y-90124809D01*
X136761673Y-90289699D01*
X136940302Y-90468327D01*
X137173691Y-90565000D01*
X137266250Y-90565000D01*
X137425000Y-90406250D01*
X137425000Y-89607000D01*
X137675000Y-89607000D01*
X137675000Y-90406250D01*
X137833750Y-90565000D01*
X137926309Y-90565000D01*
X138159698Y-90468327D01*
X138338327Y-90289699D01*
X138435000Y-90056310D01*
X138435000Y-89765750D01*
X138276250Y-89607000D01*
X137675000Y-89607000D01*
X137425000Y-89607000D01*
X137403000Y-89607000D01*
X137403000Y-89353000D01*
X137425000Y-89353000D01*
X137425000Y-88553750D01*
X137675000Y-88553750D01*
X137675000Y-89353000D01*
X138276250Y-89353000D01*
X138435000Y-89194250D01*
X138435000Y-88903690D01*
X138338327Y-88670301D01*
X138159698Y-88491673D01*
X137926309Y-88395000D01*
X137833750Y-88395000D01*
X137675000Y-88553750D01*
X137425000Y-88553750D01*
X137266250Y-88395000D01*
X137173691Y-88395000D01*
X136940302Y-88491673D01*
X136761673Y-88670301D01*
X136692665Y-88836902D01*
X136617920Y-88720745D01*
X136472555Y-88621421D01*
X136300000Y-88586478D01*
X136113082Y-88586478D01*
X132393522Y-84866918D01*
X132393522Y-83790000D01*
X132363190Y-83628799D01*
X132267920Y-83480745D01*
X132122555Y-83381421D01*
X131950000Y-83346478D01*
X131060000Y-83346478D01*
X131060000Y-83210000D01*
X135173396Y-83210000D01*
X135036918Y-83346478D01*
X135036918Y-83346478D01*
G37*
X135036918Y-83346478D02*
X134450000Y-83346478D01*
X134288799Y-83376810D01*
X134140745Y-83472080D01*
X134041421Y-83617445D01*
X134006478Y-83790000D01*
X134006478Y-85490000D01*
X134036810Y-85651201D01*
X134132080Y-85799255D01*
X134277445Y-85898579D01*
X134450000Y-85933522D01*
X135350000Y-85933522D01*
X135511201Y-85903190D01*
X135659255Y-85807920D01*
X135699631Y-85748828D01*
X135732080Y-85799255D01*
X135877445Y-85898579D01*
X136050000Y-85933522D01*
X136950000Y-85933522D01*
X137111201Y-85903190D01*
X137259255Y-85807920D01*
X137358579Y-85662555D01*
X137393522Y-85490000D01*
X137393522Y-85175000D01*
X137595595Y-85175000D01*
X137723112Y-85302740D01*
X137993158Y-85414873D01*
X138285559Y-85415128D01*
X138555800Y-85303466D01*
X138762740Y-85096888D01*
X138815000Y-84971032D01*
X138815000Y-85616310D01*
X138911673Y-85849699D01*
X139090302Y-86028327D01*
X139323691Y-86125000D01*
X139614250Y-86125000D01*
X139773000Y-85966250D01*
X139773000Y-84767000D01*
X139753000Y-84767000D01*
X139753000Y-84513000D01*
X139773000Y-84513000D01*
X139773000Y-84493000D01*
X140027000Y-84493000D01*
X140027000Y-84513000D01*
X140047000Y-84513000D01*
X140047000Y-84767000D01*
X140027000Y-84767000D01*
X140027000Y-85966250D01*
X140185750Y-86125000D01*
X140476309Y-86125000D01*
X140709698Y-86028327D01*
X140854871Y-85883155D01*
X140877445Y-85898579D01*
X141050000Y-85933522D01*
X141950000Y-85933522D01*
X142111201Y-85903190D01*
X142259255Y-85807920D01*
X142358579Y-85662555D01*
X142393522Y-85490000D01*
X142393522Y-84925750D01*
X143815000Y-84925750D01*
X143815000Y-85616310D01*
X143911673Y-85849699D01*
X144090302Y-86028327D01*
X144323691Y-86125000D01*
X144614250Y-86125000D01*
X144773000Y-85966250D01*
X144773000Y-84767000D01*
X143973750Y-84767000D01*
X143815000Y-84925750D01*
X142393522Y-84925750D01*
X142393522Y-84535000D01*
X142755525Y-84535000D01*
X142843112Y-84622740D01*
X143113158Y-84734873D01*
X143405559Y-84735128D01*
X143675800Y-84623466D01*
X143880187Y-84419437D01*
X143973750Y-84513000D01*
X144773000Y-84513000D01*
X144773000Y-84493000D01*
X145027000Y-84493000D01*
X145027000Y-84513000D01*
X145047000Y-84513000D01*
X145047000Y-84767000D01*
X145027000Y-84767000D01*
X145027000Y-85966250D01*
X145185750Y-86125000D01*
X145476309Y-86125000D01*
X145709698Y-86028327D01*
X145850812Y-85887214D01*
X145867445Y-85898579D01*
X146040000Y-85933522D01*
X146940000Y-85933522D01*
X147101201Y-85903190D01*
X147249255Y-85807920D01*
X147348579Y-85662555D01*
X147383522Y-85490000D01*
X147383522Y-85138491D01*
X147404715Y-85134276D01*
X147578281Y-85018302D01*
X147670833Y-84925750D01*
X148805000Y-84925750D01*
X148805000Y-85616310D01*
X148901673Y-85849699D01*
X149080302Y-86028327D01*
X149313691Y-86125000D01*
X149604250Y-86125000D01*
X149763000Y-85966250D01*
X149763000Y-84767000D01*
X148963750Y-84767000D01*
X148805000Y-84925750D01*
X147670833Y-84925750D01*
X148201584Y-84394999D01*
X148325559Y-84395107D01*
X148595800Y-84283445D01*
X148802740Y-84076867D01*
X148805000Y-84071424D01*
X148805000Y-84354250D01*
X148963750Y-84513000D01*
X149763000Y-84513000D01*
X149763000Y-84493000D01*
X150017000Y-84493000D01*
X150017000Y-84513000D01*
X150037000Y-84513000D01*
X150037000Y-84767000D01*
X150017000Y-84767000D01*
X150017000Y-85966250D01*
X150175750Y-86125000D01*
X150466309Y-86125000D01*
X150699698Y-86028327D01*
X150828025Y-85900000D01*
X150896478Y-85900000D01*
X150896478Y-86400000D01*
X150926810Y-86561201D01*
X151022080Y-86709255D01*
X151167445Y-86808579D01*
X151340000Y-86843522D01*
X152240000Y-86843522D01*
X152370990Y-86818875D01*
X152340000Y-86893691D01*
X152340000Y-87134250D01*
X152498750Y-87293000D01*
X153223000Y-87293000D01*
X153223000Y-87273000D01*
X153477000Y-87273000D01*
X153477000Y-87293000D01*
X154201250Y-87293000D01*
X154341631Y-87152619D01*
X154605800Y-87043466D01*
X154812740Y-86836888D01*
X154924873Y-86566842D01*
X154925128Y-86274441D01*
X154813466Y-86004200D01*
X154606888Y-85797260D01*
X154336842Y-85685127D01*
X154168521Y-85684980D01*
X154124736Y-85655724D01*
X153920000Y-85615000D01*
X152573528Y-85615000D01*
X152557920Y-85590745D01*
X152412555Y-85491421D01*
X152240000Y-85456478D01*
X151340000Y-85456478D01*
X151178799Y-85486810D01*
X151030745Y-85582080D01*
X150931421Y-85727445D01*
X150896478Y-85900000D01*
X150828025Y-85900000D01*
X150878327Y-85849699D01*
X150975000Y-85616310D01*
X150975000Y-85136090D01*
X151022080Y-85209255D01*
X151167445Y-85308579D01*
X151340000Y-85343522D01*
X152240000Y-85343522D01*
X152401201Y-85313190D01*
X152549255Y-85217920D01*
X152648579Y-85072555D01*
X152683522Y-84900000D01*
X152683522Y-84400000D01*
X152653190Y-84238799D01*
X152596267Y-84150337D01*
X152645604Y-84101000D01*
X153326478Y-84101000D01*
X153326478Y-84980000D01*
X153356810Y-85141201D01*
X153452080Y-85289255D01*
X153597445Y-85388579D01*
X153770000Y-85423522D01*
X155470000Y-85423522D01*
X155631201Y-85393190D01*
X155779255Y-85297920D01*
X155878579Y-85152555D01*
X155913522Y-84980000D01*
X155913522Y-84348838D01*
X155972815Y-84646923D01*
X156251368Y-85063807D01*
X156668252Y-85342360D01*
X157160000Y-85440175D01*
X157651748Y-85342360D01*
X158068632Y-85063807D01*
X158339248Y-84658802D01*
X158504817Y-85011358D01*
X158933076Y-85401645D01*
X159343110Y-85571476D01*
X159573000Y-85450155D01*
X159573000Y-84257000D01*
X159553000Y-84257000D01*
X159553000Y-84003000D01*
X159573000Y-84003000D01*
X159573000Y-83983000D01*
X159827000Y-83983000D01*
X159827000Y-84003000D01*
X159847000Y-84003000D01*
X159847000Y-84257000D01*
X159827000Y-84257000D01*
X159827000Y-85450155D01*
X160056890Y-85571476D01*
X160466924Y-85401645D01*
X160895183Y-85011358D01*
X161060752Y-84658802D01*
X161331368Y-85063807D01*
X161748252Y-85342360D01*
X162240000Y-85440175D01*
X162731748Y-85342360D01*
X163148632Y-85063807D01*
X163427185Y-84646923D01*
X163510000Y-84230585D01*
X163592815Y-84646923D01*
X163871368Y-85063807D01*
X164288252Y-85342360D01*
X164780000Y-85440175D01*
X165271748Y-85342360D01*
X165688632Y-85063807D01*
X165967185Y-84646923D01*
X166050000Y-84230585D01*
X166132815Y-84646923D01*
X166411368Y-85063807D01*
X166828252Y-85342360D01*
X167320000Y-85440175D01*
X167811748Y-85342360D01*
X168228632Y-85063807D01*
X168507185Y-84646923D01*
X168605000Y-84155175D01*
X168605000Y-84104825D01*
X168507185Y-83613077D01*
X168237858Y-83210000D01*
X169987491Y-83210000D01*
X169986478Y-83215000D01*
X169986478Y-83965000D01*
X170016810Y-84126201D01*
X170055000Y-84185550D01*
X170055000Y-84403051D01*
X170005127Y-84523158D01*
X170004872Y-84815559D01*
X170116534Y-85085800D01*
X170323112Y-85292740D01*
X170593158Y-85404873D01*
X170885559Y-85405128D01*
X171057485Y-85334089D01*
X172177041Y-86453645D01*
X171997260Y-86633112D01*
X171885127Y-86903158D01*
X171884923Y-87137500D01*
X164852500Y-87137500D01*
X164647764Y-87178224D01*
X164474198Y-87294198D01*
X163626698Y-88141698D01*
X163536640Y-88276478D01*
X163380000Y-88276478D01*
X163250411Y-88300862D01*
X163130000Y-88276478D01*
X162880000Y-88276478D01*
X162750411Y-88300862D01*
X162630000Y-88276478D01*
X162380000Y-88276478D01*
X162250411Y-88300862D01*
X162130000Y-88276478D01*
X161880000Y-88276478D01*
X161750411Y-88300862D01*
X161630000Y-88276478D01*
X161380000Y-88276478D01*
X161250411Y-88300862D01*
X161130000Y-88276478D01*
X160880000Y-88276478D01*
X160750411Y-88300862D01*
X160630000Y-88276478D01*
X160380000Y-88276478D01*
X160250411Y-88300862D01*
X160130000Y-88276478D01*
X159880000Y-88276478D01*
X159750411Y-88300862D01*
X159630000Y-88276478D01*
X159540000Y-88276478D01*
X159540000Y-87938522D01*
X159905000Y-87938522D01*
X160066201Y-87908190D01*
X160214255Y-87812920D01*
X160298373Y-87689809D01*
X160366673Y-87854699D01*
X160545302Y-88033327D01*
X160778691Y-88130000D01*
X160871250Y-88130000D01*
X161030000Y-87971250D01*
X161030000Y-87172000D01*
X161280000Y-87172000D01*
X161280000Y-87971250D01*
X161438750Y-88130000D01*
X161531309Y-88130000D01*
X161764698Y-88033327D01*
X161943327Y-87854699D01*
X162040000Y-87621310D01*
X162040000Y-87330750D01*
X161881250Y-87172000D01*
X161280000Y-87172000D01*
X161030000Y-87172000D01*
X161008000Y-87172000D01*
X161008000Y-86918000D01*
X161030000Y-86918000D01*
X161030000Y-86118750D01*
X161280000Y-86118750D01*
X161280000Y-86918000D01*
X161881250Y-86918000D01*
X162040000Y-86759250D01*
X162040000Y-86468690D01*
X161943327Y-86235301D01*
X161764698Y-86056673D01*
X161531309Y-85960000D01*
X161438750Y-85960000D01*
X161280000Y-86118750D01*
X161030000Y-86118750D01*
X160871250Y-85960000D01*
X160778691Y-85960000D01*
X160545302Y-86056673D01*
X160366673Y-86235301D01*
X160297665Y-86401902D01*
X160222920Y-86285745D01*
X160077555Y-86186421D01*
X159905000Y-86151478D01*
X159405000Y-86151478D01*
X159243799Y-86181810D01*
X159095745Y-86277080D01*
X159038758Y-86360483D01*
X159028327Y-86335301D01*
X158849698Y-86156673D01*
X158616309Y-86060000D01*
X158375750Y-86060000D01*
X158217000Y-86218750D01*
X158217000Y-86943000D01*
X158237000Y-86943000D01*
X158237000Y-87197000D01*
X158217000Y-87197000D01*
X158217000Y-87921250D01*
X158375750Y-88080000D01*
X158470000Y-88080000D01*
X158470000Y-88276478D01*
X158380000Y-88276478D01*
X158250411Y-88300862D01*
X158130000Y-88276478D01*
X158084503Y-88276478D01*
X157989699Y-88181673D01*
X157756310Y-88085000D01*
X157726250Y-88085000D01*
X157632002Y-88179248D01*
X157632002Y-88085000D01*
X157614996Y-88085000D01*
X157615000Y-88080000D01*
X157804250Y-88080000D01*
X157963000Y-87921250D01*
X157963000Y-87197000D01*
X157943000Y-87197000D01*
X157943000Y-86943000D01*
X157963000Y-86943000D01*
X157963000Y-86218750D01*
X157804250Y-86060000D01*
X157563691Y-86060000D01*
X157330302Y-86156673D01*
X157185129Y-86301845D01*
X157162555Y-86286421D01*
X156990000Y-86251478D01*
X156190000Y-86251478D01*
X156028799Y-86281810D01*
X155880745Y-86377080D01*
X155781421Y-86522445D01*
X155746478Y-86695000D01*
X155746478Y-87445000D01*
X155776810Y-87606201D01*
X155872080Y-87754255D01*
X156017445Y-87853579D01*
X156067679Y-87863752D01*
X156095724Y-88004746D01*
X156144999Y-88078491D01*
X156144862Y-88235559D01*
X156256524Y-88505800D01*
X156442190Y-88691792D01*
X156436478Y-88720000D01*
X156436478Y-89720000D01*
X156466810Y-89881201D01*
X156562080Y-90029255D01*
X156707445Y-90128579D01*
X156880000Y-90163522D01*
X156925497Y-90163522D01*
X157020301Y-90258327D01*
X157253690Y-90355000D01*
X157283750Y-90355000D01*
X157442500Y-90196250D01*
X157442500Y-90033171D01*
X157505381Y-89941142D01*
X157562080Y-90029255D01*
X157567500Y-90032958D01*
X157567500Y-90196250D01*
X157726250Y-90355000D01*
X157756310Y-90355000D01*
X157989699Y-90258327D01*
X158084503Y-90163522D01*
X158130000Y-90163522D01*
X158259589Y-90139138D01*
X158380000Y-90163522D01*
X158630000Y-90163522D01*
X158759589Y-90139138D01*
X158880000Y-90163522D01*
X159130000Y-90163522D01*
X159259589Y-90139138D01*
X159380000Y-90163522D01*
X159630000Y-90163522D01*
X159759589Y-90139138D01*
X159880000Y-90163522D01*
X160130000Y-90163522D01*
X160259589Y-90139138D01*
X160380000Y-90163522D01*
X160630000Y-90163522D01*
X160759589Y-90139138D01*
X160880000Y-90163522D01*
X160970000Y-90163522D01*
X160970000Y-90374511D01*
X161010724Y-90579247D01*
X161126698Y-90752813D01*
X161444456Y-91070571D01*
X161247281Y-91267402D01*
X161135148Y-91537448D01*
X161134893Y-91829849D01*
X161246555Y-92100090D01*
X161453133Y-92307030D01*
X161723179Y-92419163D01*
X161848399Y-92419272D01*
X161977429Y-92548302D01*
X162150995Y-92664276D01*
X162355731Y-92705000D01*
X165511478Y-92705000D01*
X165511478Y-92795000D01*
X165535862Y-92924589D01*
X165511478Y-93045000D01*
X165511478Y-93295000D01*
X165535862Y-93424589D01*
X165511478Y-93545000D01*
X165511478Y-93795000D01*
X165535862Y-93924589D01*
X165511478Y-94045000D01*
X165511478Y-94295000D01*
X165535862Y-94424589D01*
X165511478Y-94545000D01*
X165511478Y-94795000D01*
X165535862Y-94924589D01*
X165511478Y-95045000D01*
X165511478Y-95295000D01*
X165535862Y-95424589D01*
X165511478Y-95545000D01*
X165511478Y-95795000D01*
X165535862Y-95924589D01*
X165511478Y-96045000D01*
X165511478Y-96295000D01*
X165535862Y-96424589D01*
X165511478Y-96545000D01*
X165511478Y-96795000D01*
X165535862Y-96924589D01*
X165511478Y-97045000D01*
X165511478Y-97295000D01*
X165535862Y-97424589D01*
X165511478Y-97545000D01*
X165511478Y-97795000D01*
X165535862Y-97924589D01*
X165511478Y-98045000D01*
X165511478Y-98295000D01*
X165535862Y-98424589D01*
X165511478Y-98545000D01*
X165511478Y-98795000D01*
X165541810Y-98956201D01*
X165637080Y-99104255D01*
X165782445Y-99203579D01*
X165955000Y-99238522D01*
X166955000Y-99238522D01*
X167116201Y-99208190D01*
X167264255Y-99112920D01*
X167363579Y-98967555D01*
X167398522Y-98795000D01*
X167398522Y-98545000D01*
X167374138Y-98415411D01*
X167398522Y-98295000D01*
X167398522Y-98045000D01*
X167374138Y-97915411D01*
X167398522Y-97795000D01*
X167398522Y-97545000D01*
X167374138Y-97415411D01*
X167398522Y-97295000D01*
X167398522Y-97205000D01*
X167762478Y-97205000D01*
X167762478Y-97278000D01*
X167792810Y-97439201D01*
X167888080Y-97587255D01*
X168033445Y-97686579D01*
X168206000Y-97721522D01*
X169106000Y-97721522D01*
X169267201Y-97691190D01*
X169415255Y-97595920D01*
X169514579Y-97450555D01*
X169536996Y-97339854D01*
X169536621Y-97769817D01*
X169868567Y-98573186D01*
X170482681Y-99188373D01*
X171285470Y-99521720D01*
X172154717Y-99522479D01*
X172958086Y-99190533D01*
X173573273Y-98576419D01*
X173885000Y-97825697D01*
X173885000Y-101226478D01*
X173020000Y-101226478D01*
X172858799Y-101256810D01*
X172710745Y-101352080D01*
X172611421Y-101497445D01*
X172576478Y-101670000D01*
X172576478Y-103870000D01*
X172606810Y-104031201D01*
X172702080Y-104179255D01*
X172847445Y-104278579D01*
X173020000Y-104313522D01*
X175820000Y-104313522D01*
X175981201Y-104283190D01*
X176129255Y-104187920D01*
X176228579Y-104042555D01*
X176252489Y-103924481D01*
X176834777Y-103924481D01*
X177029995Y-104396943D01*
X177391155Y-104758735D01*
X177863276Y-104954777D01*
X178374481Y-104955223D01*
X178846943Y-104760005D01*
X179208735Y-104398845D01*
X179404777Y-103926724D01*
X179405111Y-103543691D01*
X179785000Y-103543691D01*
X179785000Y-104484250D01*
X179943750Y-104643000D01*
X181693000Y-104643000D01*
X181693000Y-103193750D01*
X181534250Y-103035000D01*
X180293690Y-103035000D01*
X180060301Y-103131673D01*
X179881673Y-103310302D01*
X179785000Y-103543691D01*
X179405111Y-103543691D01*
X179405223Y-103415519D01*
X179210005Y-102943057D01*
X178848845Y-102581265D01*
X178376724Y-102385223D01*
X177865519Y-102384777D01*
X177393057Y-102579995D01*
X177031265Y-102941155D01*
X176835223Y-103413276D01*
X176834777Y-103924481D01*
X176252489Y-103924481D01*
X176263522Y-103870000D01*
X176263522Y-101670000D01*
X176233190Y-101508799D01*
X176137920Y-101360745D01*
X175992555Y-101261421D01*
X175820000Y-101226478D01*
X174955000Y-101226478D01*
X174955000Y-97327604D01*
X175358123Y-96924481D01*
X176834777Y-96924481D01*
X177029995Y-97396943D01*
X177391155Y-97758735D01*
X177863276Y-97954777D01*
X178374481Y-97955223D01*
X178846943Y-97760005D01*
X179208735Y-97398845D01*
X179404777Y-96926724D01*
X179405223Y-96415519D01*
X179210005Y-95943057D01*
X178848845Y-95581265D01*
X178376724Y-95385223D01*
X177865519Y-95384777D01*
X177393057Y-95579995D01*
X177031265Y-95941155D01*
X176835223Y-96413276D01*
X176834777Y-96924481D01*
X175358123Y-96924481D01*
X178178302Y-94104302D01*
X178294276Y-93930736D01*
X178335000Y-93726000D01*
X178335000Y-91041604D01*
X180819874Y-93526478D01*
X180420000Y-93526478D01*
X180258799Y-93556810D01*
X180110745Y-93652080D01*
X180011421Y-93797445D01*
X179976478Y-93970000D01*
X179976478Y-96770000D01*
X180006810Y-96931201D01*
X180102080Y-97079255D01*
X180247445Y-97178579D01*
X180420000Y-97213522D01*
X183040000Y-97213522D01*
X183040000Y-103035000D01*
X182105750Y-103035000D01*
X181947000Y-103193750D01*
X181947000Y-104643000D01*
X181967000Y-104643000D01*
X181967000Y-104897000D01*
X181947000Y-104897000D01*
X181947000Y-106346250D01*
X182105750Y-106505000D01*
X183040000Y-106505000D01*
X183040000Y-106790000D01*
X158299839Y-106790000D01*
X158518632Y-106643807D01*
X158797185Y-106226923D01*
X158895000Y-105735175D01*
X158895000Y-105684825D01*
X158797185Y-105193077D01*
X158705427Y-105055750D01*
X179785000Y-105055750D01*
X179785000Y-105996309D01*
X179881673Y-106229698D01*
X180060301Y-106408327D01*
X180293690Y-106505000D01*
X181534250Y-106505000D01*
X181693000Y-106346250D01*
X181693000Y-104897000D01*
X179943750Y-104897000D01*
X179785000Y-105055750D01*
X158705427Y-105055750D01*
X158518632Y-104776193D01*
X158101748Y-104497640D01*
X157610000Y-104399825D01*
X157118252Y-104497640D01*
X156701368Y-104776193D01*
X156422815Y-105193077D01*
X156340000Y-105609415D01*
X156257185Y-105193077D01*
X155978632Y-104776193D01*
X155561748Y-104497640D01*
X155070000Y-104399825D01*
X154578252Y-104497640D01*
X154161368Y-104776193D01*
X153882815Y-105193077D01*
X153800000Y-105609415D01*
X153717185Y-105193077D01*
X153438632Y-104776193D01*
X153021748Y-104497640D01*
X152530000Y-104399825D01*
X152038252Y-104497640D01*
X151621368Y-104776193D01*
X151342815Y-105193077D01*
X151260000Y-105609415D01*
X151177185Y-105193077D01*
X150898632Y-104776193D01*
X150481748Y-104497640D01*
X149990000Y-104399825D01*
X149498252Y-104497640D01*
X149081368Y-104776193D01*
X148802815Y-105193077D01*
X148720000Y-105609415D01*
X148637185Y-105193077D01*
X148358632Y-104776193D01*
X147941748Y-104497640D01*
X147450000Y-104399825D01*
X146958252Y-104497640D01*
X146541368Y-104776193D01*
X146262815Y-105193077D01*
X146180000Y-105609415D01*
X146097185Y-105193077D01*
X145818632Y-104776193D01*
X145401748Y-104497640D01*
X144910000Y-104399825D01*
X144418252Y-104497640D01*
X144001368Y-104776193D01*
X143722815Y-105193077D01*
X143640000Y-105609415D01*
X143557185Y-105193077D01*
X143278632Y-104776193D01*
X142861748Y-104497640D01*
X142370000Y-104399825D01*
X141878252Y-104497640D01*
X141461368Y-104776193D01*
X141182815Y-105193077D01*
X141100000Y-105609415D01*
X141017185Y-105193077D01*
X140738632Y-104776193D01*
X140321748Y-104497640D01*
X139830000Y-104399825D01*
X139338252Y-104497640D01*
X138921368Y-104776193D01*
X138642815Y-105193077D01*
X138560000Y-105609415D01*
X138477185Y-105193077D01*
X138198632Y-104776193D01*
X137781748Y-104497640D01*
X137290000Y-104399825D01*
X136798252Y-104497640D01*
X136381368Y-104776193D01*
X136102815Y-105193077D01*
X136020000Y-105609415D01*
X135937185Y-105193077D01*
X135658632Y-104776193D01*
X135241748Y-104497640D01*
X134750000Y-104399825D01*
X134258252Y-104497640D01*
X133841368Y-104776193D01*
X133695000Y-104995248D01*
X133695000Y-104733691D01*
X133598327Y-104500302D01*
X133419699Y-104321673D01*
X133186310Y-104225000D01*
X132495750Y-104225000D01*
X132337000Y-104383750D01*
X132337000Y-105583000D01*
X132357000Y-105583000D01*
X132357000Y-105837000D01*
X132337000Y-105837000D01*
X132337000Y-105857000D01*
X132083000Y-105857000D01*
X132083000Y-105837000D01*
X132063000Y-105837000D01*
X132063000Y-105583000D01*
X132083000Y-105583000D01*
X132083000Y-104383750D01*
X131924250Y-104225000D01*
X131233690Y-104225000D01*
X131060000Y-104296945D01*
X131060000Y-96075750D01*
X131255000Y-96075750D01*
X131255000Y-96366309D01*
X131351673Y-96599698D01*
X131530301Y-96778327D01*
X131763690Y-96875000D01*
X132155404Y-96875000D01*
X132137260Y-96893112D01*
X132025127Y-97163158D01*
X132024872Y-97455559D01*
X132136534Y-97725800D01*
X132225000Y-97814421D01*
X132225000Y-98296478D01*
X131890000Y-98296478D01*
X131728799Y-98326810D01*
X131580745Y-98422080D01*
X131481421Y-98567445D01*
X131446478Y-98740000D01*
X131446478Y-99640000D01*
X131476810Y-99801201D01*
X131572080Y-99949255D01*
X131717445Y-100048579D01*
X131753920Y-100055965D01*
X131705421Y-100126945D01*
X131670478Y-100299500D01*
X131670478Y-102299500D01*
X131700810Y-102460701D01*
X131796080Y-102608755D01*
X131941445Y-102708079D01*
X132114000Y-102743022D01*
X134114000Y-102743022D01*
X134275201Y-102712690D01*
X134423255Y-102617420D01*
X134522579Y-102472055D01*
X134557522Y-102299500D01*
X134557522Y-101984500D01*
X136535500Y-101984500D01*
X136797638Y-101932357D01*
X137019868Y-101783868D01*
X137880469Y-100923267D01*
X138040000Y-100955000D01*
X139416348Y-100955000D01*
X139487445Y-101003579D01*
X139660000Y-101038522D01*
X140720000Y-101038522D01*
X140881201Y-101008190D01*
X140990196Y-100938054D01*
X141167140Y-100902857D01*
X141389370Y-100754368D01*
X141437423Y-100706315D01*
X141446810Y-100756201D01*
X141542080Y-100904255D01*
X141687445Y-101003579D01*
X141860000Y-101038522D01*
X142920000Y-101038522D01*
X143081201Y-101008190D01*
X143229255Y-100912920D01*
X143285912Y-100830000D01*
X143573413Y-100830000D01*
X143586810Y-100901201D01*
X143682080Y-101049255D01*
X143827445Y-101148579D01*
X144000000Y-101183522D01*
X144500000Y-101183522D01*
X144661201Y-101153190D01*
X144809255Y-101057920D01*
X144893373Y-100934809D01*
X144961673Y-101099699D01*
X145140302Y-101278327D01*
X145373691Y-101375000D01*
X145466250Y-101375000D01*
X145625000Y-101216250D01*
X145625000Y-100417000D01*
X145603000Y-100417000D01*
X145603000Y-100163000D01*
X145625000Y-100163000D01*
X145625000Y-100143000D01*
X145875000Y-100143000D01*
X145875000Y-100163000D01*
X145897000Y-100163000D01*
X145897000Y-100417000D01*
X145875000Y-100417000D01*
X145875000Y-101216250D01*
X146033750Y-101375000D01*
X146126309Y-101375000D01*
X146359698Y-101278327D01*
X146538327Y-101099699D01*
X146559217Y-101049266D01*
X146572080Y-101069255D01*
X146717445Y-101168579D01*
X146890000Y-101203522D01*
X147790000Y-101203522D01*
X147951201Y-101173190D01*
X148099255Y-101077920D01*
X148198579Y-100932555D01*
X148233522Y-100760000D01*
X148233522Y-100260000D01*
X148203190Y-100098799D01*
X148107920Y-99950745D01*
X147962555Y-99851421D01*
X147790000Y-99816478D01*
X147448438Y-99816478D01*
X147408370Y-99776410D01*
X147602138Y-99737867D01*
X147653539Y-99703522D01*
X147790000Y-99703522D01*
X147835291Y-99695000D01*
X151326264Y-99695000D01*
X151391478Y-99760214D01*
X151391478Y-100010000D01*
X151421810Y-100171201D01*
X151517080Y-100319255D01*
X151525000Y-100324667D01*
X151525000Y-100510000D01*
X151577143Y-100772138D01*
X151725632Y-100994368D01*
X154505632Y-103774368D01*
X154727862Y-103922857D01*
X154990000Y-103975000D01*
X158000000Y-103975000D01*
X158262138Y-103922857D01*
X158484368Y-103774368D01*
X158994368Y-103264368D01*
X158995683Y-103262400D01*
X159071201Y-103248190D01*
X159219255Y-103152920D01*
X159318579Y-103007555D01*
X159353522Y-102835000D01*
X159353522Y-102785750D01*
X161485000Y-102785750D01*
X161485000Y-103001310D01*
X161581673Y-103234699D01*
X161760302Y-103413327D01*
X161993691Y-103510000D01*
X162234250Y-103510000D01*
X162393000Y-103351250D01*
X162393000Y-102627000D01*
X161643750Y-102627000D01*
X161485000Y-102785750D01*
X159353522Y-102785750D01*
X159353522Y-102085000D01*
X159323190Y-101923799D01*
X159227920Y-101775745D01*
X159082555Y-101676421D01*
X158989057Y-101657487D01*
X158926271Y-101563522D01*
X159130000Y-101563522D01*
X159259589Y-101539138D01*
X159380000Y-101563522D01*
X159630000Y-101563522D01*
X159759589Y-101539138D01*
X159880000Y-101563522D01*
X160130000Y-101563522D01*
X160259589Y-101539138D01*
X160380000Y-101563522D01*
X160630000Y-101563522D01*
X160759589Y-101539138D01*
X160880000Y-101563522D01*
X161130000Y-101563522D01*
X161259589Y-101539138D01*
X161380000Y-101563522D01*
X161630000Y-101563522D01*
X161759589Y-101539138D01*
X161837145Y-101554844D01*
X161760302Y-101586673D01*
X161581673Y-101765301D01*
X161485000Y-101998690D01*
X161485000Y-102214250D01*
X161643750Y-102373000D01*
X162393000Y-102373000D01*
X162393000Y-102353000D01*
X162647000Y-102353000D01*
X162647000Y-102373000D01*
X162667000Y-102373000D01*
X162667000Y-102627000D01*
X162647000Y-102627000D01*
X162647000Y-103351250D01*
X162805750Y-103510000D01*
X163046309Y-103510000D01*
X163279698Y-103413327D01*
X163424871Y-103268155D01*
X163447445Y-103283579D01*
X163620000Y-103318522D01*
X164420000Y-103318522D01*
X164581201Y-103288190D01*
X164729255Y-103192920D01*
X164828579Y-103047555D01*
X164863522Y-102875000D01*
X164863522Y-102125000D01*
X164833190Y-101963799D01*
X164737920Y-101815745D01*
X164592555Y-101716421D01*
X164540000Y-101705778D01*
X164540000Y-101563522D01*
X164556918Y-101563522D01*
X165354980Y-102361584D01*
X165354872Y-102485559D01*
X165466534Y-102755800D01*
X165673112Y-102962740D01*
X165943158Y-103074873D01*
X166235559Y-103075128D01*
X166505800Y-102963466D01*
X166712740Y-102756888D01*
X166824873Y-102486842D01*
X166824982Y-102361622D01*
X167026302Y-102160302D01*
X167142276Y-101986736D01*
X167161691Y-101889130D01*
X167209201Y-101880190D01*
X167242036Y-101859061D01*
X167388302Y-102005327D01*
X167621691Y-102102000D01*
X167862250Y-102102000D01*
X168021000Y-101943250D01*
X168021000Y-101219000D01*
X168001000Y-101219000D01*
X168001000Y-100965000D01*
X168021000Y-100965000D01*
X168021000Y-100945000D01*
X168275000Y-100945000D01*
X168275000Y-100965000D01*
X168295000Y-100965000D01*
X168295000Y-101219000D01*
X168275000Y-101219000D01*
X168275000Y-101943250D01*
X168433750Y-102102000D01*
X168674309Y-102102000D01*
X168907698Y-102005327D01*
X169086327Y-101826699D01*
X169183000Y-101593310D01*
X169183000Y-101508590D01*
X169275191Y-101570190D01*
X169290810Y-101653201D01*
X169386080Y-101801255D01*
X169531445Y-101900579D01*
X169704000Y-101935522D01*
X170471772Y-101935522D01*
X170461127Y-101961158D01*
X170460872Y-102253559D01*
X170572534Y-102523800D01*
X170779112Y-102730740D01*
X171049158Y-102842873D01*
X171341559Y-102843128D01*
X171611800Y-102731466D01*
X171818740Y-102524888D01*
X171930873Y-102254842D01*
X171930902Y-102221702D01*
X172082302Y-102070302D01*
X172182190Y-101920809D01*
X172265201Y-101905190D01*
X172413255Y-101809920D01*
X172512579Y-101664555D01*
X172547522Y-101492000D01*
X172547522Y-100692000D01*
X172517190Y-100530799D01*
X172421920Y-100382745D01*
X172276555Y-100283421D01*
X172104000Y-100248478D01*
X171304000Y-100248478D01*
X171142799Y-100278810D01*
X170994745Y-100374080D01*
X170902869Y-100508544D01*
X170821920Y-100382745D01*
X170676555Y-100283421D01*
X170504000Y-100248478D01*
X169704000Y-100248478D01*
X169542799Y-100278810D01*
X169484761Y-100316157D01*
X169191000Y-100022396D01*
X169191000Y-99205528D01*
X169267201Y-99191190D01*
X169415255Y-99095920D01*
X169514579Y-98950555D01*
X169549522Y-98778000D01*
X169549522Y-98278000D01*
X169519190Y-98116799D01*
X169423920Y-97968745D01*
X169278555Y-97869421D01*
X169106000Y-97834478D01*
X168206000Y-97834478D01*
X168044799Y-97864810D01*
X167896745Y-97960080D01*
X167797421Y-98105445D01*
X167762478Y-98278000D01*
X167762478Y-98778000D01*
X167792810Y-98939201D01*
X167888080Y-99087255D01*
X168033445Y-99186579D01*
X168121000Y-99204309D01*
X168121000Y-100082000D01*
X168020998Y-100082000D01*
X168020998Y-100240748D01*
X167862250Y-100082000D01*
X167621691Y-100082000D01*
X167388302Y-100178673D01*
X167243129Y-100323845D01*
X167220555Y-100308421D01*
X167048000Y-100273478D01*
X166248000Y-100273478D01*
X166086799Y-100303810D01*
X165938745Y-100399080D01*
X165839421Y-100544445D01*
X165804478Y-100717000D01*
X165804478Y-101297874D01*
X165073522Y-100566918D01*
X165073522Y-100120000D01*
X165043190Y-99958799D01*
X164947920Y-99810745D01*
X164802555Y-99711421D01*
X164630000Y-99676478D01*
X164380000Y-99676478D01*
X164329687Y-99685945D01*
X164424883Y-99456688D01*
X164425138Y-99164287D01*
X164313476Y-98894046D01*
X164106898Y-98687106D01*
X163836852Y-98574973D01*
X163825066Y-98574963D01*
X163825128Y-98504441D01*
X163713466Y-98234200D01*
X163506888Y-98027260D01*
X163236842Y-97915127D01*
X162944441Y-97914872D01*
X162674200Y-98026534D01*
X162534973Y-98165517D01*
X162436888Y-98067260D01*
X162166842Y-97955127D01*
X161874441Y-97954872D01*
X161604200Y-98066534D01*
X161397260Y-98273112D01*
X161385051Y-98302514D01*
X161385128Y-98214441D01*
X161273466Y-97944200D01*
X161066888Y-97737260D01*
X160796842Y-97625127D01*
X160504441Y-97624872D01*
X160234200Y-97736534D01*
X160027260Y-97943112D01*
X159915127Y-98213158D01*
X159914933Y-98436017D01*
X159908699Y-98429772D01*
X159638653Y-98317639D01*
X159346252Y-98317384D01*
X159267576Y-98349892D01*
X159136943Y-98219030D01*
X158866897Y-98106897D01*
X158574496Y-98106642D01*
X158304255Y-98218304D01*
X158097315Y-98424882D01*
X158023564Y-98602494D01*
X157946629Y-98602427D01*
X157676388Y-98714089D01*
X157506476Y-98883704D01*
X157487019Y-98875625D01*
X157194618Y-98875370D01*
X156924377Y-98987032D01*
X156717437Y-99193610D01*
X156605304Y-99463656D01*
X156605208Y-99573860D01*
X156510724Y-99715264D01*
X156470000Y-99920000D01*
X156470000Y-99954462D01*
X156436478Y-100120000D01*
X156436478Y-101120000D01*
X156466810Y-101281201D01*
X156562080Y-101429255D01*
X156592441Y-101450000D01*
X156483691Y-101450000D01*
X156250302Y-101546673D01*
X156071673Y-101725301D01*
X155975000Y-101958690D01*
X155975000Y-102174250D01*
X156133750Y-102333000D01*
X156883000Y-102333000D01*
X156883000Y-102313000D01*
X157137000Y-102313000D01*
X157137000Y-102333000D01*
X157157000Y-102333000D01*
X157157000Y-102587000D01*
X157137000Y-102587000D01*
X157137000Y-102605000D01*
X156883000Y-102605000D01*
X156883000Y-102587000D01*
X156133750Y-102587000D01*
X156115750Y-102605000D01*
X155273736Y-102605000D01*
X152935822Y-100267086D01*
X152993579Y-100182555D01*
X153028522Y-100010000D01*
X153028522Y-99523082D01*
X153163302Y-99388302D01*
X153279276Y-99214736D01*
X153320000Y-99010000D01*
X153320000Y-98961604D01*
X154111478Y-98170126D01*
X154111478Y-98295000D01*
X154135862Y-98424589D01*
X154111478Y-98545000D01*
X154111478Y-98795000D01*
X154141810Y-98956201D01*
X154237080Y-99104255D01*
X154382445Y-99203579D01*
X154555000Y-99238522D01*
X155555000Y-99238522D01*
X155716201Y-99208190D01*
X155721158Y-99205000D01*
X155972168Y-99205000D01*
X156176904Y-99164276D01*
X156350470Y-99048302D01*
X156420790Y-98977982D01*
X156593095Y-98978132D01*
X156863336Y-98866470D01*
X157070276Y-98659892D01*
X157182409Y-98389846D01*
X157182664Y-98097445D01*
X157082487Y-97854999D01*
X158170001Y-97854999D01*
X158374737Y-97814275D01*
X158463455Y-97754995D01*
X158615559Y-97755128D01*
X158885800Y-97643466D01*
X159092740Y-97436888D01*
X159204873Y-97166842D01*
X159205128Y-96874441D01*
X159093466Y-96604200D01*
X158886888Y-96397260D01*
X158616842Y-96285127D01*
X158324441Y-96284872D01*
X158054200Y-96396534D01*
X157847260Y-96603112D01*
X157771734Y-96784999D01*
X157174097Y-96784999D01*
X157187165Y-96753527D01*
X157187420Y-96461126D01*
X157075758Y-96190885D01*
X156869180Y-95983945D01*
X156599134Y-95871812D01*
X156306733Y-95871557D01*
X156036492Y-95983219D01*
X155994740Y-96024898D01*
X155974138Y-95915411D01*
X155998522Y-95795000D01*
X155998522Y-95545000D01*
X155974138Y-95415411D01*
X155998522Y-95295000D01*
X155998522Y-95045000D01*
X155974138Y-94915411D01*
X155998522Y-94795000D01*
X155998522Y-94705000D01*
X156274000Y-94705000D01*
X156478736Y-94664276D01*
X156652302Y-94548302D01*
X156993584Y-94207020D01*
X157117559Y-94207128D01*
X157387800Y-94095466D01*
X157594740Y-93888888D01*
X157706873Y-93618842D01*
X157707128Y-93326441D01*
X157595466Y-93056200D01*
X157388888Y-92849260D01*
X157118842Y-92737127D01*
X157073821Y-92737088D01*
X157075823Y-92735089D01*
X157187956Y-92465043D01*
X157188211Y-92172642D01*
X157087491Y-91928882D01*
X157197030Y-91665082D01*
X157197285Y-91372681D01*
X157085623Y-91102440D01*
X156879045Y-90895500D01*
X156608999Y-90783367D01*
X156316598Y-90783112D01*
X156046357Y-90894774D01*
X155982289Y-90958730D01*
X155968190Y-90883799D01*
X155872920Y-90735745D01*
X155727555Y-90636421D01*
X155555000Y-90601478D01*
X155313793Y-90601478D01*
X154145584Y-89433270D01*
X154168522Y-89320000D01*
X154168522Y-88520000D01*
X154138190Y-88358799D01*
X154117061Y-88325964D01*
X154263327Y-88179698D01*
X154360000Y-87946309D01*
X154360000Y-87705750D01*
X154201250Y-87547000D01*
X153477000Y-87547000D01*
X153477000Y-87567000D01*
X153223000Y-87567000D01*
X153223000Y-87547000D01*
X152498750Y-87547000D01*
X152340000Y-87705750D01*
X152340000Y-87946309D01*
X152436673Y-88179698D01*
X152581845Y-88324871D01*
X152574924Y-88335000D01*
X141220000Y-88335000D01*
X140996130Y-88379530D01*
X140806343Y-88506342D01*
X138766343Y-90546343D01*
X138639530Y-90736130D01*
X138595000Y-90960000D01*
X138595000Y-93310000D01*
X138639530Y-93533870D01*
X138766343Y-93723657D01*
X140194164Y-95151478D01*
X139690000Y-95151478D01*
X139528799Y-95181810D01*
X139380745Y-95277080D01*
X139281421Y-95422445D01*
X139246478Y-95595000D01*
X139246478Y-96845000D01*
X139276810Y-97006201D01*
X139372080Y-97154255D01*
X139505000Y-97245076D01*
X139505000Y-97630643D01*
X139498799Y-97631810D01*
X139350745Y-97727080D01*
X139251421Y-97872445D01*
X139216478Y-98045000D01*
X139216478Y-98540497D01*
X139121673Y-98635301D01*
X139025000Y-98868690D01*
X139025000Y-99034250D01*
X139183750Y-99193000D01*
X140063000Y-99193000D01*
X140063000Y-99173000D01*
X140317000Y-99173000D01*
X140317000Y-99193000D01*
X140337000Y-99193000D01*
X140337000Y-99447000D01*
X140317000Y-99447000D01*
X140317000Y-99467000D01*
X140063000Y-99467000D01*
X140063000Y-99447000D01*
X139183750Y-99447000D01*
X139045750Y-99585000D01*
X138601936Y-99585000D01*
X138578190Y-99458799D01*
X138557061Y-99425964D01*
X138703327Y-99279698D01*
X138800000Y-99046309D01*
X138800000Y-98805750D01*
X138641250Y-98647000D01*
X137917000Y-98647000D01*
X137917000Y-98667000D01*
X137663000Y-98667000D01*
X137663000Y-98647000D01*
X136938750Y-98647000D01*
X136780000Y-98805750D01*
X136780000Y-99046309D01*
X136876673Y-99279698D01*
X137021845Y-99424871D01*
X137006421Y-99447445D01*
X136971478Y-99620000D01*
X136971478Y-99894786D01*
X136251764Y-100614500D01*
X134557522Y-100614500D01*
X134557522Y-100299500D01*
X134527190Y-100138299D01*
X134431920Y-99990245D01*
X134286555Y-99890921D01*
X134114000Y-99855978D01*
X133968909Y-99855978D01*
X133998579Y-99812555D01*
X134033522Y-99640000D01*
X134033522Y-98740000D01*
X134003190Y-98578799D01*
X133907920Y-98430745D01*
X133762555Y-98331421D01*
X133590000Y-98296478D01*
X133295000Y-98296478D01*
X133295000Y-97993691D01*
X136780000Y-97993691D01*
X136780000Y-98234250D01*
X136938750Y-98393000D01*
X137663000Y-98393000D01*
X137663000Y-97643750D01*
X137917000Y-97643750D01*
X137917000Y-98393000D01*
X138641250Y-98393000D01*
X138800000Y-98234250D01*
X138800000Y-97993691D01*
X138703327Y-97760302D01*
X138524699Y-97581673D01*
X138291310Y-97485000D01*
X138075750Y-97485000D01*
X137917000Y-97643750D01*
X137663000Y-97643750D01*
X137504250Y-97485000D01*
X137288690Y-97485000D01*
X137055301Y-97581673D01*
X136876673Y-97760302D01*
X136780000Y-97993691D01*
X133295000Y-97993691D01*
X133295000Y-97814475D01*
X133382740Y-97726888D01*
X133494873Y-97456842D01*
X133495128Y-97164441D01*
X133383466Y-96894200D01*
X133364300Y-96875000D01*
X133716310Y-96875000D01*
X133949699Y-96778327D01*
X134128327Y-96599698D01*
X134225000Y-96366309D01*
X134225000Y-96075750D01*
X134066250Y-95917000D01*
X132867000Y-95917000D01*
X132867000Y-95937000D01*
X132613000Y-95937000D01*
X132613000Y-95917000D01*
X131413750Y-95917000D01*
X131255000Y-96075750D01*
X131060000Y-96075750D01*
X131060000Y-95213691D01*
X131255000Y-95213691D01*
X131255000Y-95504250D01*
X131413750Y-95663000D01*
X132613000Y-95663000D01*
X132613000Y-95643000D01*
X132867000Y-95643000D01*
X132867000Y-95663000D01*
X134066250Y-95663000D01*
X134225000Y-95504250D01*
X134225000Y-95213691D01*
X134128327Y-94980302D01*
X133993155Y-94845129D01*
X134008579Y-94822555D01*
X134043522Y-94650000D01*
X134043522Y-93750000D01*
X134013190Y-93588799D01*
X133917920Y-93440745D01*
X133772555Y-93341421D01*
X133600000Y-93306478D01*
X133305000Y-93306478D01*
X133305000Y-93134475D01*
X133392740Y-93046888D01*
X133504873Y-92776842D01*
X133505128Y-92484441D01*
X133393466Y-92214200D01*
X133186888Y-92007260D01*
X132916842Y-91895127D01*
X132624441Y-91894872D01*
X132354200Y-92006534D01*
X132147260Y-92213112D01*
X132035127Y-92483158D01*
X132034872Y-92775559D01*
X132146534Y-93045800D01*
X132235000Y-93134421D01*
X132235000Y-93306478D01*
X131900000Y-93306478D01*
X131738799Y-93336810D01*
X131590745Y-93432080D01*
X131491421Y-93577445D01*
X131456478Y-93750000D01*
X131456478Y-94650000D01*
X131486810Y-94811201D01*
X131500108Y-94831866D01*
X131351673Y-94980302D01*
X131255000Y-95213691D01*
X131060000Y-95213691D01*
X131060000Y-91085750D01*
X131265000Y-91085750D01*
X131265000Y-91376309D01*
X131361673Y-91609698D01*
X131540301Y-91788327D01*
X131773690Y-91885000D01*
X132464250Y-91885000D01*
X132623000Y-91726250D01*
X132623000Y-90927000D01*
X132877000Y-90927000D01*
X132877000Y-91726250D01*
X133035750Y-91885000D01*
X133726310Y-91885000D01*
X133959699Y-91788327D01*
X134138327Y-91609698D01*
X134235000Y-91376309D01*
X134235000Y-91085750D01*
X134076250Y-90927000D01*
X132877000Y-90927000D01*
X132623000Y-90927000D01*
X131423750Y-90927000D01*
X131265000Y-91085750D01*
X131060000Y-91085750D01*
X131060000Y-90223691D01*
X131265000Y-90223691D01*
X131265000Y-90514250D01*
X131423750Y-90673000D01*
X132623000Y-90673000D01*
X132623000Y-90653000D01*
X132877000Y-90653000D01*
X132877000Y-90673000D01*
X134076250Y-90673000D01*
X134235000Y-90514250D01*
X134235000Y-90223691D01*
X134138327Y-89990302D01*
X134036486Y-89888460D01*
X134086927Y-89752032D01*
X133114000Y-88779105D01*
X133099858Y-88793248D01*
X132920253Y-88613643D01*
X132934395Y-88599500D01*
X131961468Y-87626573D01*
X131694613Y-87725236D01*
X131468092Y-88334961D01*
X131492144Y-88984960D01*
X131694613Y-89473764D01*
X131961466Y-89572426D01*
X131847186Y-89686706D01*
X131875480Y-89715000D01*
X131773690Y-89715000D01*
X131540301Y-89811673D01*
X131361673Y-89990302D01*
X131265000Y-90223691D01*
X131060000Y-90223691D01*
X131060000Y-85933522D01*
X131946918Y-85933522D01*
X132981673Y-86968277D01*
X132728540Y-86977644D01*
X132239736Y-87180113D01*
X132141073Y-87446968D01*
X133114000Y-88419895D01*
X133128143Y-88405753D01*
X133307748Y-88585358D01*
X133293605Y-88599500D01*
X134266532Y-89572427D01*
X134533387Y-89473764D01*
X134759908Y-88864039D01*
X134755392Y-88741996D01*
X135356478Y-89343082D01*
X135356478Y-89416918D01*
X135094358Y-89679038D01*
X134834200Y-89786534D01*
X134627260Y-89993112D01*
X134515127Y-90263158D01*
X134514872Y-90555559D01*
X134626534Y-90825800D01*
X134833112Y-91032740D01*
X135103158Y-91144873D01*
X135395559Y-91145128D01*
X135665800Y-91033466D01*
X135872740Y-90826888D01*
X135984873Y-90556842D01*
X135985033Y-90373522D01*
X136300000Y-90373522D01*
X136461201Y-90343190D01*
X136609255Y-90247920D01*
X136693373Y-90124809D01*
X136761673Y-90289699D01*
X136940302Y-90468327D01*
X137173691Y-90565000D01*
X137266250Y-90565000D01*
X137425000Y-90406250D01*
X137425000Y-89607000D01*
X137675000Y-89607000D01*
X137675000Y-90406250D01*
X137833750Y-90565000D01*
X137926309Y-90565000D01*
X138159698Y-90468327D01*
X138338327Y-90289699D01*
X138435000Y-90056310D01*
X138435000Y-89765750D01*
X138276250Y-89607000D01*
X137675000Y-89607000D01*
X137425000Y-89607000D01*
X137403000Y-89607000D01*
X137403000Y-89353000D01*
X137425000Y-89353000D01*
X137425000Y-88553750D01*
X137675000Y-88553750D01*
X137675000Y-89353000D01*
X138276250Y-89353000D01*
X138435000Y-89194250D01*
X138435000Y-88903690D01*
X138338327Y-88670301D01*
X138159698Y-88491673D01*
X137926309Y-88395000D01*
X137833750Y-88395000D01*
X137675000Y-88553750D01*
X137425000Y-88553750D01*
X137266250Y-88395000D01*
X137173691Y-88395000D01*
X136940302Y-88491673D01*
X136761673Y-88670301D01*
X136692665Y-88836902D01*
X136617920Y-88720745D01*
X136472555Y-88621421D01*
X136300000Y-88586478D01*
X136113082Y-88586478D01*
X132393522Y-84866918D01*
X132393522Y-83790000D01*
X132363190Y-83628799D01*
X132267920Y-83480745D01*
X132122555Y-83381421D01*
X131950000Y-83346478D01*
X131060000Y-83346478D01*
X131060000Y-83210000D01*
X135173396Y-83210000D01*
X135036918Y-83346478D01*
G36*
X152657080Y-89629255D02*
X152802445Y-89728579D01*
X152841324Y-89736452D01*
X152936343Y-89878657D01*
X154111478Y-91053793D01*
X154111478Y-91295000D01*
X154135862Y-91424589D01*
X154111478Y-91545000D01*
X154111478Y-91795000D01*
X154135862Y-91924589D01*
X154111478Y-92045000D01*
X154111478Y-92295000D01*
X154135862Y-92424589D01*
X154111478Y-92545000D01*
X154111478Y-92635000D01*
X152722466Y-92635000D01*
X152876977Y-92480488D01*
X152973650Y-92247099D01*
X152973650Y-91506110D01*
X152814900Y-91347360D01*
X151765880Y-91347360D01*
X151765880Y-91367360D01*
X151511880Y-91367360D01*
X151511880Y-91347360D01*
X151491880Y-91347360D01*
X151491880Y-91093360D01*
X151511880Y-91093360D01*
X151511880Y-89843680D01*
X151765880Y-89843680D01*
X151765880Y-91093360D01*
X152814900Y-91093360D01*
X152973650Y-90934610D01*
X152973650Y-90193621D01*
X152876977Y-89960232D01*
X152698349Y-89781603D01*
X152464960Y-89684930D01*
X151924630Y-89684930D01*
X151765880Y-89843680D01*
X151511880Y-89843680D01*
X151353130Y-89684930D01*
X150812800Y-89684930D01*
X150579411Y-89781603D01*
X150400783Y-89960232D01*
X150332472Y-90125149D01*
X150258810Y-90010675D01*
X150113445Y-89911351D01*
X149940890Y-89876408D01*
X148541350Y-89876408D01*
X148380149Y-89906740D01*
X148232095Y-90002010D01*
X148132771Y-90147375D01*
X148097828Y-90319930D01*
X148097828Y-90685360D01*
X147446359Y-90685360D01*
X147428190Y-90588799D01*
X147332920Y-90440745D01*
X147187555Y-90341421D01*
X147015000Y-90306478D01*
X146265000Y-90306478D01*
X146103799Y-90336810D01*
X145955745Y-90432080D01*
X145856421Y-90577445D01*
X145821478Y-90750000D01*
X145821478Y-91550000D01*
X145851810Y-91711201D01*
X145872939Y-91744036D01*
X145726673Y-91890302D01*
X145630000Y-92123691D01*
X145630000Y-92364250D01*
X145788750Y-92523000D01*
X146513000Y-92523000D01*
X146513000Y-92503000D01*
X146767000Y-92503000D01*
X146767000Y-92523000D01*
X147491250Y-92523000D01*
X147650000Y-92364250D01*
X147650000Y-92123691D01*
X147553327Y-91890302D01*
X147418386Y-91755360D01*
X148097828Y-91755360D01*
X148097828Y-92120790D01*
X148128160Y-92281991D01*
X148223430Y-92430045D01*
X148368795Y-92529369D01*
X148541350Y-92564312D01*
X149627808Y-92564312D01*
X150611798Y-93548302D01*
X150785364Y-93664276D01*
X150990100Y-93705000D01*
X152596256Y-93705000D01*
X152025568Y-94275688D01*
X151252192Y-94275688D01*
X150618202Y-93641698D01*
X150444636Y-93525724D01*
X150239900Y-93485000D01*
X147605000Y-93485000D01*
X147446498Y-93516528D01*
X147553327Y-93409698D01*
X147650000Y-93176309D01*
X147650000Y-92935750D01*
X147491250Y-92777000D01*
X146767000Y-92777000D01*
X146767000Y-92797000D01*
X146513000Y-92797000D01*
X146513000Y-92777000D01*
X145788750Y-92777000D01*
X145630000Y-92935750D01*
X145630000Y-93176309D01*
X145726673Y-93409698D01*
X145905301Y-93588327D01*
X146034084Y-93641671D01*
X145955745Y-93692080D01*
X145856421Y-93837445D01*
X145821478Y-94010000D01*
X145821478Y-94810000D01*
X145851810Y-94971201D01*
X145872939Y-95004036D01*
X145726673Y-95150302D01*
X145630000Y-95383691D01*
X145630000Y-95624250D01*
X145788750Y-95783000D01*
X146513000Y-95783000D01*
X146513000Y-95763000D01*
X146767000Y-95763000D01*
X146767000Y-95783000D01*
X147491250Y-95783000D01*
X147650000Y-95624250D01*
X147650000Y-95383691D01*
X147553327Y-95150302D01*
X147408155Y-95005129D01*
X147423579Y-94982555D01*
X147442513Y-94889057D01*
X147593302Y-94788302D01*
X147826604Y-94555000D01*
X147922049Y-94555000D01*
X147906350Y-94592901D01*
X147906350Y-95333890D01*
X148065100Y-95492640D01*
X149114120Y-95492640D01*
X149114120Y-95472640D01*
X149368120Y-95472640D01*
X149368120Y-95492640D01*
X149388120Y-95492640D01*
X149388120Y-95746640D01*
X149368120Y-95746640D01*
X149368120Y-96996320D01*
X149526870Y-97155070D01*
X150067200Y-97155070D01*
X150300589Y-97058397D01*
X150479217Y-96879768D01*
X150547528Y-96714851D01*
X150621190Y-96829325D01*
X150766555Y-96928649D01*
X150939110Y-96963592D01*
X152338650Y-96963592D01*
X152499851Y-96933260D01*
X152647905Y-96837990D01*
X152747229Y-96692625D01*
X152782172Y-96520070D01*
X152782172Y-95032292D01*
X153609464Y-94205000D01*
X154111478Y-94205000D01*
X154111478Y-94295000D01*
X154135862Y-94424589D01*
X154111478Y-94545000D01*
X154111478Y-94795000D01*
X154135862Y-94924589D01*
X154111478Y-95045000D01*
X154111478Y-95295000D01*
X154135862Y-95424589D01*
X154111478Y-95545000D01*
X154111478Y-95795000D01*
X154135862Y-95924589D01*
X154111478Y-96045000D01*
X154111478Y-96090497D01*
X154016673Y-96185301D01*
X153920000Y-96418690D01*
X153920000Y-96448750D01*
X154078750Y-96607500D01*
X154241829Y-96607500D01*
X154298519Y-96646235D01*
X154150264Y-96675724D01*
X153976698Y-96791698D01*
X153209662Y-97558734D01*
X153123327Y-97350302D01*
X152944699Y-97171673D01*
X152711310Y-97075000D01*
X152495750Y-97075000D01*
X152337000Y-97233750D01*
X152337000Y-97983000D01*
X152357000Y-97983000D01*
X152357000Y-98237000D01*
X152337000Y-98237000D01*
X152337000Y-98257000D01*
X152083000Y-98257000D01*
X152083000Y-98237000D01*
X151358750Y-98237000D01*
X151270750Y-98325000D01*
X147832083Y-98325000D01*
X147790000Y-98316478D01*
X147520204Y-98316478D01*
X147139358Y-97935632D01*
X146917128Y-97787143D01*
X146654990Y-97735000D01*
X145138522Y-97735000D01*
X145138522Y-97583691D01*
X151200000Y-97583691D01*
X151200000Y-97824250D01*
X151358750Y-97983000D01*
X152083000Y-97983000D01*
X152083000Y-97233750D01*
X151924250Y-97075000D01*
X151708690Y-97075000D01*
X151475301Y-97171673D01*
X151296673Y-97350302D01*
X151200000Y-97583691D01*
X145138522Y-97583691D01*
X145138522Y-96990000D01*
X145108190Y-96828799D01*
X145087061Y-96795964D01*
X145233327Y-96649698D01*
X145330000Y-96416309D01*
X145330000Y-96195750D01*
X145630000Y-96195750D01*
X145630000Y-96436309D01*
X145726673Y-96669698D01*
X145905301Y-96848327D01*
X146138690Y-96945000D01*
X146354250Y-96945000D01*
X146513000Y-96786250D01*
X146513000Y-96037000D01*
X146767000Y-96037000D01*
X146767000Y-96786250D01*
X146925750Y-96945000D01*
X147141310Y-96945000D01*
X147374699Y-96848327D01*
X147553327Y-96669698D01*
X147650000Y-96436309D01*
X147650000Y-96195750D01*
X147491250Y-96037000D01*
X146767000Y-96037000D01*
X146513000Y-96037000D01*
X145788750Y-96037000D01*
X145630000Y-96195750D01*
X145330000Y-96195750D01*
X145330000Y-96175750D01*
X145171250Y-96017000D01*
X144447000Y-96017000D01*
X144447000Y-96037000D01*
X144193000Y-96037000D01*
X144193000Y-96017000D01*
X143468750Y-96017000D01*
X143310000Y-96175750D01*
X143310000Y-96416309D01*
X143406673Y-96649698D01*
X143551845Y-96794871D01*
X143536421Y-96817445D01*
X143501478Y-96990000D01*
X143501478Y-97790000D01*
X143531810Y-97951201D01*
X143627080Y-98099255D01*
X143635000Y-98104667D01*
X143635000Y-98136264D01*
X143564393Y-98206871D01*
X143444200Y-98256534D01*
X143363522Y-98337071D01*
X143363522Y-98045000D01*
X143333190Y-97883799D01*
X143237920Y-97735745D01*
X143092555Y-97636421D01*
X143075000Y-97632866D01*
X143075000Y-97052064D01*
X143098579Y-97017555D01*
X143133522Y-96845000D01*
X143133522Y-95905390D01*
X147906350Y-95905390D01*
X147906350Y-96646379D01*
X148003023Y-96879768D01*
X148181651Y-97058397D01*
X148415040Y-97155070D01*
X148955370Y-97155070D01*
X149114120Y-96996320D01*
X149114120Y-95746640D01*
X148065100Y-95746640D01*
X147906350Y-95905390D01*
X143133522Y-95905390D01*
X143133522Y-95595000D01*
X143103190Y-95433799D01*
X143058077Y-95363691D01*
X143310000Y-95363691D01*
X143310000Y-95604250D01*
X143468750Y-95763000D01*
X144193000Y-95763000D01*
X144193000Y-95013750D01*
X144447000Y-95013750D01*
X144447000Y-95763000D01*
X145171250Y-95763000D01*
X145330000Y-95604250D01*
X145330000Y-95363691D01*
X145233327Y-95130302D01*
X145054699Y-94951673D01*
X144821310Y-94855000D01*
X144605750Y-94855000D01*
X144447000Y-95013750D01*
X144193000Y-95013750D01*
X144034250Y-94855000D01*
X143818690Y-94855000D01*
X143585301Y-94951673D01*
X143406673Y-95130302D01*
X143310000Y-95363691D01*
X143058077Y-95363691D01*
X143007920Y-95285745D01*
X142862555Y-95186421D01*
X142690000Y-95151478D01*
X141848793Y-95151478D01*
X141482082Y-94784767D01*
X142182717Y-94785379D01*
X142986086Y-94453433D01*
X143601273Y-93839319D01*
X143934620Y-93036530D01*
X143935379Y-92167283D01*
X143603433Y-91363914D01*
X142989319Y-90748727D01*
X142186530Y-90415380D01*
X141317283Y-90414621D01*
X140513914Y-90746567D01*
X139898727Y-91360681D01*
X139765000Y-91682731D01*
X139765000Y-91202314D01*
X141462315Y-89505000D01*
X152577124Y-89505000D01*
X152657080Y-89629255D01*
X152657080Y-89629255D01*
G37*
X152657080Y-89629255D02*
X152802445Y-89728579D01*
X152841324Y-89736452D01*
X152936343Y-89878657D01*
X154111478Y-91053793D01*
X154111478Y-91295000D01*
X154135862Y-91424589D01*
X154111478Y-91545000D01*
X154111478Y-91795000D01*
X154135862Y-91924589D01*
X154111478Y-92045000D01*
X154111478Y-92295000D01*
X154135862Y-92424589D01*
X154111478Y-92545000D01*
X154111478Y-92635000D01*
X152722466Y-92635000D01*
X152876977Y-92480488D01*
X152973650Y-92247099D01*
X152973650Y-91506110D01*
X152814900Y-91347360D01*
X151765880Y-91347360D01*
X151765880Y-91367360D01*
X151511880Y-91367360D01*
X151511880Y-91347360D01*
X151491880Y-91347360D01*
X151491880Y-91093360D01*
X151511880Y-91093360D01*
X151511880Y-89843680D01*
X151765880Y-89843680D01*
X151765880Y-91093360D01*
X152814900Y-91093360D01*
X152973650Y-90934610D01*
X152973650Y-90193621D01*
X152876977Y-89960232D01*
X152698349Y-89781603D01*
X152464960Y-89684930D01*
X151924630Y-89684930D01*
X151765880Y-89843680D01*
X151511880Y-89843680D01*
X151353130Y-89684930D01*
X150812800Y-89684930D01*
X150579411Y-89781603D01*
X150400783Y-89960232D01*
X150332472Y-90125149D01*
X150258810Y-90010675D01*
X150113445Y-89911351D01*
X149940890Y-89876408D01*
X148541350Y-89876408D01*
X148380149Y-89906740D01*
X148232095Y-90002010D01*
X148132771Y-90147375D01*
X148097828Y-90319930D01*
X148097828Y-90685360D01*
X147446359Y-90685360D01*
X147428190Y-90588799D01*
X147332920Y-90440745D01*
X147187555Y-90341421D01*
X147015000Y-90306478D01*
X146265000Y-90306478D01*
X146103799Y-90336810D01*
X145955745Y-90432080D01*
X145856421Y-90577445D01*
X145821478Y-90750000D01*
X145821478Y-91550000D01*
X145851810Y-91711201D01*
X145872939Y-91744036D01*
X145726673Y-91890302D01*
X145630000Y-92123691D01*
X145630000Y-92364250D01*
X145788750Y-92523000D01*
X146513000Y-92523000D01*
X146513000Y-92503000D01*
X146767000Y-92503000D01*
X146767000Y-92523000D01*
X147491250Y-92523000D01*
X147650000Y-92364250D01*
X147650000Y-92123691D01*
X147553327Y-91890302D01*
X147418386Y-91755360D01*
X148097828Y-91755360D01*
X148097828Y-92120790D01*
X148128160Y-92281991D01*
X148223430Y-92430045D01*
X148368795Y-92529369D01*
X148541350Y-92564312D01*
X149627808Y-92564312D01*
X150611798Y-93548302D01*
X150785364Y-93664276D01*
X150990100Y-93705000D01*
X152596256Y-93705000D01*
X152025568Y-94275688D01*
X151252192Y-94275688D01*
X150618202Y-93641698D01*
X150444636Y-93525724D01*
X150239900Y-93485000D01*
X147605000Y-93485000D01*
X147446498Y-93516528D01*
X147553327Y-93409698D01*
X147650000Y-93176309D01*
X147650000Y-92935750D01*
X147491250Y-92777000D01*
X146767000Y-92777000D01*
X146767000Y-92797000D01*
X146513000Y-92797000D01*
X146513000Y-92777000D01*
X145788750Y-92777000D01*
X145630000Y-92935750D01*
X145630000Y-93176309D01*
X145726673Y-93409698D01*
X145905301Y-93588327D01*
X146034084Y-93641671D01*
X145955745Y-93692080D01*
X145856421Y-93837445D01*
X145821478Y-94010000D01*
X145821478Y-94810000D01*
X145851810Y-94971201D01*
X145872939Y-95004036D01*
X145726673Y-95150302D01*
X145630000Y-95383691D01*
X145630000Y-95624250D01*
X145788750Y-95783000D01*
X146513000Y-95783000D01*
X146513000Y-95763000D01*
X146767000Y-95763000D01*
X146767000Y-95783000D01*
X147491250Y-95783000D01*
X147650000Y-95624250D01*
X147650000Y-95383691D01*
X147553327Y-95150302D01*
X147408155Y-95005129D01*
X147423579Y-94982555D01*
X147442513Y-94889057D01*
X147593302Y-94788302D01*
X147826604Y-94555000D01*
X147922049Y-94555000D01*
X147906350Y-94592901D01*
X147906350Y-95333890D01*
X148065100Y-95492640D01*
X149114120Y-95492640D01*
X149114120Y-95472640D01*
X149368120Y-95472640D01*
X149368120Y-95492640D01*
X149388120Y-95492640D01*
X149388120Y-95746640D01*
X149368120Y-95746640D01*
X149368120Y-96996320D01*
X149526870Y-97155070D01*
X150067200Y-97155070D01*
X150300589Y-97058397D01*
X150479217Y-96879768D01*
X150547528Y-96714851D01*
X150621190Y-96829325D01*
X150766555Y-96928649D01*
X150939110Y-96963592D01*
X152338650Y-96963592D01*
X152499851Y-96933260D01*
X152647905Y-96837990D01*
X152747229Y-96692625D01*
X152782172Y-96520070D01*
X152782172Y-95032292D01*
X153609464Y-94205000D01*
X154111478Y-94205000D01*
X154111478Y-94295000D01*
X154135862Y-94424589D01*
X154111478Y-94545000D01*
X154111478Y-94795000D01*
X154135862Y-94924589D01*
X154111478Y-95045000D01*
X154111478Y-95295000D01*
X154135862Y-95424589D01*
X154111478Y-95545000D01*
X154111478Y-95795000D01*
X154135862Y-95924589D01*
X154111478Y-96045000D01*
X154111478Y-96090497D01*
X154016673Y-96185301D01*
X153920000Y-96418690D01*
X153920000Y-96448750D01*
X154078750Y-96607500D01*
X154241829Y-96607500D01*
X154298519Y-96646235D01*
X154150264Y-96675724D01*
X153976698Y-96791698D01*
X153209662Y-97558734D01*
X153123327Y-97350302D01*
X152944699Y-97171673D01*
X152711310Y-97075000D01*
X152495750Y-97075000D01*
X152337000Y-97233750D01*
X152337000Y-97983000D01*
X152357000Y-97983000D01*
X152357000Y-98237000D01*
X152337000Y-98237000D01*
X152337000Y-98257000D01*
X152083000Y-98257000D01*
X152083000Y-98237000D01*
X151358750Y-98237000D01*
X151270750Y-98325000D01*
X147832083Y-98325000D01*
X147790000Y-98316478D01*
X147520204Y-98316478D01*
X147139358Y-97935632D01*
X146917128Y-97787143D01*
X146654990Y-97735000D01*
X145138522Y-97735000D01*
X145138522Y-97583691D01*
X151200000Y-97583691D01*
X151200000Y-97824250D01*
X151358750Y-97983000D01*
X152083000Y-97983000D01*
X152083000Y-97233750D01*
X151924250Y-97075000D01*
X151708690Y-97075000D01*
X151475301Y-97171673D01*
X151296673Y-97350302D01*
X151200000Y-97583691D01*
X145138522Y-97583691D01*
X145138522Y-96990000D01*
X145108190Y-96828799D01*
X145087061Y-96795964D01*
X145233327Y-96649698D01*
X145330000Y-96416309D01*
X145330000Y-96195750D01*
X145630000Y-96195750D01*
X145630000Y-96436309D01*
X145726673Y-96669698D01*
X145905301Y-96848327D01*
X146138690Y-96945000D01*
X146354250Y-96945000D01*
X146513000Y-96786250D01*
X146513000Y-96037000D01*
X146767000Y-96037000D01*
X146767000Y-96786250D01*
X146925750Y-96945000D01*
X147141310Y-96945000D01*
X147374699Y-96848327D01*
X147553327Y-96669698D01*
X147650000Y-96436309D01*
X147650000Y-96195750D01*
X147491250Y-96037000D01*
X146767000Y-96037000D01*
X146513000Y-96037000D01*
X145788750Y-96037000D01*
X145630000Y-96195750D01*
X145330000Y-96195750D01*
X145330000Y-96175750D01*
X145171250Y-96017000D01*
X144447000Y-96017000D01*
X144447000Y-96037000D01*
X144193000Y-96037000D01*
X144193000Y-96017000D01*
X143468750Y-96017000D01*
X143310000Y-96175750D01*
X143310000Y-96416309D01*
X143406673Y-96649698D01*
X143551845Y-96794871D01*
X143536421Y-96817445D01*
X143501478Y-96990000D01*
X143501478Y-97790000D01*
X143531810Y-97951201D01*
X143627080Y-98099255D01*
X143635000Y-98104667D01*
X143635000Y-98136264D01*
X143564393Y-98206871D01*
X143444200Y-98256534D01*
X143363522Y-98337071D01*
X143363522Y-98045000D01*
X143333190Y-97883799D01*
X143237920Y-97735745D01*
X143092555Y-97636421D01*
X143075000Y-97632866D01*
X143075000Y-97052064D01*
X143098579Y-97017555D01*
X143133522Y-96845000D01*
X143133522Y-95905390D01*
X147906350Y-95905390D01*
X147906350Y-96646379D01*
X148003023Y-96879768D01*
X148181651Y-97058397D01*
X148415040Y-97155070D01*
X148955370Y-97155070D01*
X149114120Y-96996320D01*
X149114120Y-95746640D01*
X148065100Y-95746640D01*
X147906350Y-95905390D01*
X143133522Y-95905390D01*
X143133522Y-95595000D01*
X143103190Y-95433799D01*
X143058077Y-95363691D01*
X143310000Y-95363691D01*
X143310000Y-95604250D01*
X143468750Y-95763000D01*
X144193000Y-95763000D01*
X144193000Y-95013750D01*
X144447000Y-95013750D01*
X144447000Y-95763000D01*
X145171250Y-95763000D01*
X145330000Y-95604250D01*
X145330000Y-95363691D01*
X145233327Y-95130302D01*
X145054699Y-94951673D01*
X144821310Y-94855000D01*
X144605750Y-94855000D01*
X144447000Y-95013750D01*
X144193000Y-95013750D01*
X144034250Y-94855000D01*
X143818690Y-94855000D01*
X143585301Y-94951673D01*
X143406673Y-95130302D01*
X143310000Y-95363691D01*
X143058077Y-95363691D01*
X143007920Y-95285745D01*
X142862555Y-95186421D01*
X142690000Y-95151478D01*
X141848793Y-95151478D01*
X141482082Y-94784767D01*
X142182717Y-94785379D01*
X142986086Y-94453433D01*
X143601273Y-93839319D01*
X143934620Y-93036530D01*
X143935379Y-92167283D01*
X143603433Y-91363914D01*
X142989319Y-90748727D01*
X142186530Y-90415380D01*
X141317283Y-90414621D01*
X140513914Y-90746567D01*
X139898727Y-91360681D01*
X139765000Y-91682731D01*
X139765000Y-91202314D01*
X141462315Y-89505000D01*
X152577124Y-89505000D01*
X152657080Y-89629255D01*
G36*
X171495000Y-90523736D02*
X171495000Y-90697917D01*
X171486478Y-90740000D01*
X171486478Y-91640000D01*
X171495000Y-91685291D01*
X171495000Y-92267917D01*
X171486478Y-92310000D01*
X171486478Y-93210000D01*
X171504964Y-93308247D01*
X170208751Y-93308247D01*
X170004015Y-93348971D01*
X169830449Y-93464945D01*
X169160394Y-94135000D01*
X167398522Y-94135000D01*
X167398522Y-94045000D01*
X167374138Y-93915411D01*
X167398522Y-93795000D01*
X167398522Y-93545000D01*
X167374138Y-93415411D01*
X167398522Y-93295000D01*
X167398522Y-93045000D01*
X167374138Y-92915411D01*
X167398522Y-92795000D01*
X167398522Y-92545000D01*
X167380009Y-92446613D01*
X167531698Y-92598302D01*
X167686571Y-92701786D01*
X167696810Y-92756201D01*
X167792080Y-92904255D01*
X167937445Y-93003579D01*
X168110000Y-93038522D01*
X168910000Y-93038522D01*
X169071201Y-93008190D01*
X169104036Y-92987061D01*
X169250302Y-93133327D01*
X169483691Y-93230000D01*
X169724250Y-93230000D01*
X169883000Y-93071250D01*
X169883000Y-92347000D01*
X170137000Y-92347000D01*
X170137000Y-93071250D01*
X170295750Y-93230000D01*
X170536309Y-93230000D01*
X170769698Y-93133327D01*
X170948327Y-92954699D01*
X171045000Y-92721310D01*
X171045000Y-92505750D01*
X170886250Y-92347000D01*
X170137000Y-92347000D01*
X169883000Y-92347000D01*
X169863000Y-92347000D01*
X169863000Y-92093000D01*
X169883000Y-92093000D01*
X169883000Y-91621250D01*
X169923000Y-91581250D01*
X169923000Y-91368750D01*
X170137000Y-91368750D01*
X170137000Y-92093000D01*
X170886250Y-92093000D01*
X171045000Y-91934250D01*
X171045000Y-91718690D01*
X170954008Y-91499017D01*
X170988327Y-91464699D01*
X171085000Y-91231310D01*
X171085000Y-91015750D01*
X170926250Y-90857000D01*
X170177000Y-90857000D01*
X170177000Y-91328750D01*
X170137000Y-91368750D01*
X169923000Y-91368750D01*
X169923000Y-90857000D01*
X169903000Y-90857000D01*
X169903000Y-90603000D01*
X169923000Y-90603000D01*
X169923000Y-90583000D01*
X170177000Y-90583000D01*
X170177000Y-90603000D01*
X170926250Y-90603000D01*
X171085000Y-90444250D01*
X171085000Y-90397132D01*
X171087565Y-90397134D01*
X171208883Y-90347006D01*
X171318270Y-90347006D01*
X171495000Y-90523736D01*
X171495000Y-90523736D01*
G37*
X171495000Y-90523736D02*
X171495000Y-90697917D01*
X171486478Y-90740000D01*
X171486478Y-91640000D01*
X171495000Y-91685291D01*
X171495000Y-92267917D01*
X171486478Y-92310000D01*
X171486478Y-93210000D01*
X171504964Y-93308247D01*
X170208751Y-93308247D01*
X170004015Y-93348971D01*
X169830449Y-93464945D01*
X169160394Y-94135000D01*
X167398522Y-94135000D01*
X167398522Y-94045000D01*
X167374138Y-93915411D01*
X167398522Y-93795000D01*
X167398522Y-93545000D01*
X167374138Y-93415411D01*
X167398522Y-93295000D01*
X167398522Y-93045000D01*
X167374138Y-92915411D01*
X167398522Y-92795000D01*
X167398522Y-92545000D01*
X167380009Y-92446613D01*
X167531698Y-92598302D01*
X167686571Y-92701786D01*
X167696810Y-92756201D01*
X167792080Y-92904255D01*
X167937445Y-93003579D01*
X168110000Y-93038522D01*
X168910000Y-93038522D01*
X169071201Y-93008190D01*
X169104036Y-92987061D01*
X169250302Y-93133327D01*
X169483691Y-93230000D01*
X169724250Y-93230000D01*
X169883000Y-93071250D01*
X169883000Y-92347000D01*
X170137000Y-92347000D01*
X170137000Y-93071250D01*
X170295750Y-93230000D01*
X170536309Y-93230000D01*
X170769698Y-93133327D01*
X170948327Y-92954699D01*
X171045000Y-92721310D01*
X171045000Y-92505750D01*
X170886250Y-92347000D01*
X170137000Y-92347000D01*
X169883000Y-92347000D01*
X169863000Y-92347000D01*
X169863000Y-92093000D01*
X169883000Y-92093000D01*
X169883000Y-91621250D01*
X169923000Y-91581250D01*
X169923000Y-91368750D01*
X170137000Y-91368750D01*
X170137000Y-92093000D01*
X170886250Y-92093000D01*
X171045000Y-91934250D01*
X171045000Y-91718690D01*
X170954008Y-91499017D01*
X170988327Y-91464699D01*
X171085000Y-91231310D01*
X171085000Y-91015750D01*
X170926250Y-90857000D01*
X170177000Y-90857000D01*
X170177000Y-91328750D01*
X170137000Y-91368750D01*
X169923000Y-91368750D01*
X169923000Y-90857000D01*
X169903000Y-90857000D01*
X169903000Y-90603000D01*
X169923000Y-90603000D01*
X169923000Y-90583000D01*
X170177000Y-90583000D01*
X170177000Y-90603000D01*
X170926250Y-90603000D01*
X171085000Y-90444250D01*
X171085000Y-90397132D01*
X171087565Y-90397134D01*
X171208883Y-90347006D01*
X171318270Y-90347006D01*
X171495000Y-90523736D01*
G36*
X183040000Y-93526478D02*
X182288360Y-93526478D01*
X182198302Y-93391698D01*
X179413574Y-90606970D01*
X179520000Y-90628522D01*
X180320000Y-90628522D01*
X180481201Y-90598190D01*
X180514036Y-90577061D01*
X180660302Y-90723327D01*
X180893691Y-90820000D01*
X181134250Y-90820000D01*
X181293000Y-90661250D01*
X181293000Y-89937000D01*
X181547000Y-89937000D01*
X181547000Y-90661250D01*
X181705750Y-90820000D01*
X181946309Y-90820000D01*
X182179698Y-90723327D01*
X182358327Y-90544699D01*
X182455000Y-90311310D01*
X182455000Y-90095750D01*
X182296250Y-89937000D01*
X181547000Y-89937000D01*
X181293000Y-89937000D01*
X181273000Y-89937000D01*
X181273000Y-89683000D01*
X181293000Y-89683000D01*
X181293000Y-88958750D01*
X181547000Y-88958750D01*
X181547000Y-89683000D01*
X182296250Y-89683000D01*
X182455000Y-89524250D01*
X182455000Y-89308690D01*
X182358327Y-89075301D01*
X182179698Y-88896673D01*
X181946309Y-88800000D01*
X181705750Y-88800000D01*
X181547000Y-88958750D01*
X181293000Y-88958750D01*
X181134250Y-88800000D01*
X180893691Y-88800000D01*
X180660302Y-88896673D01*
X180515129Y-89041845D01*
X180495000Y-89028092D01*
X180495000Y-88697528D01*
X180571201Y-88683190D01*
X180719255Y-88587920D01*
X180818579Y-88442555D01*
X180853522Y-88270000D01*
X180853522Y-87470000D01*
X180823190Y-87308799D01*
X180727920Y-87160745D01*
X180582555Y-87061421D01*
X180410000Y-87026478D01*
X179510000Y-87026478D01*
X179348799Y-87056810D01*
X179200745Y-87152080D01*
X179101421Y-87297445D01*
X179066478Y-87470000D01*
X179066478Y-88270000D01*
X179096810Y-88431201D01*
X179192080Y-88579255D01*
X179337445Y-88678579D01*
X179425000Y-88696309D01*
X179425000Y-89009353D01*
X179358799Y-89021810D01*
X179271528Y-89077967D01*
X179232888Y-89039260D01*
X179062998Y-88968715D01*
X179062998Y-86842998D01*
X179057542Y-86815567D01*
X179150302Y-86908327D01*
X179383691Y-87005000D01*
X179674250Y-87005000D01*
X179833000Y-86846250D01*
X179833000Y-86097000D01*
X180087000Y-86097000D01*
X180087000Y-86846250D01*
X180245750Y-87005000D01*
X180536309Y-87005000D01*
X180769698Y-86908327D01*
X180948327Y-86729699D01*
X181045000Y-86496310D01*
X181045000Y-86255750D01*
X180886250Y-86097000D01*
X180087000Y-86097000D01*
X179833000Y-86097000D01*
X179813000Y-86097000D01*
X179813000Y-85843000D01*
X179833000Y-85843000D01*
X179833000Y-85823000D01*
X180087000Y-85823000D01*
X180087000Y-85843000D01*
X180886250Y-85843000D01*
X181045000Y-85684250D01*
X181045000Y-85521000D01*
X181072264Y-85521000D01*
X181275000Y-85723736D01*
X181275000Y-86154298D01*
X181200745Y-86202080D01*
X181101421Y-86347445D01*
X181066478Y-86520000D01*
X181066478Y-87320000D01*
X181096810Y-87481201D01*
X181192080Y-87629255D01*
X181337445Y-87728579D01*
X181510000Y-87763522D01*
X182410000Y-87763522D01*
X182571201Y-87733190D01*
X182719255Y-87637920D01*
X182818579Y-87492555D01*
X182853522Y-87320000D01*
X182853522Y-86520000D01*
X182823190Y-86358799D01*
X182727920Y-86210745D01*
X182645000Y-86154088D01*
X182645000Y-85440000D01*
X182592857Y-85177862D01*
X182444368Y-84955632D01*
X182029129Y-84540393D01*
X181979466Y-84420200D01*
X181971153Y-84411873D01*
X181988327Y-84394699D01*
X182085000Y-84161310D01*
X182085000Y-83945750D01*
X181926250Y-83787000D01*
X181177000Y-83787000D01*
X181177000Y-83807000D01*
X180923000Y-83807000D01*
X180923000Y-83787000D01*
X180903000Y-83787000D01*
X180903000Y-83533000D01*
X180923000Y-83533000D01*
X180923000Y-83513000D01*
X181177000Y-83513000D01*
X181177000Y-83533000D01*
X181926250Y-83533000D01*
X182085000Y-83374250D01*
X182085000Y-83210000D01*
X183040000Y-83210000D01*
X183040000Y-93526478D01*
X183040000Y-93526478D01*
G37*
X183040000Y-93526478D02*
X182288360Y-93526478D01*
X182198302Y-93391698D01*
X179413574Y-90606970D01*
X179520000Y-90628522D01*
X180320000Y-90628522D01*
X180481201Y-90598190D01*
X180514036Y-90577061D01*
X180660302Y-90723327D01*
X180893691Y-90820000D01*
X181134250Y-90820000D01*
X181293000Y-90661250D01*
X181293000Y-89937000D01*
X181547000Y-89937000D01*
X181547000Y-90661250D01*
X181705750Y-90820000D01*
X181946309Y-90820000D01*
X182179698Y-90723327D01*
X182358327Y-90544699D01*
X182455000Y-90311310D01*
X182455000Y-90095750D01*
X182296250Y-89937000D01*
X181547000Y-89937000D01*
X181293000Y-89937000D01*
X181273000Y-89937000D01*
X181273000Y-89683000D01*
X181293000Y-89683000D01*
X181293000Y-88958750D01*
X181547000Y-88958750D01*
X181547000Y-89683000D01*
X182296250Y-89683000D01*
X182455000Y-89524250D01*
X182455000Y-89308690D01*
X182358327Y-89075301D01*
X182179698Y-88896673D01*
X181946309Y-88800000D01*
X181705750Y-88800000D01*
X181547000Y-88958750D01*
X181293000Y-88958750D01*
X181134250Y-88800000D01*
X180893691Y-88800000D01*
X180660302Y-88896673D01*
X180515129Y-89041845D01*
X180495000Y-89028092D01*
X180495000Y-88697528D01*
X180571201Y-88683190D01*
X180719255Y-88587920D01*
X180818579Y-88442555D01*
X180853522Y-88270000D01*
X180853522Y-87470000D01*
X180823190Y-87308799D01*
X180727920Y-87160745D01*
X180582555Y-87061421D01*
X180410000Y-87026478D01*
X179510000Y-87026478D01*
X179348799Y-87056810D01*
X179200745Y-87152080D01*
X179101421Y-87297445D01*
X179066478Y-87470000D01*
X179066478Y-88270000D01*
X179096810Y-88431201D01*
X179192080Y-88579255D01*
X179337445Y-88678579D01*
X179425000Y-88696309D01*
X179425000Y-89009353D01*
X179358799Y-89021810D01*
X179271528Y-89077967D01*
X179232888Y-89039260D01*
X179062998Y-88968715D01*
X179062998Y-86842998D01*
X179057542Y-86815567D01*
X179150302Y-86908327D01*
X179383691Y-87005000D01*
X179674250Y-87005000D01*
X179833000Y-86846250D01*
X179833000Y-86097000D01*
X180087000Y-86097000D01*
X180087000Y-86846250D01*
X180245750Y-87005000D01*
X180536309Y-87005000D01*
X180769698Y-86908327D01*
X180948327Y-86729699D01*
X181045000Y-86496310D01*
X181045000Y-86255750D01*
X180886250Y-86097000D01*
X180087000Y-86097000D01*
X179833000Y-86097000D01*
X179813000Y-86097000D01*
X179813000Y-85843000D01*
X179833000Y-85843000D01*
X179833000Y-85823000D01*
X180087000Y-85823000D01*
X180087000Y-85843000D01*
X180886250Y-85843000D01*
X181045000Y-85684250D01*
X181045000Y-85521000D01*
X181072264Y-85521000D01*
X181275000Y-85723736D01*
X181275000Y-86154298D01*
X181200745Y-86202080D01*
X181101421Y-86347445D01*
X181066478Y-86520000D01*
X181066478Y-87320000D01*
X181096810Y-87481201D01*
X181192080Y-87629255D01*
X181337445Y-87728579D01*
X181510000Y-87763522D01*
X182410000Y-87763522D01*
X182571201Y-87733190D01*
X182719255Y-87637920D01*
X182818579Y-87492555D01*
X182853522Y-87320000D01*
X182853522Y-86520000D01*
X182823190Y-86358799D01*
X182727920Y-86210745D01*
X182645000Y-86154088D01*
X182645000Y-85440000D01*
X182592857Y-85177862D01*
X182444368Y-84955632D01*
X182029129Y-84540393D01*
X181979466Y-84420200D01*
X181971153Y-84411873D01*
X181988327Y-84394699D01*
X182085000Y-84161310D01*
X182085000Y-83945750D01*
X181926250Y-83787000D01*
X181177000Y-83787000D01*
X181177000Y-83807000D01*
X180923000Y-83807000D01*
X180923000Y-83787000D01*
X180903000Y-83787000D01*
X180903000Y-83533000D01*
X180923000Y-83533000D01*
X180923000Y-83513000D01*
X181177000Y-83513000D01*
X181177000Y-83533000D01*
X181926250Y-83533000D01*
X182085000Y-83374250D01*
X182085000Y-83210000D01*
X183040000Y-83210000D01*
X183040000Y-93526478D01*
G36*
X172457000Y-83463000D02*
X173863000Y-83463000D01*
X173863000Y-83443000D01*
X174117000Y-83443000D01*
X174117000Y-83463000D01*
X174137000Y-83463000D01*
X174137000Y-83717000D01*
X174117000Y-83717000D01*
X174117000Y-84441250D01*
X174275750Y-84600000D01*
X174516309Y-84600000D01*
X174749698Y-84503327D01*
X174894871Y-84358155D01*
X174917445Y-84373579D01*
X175090000Y-84408522D01*
X175890000Y-84408522D01*
X176051201Y-84378190D01*
X176094028Y-84350632D01*
X176392500Y-84649104D01*
X176392500Y-84979451D01*
X176227500Y-84946631D01*
X176027500Y-84986413D01*
X175827500Y-84946631D01*
X175627500Y-84986413D01*
X175427500Y-84946631D01*
X175227500Y-84986413D01*
X175027500Y-84946631D01*
X174827500Y-84986413D01*
X174627500Y-84946631D01*
X174422764Y-84987355D01*
X174249198Y-85103329D01*
X174133224Y-85276895D01*
X174092500Y-85481631D01*
X174092500Y-85859475D01*
X174014474Y-85937500D01*
X173636631Y-85937500D01*
X173431895Y-85978224D01*
X173301773Y-86065169D01*
X171836604Y-84600000D01*
X172044250Y-84600000D01*
X172203000Y-84441250D01*
X172203000Y-83717000D01*
X172457000Y-83717000D01*
X172457000Y-84441250D01*
X172615750Y-84600000D01*
X172856309Y-84600000D01*
X173089698Y-84503327D01*
X173160000Y-84433025D01*
X173230302Y-84503327D01*
X173463691Y-84600000D01*
X173704250Y-84600000D01*
X173863000Y-84441250D01*
X173863000Y-83717000D01*
X172457000Y-83717000D01*
X172203000Y-83717000D01*
X172183000Y-83717000D01*
X172183000Y-83463000D01*
X172203000Y-83463000D01*
X172203000Y-83443000D01*
X172457000Y-83443000D01*
X172457000Y-83463000D01*
X172457000Y-83463000D01*
G37*
X172457000Y-83463000D02*
X173863000Y-83463000D01*
X173863000Y-83443000D01*
X174117000Y-83443000D01*
X174117000Y-83463000D01*
X174137000Y-83463000D01*
X174137000Y-83717000D01*
X174117000Y-83717000D01*
X174117000Y-84441250D01*
X174275750Y-84600000D01*
X174516309Y-84600000D01*
X174749698Y-84503327D01*
X174894871Y-84358155D01*
X174917445Y-84373579D01*
X175090000Y-84408522D01*
X175890000Y-84408522D01*
X176051201Y-84378190D01*
X176094028Y-84350632D01*
X176392500Y-84649104D01*
X176392500Y-84979451D01*
X176227500Y-84946631D01*
X176027500Y-84986413D01*
X175827500Y-84946631D01*
X175627500Y-84986413D01*
X175427500Y-84946631D01*
X175227500Y-84986413D01*
X175027500Y-84946631D01*
X174827500Y-84986413D01*
X174627500Y-84946631D01*
X174422764Y-84987355D01*
X174249198Y-85103329D01*
X174133224Y-85276895D01*
X174092500Y-85481631D01*
X174092500Y-85859475D01*
X174014474Y-85937500D01*
X173636631Y-85937500D01*
X173431895Y-85978224D01*
X173301773Y-86065169D01*
X171836604Y-84600000D01*
X172044250Y-84600000D01*
X172203000Y-84441250D01*
X172203000Y-83717000D01*
X172457000Y-83717000D01*
X172457000Y-84441250D01*
X172615750Y-84600000D01*
X172856309Y-84600000D01*
X173089698Y-84503327D01*
X173160000Y-84433025D01*
X173230302Y-84503327D01*
X173463691Y-84600000D01*
X173704250Y-84600000D01*
X173863000Y-84441250D01*
X173863000Y-83717000D01*
X172457000Y-83717000D01*
X172203000Y-83717000D01*
X172183000Y-83717000D01*
X172183000Y-83463000D01*
X172203000Y-83463000D01*
X172203000Y-83443000D01*
X172457000Y-83443000D01*
X172457000Y-83463000D01*
M02*
