G04 #@! TF.FileFunction,Legend,Bot*
%FSLAX46Y46*%
G04 Gerber Fmt 4.6, Leading zero omitted, Abs format (unit mm)*
G04 Created by KiCad (PCBNEW 4.0.7-e0-6372~58~ubuntu16.10.1) date Sun Jan  7 20:34:22 2018*
%MOMM*%
%LPD*%
G01*
G04 APERTURE LIST*
%ADD10C,0.100000*%
%ADD11C,0.300000*%
%ADD12C,0.120000*%
%ADD13C,0.150000*%
G04 APERTURE END LIST*
D10*
D11*
X139815714Y-101212857D02*
X139601428Y-101284286D01*
X139530000Y-101355714D01*
X139458571Y-101498571D01*
X139458571Y-101712857D01*
X139530000Y-101855714D01*
X139601428Y-101927143D01*
X139744286Y-101998571D01*
X140315714Y-101998571D01*
X140315714Y-100498571D01*
X139815714Y-100498571D01*
X139672857Y-100570000D01*
X139601428Y-100641429D01*
X139530000Y-100784286D01*
X139530000Y-100927143D01*
X139601428Y-101070000D01*
X139672857Y-101141429D01*
X139815714Y-101212857D01*
X140315714Y-101212857D01*
X138887143Y-101570000D02*
X138172857Y-101570000D01*
X139030000Y-101998571D02*
X138530000Y-100498571D01*
X138030000Y-101998571D01*
X137744286Y-100498571D02*
X136887143Y-100498571D01*
X137315714Y-101998571D02*
X137315714Y-100498571D01*
X136387143Y-101427143D02*
X135244286Y-101427143D01*
X135815715Y-101998571D02*
X135815715Y-100855714D01*
X139505714Y-88522857D02*
X139291428Y-88594286D01*
X139220000Y-88665714D01*
X139148571Y-88808571D01*
X139148571Y-89022857D01*
X139220000Y-89165714D01*
X139291428Y-89237143D01*
X139434286Y-89308571D01*
X140005714Y-89308571D01*
X140005714Y-87808571D01*
X139505714Y-87808571D01*
X139362857Y-87880000D01*
X139291428Y-87951429D01*
X139220000Y-88094286D01*
X139220000Y-88237143D01*
X139291428Y-88380000D01*
X139362857Y-88451429D01*
X139505714Y-88522857D01*
X140005714Y-88522857D01*
X138577143Y-88880000D02*
X137862857Y-88880000D01*
X138720000Y-89308571D02*
X138220000Y-87808571D01*
X137720000Y-89308571D01*
X137434286Y-87808571D02*
X136577143Y-87808571D01*
X137005714Y-89308571D02*
X137005714Y-87808571D01*
X136077143Y-88737143D02*
X134934286Y-88737143D01*
D12*
X183614000Y-82549500D02*
X183614000Y-107349500D01*
X130414000Y-82549500D02*
X183614000Y-82549500D01*
X130414000Y-107349500D02*
X130414000Y-82549500D01*
X183614000Y-107349500D02*
X130414000Y-107349500D01*
X147084000Y-86059500D02*
X147084000Y-91139500D01*
X147084000Y-91139500D02*
X164864000Y-91139500D01*
X164864000Y-91139500D02*
X164864000Y-89869500D01*
X164864000Y-89869500D02*
X166134000Y-89869500D01*
X166134000Y-89869500D02*
X166134000Y-87329500D01*
X166134000Y-87329500D02*
X164864000Y-87329500D01*
X164864000Y-87329500D02*
X164864000Y-86059500D01*
X164864000Y-86059500D02*
X147084000Y-86059500D01*
X166134000Y-102569500D02*
X166134000Y-98759500D01*
X166134000Y-98759500D02*
X148354000Y-98759500D01*
X148354000Y-98759500D02*
X148354000Y-100029500D01*
X148354000Y-100029500D02*
X147084000Y-100029500D01*
X147084000Y-100029500D02*
X147084000Y-102569500D01*
X147084000Y-102569500D02*
X148354000Y-102569500D01*
X148354000Y-102569500D02*
X148354000Y-103839500D01*
X148354000Y-103839500D02*
X166134000Y-103839500D01*
X166134000Y-103839500D02*
X166134000Y-102569500D01*
X131844000Y-95203500D02*
X154704000Y-95203500D01*
X154704000Y-95203500D02*
X154704000Y-94695500D01*
X154704000Y-94695500D02*
X131844000Y-94695500D01*
X181374000Y-95203500D02*
X158514000Y-95203500D01*
X158514000Y-95203500D02*
X158514000Y-94695500D01*
X158514000Y-94695500D02*
X181374000Y-94695500D01*
X147084000Y-84789500D02*
X147084000Y-83519500D01*
X147084000Y-83519500D02*
X166134000Y-83519500D01*
X166134000Y-83519500D02*
X166134000Y-84789500D01*
X178834000Y-105109500D02*
X166134000Y-105109500D01*
X166134000Y-105109500D02*
X166134000Y-106379500D01*
X166134000Y-106379500D02*
X147084000Y-106379500D01*
X147084000Y-106379500D02*
X147084000Y-105109500D01*
X178834000Y-84789500D02*
X166134000Y-84789500D01*
X134384000Y-105109500D02*
X147084000Y-105109500D01*
X134384000Y-105109500D02*
X134384000Y-106379500D01*
X134384000Y-106379500D02*
X131844000Y-106379500D01*
X131844000Y-106379500D02*
X131844000Y-83519500D01*
X131844000Y-83519500D02*
X134384000Y-83519500D01*
X134384000Y-83519500D02*
X134384000Y-84789500D01*
X134384000Y-84789500D02*
X147084000Y-84789500D01*
X181374000Y-106379500D02*
X178834000Y-106379500D01*
X178834000Y-106379500D02*
X178834000Y-105109500D01*
X181374000Y-106379500D02*
X181374000Y-83519500D01*
X181374000Y-83519500D02*
X178834000Y-83519500D01*
X178834000Y-83519500D02*
X178834000Y-84789500D01*
X133664000Y-108249500D02*
X133564000Y-108282833D01*
X133530667Y-108316167D01*
X133497333Y-108382833D01*
X133497333Y-108482833D01*
X133530667Y-108549500D01*
X133564000Y-108582833D01*
X133630667Y-108616167D01*
X133897333Y-108616167D01*
X133897333Y-107916167D01*
X133664000Y-107916167D01*
X133597333Y-107949500D01*
X133564000Y-107982833D01*
X133530667Y-108049500D01*
X133530667Y-108116167D01*
X133564000Y-108182833D01*
X133597333Y-108216167D01*
X133664000Y-108249500D01*
X133897333Y-108249500D01*
X133297333Y-107916167D02*
X132897333Y-107916167D01*
X133097333Y-108616167D02*
X133097333Y-107916167D01*
X132297334Y-108616167D02*
X132697334Y-108616167D01*
X132497334Y-108616167D02*
X132497334Y-107916167D01*
X132564000Y-108016167D01*
X132630667Y-108082833D01*
X132697334Y-108116167D01*
D13*
X167975428Y-101406643D02*
X166832571Y-101406643D01*
X146385428Y-101406643D02*
X145242571Y-101406643D01*
X145814000Y-101978071D02*
X145814000Y-100835214D01*
X167975428Y-88706643D02*
X166832571Y-88706643D01*
X167404000Y-89278071D02*
X167404000Y-88135214D01*
X146385428Y-88706643D02*
X145242571Y-88706643D01*
X129875428Y-101406643D02*
X128732571Y-101406643D01*
X129304000Y-101978071D02*
X129304000Y-100835214D01*
X129875428Y-88706643D02*
X128732571Y-88706643D01*
M02*
